<?xml version="1.0" encoding="utf-8" standalone="no"?>
<!DOCTYPE svg PUBLIC "-//W3C//DTD SVG 1.1//EN"
  "http://www.w3.org/Graphics/SVG/1.1/DTD/svg11.dtd">
<svg xmlns:xlink="http://www.w3.org/1999/xlink" width="864pt" height="360pt" viewBox="0 0 864 360" xmlns="http://www.w3.org/2000/svg" version="1.1">
 <metadata>
  <rdf:RDF xmlns:dc="http://purl.org/dc/elements/1.1/" xmlns:cc="http://creativecommons.org/ns#" xmlns:rdf="http://www.w3.org/1999/02/22-rdf-syntax-ns#">
   <cc:Work>
    <dc:type rdf:resource="http://purl.org/dc/dcmitype/StillImage"/>
    <dc:date>2022-06-16T15:15:14.849367</dc:date>
    <dc:format>image/svg+xml</dc:format>
    <dc:creator>
     <cc:Agent>
      <dc:title>Matplotlib v3.5.1, https://matplotlib.org/</dc:title>
     </cc:Agent>
    </dc:creator>
   </cc:Work>
  </rdf:RDF>
 </metadata>
 <defs>
  <style type="text/css">*{stroke-linejoin: round; stroke-linecap: butt}</style>
 </defs>
 <g id="figure_1">
  <g id="patch_1">
   <path d="M 0 360 
L 864 360 
L 864 0 
L 0 0 
L 0 360 
z
" style="fill: none"/>
  </g>
  <g id="axes_1">
   <g id="patch_2">
    <path d="M 75.485 293.64 
L 429.217211 293.64 
L 429.217211 39.36 
L 75.485 39.36 
z
" style="fill: #ffffff"/>
   </g>
   <g id="PolyCollection_1">
    <defs>
     <path id="mcc28abe222" d="M 91.563737 -82.83886 
L 91.563737 -84.364804 
L 127.294263 -112.02243 
L 163.02479 -138.499539 
L 198.755316 -166.107752 
L 234.485842 -185.987798 
L 270.216369 -215.861311 
L 305.946895 -233.570072 
L 341.677421 -258.203397 
L 377.407948 -278.807716 
L 413.138474 -300.914302 
L 413.138474 -298.515424 
L 413.138474 -298.515424 
L 377.407948 -274.955349 
L 341.677421 -253.547034 
L 305.946895 -228.404963 
L 270.216369 -210.464657 
L 234.485842 -180.567722 
L 198.755316 -161.001304 
L 163.02479 -134.071528 
L 127.294263 -108.70974 
L 91.563737 -82.83886 
z
" style="stroke: #008000; stroke-opacity: 0.2"/>
    </defs>
    <g clip-path="url(#pe02b9cfb7d)">
     <use xlink:href="#mcc28abe222" x="0" y="360" style="fill: #008000; fill-opacity: 0.2; stroke: #008000; stroke-opacity: 0.2"/>
    </g>
   </g>
   <g id="PolyCollection_2">
    <defs>
     <path id="m27ce5aafd5" d="M 91.563737 -77.691643 
L 91.563737 -81.141066 
L 127.294263 -103.269201 
L 163.02479 -131.105581 
L 198.755316 -157.388123 
L 234.485842 -186.349846 
L 270.216369 -211.714032 
L 305.946895 -235.497919 
L 341.677421 -255.318318 
L 377.407948 -278.618006 
L 413.138474 -301.783377 
L 413.138474 -284.266402 
L 413.138474 -284.266402 
L 377.407948 -261.57366 
L 341.677421 -237.852956 
L 305.946895 -217.564928 
L 270.216369 -193.90853 
L 234.485842 -170.280203 
L 198.755316 -143.417967 
L 163.02479 -119.944847 
L 127.294263 -95.541306 
L 91.563737 -77.691643 
z
" style="stroke: #0000ff; stroke-opacity: 0.2"/>
    </defs>
    <g clip-path="url(#pe02b9cfb7d)">
     <use xlink:href="#m27ce5aafd5" x="0" y="360" style="fill: #0000ff; fill-opacity: 0.2; stroke: #0000ff; stroke-opacity: 0.2"/>
    </g>
   </g>
   <g id="PolyCollection_3">
    <defs>
     <path id="m55e60877d7" d="M 91.563737 -79.592463 
L 91.563737 -83.796714 
L 127.294263 -114.661727 
L 163.02479 -142.078577 
L 198.755316 -169.323719 
L 234.485842 -199.818122 
L 270.216369 -227.068284 
L 305.946895 -251.802392 
L 341.677421 -274.534956 
L 377.407948 -291.29504 
L 413.138474 -304.324508 
L 413.138474 -299.305423 
L 413.138474 -299.305423 
L 377.407948 -282.863545 
L 341.677421 -263.007173 
L 305.946895 -238.406708 
L 270.216369 -212.315413 
L 234.485842 -185.343399 
L 198.755316 -155.251317 
L 163.02479 -130.11848 
L 127.294263 -105.497041 
L 91.563737 -79.592463 
z
" style="stroke: #ff0000; stroke-opacity: 0.2"/>
    </defs>
    <g clip-path="url(#pe02b9cfb7d)">
     <use xlink:href="#m55e60877d7" x="0" y="360" style="fill: #ff0000; fill-opacity: 0.2; stroke: #ff0000; stroke-opacity: 0.2"/>
    </g>
   </g>
   <g id="matplotlib.axis_1">
    <g id="xtick_1">
     <g id="line2d_1">
      <defs>
       <path id="m094b82abc7" d="M 0 0 
L 0 3.5 
" style="stroke: #000000; stroke-width: 0.8"/>
      </defs>
      <g>
       <use xlink:href="#m094b82abc7" x="91.563737" y="293.64" style="stroke: #000000; stroke-width: 0.8"/>
      </g>
     </g>
     <g id="text_1">
      <!-- 0.0 -->
      <g transform="translate(78.046081 313.557344)scale(0.17 -0.17)">
       <defs>
        <path id="DejaVuSans-30" d="M 2034 4250 
Q 1547 4250 1301 3770 
Q 1056 3291 1056 2328 
Q 1056 1369 1301 889 
Q 1547 409 2034 409 
Q 2525 409 2770 889 
Q 3016 1369 3016 2328 
Q 3016 3291 2770 3770 
Q 2525 4250 2034 4250 
z
M 2034 4750 
Q 2819 4750 3233 4129 
Q 3647 3509 3647 2328 
Q 3647 1150 3233 529 
Q 2819 -91 2034 -91 
Q 1250 -91 836 529 
Q 422 1150 422 2328 
Q 422 3509 836 4129 
Q 1250 4750 2034 4750 
z
" transform="scale(0.015625)"/>
        <path id="DejaVuSans-2e" d="M 684 794 
L 1344 794 
L 1344 0 
L 684 0 
L 684 794 
z
" transform="scale(0.015625)"/>
       </defs>
       <use xlink:href="#DejaVuSans-30"/>
       <use xlink:href="#DejaVuSans-2e" x="63.623047"/>
       <use xlink:href="#DejaVuSans-30" x="95.410156"/>
      </g>
     </g>
    </g>
    <g id="xtick_2">
     <g id="line2d_2">
      <g>
       <use xlink:href="#m094b82abc7" x="155.878684" y="293.64" style="stroke: #000000; stroke-width: 0.8"/>
      </g>
     </g>
     <g id="text_2">
      <!-- 0.2 -->
      <g transform="translate(142.361028 313.557344)scale(0.17 -0.17)">
       <defs>
        <path id="DejaVuSans-32" d="M 1228 531 
L 3431 531 
L 3431 0 
L 469 0 
L 469 531 
Q 828 903 1448 1529 
Q 2069 2156 2228 2338 
Q 2531 2678 2651 2914 
Q 2772 3150 2772 3378 
Q 2772 3750 2511 3984 
Q 2250 4219 1831 4219 
Q 1534 4219 1204 4116 
Q 875 4013 500 3803 
L 500 4441 
Q 881 4594 1212 4672 
Q 1544 4750 1819 4750 
Q 2544 4750 2975 4387 
Q 3406 4025 3406 3419 
Q 3406 3131 3298 2873 
Q 3191 2616 2906 2266 
Q 2828 2175 2409 1742 
Q 1991 1309 1228 531 
z
" transform="scale(0.015625)"/>
       </defs>
       <use xlink:href="#DejaVuSans-30"/>
       <use xlink:href="#DejaVuSans-2e" x="63.623047"/>
       <use xlink:href="#DejaVuSans-32" x="95.410156"/>
      </g>
     </g>
    </g>
    <g id="xtick_3">
     <g id="line2d_3">
      <g>
       <use xlink:href="#m094b82abc7" x="220.193632" y="293.64" style="stroke: #000000; stroke-width: 0.8"/>
      </g>
     </g>
     <g id="text_3">
      <!-- 0.4 -->
      <g transform="translate(206.675975 313.557344)scale(0.17 -0.17)">
       <defs>
        <path id="DejaVuSans-34" d="M 2419 4116 
L 825 1625 
L 2419 1625 
L 2419 4116 
z
M 2253 4666 
L 3047 4666 
L 3047 1625 
L 3713 1625 
L 3713 1100 
L 3047 1100 
L 3047 0 
L 2419 0 
L 2419 1100 
L 313 1100 
L 313 1709 
L 2253 4666 
z
" transform="scale(0.015625)"/>
       </defs>
       <use xlink:href="#DejaVuSans-30"/>
       <use xlink:href="#DejaVuSans-2e" x="63.623047"/>
       <use xlink:href="#DejaVuSans-34" x="95.410156"/>
      </g>
     </g>
    </g>
    <g id="xtick_4">
     <g id="line2d_4">
      <g>
       <use xlink:href="#m094b82abc7" x="284.508579" y="293.64" style="stroke: #000000; stroke-width: 0.8"/>
      </g>
     </g>
     <g id="text_4">
      <!-- 0.6 -->
      <g transform="translate(270.990923 313.557344)scale(0.17 -0.17)">
       <defs>
        <path id="DejaVuSans-36" d="M 2113 2584 
Q 1688 2584 1439 2293 
Q 1191 2003 1191 1497 
Q 1191 994 1439 701 
Q 1688 409 2113 409 
Q 2538 409 2786 701 
Q 3034 994 3034 1497 
Q 3034 2003 2786 2293 
Q 2538 2584 2113 2584 
z
M 3366 4563 
L 3366 3988 
Q 3128 4100 2886 4159 
Q 2644 4219 2406 4219 
Q 1781 4219 1451 3797 
Q 1122 3375 1075 2522 
Q 1259 2794 1537 2939 
Q 1816 3084 2150 3084 
Q 2853 3084 3261 2657 
Q 3669 2231 3669 1497 
Q 3669 778 3244 343 
Q 2819 -91 2113 -91 
Q 1303 -91 875 529 
Q 447 1150 447 2328 
Q 447 3434 972 4092 
Q 1497 4750 2381 4750 
Q 2619 4750 2861 4703 
Q 3103 4656 3366 4563 
z
" transform="scale(0.015625)"/>
       </defs>
       <use xlink:href="#DejaVuSans-30"/>
       <use xlink:href="#DejaVuSans-2e" x="63.623047"/>
       <use xlink:href="#DejaVuSans-36" x="95.410156"/>
      </g>
     </g>
    </g>
    <g id="xtick_5">
     <g id="line2d_5">
      <g>
       <use xlink:href="#m094b82abc7" x="348.823526" y="293.64" style="stroke: #000000; stroke-width: 0.8"/>
      </g>
     </g>
     <g id="text_5">
      <!-- 0.8 -->
      <g transform="translate(335.30587 313.557344)scale(0.17 -0.17)">
       <defs>
        <path id="DejaVuSans-38" d="M 2034 2216 
Q 1584 2216 1326 1975 
Q 1069 1734 1069 1313 
Q 1069 891 1326 650 
Q 1584 409 2034 409 
Q 2484 409 2743 651 
Q 3003 894 3003 1313 
Q 3003 1734 2745 1975 
Q 2488 2216 2034 2216 
z
M 1403 2484 
Q 997 2584 770 2862 
Q 544 3141 544 3541 
Q 544 4100 942 4425 
Q 1341 4750 2034 4750 
Q 2731 4750 3128 4425 
Q 3525 4100 3525 3541 
Q 3525 3141 3298 2862 
Q 3072 2584 2669 2484 
Q 3125 2378 3379 2068 
Q 3634 1759 3634 1313 
Q 3634 634 3220 271 
Q 2806 -91 2034 -91 
Q 1263 -91 848 271 
Q 434 634 434 1313 
Q 434 1759 690 2068 
Q 947 2378 1403 2484 
z
M 1172 3481 
Q 1172 3119 1398 2916 
Q 1625 2713 2034 2713 
Q 2441 2713 2670 2916 
Q 2900 3119 2900 3481 
Q 2900 3844 2670 4047 
Q 2441 4250 2034 4250 
Q 1625 4250 1398 4047 
Q 1172 3844 1172 3481 
z
" transform="scale(0.015625)"/>
       </defs>
       <use xlink:href="#DejaVuSans-30"/>
       <use xlink:href="#DejaVuSans-2e" x="63.623047"/>
       <use xlink:href="#DejaVuSans-38" x="95.410156"/>
      </g>
     </g>
    </g>
    <g id="xtick_6">
     <g id="line2d_6">
      <g>
       <use xlink:href="#m094b82abc7" x="413.138474" y="293.64" style="stroke: #000000; stroke-width: 0.8"/>
      </g>
     </g>
     <g id="text_6">
      <!-- 1.0 -->
      <g transform="translate(399.620818 313.557344)scale(0.17 -0.17)">
       <defs>
        <path id="DejaVuSans-31" d="M 794 531 
L 1825 531 
L 1825 4091 
L 703 3866 
L 703 4441 
L 1819 4666 
L 2450 4666 
L 2450 531 
L 3481 531 
L 3481 0 
L 794 0 
L 794 531 
z
" transform="scale(0.015625)"/>
       </defs>
       <use xlink:href="#DejaVuSans-31"/>
       <use xlink:href="#DejaVuSans-2e" x="63.623047"/>
       <use xlink:href="#DejaVuSans-30" x="95.410156"/>
      </g>
     </g>
    </g>
    <g id="text_7">
     <!-- Score value -->
     <g transform="translate(192.682699 336.593625)scale(0.204 -0.204)">
      <defs>
       <path id="DejaVuSans-53" d="M 3425 4513 
L 3425 3897 
Q 3066 4069 2747 4153 
Q 2428 4238 2131 4238 
Q 1616 4238 1336 4038 
Q 1056 3838 1056 3469 
Q 1056 3159 1242 3001 
Q 1428 2844 1947 2747 
L 2328 2669 
Q 3034 2534 3370 2195 
Q 3706 1856 3706 1288 
Q 3706 609 3251 259 
Q 2797 -91 1919 -91 
Q 1588 -91 1214 -16 
Q 841 59 441 206 
L 441 856 
Q 825 641 1194 531 
Q 1563 422 1919 422 
Q 2459 422 2753 634 
Q 3047 847 3047 1241 
Q 3047 1584 2836 1778 
Q 2625 1972 2144 2069 
L 1759 2144 
Q 1053 2284 737 2584 
Q 422 2884 422 3419 
Q 422 4038 858 4394 
Q 1294 4750 2059 4750 
Q 2388 4750 2728 4690 
Q 3069 4631 3425 4513 
z
" transform="scale(0.015625)"/>
       <path id="DejaVuSans-63" d="M 3122 3366 
L 3122 2828 
Q 2878 2963 2633 3030 
Q 2388 3097 2138 3097 
Q 1578 3097 1268 2742 
Q 959 2388 959 1747 
Q 959 1106 1268 751 
Q 1578 397 2138 397 
Q 2388 397 2633 464 
Q 2878 531 3122 666 
L 3122 134 
Q 2881 22 2623 -34 
Q 2366 -91 2075 -91 
Q 1284 -91 818 406 
Q 353 903 353 1747 
Q 353 2603 823 3093 
Q 1294 3584 2113 3584 
Q 2378 3584 2631 3529 
Q 2884 3475 3122 3366 
z
" transform="scale(0.015625)"/>
       <path id="DejaVuSans-6f" d="M 1959 3097 
Q 1497 3097 1228 2736 
Q 959 2375 959 1747 
Q 959 1119 1226 758 
Q 1494 397 1959 397 
Q 2419 397 2687 759 
Q 2956 1122 2956 1747 
Q 2956 2369 2687 2733 
Q 2419 3097 1959 3097 
z
M 1959 3584 
Q 2709 3584 3137 3096 
Q 3566 2609 3566 1747 
Q 3566 888 3137 398 
Q 2709 -91 1959 -91 
Q 1206 -91 779 398 
Q 353 888 353 1747 
Q 353 2609 779 3096 
Q 1206 3584 1959 3584 
z
" transform="scale(0.015625)"/>
       <path id="DejaVuSans-72" d="M 2631 2963 
Q 2534 3019 2420 3045 
Q 2306 3072 2169 3072 
Q 1681 3072 1420 2755 
Q 1159 2438 1159 1844 
L 1159 0 
L 581 0 
L 581 3500 
L 1159 3500 
L 1159 2956 
Q 1341 3275 1631 3429 
Q 1922 3584 2338 3584 
Q 2397 3584 2469 3576 
Q 2541 3569 2628 3553 
L 2631 2963 
z
" transform="scale(0.015625)"/>
       <path id="DejaVuSans-65" d="M 3597 1894 
L 3597 1613 
L 953 1613 
Q 991 1019 1311 708 
Q 1631 397 2203 397 
Q 2534 397 2845 478 
Q 3156 559 3463 722 
L 3463 178 
Q 3153 47 2828 -22 
Q 2503 -91 2169 -91 
Q 1331 -91 842 396 
Q 353 884 353 1716 
Q 353 2575 817 3079 
Q 1281 3584 2069 3584 
Q 2775 3584 3186 3129 
Q 3597 2675 3597 1894 
z
M 3022 2063 
Q 3016 2534 2758 2815 
Q 2500 3097 2075 3097 
Q 1594 3097 1305 2825 
Q 1016 2553 972 2059 
L 3022 2063 
z
" transform="scale(0.015625)"/>
       <path id="DejaVuSans-20" transform="scale(0.015625)"/>
       <path id="DejaVuSans-76" d="M 191 3500 
L 800 3500 
L 1894 563 
L 2988 3500 
L 3597 3500 
L 2284 0 
L 1503 0 
L 191 3500 
z
" transform="scale(0.015625)"/>
       <path id="DejaVuSans-61" d="M 2194 1759 
Q 1497 1759 1228 1600 
Q 959 1441 959 1056 
Q 959 750 1161 570 
Q 1363 391 1709 391 
Q 2188 391 2477 730 
Q 2766 1069 2766 1631 
L 2766 1759 
L 2194 1759 
z
M 3341 1997 
L 3341 0 
L 2766 0 
L 2766 531 
Q 2569 213 2275 61 
Q 1981 -91 1556 -91 
Q 1019 -91 701 211 
Q 384 513 384 1019 
Q 384 1609 779 1909 
Q 1175 2209 1959 2209 
L 2766 2209 
L 2766 2266 
Q 2766 2663 2505 2880 
Q 2244 3097 1772 3097 
Q 1472 3097 1187 3025 
Q 903 2953 641 2809 
L 641 3341 
Q 956 3463 1253 3523 
Q 1550 3584 1831 3584 
Q 2591 3584 2966 3190 
Q 3341 2797 3341 1997 
z
" transform="scale(0.015625)"/>
       <path id="DejaVuSans-6c" d="M 603 4863 
L 1178 4863 
L 1178 0 
L 603 0 
L 603 4863 
z
" transform="scale(0.015625)"/>
       <path id="DejaVuSans-75" d="M 544 1381 
L 544 3500 
L 1119 3500 
L 1119 1403 
Q 1119 906 1312 657 
Q 1506 409 1894 409 
Q 2359 409 2629 706 
Q 2900 1003 2900 1516 
L 2900 3500 
L 3475 3500 
L 3475 0 
L 2900 0 
L 2900 538 
Q 2691 219 2414 64 
Q 2138 -91 1772 -91 
Q 1169 -91 856 284 
Q 544 659 544 1381 
z
M 1991 3584 
L 1991 3584 
z
" transform="scale(0.015625)"/>
      </defs>
      <use xlink:href="#DejaVuSans-53"/>
      <use xlink:href="#DejaVuSans-63" x="63.476562"/>
      <use xlink:href="#DejaVuSans-6f" x="118.457031"/>
      <use xlink:href="#DejaVuSans-72" x="179.638672"/>
      <use xlink:href="#DejaVuSans-65" x="218.501953"/>
      <use xlink:href="#DejaVuSans-20" x="280.025391"/>
      <use xlink:href="#DejaVuSans-76" x="311.8125"/>
      <use xlink:href="#DejaVuSans-61" x="370.992188"/>
      <use xlink:href="#DejaVuSans-6c" x="432.271484"/>
      <use xlink:href="#DejaVuSans-75" x="460.054688"/>
      <use xlink:href="#DejaVuSans-65" x="523.433594"/>
     </g>
    </g>
   </g>
   <g id="matplotlib.axis_2">
    <g id="ytick_1">
     <g id="line2d_7">
      <defs>
       <path id="m92af33ec8d" d="M 0 0 
L -3.5 0 
" style="stroke: #000000; stroke-width: 0.8"/>
      </defs>
      <g>
       <use xlink:href="#m92af33ec8d" x="75.485" y="291.144833" style="stroke: #000000; stroke-width: 0.8"/>
      </g>
     </g>
     <g id="text_8">
      <!-- 0.0 -->
      <g transform="translate(41.449688 297.603505)scale(0.17 -0.17)">
       <use xlink:href="#DejaVuSans-30"/>
       <use xlink:href="#DejaVuSans-2e" x="63.623047"/>
       <use xlink:href="#DejaVuSans-30" x="95.410156"/>
      </g>
     </g>
    </g>
    <g id="ytick_2">
     <g id="line2d_8">
      <g>
       <use xlink:href="#m92af33ec8d" x="75.485" y="240.787866" style="stroke: #000000; stroke-width: 0.8"/>
      </g>
     </g>
     <g id="text_9">
      <!-- 0.2 -->
      <g transform="translate(41.449688 247.246538)scale(0.17 -0.17)">
       <use xlink:href="#DejaVuSans-30"/>
       <use xlink:href="#DejaVuSans-2e" x="63.623047"/>
       <use xlink:href="#DejaVuSans-32" x="95.410156"/>
      </g>
     </g>
    </g>
    <g id="ytick_3">
     <g id="line2d_9">
      <g>
       <use xlink:href="#m92af33ec8d" x="75.485" y="190.4309" style="stroke: #000000; stroke-width: 0.8"/>
      </g>
     </g>
     <g id="text_10">
      <!-- 0.4 -->
      <g transform="translate(41.449688 196.889572)scale(0.17 -0.17)">
       <use xlink:href="#DejaVuSans-30"/>
       <use xlink:href="#DejaVuSans-2e" x="63.623047"/>
       <use xlink:href="#DejaVuSans-34" x="95.410156"/>
      </g>
     </g>
    </g>
    <g id="ytick_4">
     <g id="line2d_10">
      <g>
       <use xlink:href="#m92af33ec8d" x="75.485" y="140.073933" style="stroke: #000000; stroke-width: 0.8"/>
      </g>
     </g>
     <g id="text_11">
      <!-- 0.6 -->
      <g transform="translate(41.449688 146.532605)scale(0.17 -0.17)">
       <use xlink:href="#DejaVuSans-30"/>
       <use xlink:href="#DejaVuSans-2e" x="63.623047"/>
       <use xlink:href="#DejaVuSans-36" x="95.410156"/>
      </g>
     </g>
    </g>
    <g id="ytick_5">
     <g id="line2d_11">
      <g>
       <use xlink:href="#m92af33ec8d" x="75.485" y="89.716967" style="stroke: #000000; stroke-width: 0.8"/>
      </g>
     </g>
     <g id="text_12">
      <!-- 0.8 -->
      <g transform="translate(41.449688 96.175638)scale(0.17 -0.17)">
       <use xlink:href="#DejaVuSans-30"/>
       <use xlink:href="#DejaVuSans-2e" x="63.623047"/>
       <use xlink:href="#DejaVuSans-38" x="95.410156"/>
      </g>
     </g>
    </g>
    <g id="ytick_6">
     <g id="line2d_12">
      <g>
       <use xlink:href="#m92af33ec8d" x="75.485" y="39.36" style="stroke: #000000; stroke-width: 0.8"/>
      </g>
     </g>
     <g id="text_13">
      <!-- 1.0 -->
      <g transform="translate(41.449688 45.818672)scale(0.17 -0.17)">
       <use xlink:href="#DejaVuSans-31"/>
       <use xlink:href="#DejaVuSans-2e" x="63.623047"/>
       <use xlink:href="#DejaVuSans-30" x="95.410156"/>
      </g>
     </g>
    </g>
    <g id="text_14">
     <!-- Rate of positive outcomes -->
     <g transform="translate(33.207125 299.528719)rotate(-90)scale(0.204 -0.204)">
      <defs>
       <path id="DejaVuSans-52" d="M 2841 2188 
Q 3044 2119 3236 1894 
Q 3428 1669 3622 1275 
L 4263 0 
L 3584 0 
L 2988 1197 
Q 2756 1666 2539 1819 
Q 2322 1972 1947 1972 
L 1259 1972 
L 1259 0 
L 628 0 
L 628 4666 
L 2053 4666 
Q 2853 4666 3247 4331 
Q 3641 3997 3641 3322 
Q 3641 2881 3436 2590 
Q 3231 2300 2841 2188 
z
M 1259 4147 
L 1259 2491 
L 2053 2491 
Q 2509 2491 2742 2702 
Q 2975 2913 2975 3322 
Q 2975 3731 2742 3939 
Q 2509 4147 2053 4147 
L 1259 4147 
z
" transform="scale(0.015625)"/>
       <path id="DejaVuSans-74" d="M 1172 4494 
L 1172 3500 
L 2356 3500 
L 2356 3053 
L 1172 3053 
L 1172 1153 
Q 1172 725 1289 603 
Q 1406 481 1766 481 
L 2356 481 
L 2356 0 
L 1766 0 
Q 1100 0 847 248 
Q 594 497 594 1153 
L 594 3053 
L 172 3053 
L 172 3500 
L 594 3500 
L 594 4494 
L 1172 4494 
z
" transform="scale(0.015625)"/>
       <path id="DejaVuSans-66" d="M 2375 4863 
L 2375 4384 
L 1825 4384 
Q 1516 4384 1395 4259 
Q 1275 4134 1275 3809 
L 1275 3500 
L 2222 3500 
L 2222 3053 
L 1275 3053 
L 1275 0 
L 697 0 
L 697 3053 
L 147 3053 
L 147 3500 
L 697 3500 
L 697 3744 
Q 697 4328 969 4595 
Q 1241 4863 1831 4863 
L 2375 4863 
z
" transform="scale(0.015625)"/>
       <path id="DejaVuSans-70" d="M 1159 525 
L 1159 -1331 
L 581 -1331 
L 581 3500 
L 1159 3500 
L 1159 2969 
Q 1341 3281 1617 3432 
Q 1894 3584 2278 3584 
Q 2916 3584 3314 3078 
Q 3713 2572 3713 1747 
Q 3713 922 3314 415 
Q 2916 -91 2278 -91 
Q 1894 -91 1617 61 
Q 1341 213 1159 525 
z
M 3116 1747 
Q 3116 2381 2855 2742 
Q 2594 3103 2138 3103 
Q 1681 3103 1420 2742 
Q 1159 2381 1159 1747 
Q 1159 1113 1420 752 
Q 1681 391 2138 391 
Q 2594 391 2855 752 
Q 3116 1113 3116 1747 
z
" transform="scale(0.015625)"/>
       <path id="DejaVuSans-73" d="M 2834 3397 
L 2834 2853 
Q 2591 2978 2328 3040 
Q 2066 3103 1784 3103 
Q 1356 3103 1142 2972 
Q 928 2841 928 2578 
Q 928 2378 1081 2264 
Q 1234 2150 1697 2047 
L 1894 2003 
Q 2506 1872 2764 1633 
Q 3022 1394 3022 966 
Q 3022 478 2636 193 
Q 2250 -91 1575 -91 
Q 1294 -91 989 -36 
Q 684 19 347 128 
L 347 722 
Q 666 556 975 473 
Q 1284 391 1588 391 
Q 1994 391 2212 530 
Q 2431 669 2431 922 
Q 2431 1156 2273 1281 
Q 2116 1406 1581 1522 
L 1381 1569 
Q 847 1681 609 1914 
Q 372 2147 372 2553 
Q 372 3047 722 3315 
Q 1072 3584 1716 3584 
Q 2034 3584 2315 3537 
Q 2597 3491 2834 3397 
z
" transform="scale(0.015625)"/>
       <path id="DejaVuSans-69" d="M 603 3500 
L 1178 3500 
L 1178 0 
L 603 0 
L 603 3500 
z
M 603 4863 
L 1178 4863 
L 1178 4134 
L 603 4134 
L 603 4863 
z
" transform="scale(0.015625)"/>
       <path id="DejaVuSans-6d" d="M 3328 2828 
Q 3544 3216 3844 3400 
Q 4144 3584 4550 3584 
Q 5097 3584 5394 3201 
Q 5691 2819 5691 2113 
L 5691 0 
L 5113 0 
L 5113 2094 
Q 5113 2597 4934 2840 
Q 4756 3084 4391 3084 
Q 3944 3084 3684 2787 
Q 3425 2491 3425 1978 
L 3425 0 
L 2847 0 
L 2847 2094 
Q 2847 2600 2669 2842 
Q 2491 3084 2119 3084 
Q 1678 3084 1418 2786 
Q 1159 2488 1159 1978 
L 1159 0 
L 581 0 
L 581 3500 
L 1159 3500 
L 1159 2956 
Q 1356 3278 1631 3431 
Q 1906 3584 2284 3584 
Q 2666 3584 2933 3390 
Q 3200 3197 3328 2828 
z
" transform="scale(0.015625)"/>
      </defs>
      <use xlink:href="#DejaVuSans-52"/>
      <use xlink:href="#DejaVuSans-61" x="67.232422"/>
      <use xlink:href="#DejaVuSans-74" x="128.511719"/>
      <use xlink:href="#DejaVuSans-65" x="167.720703"/>
      <use xlink:href="#DejaVuSans-20" x="229.244141"/>
      <use xlink:href="#DejaVuSans-6f" x="261.03125"/>
      <use xlink:href="#DejaVuSans-66" x="322.212891"/>
      <use xlink:href="#DejaVuSans-20" x="357.417969"/>
      <use xlink:href="#DejaVuSans-70" x="389.205078"/>
      <use xlink:href="#DejaVuSans-6f" x="452.681641"/>
      <use xlink:href="#DejaVuSans-73" x="513.863281"/>
      <use xlink:href="#DejaVuSans-69" x="565.962891"/>
      <use xlink:href="#DejaVuSans-74" x="593.746094"/>
      <use xlink:href="#DejaVuSans-69" x="632.955078"/>
      <use xlink:href="#DejaVuSans-76" x="660.738281"/>
      <use xlink:href="#DejaVuSans-65" x="719.917969"/>
      <use xlink:href="#DejaVuSans-20" x="781.441406"/>
      <use xlink:href="#DejaVuSans-6f" x="813.228516"/>
      <use xlink:href="#DejaVuSans-75" x="874.410156"/>
      <use xlink:href="#DejaVuSans-74" x="937.789062"/>
      <use xlink:href="#DejaVuSans-63" x="976.998047"/>
      <use xlink:href="#DejaVuSans-6f" x="1031.978516"/>
      <use xlink:href="#DejaVuSans-6d" x="1093.160156"/>
      <use xlink:href="#DejaVuSans-65" x="1190.572266"/>
      <use xlink:href="#DejaVuSans-73" x="1252.095703"/>
     </g>
    </g>
   </g>
   <g id="line2d_13">
    <path d="M 91.563737 276.398168 
L 127.294263 249.633915 
L 163.02479 223.714466 
L 198.755316 196.445472 
L 234.485842 176.72224 
L 270.216369 146.837016 
L 305.946895 129.012483 
L 341.677421 104.124785 
L 377.407948 83.118467 
L 413.138474 60.285137 
" clip-path="url(#pe02b9cfb7d)" style="fill: none; stroke: #008000; stroke-width: 3; stroke-linecap: square"/>
    <defs>
     <path id="mbc9179ee7a" d="M 0 1.5 
C 0.397805 1.5 0.77937 1.341951 1.06066 1.06066 
C 1.341951 0.77937 1.5 0.397805 1.5 0 
C 1.5 -0.397805 1.341951 -0.77937 1.06066 -1.06066 
C 0.77937 -1.341951 0.397805 -1.5 0 -1.5 
C -0.397805 -1.5 -0.77937 -1.341951 -1.06066 -1.06066 
C -1.341951 -0.77937 -1.5 -0.397805 -1.5 0 
C -1.5 0.397805 -1.341951 0.77937 -1.06066 1.06066 
C -0.77937 1.341951 -0.397805 1.5 0 1.5 
z
" style="stroke: #008000"/>
    </defs>
    <g clip-path="url(#pe02b9cfb7d)">
     <use xlink:href="#mbc9179ee7a" x="91.563737" y="276.398168" style="fill: #008000; stroke: #008000"/>
     <use xlink:href="#mbc9179ee7a" x="127.294263" y="249.633915" style="fill: #008000; stroke: #008000"/>
     <use xlink:href="#mbc9179ee7a" x="163.02479" y="223.714466" style="fill: #008000; stroke: #008000"/>
     <use xlink:href="#mbc9179ee7a" x="198.755316" y="196.445472" style="fill: #008000; stroke: #008000"/>
     <use xlink:href="#mbc9179ee7a" x="234.485842" y="176.72224" style="fill: #008000; stroke: #008000"/>
     <use xlink:href="#mbc9179ee7a" x="270.216369" y="146.837016" style="fill: #008000; stroke: #008000"/>
     <use xlink:href="#mbc9179ee7a" x="305.946895" y="129.012483" style="fill: #008000; stroke: #008000"/>
     <use xlink:href="#mbc9179ee7a" x="341.677421" y="104.124785" style="fill: #008000; stroke: #008000"/>
     <use xlink:href="#mbc9179ee7a" x="377.407948" y="83.118467" style="fill: #008000; stroke: #008000"/>
     <use xlink:href="#mbc9179ee7a" x="413.138474" y="60.285137" style="fill: #008000; stroke: #008000"/>
    </g>
   </g>
   <g id="line2d_14">
    <path d="M 91.563737 280.583645 
L 127.294263 260.594747 
L 163.02479 234.474786 
L 198.755316 209.596955 
L 234.485842 181.684976 
L 270.216369 157.188719 
L 305.946895 133.468576 
L 341.677421 113.414363 
L 377.407948 89.904167 
L 413.138474 66.975111 
" clip-path="url(#pe02b9cfb7d)" style="fill: none; stroke-dasharray: 11.1,4.8; stroke-dashoffset: 0; stroke: #0000ff; stroke-width: 3"/>
    <defs>
     <path id="mce1c0f319e" d="M 0 1.5 
C 0.397805 1.5 0.77937 1.341951 1.06066 1.06066 
C 1.341951 0.77937 1.5 0.397805 1.5 0 
C 1.5 -0.397805 1.341951 -0.77937 1.06066 -1.06066 
C 0.77937 -1.341951 0.397805 -1.5 0 -1.5 
C -0.397805 -1.5 -0.77937 -1.341951 -1.06066 -1.06066 
C -1.341951 -0.77937 -1.5 -0.397805 -1.5 0 
C -1.5 0.397805 -1.341951 0.77937 -1.06066 1.06066 
C -0.77937 1.341951 -0.397805 1.5 0 1.5 
z
" style="stroke: #0000ff"/>
    </defs>
    <g clip-path="url(#pe02b9cfb7d)">
     <use xlink:href="#mce1c0f319e" x="91.563737" y="280.583645" style="fill: #0000ff; stroke: #0000ff"/>
     <use xlink:href="#mce1c0f319e" x="127.294263" y="260.594747" style="fill: #0000ff; stroke: #0000ff"/>
     <use xlink:href="#mce1c0f319e" x="163.02479" y="234.474786" style="fill: #0000ff; stroke: #0000ff"/>
     <use xlink:href="#mce1c0f319e" x="198.755316" y="209.596955" style="fill: #0000ff; stroke: #0000ff"/>
     <use xlink:href="#mce1c0f319e" x="234.485842" y="181.684976" style="fill: #0000ff; stroke: #0000ff"/>
     <use xlink:href="#mce1c0f319e" x="270.216369" y="157.188719" style="fill: #0000ff; stroke: #0000ff"/>
     <use xlink:href="#mce1c0f319e" x="305.946895" y="133.468576" style="fill: #0000ff; stroke: #0000ff"/>
     <use xlink:href="#mce1c0f319e" x="341.677421" y="113.414363" style="fill: #0000ff; stroke: #0000ff"/>
     <use xlink:href="#mce1c0f319e" x="377.407948" y="89.904167" style="fill: #0000ff; stroke: #0000ff"/>
     <use xlink:href="#mce1c0f319e" x="413.138474" y="66.975111" style="fill: #0000ff; stroke: #0000ff"/>
    </g>
   </g>
   <g id="line2d_15">
    <path d="M 91.563737 278.305411 
L 127.294263 249.920616 
L 163.02479 223.901472 
L 198.755316 197.712482 
L 234.485842 167.419239 
L 270.216369 140.308152 
L 305.946895 114.89545 
L 341.677421 91.228936 
L 377.407948 72.920707 
L 413.138474 58.185034 
" clip-path="url(#pe02b9cfb7d)" style="fill: none; stroke-dasharray: 19.2,4.8,3,4.8; stroke-dashoffset: 0; stroke: #ff0000; stroke-width: 3"/>
    <defs>
     <path id="mbf3e994f62" d="M 0 1.5 
C 0.397805 1.5 0.77937 1.341951 1.06066 1.06066 
C 1.341951 0.77937 1.5 0.397805 1.5 0 
C 1.5 -0.397805 1.341951 -0.77937 1.06066 -1.06066 
C 0.77937 -1.341951 0.397805 -1.5 0 -1.5 
C -0.397805 -1.5 -0.77937 -1.341951 -1.06066 -1.06066 
C -1.341951 -0.77937 -1.5 -0.397805 -1.5 0 
C -1.5 0.397805 -1.341951 0.77937 -1.06066 1.06066 
C -0.77937 1.341951 -0.397805 1.5 0 1.5 
z
" style="stroke: #ff0000"/>
    </defs>
    <g clip-path="url(#pe02b9cfb7d)">
     <use xlink:href="#mbf3e994f62" x="91.563737" y="278.305411" style="fill: #ff0000; stroke: #ff0000"/>
     <use xlink:href="#mbf3e994f62" x="127.294263" y="249.920616" style="fill: #ff0000; stroke: #ff0000"/>
     <use xlink:href="#mbf3e994f62" x="163.02479" y="223.901472" style="fill: #ff0000; stroke: #ff0000"/>
     <use xlink:href="#mbf3e994f62" x="198.755316" y="197.712482" style="fill: #ff0000; stroke: #ff0000"/>
     <use xlink:href="#mbf3e994f62" x="234.485842" y="167.419239" style="fill: #ff0000; stroke: #ff0000"/>
     <use xlink:href="#mbf3e994f62" x="270.216369" y="140.308152" style="fill: #ff0000; stroke: #ff0000"/>
     <use xlink:href="#mbf3e994f62" x="305.946895" y="114.89545" style="fill: #ff0000; stroke: #ff0000"/>
     <use xlink:href="#mbf3e994f62" x="341.677421" y="91.228936" style="fill: #ff0000; stroke: #ff0000"/>
     <use xlink:href="#mbf3e994f62" x="377.407948" y="72.920707" style="fill: #ff0000; stroke: #ff0000"/>
     <use xlink:href="#mbf3e994f62" x="413.138474" y="58.185034" style="fill: #ff0000; stroke: #ff0000"/>
    </g>
   </g>
   <g id="patch_3">
    <path d="M 75.485 293.64 
L 75.485 39.36 
" style="fill: none; stroke: #000000; stroke-width: 0.8; stroke-linejoin: miter; stroke-linecap: square"/>
   </g>
   <g id="patch_4">
    <path d="M 429.217211 293.64 
L 429.217211 39.36 
" style="fill: none; stroke: #000000; stroke-width: 0.8; stroke-linejoin: miter; stroke-linecap: square"/>
   </g>
   <g id="patch_5">
    <path d="M 75.485 293.64 
L 429.217211 293.64 
" style="fill: none; stroke: #000000; stroke-width: 0.8; stroke-linejoin: miter; stroke-linecap: square"/>
   </g>
   <g id="patch_6">
    <path d="M 75.485 39.36 
L 429.217211 39.36 
" style="fill: none; stroke: #000000; stroke-width: 0.8; stroke-linejoin: miter; stroke-linecap: square"/>
   </g>
   <g id="text_15">
    <!-- Calibration -->
    <g transform="translate(196.853543 33.36)scale(0.204 -0.204)">
     <defs>
      <path id="DejaVuSans-43" d="M 4122 4306 
L 4122 3641 
Q 3803 3938 3442 4084 
Q 3081 4231 2675 4231 
Q 1875 4231 1450 3742 
Q 1025 3253 1025 2328 
Q 1025 1406 1450 917 
Q 1875 428 2675 428 
Q 3081 428 3442 575 
Q 3803 722 4122 1019 
L 4122 359 
Q 3791 134 3420 21 
Q 3050 -91 2638 -91 
Q 1578 -91 968 557 
Q 359 1206 359 2328 
Q 359 3453 968 4101 
Q 1578 4750 2638 4750 
Q 3056 4750 3426 4639 
Q 3797 4528 4122 4306 
z
" transform="scale(0.015625)"/>
      <path id="DejaVuSans-62" d="M 3116 1747 
Q 3116 2381 2855 2742 
Q 2594 3103 2138 3103 
Q 1681 3103 1420 2742 
Q 1159 2381 1159 1747 
Q 1159 1113 1420 752 
Q 1681 391 2138 391 
Q 2594 391 2855 752 
Q 3116 1113 3116 1747 
z
M 1159 2969 
Q 1341 3281 1617 3432 
Q 1894 3584 2278 3584 
Q 2916 3584 3314 3078 
Q 3713 2572 3713 1747 
Q 3713 922 3314 415 
Q 2916 -91 2278 -91 
Q 1894 -91 1617 61 
Q 1341 213 1159 525 
L 1159 0 
L 581 0 
L 581 4863 
L 1159 4863 
L 1159 2969 
z
" transform="scale(0.015625)"/>
      <path id="DejaVuSans-6e" d="M 3513 2113 
L 3513 0 
L 2938 0 
L 2938 2094 
Q 2938 2591 2744 2837 
Q 2550 3084 2163 3084 
Q 1697 3084 1428 2787 
Q 1159 2491 1159 1978 
L 1159 0 
L 581 0 
L 581 3500 
L 1159 3500 
L 1159 2956 
Q 1366 3272 1645 3428 
Q 1925 3584 2291 3584 
Q 2894 3584 3203 3211 
Q 3513 2838 3513 2113 
z
" transform="scale(0.015625)"/>
     </defs>
     <use xlink:href="#DejaVuSans-43"/>
     <use xlink:href="#DejaVuSans-61" x="69.824219"/>
     <use xlink:href="#DejaVuSans-6c" x="131.103516"/>
     <use xlink:href="#DejaVuSans-69" x="158.886719"/>
     <use xlink:href="#DejaVuSans-62" x="186.669922"/>
     <use xlink:href="#DejaVuSans-72" x="250.146484"/>
     <use xlink:href="#DejaVuSans-61" x="291.259766"/>
     <use xlink:href="#DejaVuSans-74" x="352.539062"/>
     <use xlink:href="#DejaVuSans-69" x="391.748047"/>
     <use xlink:href="#DejaVuSans-6f" x="419.53125"/>
     <use xlink:href="#DejaVuSans-6e" x="480.712891"/>
    </g>
   </g>
   <g id="legend_1">
    <g id="patch_7">
     <path d="M 87.385 152.77125 
L 191.215156 152.77125 
Q 194.615156 152.77125 194.615156 149.37125 
L 194.615156 51.26 
Q 194.615156 47.86 191.215156 47.86 
L 87.385 47.86 
Q 83.985 47.86 83.985 51.26 
L 83.985 149.37125 
Q 83.985 152.77125 87.385 152.77125 
z
" style="fill: #ffffff; opacity: 0.8; stroke: #cccccc; stroke-linejoin: miter"/>
    </g>
    <g id="text_16">
     <!-- Race -->
     <g transform="translate(118.472422 67.577344)scale(0.17 -0.17)">
      <use xlink:href="#DejaVuSans-52"/>
      <use xlink:href="#DejaVuSans-61" x="67.232422"/>
      <use xlink:href="#DejaVuSans-63" x="128.511719"/>
      <use xlink:href="#DejaVuSans-65" x="183.492188"/>
     </g>
    </g>
    <g id="line2d_16">
     <path d="M 90.785 86.580156 
L 107.785 86.580156 
L 124.785 86.580156 
" style="fill: none; stroke: #008000; stroke-width: 3; stroke-linecap: square"/>
     <g>
      <use xlink:href="#mbc9179ee7a" x="107.785" y="86.580156" style="fill: #008000; stroke: #008000"/>
     </g>
    </g>
    <g id="text_17">
     <!-- White -->
     <g transform="translate(138.385 92.530156)scale(0.17 -0.17)">
      <defs>
       <path id="DejaVuSans-57" d="M 213 4666 
L 850 4666 
L 1831 722 
L 2809 4666 
L 3519 4666 
L 4500 722 
L 5478 4666 
L 6119 4666 
L 4947 0 
L 4153 0 
L 3169 4050 
L 2175 0 
L 1381 0 
L 213 4666 
z
" transform="scale(0.015625)"/>
       <path id="DejaVuSans-68" d="M 3513 2113 
L 3513 0 
L 2938 0 
L 2938 2094 
Q 2938 2591 2744 2837 
Q 2550 3084 2163 3084 
Q 1697 3084 1428 2787 
Q 1159 2491 1159 1978 
L 1159 0 
L 581 0 
L 581 4863 
L 1159 4863 
L 1159 2956 
Q 1366 3272 1645 3428 
Q 1925 3584 2291 3584 
Q 2894 3584 3203 3211 
Q 3513 2838 3513 2113 
z
" transform="scale(0.015625)"/>
      </defs>
      <use xlink:href="#DejaVuSans-57"/>
      <use xlink:href="#DejaVuSans-68" x="98.876953"/>
      <use xlink:href="#DejaVuSans-69" x="162.255859"/>
      <use xlink:href="#DejaVuSans-74" x="190.039062"/>
      <use xlink:href="#DejaVuSans-65" x="229.248047"/>
     </g>
    </g>
    <g id="line2d_17">
     <path d="M 90.785 111.532969 
L 107.785 111.532969 
L 124.785 111.532969 
" style="fill: none; stroke-dasharray: 11.1,4.8; stroke-dashoffset: 0; stroke: #0000ff; stroke-width: 3"/>
     <g>
      <use xlink:href="#mce1c0f319e" x="107.785" y="111.532969" style="fill: #0000ff; stroke: #0000ff"/>
     </g>
    </g>
    <g id="text_18">
     <!-- Black -->
     <g transform="translate(138.385 117.482969)scale(0.17 -0.17)">
      <defs>
       <path id="DejaVuSans-42" d="M 1259 2228 
L 1259 519 
L 2272 519 
Q 2781 519 3026 730 
Q 3272 941 3272 1375 
Q 3272 1813 3026 2020 
Q 2781 2228 2272 2228 
L 1259 2228 
z
M 1259 4147 
L 1259 2741 
L 2194 2741 
Q 2656 2741 2882 2914 
Q 3109 3088 3109 3444 
Q 3109 3797 2882 3972 
Q 2656 4147 2194 4147 
L 1259 4147 
z
M 628 4666 
L 2241 4666 
Q 2963 4666 3353 4366 
Q 3744 4066 3744 3513 
Q 3744 3084 3544 2831 
Q 3344 2578 2956 2516 
Q 3422 2416 3680 2098 
Q 3938 1781 3938 1306 
Q 3938 681 3513 340 
Q 3088 0 2303 0 
L 628 0 
L 628 4666 
z
" transform="scale(0.015625)"/>
       <path id="DejaVuSans-6b" d="M 581 4863 
L 1159 4863 
L 1159 1991 
L 2875 3500 
L 3609 3500 
L 1753 1863 
L 3688 0 
L 2938 0 
L 1159 1709 
L 1159 0 
L 581 0 
L 581 4863 
z
" transform="scale(0.015625)"/>
      </defs>
      <use xlink:href="#DejaVuSans-42"/>
      <use xlink:href="#DejaVuSans-6c" x="68.603516"/>
      <use xlink:href="#DejaVuSans-61" x="96.386719"/>
      <use xlink:href="#DejaVuSans-63" x="157.666016"/>
      <use xlink:href="#DejaVuSans-6b" x="212.646484"/>
     </g>
    </g>
    <g id="line2d_18">
     <path d="M 90.785 136.485781 
L 107.785 136.485781 
L 124.785 136.485781 
" style="fill: none; stroke-dasharray: 19.2,4.8,3,4.8; stroke-dashoffset: 0; stroke: #ff0000; stroke-width: 3"/>
     <g>
      <use xlink:href="#mbf3e994f62" x="107.785" y="136.485781" style="fill: #ff0000; stroke: #ff0000"/>
     </g>
    </g>
    <g id="text_19">
     <!-- Asian -->
     <g transform="translate(138.385 142.435781)scale(0.17 -0.17)">
      <defs>
       <path id="DejaVuSans-41" d="M 2188 4044 
L 1331 1722 
L 3047 1722 
L 2188 4044 
z
M 1831 4666 
L 2547 4666 
L 4325 0 
L 3669 0 
L 3244 1197 
L 1141 1197 
L 716 0 
L 50 0 
L 1831 4666 
z
" transform="scale(0.015625)"/>
      </defs>
      <use xlink:href="#DejaVuSans-41"/>
      <use xlink:href="#DejaVuSans-73" x="68.408203"/>
      <use xlink:href="#DejaVuSans-69" x="120.507812"/>
      <use xlink:href="#DejaVuSans-61" x="148.291016"/>
      <use xlink:href="#DejaVuSans-6e" x="209.570312"/>
     </g>
    </g>
   </g>
  </g>
  <g id="axes_2">
   <g id="patch_8">
    <path d="M 486.805 293.64 
L 840.537211 293.64 
L 840.537211 39.36 
L 486.805 39.36 
z
" style="fill: #ffffff"/>
   </g>
   <g id="PolyCollection_4">
    <defs>
     <path id="me5a4351e93" d="M 502.883737 -81.934961 
L 502.883737 -83.973216 
L 538.614263 -110.296185 
L 574.34479 -136.500945 
L 610.075316 -165.572832 
L 645.805842 -185.254615 
L 681.536369 -215.064825 
L 717.266895 -235.82072 
L 752.997421 -260.353778 
L 788.727948 -280.911124 
L 824.458474 -303.234639 
L 824.458474 -300.845219 
L 824.458474 -300.845219 
L 788.727948 -276.684313 
L 752.997421 -255.109415 
L 717.266895 -229.91973 
L 681.536369 -208.878421 
L 645.805842 -179.054565 
L 610.075316 -159.714521 
L 574.34479 -131.370049 
L 538.614263 -106.323902 
L 502.883737 -81.934961 
z
" style="stroke: #008000; stroke-opacity: 0.2"/>
    </defs>
    <g clip-path="url(#pa38733f242)">
     <use xlink:href="#me5a4351e93" x="0" y="360" style="fill: #008000; fill-opacity: 0.2; stroke: #008000; stroke-opacity: 0.2"/>
    </g>
   </g>
   <g id="PolyCollection_5">
    <defs>
     <path id="m2c2581d689" d="M 502.883737 -77.786335 
L 502.883737 -79.27816 
L 538.614263 -106.161575 
L 574.34479 -131.534542 
L 610.075316 -158.48681 
L 645.805842 -182.922356 
L 681.536369 -212.344673 
L 717.266895 -231.846036 
L 752.997421 -256.022958 
L 788.727948 -278.332059 
L 824.458474 -296.158098 
L 824.458474 -291.595226 
L 824.458474 -291.595226 
L 788.727948 -272.616144 
L 752.997421 -249.452896 
L 717.266895 -224.793323 
L 681.536369 -205.160349 
L 645.805842 -176.01131 
L 610.075316 -152.184501 
L 574.34479 -126.394125 
L 538.614263 -102.528762 
L 502.883737 -77.786335 
z
" style="stroke: #0000ff; stroke-opacity: 0.2"/>
    </defs>
    <g clip-path="url(#pa38733f242)">
     <use xlink:href="#m2c2581d689" x="0" y="360" style="fill: #0000ff; fill-opacity: 0.2; stroke: #0000ff; stroke-opacity: 0.2"/>
    </g>
   </g>
   <g id="matplotlib.axis_3">
    <g id="xtick_7">
     <g id="line2d_19">
      <g>
       <use xlink:href="#m094b82abc7" x="502.883737" y="293.64" style="stroke: #000000; stroke-width: 0.8"/>
      </g>
     </g>
     <g id="text_20">
      <!-- 0.0 -->
      <g transform="translate(489.366081 313.557344)scale(0.17 -0.17)">
       <use xlink:href="#DejaVuSans-30"/>
       <use xlink:href="#DejaVuSans-2e" x="63.623047"/>
       <use xlink:href="#DejaVuSans-30" x="95.410156"/>
      </g>
     </g>
    </g>
    <g id="xtick_8">
     <g id="line2d_20">
      <g>
       <use xlink:href="#m094b82abc7" x="567.198684" y="293.64" style="stroke: #000000; stroke-width: 0.8"/>
      </g>
     </g>
     <g id="text_21">
      <!-- 0.2 -->
      <g transform="translate(553.681028 313.557344)scale(0.17 -0.17)">
       <use xlink:href="#DejaVuSans-30"/>
       <use xlink:href="#DejaVuSans-2e" x="63.623047"/>
       <use xlink:href="#DejaVuSans-32" x="95.410156"/>
      </g>
     </g>
    </g>
    <g id="xtick_9">
     <g id="line2d_21">
      <g>
       <use xlink:href="#m094b82abc7" x="631.513632" y="293.64" style="stroke: #000000; stroke-width: 0.8"/>
      </g>
     </g>
     <g id="text_22">
      <!-- 0.4 -->
      <g transform="translate(617.995975 313.557344)scale(0.17 -0.17)">
       <use xlink:href="#DejaVuSans-30"/>
       <use xlink:href="#DejaVuSans-2e" x="63.623047"/>
       <use xlink:href="#DejaVuSans-34" x="95.410156"/>
      </g>
     </g>
    </g>
    <g id="xtick_10">
     <g id="line2d_22">
      <g>
       <use xlink:href="#m094b82abc7" x="695.828579" y="293.64" style="stroke: #000000; stroke-width: 0.8"/>
      </g>
     </g>
     <g id="text_23">
      <!-- 0.6 -->
      <g transform="translate(682.310923 313.557344)scale(0.17 -0.17)">
       <use xlink:href="#DejaVuSans-30"/>
       <use xlink:href="#DejaVuSans-2e" x="63.623047"/>
       <use xlink:href="#DejaVuSans-36" x="95.410156"/>
      </g>
     </g>
    </g>
    <g id="xtick_11">
     <g id="line2d_23">
      <g>
       <use xlink:href="#m094b82abc7" x="760.143526" y="293.64" style="stroke: #000000; stroke-width: 0.8"/>
      </g>
     </g>
     <g id="text_24">
      <!-- 0.8 -->
      <g transform="translate(746.62587 313.557344)scale(0.17 -0.17)">
       <use xlink:href="#DejaVuSans-30"/>
       <use xlink:href="#DejaVuSans-2e" x="63.623047"/>
       <use xlink:href="#DejaVuSans-38" x="95.410156"/>
      </g>
     </g>
    </g>
    <g id="xtick_12">
     <g id="line2d_24">
      <g>
       <use xlink:href="#m094b82abc7" x="824.458474" y="293.64" style="stroke: #000000; stroke-width: 0.8"/>
      </g>
     </g>
     <g id="text_25">
      <!-- 1.0 -->
      <g transform="translate(810.940818 313.557344)scale(0.17 -0.17)">
       <use xlink:href="#DejaVuSans-31"/>
       <use xlink:href="#DejaVuSans-2e" x="63.623047"/>
       <use xlink:href="#DejaVuSans-30" x="95.410156"/>
      </g>
     </g>
    </g>
    <g id="text_26">
     <!-- Score value -->
     <g transform="translate(604.002699 336.593625)scale(0.204 -0.204)">
      <use xlink:href="#DejaVuSans-53"/>
      <use xlink:href="#DejaVuSans-63" x="63.476562"/>
      <use xlink:href="#DejaVuSans-6f" x="118.457031"/>
      <use xlink:href="#DejaVuSans-72" x="179.638672"/>
      <use xlink:href="#DejaVuSans-65" x="218.501953"/>
      <use xlink:href="#DejaVuSans-20" x="280.025391"/>
      <use xlink:href="#DejaVuSans-76" x="311.8125"/>
      <use xlink:href="#DejaVuSans-61" x="370.992188"/>
      <use xlink:href="#DejaVuSans-6c" x="432.271484"/>
      <use xlink:href="#DejaVuSans-75" x="460.054688"/>
      <use xlink:href="#DejaVuSans-65" x="523.433594"/>
     </g>
    </g>
   </g>
   <g id="matplotlib.axis_4">
    <g id="ytick_7">
     <g id="line2d_25">
      <g>
       <use xlink:href="#m92af33ec8d" x="486.805" y="293.64" style="stroke: #000000; stroke-width: 0.8"/>
      </g>
     </g>
     <g id="text_27">
      <!-- 0.0 -->
      <g transform="translate(452.769688 300.098672)scale(0.17 -0.17)">
       <use xlink:href="#DejaVuSans-30"/>
       <use xlink:href="#DejaVuSans-2e" x="63.623047"/>
       <use xlink:href="#DejaVuSans-30" x="95.410156"/>
      </g>
     </g>
    </g>
    <g id="ytick_8">
     <g id="line2d_26">
      <g>
       <use xlink:href="#m92af33ec8d" x="486.805" y="242.784" style="stroke: #000000; stroke-width: 0.8"/>
      </g>
     </g>
     <g id="text_28">
      <!-- 0.2 -->
      <g transform="translate(452.769688 249.242672)scale(0.17 -0.17)">
       <use xlink:href="#DejaVuSans-30"/>
       <use xlink:href="#DejaVuSans-2e" x="63.623047"/>
       <use xlink:href="#DejaVuSans-32" x="95.410156"/>
      </g>
     </g>
    </g>
    <g id="ytick_9">
     <g id="line2d_27">
      <g>
       <use xlink:href="#m92af33ec8d" x="486.805" y="191.928" style="stroke: #000000; stroke-width: 0.8"/>
      </g>
     </g>
     <g id="text_29">
      <!-- 0.4 -->
      <g transform="translate(452.769688 198.386672)scale(0.17 -0.17)">
       <use xlink:href="#DejaVuSans-30"/>
       <use xlink:href="#DejaVuSans-2e" x="63.623047"/>
       <use xlink:href="#DejaVuSans-34" x="95.410156"/>
      </g>
     </g>
    </g>
    <g id="ytick_10">
     <g id="line2d_28">
      <g>
       <use xlink:href="#m92af33ec8d" x="486.805" y="141.072" style="stroke: #000000; stroke-width: 0.8"/>
      </g>
     </g>
     <g id="text_30">
      <!-- 0.6 -->
      <g transform="translate(452.769688 147.530672)scale(0.17 -0.17)">
       <use xlink:href="#DejaVuSans-30"/>
       <use xlink:href="#DejaVuSans-2e" x="63.623047"/>
       <use xlink:href="#DejaVuSans-36" x="95.410156"/>
      </g>
     </g>
    </g>
    <g id="ytick_11">
     <g id="line2d_29">
      <g>
       <use xlink:href="#m92af33ec8d" x="486.805" y="90.216" style="stroke: #000000; stroke-width: 0.8"/>
      </g>
     </g>
     <g id="text_31">
      <!-- 0.8 -->
      <g transform="translate(452.769688 96.674672)scale(0.17 -0.17)">
       <use xlink:href="#DejaVuSans-30"/>
       <use xlink:href="#DejaVuSans-2e" x="63.623047"/>
       <use xlink:href="#DejaVuSans-38" x="95.410156"/>
      </g>
     </g>
    </g>
    <g id="ytick_12">
     <g id="line2d_30">
      <g>
       <use xlink:href="#m92af33ec8d" x="486.805" y="39.36" style="stroke: #000000; stroke-width: 0.8"/>
      </g>
     </g>
     <g id="text_32">
      <!-- 1.0 -->
      <g transform="translate(452.769688 45.818672)scale(0.17 -0.17)">
       <use xlink:href="#DejaVuSans-31"/>
       <use xlink:href="#DejaVuSans-2e" x="63.623047"/>
       <use xlink:href="#DejaVuSans-30" x="95.410156"/>
      </g>
     </g>
    </g>
   </g>
   <g id="line2d_31">
    <path d="M 502.883737 277.045912 
L 538.614263 251.689956 
L 574.34479 226.064503 
L 610.075316 197.356324 
L 645.805842 177.84541 
L 681.536369 148.028377 
L 717.266895 127.129775 
L 752.997421 102.268403 
L 788.727948 81.202281 
L 824.458474 57.960071 
" clip-path="url(#pa38733f242)" style="fill: none; stroke: #008000; stroke-width: 3; stroke-linecap: square"/>
    <g clip-path="url(#pa38733f242)">
     <use xlink:href="#mbc9179ee7a" x="502.883737" y="277.045912" style="fill: #008000; stroke: #008000"/>
     <use xlink:href="#mbc9179ee7a" x="538.614263" y="251.689956" style="fill: #008000; stroke: #008000"/>
     <use xlink:href="#mbc9179ee7a" x="574.34479" y="226.064503" style="fill: #008000; stroke: #008000"/>
     <use xlink:href="#mbc9179ee7a" x="610.075316" y="197.356324" style="fill: #008000; stroke: #008000"/>
     <use xlink:href="#mbc9179ee7a" x="645.805842" y="177.84541" style="fill: #008000; stroke: #008000"/>
     <use xlink:href="#mbc9179ee7a" x="681.536369" y="148.028377" style="fill: #008000; stroke: #008000"/>
     <use xlink:href="#mbc9179ee7a" x="717.266895" y="127.129775" style="fill: #008000; stroke: #008000"/>
     <use xlink:href="#mbc9179ee7a" x="752.997421" y="102.268403" style="fill: #008000; stroke: #008000"/>
     <use xlink:href="#mbc9179ee7a" x="788.727948" y="81.202281" style="fill: #008000; stroke: #008000"/>
     <use xlink:href="#mbc9179ee7a" x="824.458474" y="57.960071" style="fill: #008000; stroke: #008000"/>
    </g>
   </g>
   <g id="line2d_32">
    <path d="M 502.883737 281.467752 
L 538.614263 255.654832 
L 574.34479 231.035666 
L 610.075316 204.664344 
L 645.805842 180.533167 
L 681.536369 151.247489 
L 717.266895 131.68032 
L 752.997421 107.262073 
L 788.727948 84.525898 
L 824.458474 66.123338 
" clip-path="url(#pa38733f242)" style="fill: none; stroke-dasharray: 11.1,4.8; stroke-dashoffset: 0; stroke: #0000ff; stroke-width: 3"/>
    <g clip-path="url(#pa38733f242)">
     <use xlink:href="#mce1c0f319e" x="502.883737" y="281.467752" style="fill: #0000ff; stroke: #0000ff"/>
     <use xlink:href="#mce1c0f319e" x="538.614263" y="255.654832" style="fill: #0000ff; stroke: #0000ff"/>
     <use xlink:href="#mce1c0f319e" x="574.34479" y="231.035666" style="fill: #0000ff; stroke: #0000ff"/>
     <use xlink:href="#mce1c0f319e" x="610.075316" y="204.664344" style="fill: #0000ff; stroke: #0000ff"/>
     <use xlink:href="#mce1c0f319e" x="645.805842" y="180.533167" style="fill: #0000ff; stroke: #0000ff"/>
     <use xlink:href="#mce1c0f319e" x="681.536369" y="151.247489" style="fill: #0000ff; stroke: #0000ff"/>
     <use xlink:href="#mce1c0f319e" x="717.266895" y="131.68032" style="fill: #0000ff; stroke: #0000ff"/>
     <use xlink:href="#mce1c0f319e" x="752.997421" y="107.262073" style="fill: #0000ff; stroke: #0000ff"/>
     <use xlink:href="#mce1c0f319e" x="788.727948" y="84.525898" style="fill: #0000ff; stroke: #0000ff"/>
     <use xlink:href="#mce1c0f319e" x="824.458474" y="66.123338" style="fill: #0000ff; stroke: #0000ff"/>
    </g>
   </g>
   <g id="patch_9">
    <path d="M 486.805 293.64 
L 486.805 39.36 
" style="fill: none; stroke: #000000; stroke-width: 0.8; stroke-linejoin: miter; stroke-linecap: square"/>
   </g>
   <g id="patch_10">
    <path d="M 840.537211 293.64 
L 840.537211 39.36 
" style="fill: none; stroke: #000000; stroke-width: 0.8; stroke-linejoin: miter; stroke-linecap: square"/>
   </g>
   <g id="patch_11">
    <path d="M 486.805 293.64 
L 840.537211 293.64 
" style="fill: none; stroke: #000000; stroke-width: 0.8; stroke-linejoin: miter; stroke-linecap: square"/>
   </g>
   <g id="patch_12">
    <path d="M 486.805 39.36 
L 840.537211 39.36 
" style="fill: none; stroke: #000000; stroke-width: 0.8; stroke-linejoin: miter; stroke-linecap: square"/>
   </g>
   <g id="text_33">
    <!-- Calibration -->
    <g transform="translate(608.173543 33.36)scale(0.204 -0.204)">
     <use xlink:href="#DejaVuSans-43"/>
     <use xlink:href="#DejaVuSans-61" x="69.824219"/>
     <use xlink:href="#DejaVuSans-6c" x="131.103516"/>
     <use xlink:href="#DejaVuSans-69" x="158.886719"/>
     <use xlink:href="#DejaVuSans-62" x="186.669922"/>
     <use xlink:href="#DejaVuSans-72" x="250.146484"/>
     <use xlink:href="#DejaVuSans-61" x="291.259766"/>
     <use xlink:href="#DejaVuSans-74" x="352.539062"/>
     <use xlink:href="#DejaVuSans-69" x="391.748047"/>
     <use xlink:href="#DejaVuSans-6f" x="419.53125"/>
     <use xlink:href="#DejaVuSans-6e" x="480.712891"/>
    </g>
   </g>
   <g id="legend_2">
    <g id="patch_13">
     <path d="M 498.705 127.818438 
L 614.567969 127.818438 
Q 617.967969 127.818438 617.967969 124.418438 
L 617.967969 51.26 
Q 617.967969 47.86 614.567969 47.86 
L 498.705 47.86 
Q 495.305 47.86 495.305 51.26 
L 495.305 124.418438 
Q 495.305 127.818438 498.705 127.818438 
z
" style="fill: #ffffff; opacity: 0.8; stroke: #cccccc; stroke-linejoin: miter"/>
    </g>
    <g id="text_34">
     <!-- Sex -->
     <g transform="translate(541.127969 67.577344)scale(0.17 -0.17)">
      <defs>
       <path id="DejaVuSans-78" d="M 3513 3500 
L 2247 1797 
L 3578 0 
L 2900 0 
L 1881 1375 
L 863 0 
L 184 0 
L 1544 1831 
L 300 3500 
L 978 3500 
L 1906 2253 
L 2834 3500 
L 3513 3500 
z
" transform="scale(0.015625)"/>
      </defs>
      <use xlink:href="#DejaVuSans-53"/>
      <use xlink:href="#DejaVuSans-65" x="63.476562"/>
      <use xlink:href="#DejaVuSans-78" x="123.25"/>
     </g>
    </g>
    <g id="line2d_33">
     <path d="M 502.105 86.580156 
L 519.105 86.580156 
L 536.105 86.580156 
" style="fill: none; stroke: #008000; stroke-width: 3; stroke-linecap: square"/>
     <g>
      <use xlink:href="#mbc9179ee7a" x="519.105" y="86.580156" style="fill: #008000; stroke: #008000"/>
     </g>
    </g>
    <g id="text_35">
     <!-- Female -->
     <g transform="translate(549.705 92.530156)scale(0.17 -0.17)">
      <defs>
       <path id="DejaVuSans-46" d="M 628 4666 
L 3309 4666 
L 3309 4134 
L 1259 4134 
L 1259 2759 
L 3109 2759 
L 3109 2228 
L 1259 2228 
L 1259 0 
L 628 0 
L 628 4666 
z
" transform="scale(0.015625)"/>
      </defs>
      <use xlink:href="#DejaVuSans-46"/>
      <use xlink:href="#DejaVuSans-65" x="52.019531"/>
      <use xlink:href="#DejaVuSans-6d" x="113.542969"/>
      <use xlink:href="#DejaVuSans-61" x="210.955078"/>
      <use xlink:href="#DejaVuSans-6c" x="272.234375"/>
      <use xlink:href="#DejaVuSans-65" x="300.017578"/>
     </g>
    </g>
    <g id="line2d_34">
     <path d="M 502.105 111.532969 
L 519.105 111.532969 
L 536.105 111.532969 
" style="fill: none; stroke-dasharray: 11.1,4.8; stroke-dashoffset: 0; stroke: #0000ff; stroke-width: 3"/>
     <g>
      <use xlink:href="#mce1c0f319e" x="519.105" y="111.532969" style="fill: #0000ff; stroke: #0000ff"/>
     </g>
    </g>
    <g id="text_36">
     <!-- Male -->
     <g transform="translate(549.705 117.482969)scale(0.17 -0.17)">
      <defs>
       <path id="DejaVuSans-4d" d="M 628 4666 
L 1569 4666 
L 2759 1491 
L 3956 4666 
L 4897 4666 
L 4897 0 
L 4281 0 
L 4281 4097 
L 3078 897 
L 2444 897 
L 1241 4097 
L 1241 0 
L 628 0 
L 628 4666 
z
" transform="scale(0.015625)"/>
      </defs>
      <use xlink:href="#DejaVuSans-4d"/>
      <use xlink:href="#DejaVuSans-61" x="86.279297"/>
      <use xlink:href="#DejaVuSans-6c" x="147.558594"/>
      <use xlink:href="#DejaVuSans-65" x="175.341797"/>
     </g>
    </g>
   </g>
  </g>
 </g>
 <defs>
  <clipPath id="pe02b9cfb7d">
   <rect x="75.485" y="39.36" width="353.732211" height="254.28"/>
  </clipPath>
  <clipPath id="pa38733f242">
   <rect x="486.805" y="39.36" width="353.732211" height="254.28"/>
  </clipPath>
 </defs>
</svg>
