<?xml version="1.0" encoding="utf-8" standalone="no"?>
<!DOCTYPE svg PUBLIC "-//W3C//DTD SVG 1.1//EN"
  "http://www.w3.org/Graphics/SVG/1.1/DTD/svg11.dtd">
<svg xmlns:xlink="http://www.w3.org/1999/xlink" width="432pt" height="360pt" viewBox="0 0 432 360" xmlns="http://www.w3.org/2000/svg" version="1.1">
 <metadata>
  <rdf:RDF xmlns:dc="http://purl.org/dc/elements/1.1/" xmlns:cc="http://creativecommons.org/ns#" xmlns:rdf="http://www.w3.org/1999/02/22-rdf-syntax-ns#">
   <cc:Work>
    <dc:type rdf:resource="http://purl.org/dc/dcmitype/StillImage"/>
    <dc:date>2022-06-14T17:12:29.513226</dc:date>
    <dc:format>image/svg+xml</dc:format>
    <dc:creator>
     <cc:Agent>
      <dc:title>Matplotlib v3.5.1, https://matplotlib.org/</dc:title>
     </cc:Agent>
    </dc:creator>
   </cc:Work>
  </rdf:RDF>
 </metadata>
 <defs>
  <style type="text/css">*{stroke-linejoin: round; stroke-linecap: butt}</style>
 </defs>
 <g id="figure_1">
  <g id="patch_1">
   <path d="M 0 360 
L 432 360 
L 432 0 
L 0 0 
L 0 360 
z
" style="fill: none"/>
  </g>
  <g id="axes_1">
   <g id="patch_2">
    <path d="M 75.485 293.64 
L 412.670682 293.64 
L 412.670682 39.36 
L 75.485 39.36 
z
" style="fill: #ffffff"/>
   </g>
   <g id="matplotlib.axis_1">
    <g id="xtick_1">
     <g id="line2d_1">
      <defs>
       <path id="m52bc9acc5b" d="M 0 0 
L 0 3.5 
" style="stroke: #000000; stroke-width: 0.8"/>
      </defs>
      <g>
       <use xlink:href="#m52bc9acc5b" x="90.811622" y="293.64" style="stroke: #000000; stroke-width: 0.8"/>
      </g>
     </g>
     <g id="text_1">
      <!-- 0 -->
      <g transform="translate(85.403497 313.557344)scale(0.17 -0.17)">
       <defs>
        <path id="DejaVuSans-30" d="M 2034 4250 
Q 1547 4250 1301 3770 
Q 1056 3291 1056 2328 
Q 1056 1369 1301 889 
Q 1547 409 2034 409 
Q 2525 409 2770 889 
Q 3016 1369 3016 2328 
Q 3016 3291 2770 3770 
Q 2525 4250 2034 4250 
z
M 2034 4750 
Q 2819 4750 3233 4129 
Q 3647 3509 3647 2328 
Q 3647 1150 3233 529 
Q 2819 -91 2034 -91 
Q 1250 -91 836 529 
Q 422 1150 422 2328 
Q 422 3509 836 4129 
Q 1250 4750 2034 4750 
z
" transform="scale(0.015625)"/>
       </defs>
       <use xlink:href="#DejaVuSans-30"/>
      </g>
     </g>
    </g>
    <g id="xtick_2">
     <g id="line2d_2">
      <g>
       <use xlink:href="#m52bc9acc5b" x="152.11811" y="293.64" style="stroke: #000000; stroke-width: 0.8"/>
      </g>
     </g>
     <g id="text_2">
      <!-- 20 -->
      <g transform="translate(141.30186 313.557344)scale(0.17 -0.17)">
       <defs>
        <path id="DejaVuSans-32" d="M 1228 531 
L 3431 531 
L 3431 0 
L 469 0 
L 469 531 
Q 828 903 1448 1529 
Q 2069 2156 2228 2338 
Q 2531 2678 2651 2914 
Q 2772 3150 2772 3378 
Q 2772 3750 2511 3984 
Q 2250 4219 1831 4219 
Q 1534 4219 1204 4116 
Q 875 4013 500 3803 
L 500 4441 
Q 881 4594 1212 4672 
Q 1544 4750 1819 4750 
Q 2544 4750 2975 4387 
Q 3406 4025 3406 3419 
Q 3406 3131 3298 2873 
Q 3191 2616 2906 2266 
Q 2828 2175 2409 1742 
Q 1991 1309 1228 531 
z
" transform="scale(0.015625)"/>
       </defs>
       <use xlink:href="#DejaVuSans-32"/>
       <use xlink:href="#DejaVuSans-30" x="63.623047"/>
      </g>
     </g>
    </g>
    <g id="xtick_3">
     <g id="line2d_3">
      <g>
       <use xlink:href="#m52bc9acc5b" x="213.424597" y="293.64" style="stroke: #000000; stroke-width: 0.8"/>
      </g>
     </g>
     <g id="text_3">
      <!-- 40 -->
      <g transform="translate(202.608347 313.557344)scale(0.17 -0.17)">
       <defs>
        <path id="DejaVuSans-34" d="M 2419 4116 
L 825 1625 
L 2419 1625 
L 2419 4116 
z
M 2253 4666 
L 3047 4666 
L 3047 1625 
L 3713 1625 
L 3713 1100 
L 3047 1100 
L 3047 0 
L 2419 0 
L 2419 1100 
L 313 1100 
L 313 1709 
L 2253 4666 
z
" transform="scale(0.015625)"/>
       </defs>
       <use xlink:href="#DejaVuSans-34"/>
       <use xlink:href="#DejaVuSans-30" x="63.623047"/>
      </g>
     </g>
    </g>
    <g id="xtick_4">
     <g id="line2d_4">
      <g>
       <use xlink:href="#m52bc9acc5b" x="274.731085" y="293.64" style="stroke: #000000; stroke-width: 0.8"/>
      </g>
     </g>
     <g id="text_4">
      <!-- 60 -->
      <g transform="translate(263.914835 313.557344)scale(0.17 -0.17)">
       <defs>
        <path id="DejaVuSans-36" d="M 2113 2584 
Q 1688 2584 1439 2293 
Q 1191 2003 1191 1497 
Q 1191 994 1439 701 
Q 1688 409 2113 409 
Q 2538 409 2786 701 
Q 3034 994 3034 1497 
Q 3034 2003 2786 2293 
Q 2538 2584 2113 2584 
z
M 3366 4563 
L 3366 3988 
Q 3128 4100 2886 4159 
Q 2644 4219 2406 4219 
Q 1781 4219 1451 3797 
Q 1122 3375 1075 2522 
Q 1259 2794 1537 2939 
Q 1816 3084 2150 3084 
Q 2853 3084 3261 2657 
Q 3669 2231 3669 1497 
Q 3669 778 3244 343 
Q 2819 -91 2113 -91 
Q 1303 -91 875 529 
Q 447 1150 447 2328 
Q 447 3434 972 4092 
Q 1497 4750 2381 4750 
Q 2619 4750 2861 4703 
Q 3103 4656 3366 4563 
z
" transform="scale(0.015625)"/>
       </defs>
       <use xlink:href="#DejaVuSans-36"/>
       <use xlink:href="#DejaVuSans-30" x="63.623047"/>
      </g>
     </g>
    </g>
    <g id="xtick_5">
     <g id="line2d_5">
      <g>
       <use xlink:href="#m52bc9acc5b" x="336.037572" y="293.64" style="stroke: #000000; stroke-width: 0.8"/>
      </g>
     </g>
     <g id="text_5">
      <!-- 80 -->
      <g transform="translate(325.221322 313.557344)scale(0.17 -0.17)">
       <defs>
        <path id="DejaVuSans-38" d="M 2034 2216 
Q 1584 2216 1326 1975 
Q 1069 1734 1069 1313 
Q 1069 891 1326 650 
Q 1584 409 2034 409 
Q 2484 409 2743 651 
Q 3003 894 3003 1313 
Q 3003 1734 2745 1975 
Q 2488 2216 2034 2216 
z
M 1403 2484 
Q 997 2584 770 2862 
Q 544 3141 544 3541 
Q 544 4100 942 4425 
Q 1341 4750 2034 4750 
Q 2731 4750 3128 4425 
Q 3525 4100 3525 3541 
Q 3525 3141 3298 2862 
Q 3072 2584 2669 2484 
Q 3125 2378 3379 2068 
Q 3634 1759 3634 1313 
Q 3634 634 3220 271 
Q 2806 -91 2034 -91 
Q 1263 -91 848 271 
Q 434 634 434 1313 
Q 434 1759 690 2068 
Q 947 2378 1403 2484 
z
M 1172 3481 
Q 1172 3119 1398 2916 
Q 1625 2713 2034 2713 
Q 2441 2713 2670 2916 
Q 2900 3119 2900 3481 
Q 2900 3844 2670 4047 
Q 2441 4250 2034 4250 
Q 1625 4250 1398 4047 
Q 1172 3844 1172 3481 
z
" transform="scale(0.015625)"/>
       </defs>
       <use xlink:href="#DejaVuSans-38"/>
       <use xlink:href="#DejaVuSans-30" x="63.623047"/>
      </g>
     </g>
    </g>
    <g id="xtick_6">
     <g id="line2d_6">
      <g>
       <use xlink:href="#m52bc9acc5b" x="397.34406" y="293.64" style="stroke: #000000; stroke-width: 0.8"/>
      </g>
     </g>
     <g id="text_6">
      <!-- 100 -->
      <g transform="translate(381.119685 313.557344)scale(0.17 -0.17)">
       <defs>
        <path id="DejaVuSans-31" d="M 794 531 
L 1825 531 
L 1825 4091 
L 703 3866 
L 703 4441 
L 1819 4666 
L 2450 4666 
L 2450 531 
L 3481 531 
L 3481 0 
L 794 0 
L 794 531 
z
" transform="scale(0.015625)"/>
       </defs>
       <use xlink:href="#DejaVuSans-31"/>
       <use xlink:href="#DejaVuSans-30" x="63.623047"/>
       <use xlink:href="#DejaVuSans-30" x="127.246094"/>
      </g>
     </g>
    </g>
    <g id="text_7">
     <!-- Score -->
     <g transform="translate(215.51306 336.593625)scale(0.204 -0.204)">
      <defs>
       <path id="DejaVuSans-53" d="M 3425 4513 
L 3425 3897 
Q 3066 4069 2747 4153 
Q 2428 4238 2131 4238 
Q 1616 4238 1336 4038 
Q 1056 3838 1056 3469 
Q 1056 3159 1242 3001 
Q 1428 2844 1947 2747 
L 2328 2669 
Q 3034 2534 3370 2195 
Q 3706 1856 3706 1288 
Q 3706 609 3251 259 
Q 2797 -91 1919 -91 
Q 1588 -91 1214 -16 
Q 841 59 441 206 
L 441 856 
Q 825 641 1194 531 
Q 1563 422 1919 422 
Q 2459 422 2753 634 
Q 3047 847 3047 1241 
Q 3047 1584 2836 1778 
Q 2625 1972 2144 2069 
L 1759 2144 
Q 1053 2284 737 2584 
Q 422 2884 422 3419 
Q 422 4038 858 4394 
Q 1294 4750 2059 4750 
Q 2388 4750 2728 4690 
Q 3069 4631 3425 4513 
z
" transform="scale(0.015625)"/>
       <path id="DejaVuSans-63" d="M 3122 3366 
L 3122 2828 
Q 2878 2963 2633 3030 
Q 2388 3097 2138 3097 
Q 1578 3097 1268 2742 
Q 959 2388 959 1747 
Q 959 1106 1268 751 
Q 1578 397 2138 397 
Q 2388 397 2633 464 
Q 2878 531 3122 666 
L 3122 134 
Q 2881 22 2623 -34 
Q 2366 -91 2075 -91 
Q 1284 -91 818 406 
Q 353 903 353 1747 
Q 353 2603 823 3093 
Q 1294 3584 2113 3584 
Q 2378 3584 2631 3529 
Q 2884 3475 3122 3366 
z
" transform="scale(0.015625)"/>
       <path id="DejaVuSans-6f" d="M 1959 3097 
Q 1497 3097 1228 2736 
Q 959 2375 959 1747 
Q 959 1119 1226 758 
Q 1494 397 1959 397 
Q 2419 397 2687 759 
Q 2956 1122 2956 1747 
Q 2956 2369 2687 2733 
Q 2419 3097 1959 3097 
z
M 1959 3584 
Q 2709 3584 3137 3096 
Q 3566 2609 3566 1747 
Q 3566 888 3137 398 
Q 2709 -91 1959 -91 
Q 1206 -91 779 398 
Q 353 888 353 1747 
Q 353 2609 779 3096 
Q 1206 3584 1959 3584 
z
" transform="scale(0.015625)"/>
       <path id="DejaVuSans-72" d="M 2631 2963 
Q 2534 3019 2420 3045 
Q 2306 3072 2169 3072 
Q 1681 3072 1420 2755 
Q 1159 2438 1159 1844 
L 1159 0 
L 581 0 
L 581 3500 
L 1159 3500 
L 1159 2956 
Q 1341 3275 1631 3429 
Q 1922 3584 2338 3584 
Q 2397 3584 2469 3576 
Q 2541 3569 2628 3553 
L 2631 2963 
z
" transform="scale(0.015625)"/>
       <path id="DejaVuSans-65" d="M 3597 1894 
L 3597 1613 
L 953 1613 
Q 991 1019 1311 708 
Q 1631 397 2203 397 
Q 2534 397 2845 478 
Q 3156 559 3463 722 
L 3463 178 
Q 3153 47 2828 -22 
Q 2503 -91 2169 -91 
Q 1331 -91 842 396 
Q 353 884 353 1716 
Q 353 2575 817 3079 
Q 1281 3584 2069 3584 
Q 2775 3584 3186 3129 
Q 3597 2675 3597 1894 
z
M 3022 2063 
Q 3016 2534 2758 2815 
Q 2500 3097 2075 3097 
Q 1594 3097 1305 2825 
Q 1016 2553 972 2059 
L 3022 2063 
z
" transform="scale(0.015625)"/>
      </defs>
      <use xlink:href="#DejaVuSans-53"/>
      <use xlink:href="#DejaVuSans-63" x="63.476562"/>
      <use xlink:href="#DejaVuSans-6f" x="118.457031"/>
      <use xlink:href="#DejaVuSans-72" x="179.638672"/>
      <use xlink:href="#DejaVuSans-65" x="218.501953"/>
     </g>
    </g>
   </g>
   <g id="matplotlib.axis_2">
    <g id="ytick_1">
     <g id="line2d_7">
      <defs>
       <path id="mf41f5d273b" d="M 0 0 
L -3.5 0 
" style="stroke: #000000; stroke-width: 0.8"/>
      </defs>
      <g>
       <use xlink:href="#mf41f5d273b" x="75.485" y="282.081818" style="stroke: #000000; stroke-width: 0.8"/>
      </g>
     </g>
     <g id="text_8">
      <!-- 0.0 -->
      <g transform="translate(41.449688 288.54049)scale(0.17 -0.17)">
       <defs>
        <path id="DejaVuSans-2e" d="M 684 794 
L 1344 794 
L 1344 0 
L 684 0 
L 684 794 
z
" transform="scale(0.015625)"/>
       </defs>
       <use xlink:href="#DejaVuSans-30"/>
       <use xlink:href="#DejaVuSans-2e" x="63.623047"/>
       <use xlink:href="#DejaVuSans-30" x="95.410156"/>
      </g>
     </g>
    </g>
    <g id="ytick_2">
     <g id="line2d_8">
      <g>
       <use xlink:href="#mf41f5d273b" x="75.485" y="235.849091" style="stroke: #000000; stroke-width: 0.8"/>
      </g>
     </g>
     <g id="text_9">
      <!-- 0.2 -->
      <g transform="translate(41.449688 242.307763)scale(0.17 -0.17)">
       <use xlink:href="#DejaVuSans-30"/>
       <use xlink:href="#DejaVuSans-2e" x="63.623047"/>
       <use xlink:href="#DejaVuSans-32" x="95.410156"/>
      </g>
     </g>
    </g>
    <g id="ytick_3">
     <g id="line2d_9">
      <g>
       <use xlink:href="#mf41f5d273b" x="75.485" y="189.616364" style="stroke: #000000; stroke-width: 0.8"/>
      </g>
     </g>
     <g id="text_10">
      <!-- 0.4 -->
      <g transform="translate(41.449688 196.075036)scale(0.17 -0.17)">
       <use xlink:href="#DejaVuSans-30"/>
       <use xlink:href="#DejaVuSans-2e" x="63.623047"/>
       <use xlink:href="#DejaVuSans-34" x="95.410156"/>
      </g>
     </g>
    </g>
    <g id="ytick_4">
     <g id="line2d_10">
      <g>
       <use xlink:href="#mf41f5d273b" x="75.485" y="143.383636" style="stroke: #000000; stroke-width: 0.8"/>
      </g>
     </g>
     <g id="text_11">
      <!-- 0.6 -->
      <g transform="translate(41.449688 149.842308)scale(0.17 -0.17)">
       <use xlink:href="#DejaVuSans-30"/>
       <use xlink:href="#DejaVuSans-2e" x="63.623047"/>
       <use xlink:href="#DejaVuSans-36" x="95.410156"/>
      </g>
     </g>
    </g>
    <g id="ytick_5">
     <g id="line2d_11">
      <g>
       <use xlink:href="#mf41f5d273b" x="75.485" y="97.150909" style="stroke: #000000; stroke-width: 0.8"/>
      </g>
     </g>
     <g id="text_12">
      <!-- 0.8 -->
      <g transform="translate(41.449688 103.609581)scale(0.17 -0.17)">
       <use xlink:href="#DejaVuSans-30"/>
       <use xlink:href="#DejaVuSans-2e" x="63.623047"/>
       <use xlink:href="#DejaVuSans-38" x="95.410156"/>
      </g>
     </g>
    </g>
    <g id="ytick_6">
     <g id="line2d_12">
      <g>
       <use xlink:href="#mf41f5d273b" x="75.485" y="50.918182" style="stroke: #000000; stroke-width: 0.8"/>
      </g>
     </g>
     <g id="text_13">
      <!-- 1.0 -->
      <g transform="translate(41.449688 57.376854)scale(0.17 -0.17)">
       <use xlink:href="#DejaVuSans-31"/>
       <use xlink:href="#DejaVuSans-2e" x="63.623047"/>
       <use xlink:href="#DejaVuSans-30" x="95.410156"/>
      </g>
     </g>
    </g>
    <g id="text_14">
     <!-- Cumulative proportion -->
     <g transform="translate(33.207125 281.085844)rotate(-90)scale(0.204 -0.204)">
      <defs>
       <path id="DejaVuSans-43" d="M 4122 4306 
L 4122 3641 
Q 3803 3938 3442 4084 
Q 3081 4231 2675 4231 
Q 1875 4231 1450 3742 
Q 1025 3253 1025 2328 
Q 1025 1406 1450 917 
Q 1875 428 2675 428 
Q 3081 428 3442 575 
Q 3803 722 4122 1019 
L 4122 359 
Q 3791 134 3420 21 
Q 3050 -91 2638 -91 
Q 1578 -91 968 557 
Q 359 1206 359 2328 
Q 359 3453 968 4101 
Q 1578 4750 2638 4750 
Q 3056 4750 3426 4639 
Q 3797 4528 4122 4306 
z
" transform="scale(0.015625)"/>
       <path id="DejaVuSans-75" d="M 544 1381 
L 544 3500 
L 1119 3500 
L 1119 1403 
Q 1119 906 1312 657 
Q 1506 409 1894 409 
Q 2359 409 2629 706 
Q 2900 1003 2900 1516 
L 2900 3500 
L 3475 3500 
L 3475 0 
L 2900 0 
L 2900 538 
Q 2691 219 2414 64 
Q 2138 -91 1772 -91 
Q 1169 -91 856 284 
Q 544 659 544 1381 
z
M 1991 3584 
L 1991 3584 
z
" transform="scale(0.015625)"/>
       <path id="DejaVuSans-6d" d="M 3328 2828 
Q 3544 3216 3844 3400 
Q 4144 3584 4550 3584 
Q 5097 3584 5394 3201 
Q 5691 2819 5691 2113 
L 5691 0 
L 5113 0 
L 5113 2094 
Q 5113 2597 4934 2840 
Q 4756 3084 4391 3084 
Q 3944 3084 3684 2787 
Q 3425 2491 3425 1978 
L 3425 0 
L 2847 0 
L 2847 2094 
Q 2847 2600 2669 2842 
Q 2491 3084 2119 3084 
Q 1678 3084 1418 2786 
Q 1159 2488 1159 1978 
L 1159 0 
L 581 0 
L 581 3500 
L 1159 3500 
L 1159 2956 
Q 1356 3278 1631 3431 
Q 1906 3584 2284 3584 
Q 2666 3584 2933 3390 
Q 3200 3197 3328 2828 
z
" transform="scale(0.015625)"/>
       <path id="DejaVuSans-6c" d="M 603 4863 
L 1178 4863 
L 1178 0 
L 603 0 
L 603 4863 
z
" transform="scale(0.015625)"/>
       <path id="DejaVuSans-61" d="M 2194 1759 
Q 1497 1759 1228 1600 
Q 959 1441 959 1056 
Q 959 750 1161 570 
Q 1363 391 1709 391 
Q 2188 391 2477 730 
Q 2766 1069 2766 1631 
L 2766 1759 
L 2194 1759 
z
M 3341 1997 
L 3341 0 
L 2766 0 
L 2766 531 
Q 2569 213 2275 61 
Q 1981 -91 1556 -91 
Q 1019 -91 701 211 
Q 384 513 384 1019 
Q 384 1609 779 1909 
Q 1175 2209 1959 2209 
L 2766 2209 
L 2766 2266 
Q 2766 2663 2505 2880 
Q 2244 3097 1772 3097 
Q 1472 3097 1187 3025 
Q 903 2953 641 2809 
L 641 3341 
Q 956 3463 1253 3523 
Q 1550 3584 1831 3584 
Q 2591 3584 2966 3190 
Q 3341 2797 3341 1997 
z
" transform="scale(0.015625)"/>
       <path id="DejaVuSans-74" d="M 1172 4494 
L 1172 3500 
L 2356 3500 
L 2356 3053 
L 1172 3053 
L 1172 1153 
Q 1172 725 1289 603 
Q 1406 481 1766 481 
L 2356 481 
L 2356 0 
L 1766 0 
Q 1100 0 847 248 
Q 594 497 594 1153 
L 594 3053 
L 172 3053 
L 172 3500 
L 594 3500 
L 594 4494 
L 1172 4494 
z
" transform="scale(0.015625)"/>
       <path id="DejaVuSans-69" d="M 603 3500 
L 1178 3500 
L 1178 0 
L 603 0 
L 603 3500 
z
M 603 4863 
L 1178 4863 
L 1178 4134 
L 603 4134 
L 603 4863 
z
" transform="scale(0.015625)"/>
       <path id="DejaVuSans-76" d="M 191 3500 
L 800 3500 
L 1894 563 
L 2988 3500 
L 3597 3500 
L 2284 0 
L 1503 0 
L 191 3500 
z
" transform="scale(0.015625)"/>
       <path id="DejaVuSans-20" transform="scale(0.015625)"/>
       <path id="DejaVuSans-70" d="M 1159 525 
L 1159 -1331 
L 581 -1331 
L 581 3500 
L 1159 3500 
L 1159 2969 
Q 1341 3281 1617 3432 
Q 1894 3584 2278 3584 
Q 2916 3584 3314 3078 
Q 3713 2572 3713 1747 
Q 3713 922 3314 415 
Q 2916 -91 2278 -91 
Q 1894 -91 1617 61 
Q 1341 213 1159 525 
z
M 3116 1747 
Q 3116 2381 2855 2742 
Q 2594 3103 2138 3103 
Q 1681 3103 1420 2742 
Q 1159 2381 1159 1747 
Q 1159 1113 1420 752 
Q 1681 391 2138 391 
Q 2594 391 2855 752 
Q 3116 1113 3116 1747 
z
" transform="scale(0.015625)"/>
       <path id="DejaVuSans-6e" d="M 3513 2113 
L 3513 0 
L 2938 0 
L 2938 2094 
Q 2938 2591 2744 2837 
Q 2550 3084 2163 3084 
Q 1697 3084 1428 2787 
Q 1159 2491 1159 1978 
L 1159 0 
L 581 0 
L 581 3500 
L 1159 3500 
L 1159 2956 
Q 1366 3272 1645 3428 
Q 1925 3584 2291 3584 
Q 2894 3584 3203 3211 
Q 3513 2838 3513 2113 
z
" transform="scale(0.015625)"/>
      </defs>
      <use xlink:href="#DejaVuSans-43"/>
      <use xlink:href="#DejaVuSans-75" x="69.824219"/>
      <use xlink:href="#DejaVuSans-6d" x="133.203125"/>
      <use xlink:href="#DejaVuSans-75" x="230.615234"/>
      <use xlink:href="#DejaVuSans-6c" x="293.994141"/>
      <use xlink:href="#DejaVuSans-61" x="321.777344"/>
      <use xlink:href="#DejaVuSans-74" x="383.056641"/>
      <use xlink:href="#DejaVuSans-69" x="422.265625"/>
      <use xlink:href="#DejaVuSans-76" x="450.048828"/>
      <use xlink:href="#DejaVuSans-65" x="509.228516"/>
      <use xlink:href="#DejaVuSans-20" x="570.751953"/>
      <use xlink:href="#DejaVuSans-70" x="602.539062"/>
      <use xlink:href="#DejaVuSans-72" x="666.015625"/>
      <use xlink:href="#DejaVuSans-6f" x="704.878906"/>
      <use xlink:href="#DejaVuSans-70" x="766.060547"/>
      <use xlink:href="#DejaVuSans-6f" x="829.537109"/>
      <use xlink:href="#DejaVuSans-72" x="890.71875"/>
      <use xlink:href="#DejaVuSans-74" x="931.832031"/>
      <use xlink:href="#DejaVuSans-69" x="971.041016"/>
      <use xlink:href="#DejaVuSans-6f" x="998.824219"/>
      <use xlink:href="#DejaVuSans-6e" x="1060.005859"/>
     </g>
    </g>
   </g>
   <g id="line2d_13">
    <path d="M 90.811622 282.081818 
L 92.344284 281.781305 
L 93.876946 280.047578 
L 95.409608 279.608367 
L 96.942271 279.030458 
L 98.474933 278.591247 
L 103.072919 276.34896 
L 104.605582 276.117796 
L 106.138244 274.915745 
L 109.203568 273.066436 
L 110.73623 272.650342 
L 115.334217 270.477404 
L 116.866879 270.200007 
L 118.399541 269.645215 
L 119.932204 269.298469 
L 121.464866 268.813025 
L 122.997528 268.581862 
L 124.53019 267.634091 
L 126.062852 267.148647 
L 127.595514 266.015945 
L 132.193501 263.658076 
L 133.726163 262.664073 
L 135.258825 262.016815 
L 138.32415 260.236855 
L 142.922136 258.225731 
L 144.454799 257.740287 
L 145.987461 256.746284 
L 147.520123 256.399538 
L 149.052785 255.474884 
L 150.585447 254.804509 
L 152.11811 253.486876 
L 155.183434 251.984313 
L 156.716096 251.475753 
L 158.248758 250.643564 
L 161.314083 249.279698 
L 162.846745 248.771138 
L 164.379407 247.522855 
L 165.912069 246.944945 
L 167.444731 246.228338 
L 168.977394 245.742895 
L 173.57538 242.552836 
L 175.108042 241.859345 
L 176.640705 240.703527 
L 178.173367 239.848222 
L 179.706029 238.322542 
L 181.238691 237.790865 
L 182.771353 236.473233 
L 184.304015 235.432996 
L 185.836678 233.537455 
L 188.902002 231.665029 
L 191.967326 229.099113 
L 193.499989 228.174458 
L 195.032651 226.718127 
L 196.565313 225.816589 
L 198.097975 223.990396 
L 199.630637 223.181324 
L 201.1633 221.609411 
L 202.695962 220.823455 
L 204.228624 218.766098 
L 205.761286 218.072607 
L 207.293948 216.107716 
L 208.826611 215.483575 
L 210.359273 213.518684 
L 211.891935 213.03324 
L 214.957259 210.767836 
L 216.489921 209.172807 
L 218.022584 208.433084 
L 219.555246 206.907404 
L 221.087908 205.9134 
L 224.153232 203.301251 
L 225.685895 201.521291 
L 230.283881 197.26788 
L 231.816543 195.719084 
L 233.349206 194.424567 
L 234.881868 192.390327 
L 236.41453 191.16516 
L 237.947192 189.292735 
L 239.479854 188.275615 
L 242.545179 185.802164 
L 244.077841 184.114669 
L 245.610503 183.190015 
L 247.143165 181.225124 
L 248.675827 180.092422 
L 250.20849 178.081298 
L 251.741152 176.601851 
L 256.339138 170.614713 
L 257.871801 169.389545 
L 259.404463 167.077909 
L 260.937125 166.130138 
L 262.469787 164.488876 
L 264.002449 163.125011 
L 265.535112 161.16012 
L 267.067774 160.004302 
L 268.600436 158.455505 
L 270.133098 157.137873 
L 271.66576 155.196098 
L 273.198423 153.901582 
L 274.731085 151.705527 
L 277.796409 149.347658 
L 280.861733 146.388764 
L 282.394396 144.169593 
L 283.927058 142.736378 
L 286.992382 139.083993 
L 288.525044 138.251804 
L 290.057707 136.402495 
L 291.590369 135.339142 
L 294.655693 132.357131 
L 296.188355 131.709873 
L 297.721018 129.352004 
L 299.25368 128.750978 
L 300.786342 127.895673 
L 302.319004 126.046364 
L 305.384329 123.688495 
L 309.982315 121.006996 
L 311.514977 118.926524 
L 314.580302 116.268142 
L 316.112964 115.620884 
L 317.645626 114.511298 
L 319.178288 112.870036 
L 322.243613 110.281004 
L 323.776275 109.333233 
L 325.308937 108.131182 
L 326.841599 104.525029 
L 329.906924 102.490789 
L 331.439586 101.635484 
L 334.50491 99.393196 
L 337.570235 96.942862 
L 339.102897 94.746807 
L 346.766208 88.990833 
L 348.29887 87.233989 
L 351.364194 85.63896 
L 352.896856 83.951465 
L 354.429519 83.09616 
L 355.962181 81.616713 
L 357.494843 80.923222 
L 359.027505 79.420658 
L 360.560167 78.611585 
L 362.09283 77.109022 
L 363.625492 76.115018 
L 365.158154 74.45064 
L 371.288803 71.098767 
L 372.821465 69.966065 
L 375.886789 68.116756 
L 377.419451 66.660425 
L 378.952114 65.504607 
L 380.484776 63.562833 
L 382.017438 62.014036 
L 383.5501 61.413011 
L 385.082762 59.517469 
L 386.615425 59.008909 
L 388.148087 57.575695 
L 389.680749 55.703269 
L 391.213411 53.368516 
L 392.746073 51.81972 
L 394.278736 51.172462 
L 397.34406 50.918182 
L 397.34406 50.918182 
" clip-path="url(#pf429cddaf0)" style="fill: none; stroke: #0000ff; stroke-width: 3; stroke-linecap: square"/>
   </g>
   <g id="line2d_14">
    <path d="M 90.811622 281.920004 
L 92.344284 279.330971 
L 93.876946 269.760796 
L 95.409608 267.125531 
L 98.474933 260.652949 
L 100.007595 256.191491 
L 101.540257 252.44664 
L 103.072919 248.37816 
L 104.605582 247.037411 
L 106.138244 241.119622 
L 107.670906 236.288302 
L 109.203568 231.873076 
L 110.73623 229.075996 
L 112.268893 225.007516 
L 113.801555 223.111975 
L 115.334217 219.783218 
L 116.866879 218.396236 
L 118.399541 215.992135 
L 119.932204 214.165942 
L 121.464866 211.692491 
L 122.997528 210.051229 
L 126.062852 205.034978 
L 127.595514 200.920265 
L 129.128177 198.701095 
L 130.660839 196.088945 
L 132.193501 193.754193 
L 133.726163 190.101807 
L 135.258825 187.882636 
L 136.791488 184.831276 
L 138.32415 182.889502 
L 139.856812 180.277353 
L 141.389474 178.335578 
L 142.922136 176.139524 
L 149.052785 169.366429 
L 150.585447 168.141262 
L 152.11811 159.449509 
L 153.650772 157.160989 
L 155.183434 154.387025 
L 156.716096 152.861345 
L 158.248758 150.873338 
L 159.78142 149.46324 
L 161.314083 147.544582 
L 162.846745 146.018902 
L 164.379407 143.383636 
L 165.912069 141.950422 
L 167.444731 140.031764 
L 168.977394 138.575433 
L 170.510056 136.610542 
L 172.042718 135.200444 
L 173.57538 133.235553 
L 175.108042 131.825455 
L 176.640705 129.860564 
L 178.173367 128.566047 
L 179.706029 126.554924 
L 181.238691 125.699618 
L 182.771353 124.03524 
L 184.304015 122.925655 
L 185.836678 121.215044 
L 187.36934 120.313505 
L 188.902002 118.880291 
L 190.434664 117.816938 
L 195.032651 114.095204 
L 196.565313 112.985618 
L 198.097975 111.136309 
L 199.630637 110.5584 
L 201.1633 109.102069 
L 202.695962 108.454811 
L 204.228624 106.697967 
L 205.761286 106.027593 
L 207.293948 104.363215 
L 208.826611 103.646607 
L 210.359273 102.42144 
L 211.891935 101.889764 
L 213.424597 101.034458 
L 214.957259 100.040455 
L 216.489921 98.815287 
L 218.022584 98.329844 
L 219.555246 97.012211 
L 221.087908 96.156905 
L 222.62057 94.954855 
L 224.153232 94.330713 
L 225.685895 93.082429 
L 230.283881 90.562745 
L 231.816543 89.684324 
L 233.349206 89.245113 
L 234.881868 88.204876 
L 236.41453 87.719433 
L 237.947192 86.841011 
L 239.479854 86.378684 
L 242.545179 85.1304 
L 244.077841 84.298211 
L 245.610503 83.859 
L 247.143165 83.165509 
L 250.20849 82.217738 
L 251.741152 81.686062 
L 256.339138 79.674938 
L 257.871801 79.351309 
L 259.404463 78.51912 
L 265.535112 76.48488 
L 267.067774 76.2306 
L 273.198423 74.381291 
L 274.731085 73.664684 
L 276.263747 73.387287 
L 280.861733 72.046538 
L 286.992382 70.220345 
L 291.590369 69.341924 
L 293.123031 68.995178 
L 296.188355 68.579084 
L 297.721018 67.978058 
L 300.786342 67.58508 
L 302.319004 67.192102 
L 305.384329 66.660425 
L 306.916991 66.31368 
L 309.982315 65.851353 
L 311.514977 65.458375 
L 314.580302 64.834233 
L 316.112964 64.649302 
L 317.645626 64.325673 
L 322.243613 63.123622 
L 323.776275 62.892458 
L 325.308937 62.522596 
L 326.841599 61.875338 
L 336.037572 60.395891 
L 339.102897 59.471236 
L 343.700883 58.777745 
L 346.766208 58.199836 
L 348.29887 57.853091 
L 351.364194 57.367647 
L 352.896856 56.882204 
L 357.494843 56.165596 
L 359.027505 55.795735 
L 360.560167 55.703269 
L 362.09283 55.425873 
L 363.625492 55.287175 
L 365.158154 54.986662 
L 368.223478 54.732382 
L 371.288803 54.524335 
L 372.821465 54.223822 
L 377.419451 53.576564 
L 382.017438 52.744375 
L 383.5501 52.651909 
L 385.082762 52.351396 
L 386.615425 52.258931 
L 388.148087 52.050884 
L 389.680749 51.727255 
L 391.213411 51.172462 
L 394.278736 50.941298 
L 397.34406 50.918182 
L 397.34406 50.918182 
" clip-path="url(#pf429cddaf0)" style="fill: none; stroke-dasharray: 11.1,4.8; stroke-dashoffset: 0; stroke: #008000; stroke-width: 3"/>
   </g>
   <g id="line2d_15">
    <path d="M 90.811622 282.058702 
L 92.344284 280.995349 
L 93.876946 276.949985 
L 95.409608 275.747935 
L 96.942271 274.014207 
L 98.474933 272.742807 
L 100.007595 270.477404 
L 101.540257 268.743676 
L 103.072919 266.825018 
L 104.605582 266.085295 
L 106.138244 263.080167 
L 107.670906 260.560484 
L 109.203568 258.54936 
L 110.73623 257.116145 
L 112.268893 254.48088 
L 113.801555 253.46376 
L 115.334217 251.614451 
L 116.866879 250.643564 
L 118.399541 249.510862 
L 121.464866 246.944945 
L 122.997528 245.812244 
L 124.53019 244.217215 
L 126.062852 242.968931 
L 127.595514 240.403015 
L 129.128177 239.131615 
L 130.660839 237.328538 
L 132.193501 235.964673 
L 133.726163 233.306291 
L 135.258825 231.780611 
L 136.791488 229.792604 
L 138.32415 228.428738 
L 139.856812 226.556313 
L 141.389474 225.007516 
L 142.922136 223.158207 
L 144.454799 222.048622 
L 145.987461 220.546058 
L 147.520123 219.436473 
L 149.052785 217.86456 
L 150.585447 216.870556 
L 152.11811 212.01612 
L 153.650772 210.582905 
L 155.183434 208.340618 
L 156.716096 207.392847 
L 158.248758 205.774702 
L 159.78142 204.526418 
L 161.314083 202.931389 
L 162.846745 201.035847 
L 164.379407 198.423698 
L 165.912069 197.0136 
L 167.444731 194.97936 
L 168.977394 193.846658 
L 170.510056 192.043582 
L 172.042718 190.425436 
L 173.57538 188.229382 
L 175.108042 186.657469 
L 176.640705 184.507647 
L 178.173367 182.843269 
L 179.706029 180.346702 
L 181.238691 179.121535 
L 182.771353 177.318458 
L 184.304015 176.347571 
L 185.836678 174.151516 
L 187.36934 172.880116 
L 188.902002 171.007691 
L 190.434664 169.412662 
L 193.499989 166.592465 
L 196.565313 163.541105 
L 198.097975 161.4144 
L 199.630637 160.39728 
L 201.1633 158.247458 
L 202.695962 157.34592 
L 204.228624 154.849353 
L 205.761286 154.063396 
L 207.293948 151.728644 
L 208.826611 150.98892 
L 210.359273 149.047145 
L 211.891935 148.399887 
L 213.424597 147.151604 
L 214.957259 146.180716 
L 216.489921 144.608804 
L 218.022584 143.776615 
L 219.555246 141.996655 
L 221.087908 140.933302 
L 222.62057 139.29204 
L 224.153232 138.321153 
L 225.685895 136.379378 
L 227.218557 135.107978 
L 228.751219 133.628531 
L 231.816543 130.970149 
L 233.349206 130.184193 
L 234.881868 128.427349 
L 236.41453 127.641393 
L 237.947192 126.046364 
L 239.479854 125.191058 
L 242.545179 123.087469 
L 244.077841 121.700487 
L 245.610503 121.006996 
L 247.143165 119.666247 
L 248.675827 118.741593 
L 250.20849 117.42396 
L 256.339138 112.661989 
L 257.871801 111.945382 
L 259.404463 110.5584 
L 260.937125 109.703095 
L 262.469787 108.385462 
L 264.002449 107.483924 
L 265.535112 106.096942 
L 267.067774 105.334102 
L 268.600436 104.039585 
L 270.133098 103.161164 
L 271.66576 102.051578 
L 273.198423 101.219389 
L 274.731085 99.947989 
L 276.263747 99.231382 
L 285.45972 94.053316 
L 286.992382 92.989964 
L 288.525044 92.435171 
L 290.057707 91.441167 
L 291.590369 91.025073 
L 293.123031 90.123535 
L 294.655693 89.383811 
L 296.188355 88.921484 
L 297.721018 87.742549 
L 300.786342 86.864127 
L 302.319004 85.847007 
L 308.449653 83.419789 
L 309.982315 82.934345 
L 311.514977 81.917225 
L 317.645626 80.0448 
L 320.71095 78.172375 
L 325.308937 76.48488 
L 326.841599 74.9592 
L 329.906924 73.826498 
L 331.439586 73.43352 
L 337.570235 70.89072 
L 339.102897 69.896716 
L 343.700883 68.417269 
L 345.233545 67.931825 
L 346.766208 67.307684 
L 348.29887 66.406145 
L 351.364194 65.504607 
L 352.896856 64.53372 
L 354.429519 64.140742 
L 355.962181 63.354785 
L 357.494843 63.077389 
L 359.027505 62.407015 
L 360.560167 62.037153 
L 362.09283 61.413011 
L 363.625492 61.135615 
L 365.158154 60.442124 
L 368.223478 59.609935 
L 369.75614 59.425004 
L 371.288803 59.101375 
L 372.821465 58.523465 
L 375.886789 57.783742 
L 377.419451 57.044018 
L 378.952114 56.535458 
L 380.484776 55.703269 
L 382.017438 55.056011 
L 383.5501 54.755498 
L 385.082762 54.062007 
L 386.615425 53.900193 
L 388.148087 53.414749 
L 389.680749 52.675025 
L 391.213411 51.704138 
L 392.746073 51.195578 
L 394.278736 50.964415 
L 397.34406 50.918182 
L 397.34406 50.918182 
" clip-path="url(#pf429cddaf0)" style="fill: none; stroke-dasharray: 19.2,4.8,3,4.8; stroke-dashoffset: 0; stroke: #00bfbf; stroke-width: 3"/>
   </g>
   <g id="line2d_16">
    <path d="M 90.811622 282.058702 
L 92.344284 281.480793 
L 93.876946 279.40032 
L 95.409608 278.776178 
L 96.942271 277.920873 
L 98.474933 277.250498 
L 101.540257 275.239375 
L 103.072919 274.245371 
L 104.605582 273.898625 
L 106.138244 272.396062 
L 109.203568 269.876378 
L 110.73623 269.22912 
L 112.268893 267.95772 
L 113.801555 267.426044 
L 115.334217 266.339575 
L 116.866879 265.854131 
L 118.399541 265.114407 
L 119.932204 264.513382 
L 121.464866 263.704309 
L 122.997528 263.1264 
L 124.53019 262.155513 
L 126.062852 261.415789 
L 127.595514 259.982575 
L 129.128177 259.150385 
L 130.660839 258.0408 
L 132.193501 257.208611 
L 133.726163 255.706047 
L 135.258825 254.920091 
L 136.791488 253.671807 
L 138.32415 252.932084 
L 139.856812 251.822498 
L 141.389474 251.036542 
L 142.922136 250.088771 
L 144.454799 249.418396 
L 145.987461 248.424393 
L 147.520123 247.777135 
L 149.052785 246.85248 
L 150.585447 246.251455 
L 152.11811 243.847353 
L 153.650772 243.061396 
L 155.183434 241.928695 
L 156.716096 241.304553 
L 158.248758 240.310549 
L 159.78142 239.593942 
L 162.846745 237.860215 
L 164.379407 236.473233 
L 165.912069 235.641044 
L 167.444731 234.600807 
L 168.977394 233.907316 
L 172.042718 231.988658 
L 173.57538 230.601676 
L 175.108042 229.792604 
L 176.640705 228.474971 
L 178.173367 227.642782 
L 179.706029 225.955287 
L 181.238691 224.961284 
L 182.771353 223.736116 
L 184.304015 222.927044 
L 185.836678 221.470713 
L 187.36934 220.638524 
L 188.902002 219.505822 
L 190.434664 218.558051 
L 191.967326 217.356 
L 193.499989 216.431345 
L 196.565313 214.05036 
L 198.097975 212.362865 
L 199.630637 211.76184 
L 201.1633 210.028113 
L 202.695962 209.265273 
L 204.228624 207.485313 
L 205.761286 206.699356 
L 207.293948 204.965629 
L 208.826611 204.272138 
L 210.359273 202.746458 
L 211.891935 202.191665 
L 213.424597 200.966498 
L 214.957259 200.06496 
L 216.489921 198.724211 
L 218.022584 198.100069 
L 219.555246 196.620622 
L 221.087908 195.7422 
L 222.62057 194.308985 
L 224.153232 193.407447 
L 227.218557 190.679716 
L 230.283881 188.321847 
L 231.816543 187.004215 
L 233.349206 186.148909 
L 234.881868 184.392065 
L 236.41453 183.629225 
L 237.947192 181.826149 
L 239.479854 180.901495 
L 242.545179 178.70544 
L 244.077841 177.295342 
L 245.610503 176.601851 
L 247.143165 175.307335 
L 248.675827 174.313331 
L 250.20849 172.972582 
L 251.741152 172.047927 
L 256.339138 168.141262 
L 257.871801 167.447771 
L 259.404463 165.922091 
L 260.937125 165.066785 
L 262.469787 163.70292 
L 264.002449 162.847615 
L 265.535112 161.437516 
L 267.067774 160.605327 
L 268.600436 159.172113 
L 270.133098 158.201225 
L 271.66576 156.768011 
L 273.198423 155.750891 
L 274.731085 154.202095 
L 276.263747 153.462371 
L 283.927058 147.475233 
L 286.992382 144.701269 
L 288.525044 144.054011 
L 290.057707 142.713262 
L 291.590369 141.857956 
L 293.123031 140.470975 
L 296.188355 138.968411 
L 297.721018 137.350265 
L 299.25368 136.818589 
L 300.786342 136.101982 
L 302.319004 134.46072 
L 306.916991 131.478709 
L 309.982315 129.929913 
L 311.514977 128.196185 
L 317.645626 124.358869 
L 320.71095 121.006996 
L 325.308937 117.632007 
L 326.841599 115.112324 
L 329.906924 112.731338 
L 331.439586 111.714218 
L 332.972248 110.234771 
L 334.50491 109.217651 
L 337.570235 106.513036 
L 339.102897 104.039585 
L 343.700883 100.64148 
L 345.233545 99.416313 
L 346.766208 97.751935 
L 348.29887 95.787044 
L 351.364194 93.590989 
L 352.896856 91.348702 
L 354.429519 90.054185 
L 355.962181 88.482273 
L 357.494843 87.534502 
L 359.027505 85.662076 
L 360.560167 84.737422 
L 362.09283 82.864996 
L 363.625492 81.847876 
L 365.158154 79.698055 
L 368.223478 77.478884 
L 369.75614 76.785393 
L 371.288803 75.698924 
L 372.821465 74.080778 
L 375.886789 71.792258 
L 377.419451 69.827367 
L 378.952114 68.209222 
L 380.484776 65.527724 
L 382.017438 63.470367 
L 383.5501 62.661295 
L 385.082762 60.511473 
L 386.615425 59.910447 
L 388.148087 58.384767 
L 389.680749 56.258062 
L 391.213411 53.368516 
L 392.746073 51.796604 
L 394.278736 51.126229 
L 395.811398 50.964415 
L 397.34406 50.918182 
L 397.34406 50.918182 
" clip-path="url(#pf429cddaf0)" style="fill: none; stroke-dasharray: 3,4.95; stroke-dashoffset: 0; stroke: #ff0000; stroke-width: 3"/>
   </g>
   <g id="patch_3">
    <path d="M 75.485 293.64 
L 75.485 39.36 
" style="fill: none; stroke: #000000; stroke-width: 0.8; stroke-linejoin: miter; stroke-linecap: square"/>
   </g>
   <g id="patch_4">
    <path d="M 412.670682 293.64 
L 412.670682 39.36 
" style="fill: none; stroke: #000000; stroke-width: 0.8; stroke-linejoin: miter; stroke-linecap: square"/>
   </g>
   <g id="patch_5">
    <path d="M 75.485 293.64 
L 412.670682 293.64 
" style="fill: none; stroke: #000000; stroke-width: 0.8; stroke-linejoin: miter; stroke-linecap: square"/>
   </g>
   <g id="patch_6">
    <path d="M 75.485 39.36 
L 412.670682 39.36 
" style="fill: none; stroke: #000000; stroke-width: 0.8; stroke-linejoin: miter; stroke-linecap: square"/>
   </g>
   <g id="text_15">
    <!-- Cumulative distribution by group -->
    <g transform="translate(75.878247 33.36)scale(0.204 -0.204)">
     <defs>
      <path id="DejaVuSans-64" d="M 2906 2969 
L 2906 4863 
L 3481 4863 
L 3481 0 
L 2906 0 
L 2906 525 
Q 2725 213 2448 61 
Q 2172 -91 1784 -91 
Q 1150 -91 751 415 
Q 353 922 353 1747 
Q 353 2572 751 3078 
Q 1150 3584 1784 3584 
Q 2172 3584 2448 3432 
Q 2725 3281 2906 2969 
z
M 947 1747 
Q 947 1113 1208 752 
Q 1469 391 1925 391 
Q 2381 391 2643 752 
Q 2906 1113 2906 1747 
Q 2906 2381 2643 2742 
Q 2381 3103 1925 3103 
Q 1469 3103 1208 2742 
Q 947 2381 947 1747 
z
" transform="scale(0.015625)"/>
      <path id="DejaVuSans-73" d="M 2834 3397 
L 2834 2853 
Q 2591 2978 2328 3040 
Q 2066 3103 1784 3103 
Q 1356 3103 1142 2972 
Q 928 2841 928 2578 
Q 928 2378 1081 2264 
Q 1234 2150 1697 2047 
L 1894 2003 
Q 2506 1872 2764 1633 
Q 3022 1394 3022 966 
Q 3022 478 2636 193 
Q 2250 -91 1575 -91 
Q 1294 -91 989 -36 
Q 684 19 347 128 
L 347 722 
Q 666 556 975 473 
Q 1284 391 1588 391 
Q 1994 391 2212 530 
Q 2431 669 2431 922 
Q 2431 1156 2273 1281 
Q 2116 1406 1581 1522 
L 1381 1569 
Q 847 1681 609 1914 
Q 372 2147 372 2553 
Q 372 3047 722 3315 
Q 1072 3584 1716 3584 
Q 2034 3584 2315 3537 
Q 2597 3491 2834 3397 
z
" transform="scale(0.015625)"/>
      <path id="DejaVuSans-62" d="M 3116 1747 
Q 3116 2381 2855 2742 
Q 2594 3103 2138 3103 
Q 1681 3103 1420 2742 
Q 1159 2381 1159 1747 
Q 1159 1113 1420 752 
Q 1681 391 2138 391 
Q 2594 391 2855 752 
Q 3116 1113 3116 1747 
z
M 1159 2969 
Q 1341 3281 1617 3432 
Q 1894 3584 2278 3584 
Q 2916 3584 3314 3078 
Q 3713 2572 3713 1747 
Q 3713 922 3314 415 
Q 2916 -91 2278 -91 
Q 1894 -91 1617 61 
Q 1341 213 1159 525 
L 1159 0 
L 581 0 
L 581 4863 
L 1159 4863 
L 1159 2969 
z
" transform="scale(0.015625)"/>
      <path id="DejaVuSans-79" d="M 2059 -325 
Q 1816 -950 1584 -1140 
Q 1353 -1331 966 -1331 
L 506 -1331 
L 506 -850 
L 844 -850 
Q 1081 -850 1212 -737 
Q 1344 -625 1503 -206 
L 1606 56 
L 191 3500 
L 800 3500 
L 1894 763 
L 2988 3500 
L 3597 3500 
L 2059 -325 
z
" transform="scale(0.015625)"/>
      <path id="DejaVuSans-67" d="M 2906 1791 
Q 2906 2416 2648 2759 
Q 2391 3103 1925 3103 
Q 1463 3103 1205 2759 
Q 947 2416 947 1791 
Q 947 1169 1205 825 
Q 1463 481 1925 481 
Q 2391 481 2648 825 
Q 2906 1169 2906 1791 
z
M 3481 434 
Q 3481 -459 3084 -895 
Q 2688 -1331 1869 -1331 
Q 1566 -1331 1297 -1286 
Q 1028 -1241 775 -1147 
L 775 -588 
Q 1028 -725 1275 -790 
Q 1522 -856 1778 -856 
Q 2344 -856 2625 -561 
Q 2906 -266 2906 331 
L 2906 616 
Q 2728 306 2450 153 
Q 2172 0 1784 0 
Q 1141 0 747 490 
Q 353 981 353 1791 
Q 353 2603 747 3093 
Q 1141 3584 1784 3584 
Q 2172 3584 2450 3431 
Q 2728 3278 2906 2969 
L 2906 3500 
L 3481 3500 
L 3481 434 
z
" transform="scale(0.015625)"/>
     </defs>
     <use xlink:href="#DejaVuSans-43"/>
     <use xlink:href="#DejaVuSans-75" x="69.824219"/>
     <use xlink:href="#DejaVuSans-6d" x="133.203125"/>
     <use xlink:href="#DejaVuSans-75" x="230.615234"/>
     <use xlink:href="#DejaVuSans-6c" x="293.994141"/>
     <use xlink:href="#DejaVuSans-61" x="321.777344"/>
     <use xlink:href="#DejaVuSans-74" x="383.056641"/>
     <use xlink:href="#DejaVuSans-69" x="422.265625"/>
     <use xlink:href="#DejaVuSans-76" x="450.048828"/>
     <use xlink:href="#DejaVuSans-65" x="509.228516"/>
     <use xlink:href="#DejaVuSans-20" x="570.751953"/>
     <use xlink:href="#DejaVuSans-64" x="602.539062"/>
     <use xlink:href="#DejaVuSans-69" x="666.015625"/>
     <use xlink:href="#DejaVuSans-73" x="693.798828"/>
     <use xlink:href="#DejaVuSans-74" x="745.898438"/>
     <use xlink:href="#DejaVuSans-72" x="785.107422"/>
     <use xlink:href="#DejaVuSans-69" x="826.220703"/>
     <use xlink:href="#DejaVuSans-62" x="854.003906"/>
     <use xlink:href="#DejaVuSans-75" x="917.480469"/>
     <use xlink:href="#DejaVuSans-74" x="980.859375"/>
     <use xlink:href="#DejaVuSans-69" x="1020.068359"/>
     <use xlink:href="#DejaVuSans-6f" x="1047.851562"/>
     <use xlink:href="#DejaVuSans-6e" x="1109.033203"/>
     <use xlink:href="#DejaVuSans-20" x="1172.412109"/>
     <use xlink:href="#DejaVuSans-62" x="1204.199219"/>
     <use xlink:href="#DejaVuSans-79" x="1267.675781"/>
     <use xlink:href="#DejaVuSans-20" x="1326.855469"/>
     <use xlink:href="#DejaVuSans-67" x="1358.642578"/>
     <use xlink:href="#DejaVuSans-72" x="1422.119141"/>
     <use xlink:href="#DejaVuSans-6f" x="1460.982422"/>
     <use xlink:href="#DejaVuSans-75" x="1522.164062"/>
     <use xlink:href="#DejaVuSans-70" x="1585.542969"/>
    </g>
   </g>
   <g id="legend_1">
    <g id="patch_7">
     <path d="M 273.953338 285.14 
L 400.770682 285.14 
Q 404.170682 285.14 404.170682 281.74 
L 404.170682 183.62875 
Q 404.170682 180.22875 400.770682 180.22875 
L 273.953338 180.22875 
Q 270.553338 180.22875 270.553338 183.62875 
L 270.553338 281.74 
Q 270.553338 285.14 273.953338 285.14 
z
" style="fill: #ffffff; opacity: 0.8; stroke: #cccccc; stroke-linejoin: miter"/>
    </g>
    <g id="line2d_17">
     <path d="M 277.353338 193.996094 
L 294.353338 193.996094 
L 311.353338 193.996094 
" style="fill: none; stroke: #0000ff; stroke-width: 3; stroke-linecap: square"/>
    </g>
    <g id="text_16">
     <!-- Asian -->
     <g transform="translate(324.953338 199.946094)scale(0.17 -0.17)">
      <defs>
       <path id="DejaVuSans-41" d="M 2188 4044 
L 1331 1722 
L 3047 1722 
L 2188 4044 
z
M 1831 4666 
L 2547 4666 
L 4325 0 
L 3669 0 
L 3244 1197 
L 1141 1197 
L 716 0 
L 50 0 
L 1831 4666 
z
" transform="scale(0.015625)"/>
      </defs>
      <use xlink:href="#DejaVuSans-41"/>
      <use xlink:href="#DejaVuSans-73" x="68.408203"/>
      <use xlink:href="#DejaVuSans-69" x="120.507812"/>
      <use xlink:href="#DejaVuSans-61" x="148.291016"/>
      <use xlink:href="#DejaVuSans-6e" x="209.570312"/>
     </g>
    </g>
    <g id="line2d_18">
     <path d="M 277.353338 218.948906 
L 294.353338 218.948906 
L 311.353338 218.948906 
" style="fill: none; stroke-dasharray: 11.1,4.8; stroke-dashoffset: 0; stroke: #008000; stroke-width: 3"/>
    </g>
    <g id="text_17">
     <!-- Black -->
     <g transform="translate(324.953338 224.898906)scale(0.17 -0.17)">
      <defs>
       <path id="DejaVuSans-42" d="M 1259 2228 
L 1259 519 
L 2272 519 
Q 2781 519 3026 730 
Q 3272 941 3272 1375 
Q 3272 1813 3026 2020 
Q 2781 2228 2272 2228 
L 1259 2228 
z
M 1259 4147 
L 1259 2741 
L 2194 2741 
Q 2656 2741 2882 2914 
Q 3109 3088 3109 3444 
Q 3109 3797 2882 3972 
Q 2656 4147 2194 4147 
L 1259 4147 
z
M 628 4666 
L 2241 4666 
Q 2963 4666 3353 4366 
Q 3744 4066 3744 3513 
Q 3744 3084 3544 2831 
Q 3344 2578 2956 2516 
Q 3422 2416 3680 2098 
Q 3938 1781 3938 1306 
Q 3938 681 3513 340 
Q 3088 0 2303 0 
L 628 0 
L 628 4666 
z
" transform="scale(0.015625)"/>
       <path id="DejaVuSans-6b" d="M 581 4863 
L 1159 4863 
L 1159 1991 
L 2875 3500 
L 3609 3500 
L 1753 1863 
L 3688 0 
L 2938 0 
L 1159 1709 
L 1159 0 
L 581 0 
L 581 4863 
z
" transform="scale(0.015625)"/>
      </defs>
      <use xlink:href="#DejaVuSans-42"/>
      <use xlink:href="#DejaVuSans-6c" x="68.603516"/>
      <use xlink:href="#DejaVuSans-61" x="96.386719"/>
      <use xlink:href="#DejaVuSans-63" x="157.666016"/>
      <use xlink:href="#DejaVuSans-6b" x="212.646484"/>
     </g>
    </g>
    <g id="line2d_19">
     <path d="M 277.353338 243.901719 
L 294.353338 243.901719 
L 311.353338 243.901719 
" style="fill: none; stroke-dasharray: 19.2,4.8,3,4.8; stroke-dashoffset: 0; stroke: #00bfbf; stroke-width: 3"/>
    </g>
    <g id="text_18">
     <!-- Hispanic -->
     <g transform="translate(324.953338 249.851719)scale(0.17 -0.17)">
      <defs>
       <path id="DejaVuSans-48" d="M 628 4666 
L 1259 4666 
L 1259 2753 
L 3553 2753 
L 3553 4666 
L 4184 4666 
L 4184 0 
L 3553 0 
L 3553 2222 
L 1259 2222 
L 1259 0 
L 628 0 
L 628 4666 
z
" transform="scale(0.015625)"/>
      </defs>
      <use xlink:href="#DejaVuSans-48"/>
      <use xlink:href="#DejaVuSans-69" x="75.195312"/>
      <use xlink:href="#DejaVuSans-73" x="102.978516"/>
      <use xlink:href="#DejaVuSans-70" x="155.078125"/>
      <use xlink:href="#DejaVuSans-61" x="218.554688"/>
      <use xlink:href="#DejaVuSans-6e" x="279.833984"/>
      <use xlink:href="#DejaVuSans-69" x="343.212891"/>
      <use xlink:href="#DejaVuSans-63" x="370.996094"/>
     </g>
    </g>
    <g id="line2d_20">
     <path d="M 277.353338 268.854531 
L 294.353338 268.854531 
L 311.353338 268.854531 
" style="fill: none; stroke-dasharray: 3,4.95; stroke-dashoffset: 0; stroke: #ff0000; stroke-width: 3"/>
    </g>
    <g id="text_19">
     <!-- White -->
     <g transform="translate(324.953338 274.804531)scale(0.17 -0.17)">
      <defs>
       <path id="DejaVuSans-57" d="M 213 4666 
L 850 4666 
L 1831 722 
L 2809 4666 
L 3519 4666 
L 4500 722 
L 5478 4666 
L 6119 4666 
L 4947 0 
L 4153 0 
L 3169 4050 
L 2175 0 
L 1381 0 
L 213 4666 
z
" transform="scale(0.015625)"/>
       <path id="DejaVuSans-68" d="M 3513 2113 
L 3513 0 
L 2938 0 
L 2938 2094 
Q 2938 2591 2744 2837 
Q 2550 3084 2163 3084 
Q 1697 3084 1428 2787 
Q 1159 2491 1159 1978 
L 1159 0 
L 581 0 
L 581 4863 
L 1159 4863 
L 1159 2956 
Q 1366 3272 1645 3428 
Q 1925 3584 2291 3584 
Q 2894 3584 3203 3211 
Q 3513 2838 3513 2113 
z
" transform="scale(0.015625)"/>
      </defs>
      <use xlink:href="#DejaVuSans-57"/>
      <use xlink:href="#DejaVuSans-68" x="98.876953"/>
      <use xlink:href="#DejaVuSans-69" x="162.255859"/>
      <use xlink:href="#DejaVuSans-74" x="190.039062"/>
      <use xlink:href="#DejaVuSans-65" x="229.248047"/>
     </g>
    </g>
   </g>
  </g>
 </g>
 <defs>
  <clipPath id="pf429cddaf0">
   <rect x="75.485" y="39.36" width="337.185682" height="254.28"/>
  </clipPath>
 </defs>
</svg>
