<?xml version="1.0" encoding="utf-8" standalone="no"?>
<!DOCTYPE svg PUBLIC "-//W3C//DTD SVG 1.1//EN"
  "http://www.w3.org/Graphics/SVG/1.1/DTD/svg11.dtd">
<!-- Created with matplotlib (http://matplotlib.org/) -->
<svg height="360pt" version="1.1" viewBox="0 0 720 360" width="720pt" xmlns="http://www.w3.org/2000/svg" xmlns:xlink="http://www.w3.org/1999/xlink">
 <defs>
  <style type="text/css">
*{stroke-linecap:butt;stroke-linejoin:round;}
  </style>
 </defs>
 <g id="figure_1">
  <g id="patch_1">
   <path d="M 0 360 
L 720 360 
L 720 0 
L 0 0 
z
" style="fill:#ffffff;"/>
  </g>
  <g id="axes_1">
   <g id="patch_2">
    <path d="M 96.86 293.64 
L 330.135341 293.64 
L 330.135341 21.86 
L 96.86 21.86 
z
" style="fill:#ffffff;"/>
   </g>
   <g id="matplotlib.axis_1">
    <g id="xtick_1">
     <g id="line2d_1">
      <defs>
       <path d="M 0 0 
L 0 3.5 
" id="maacdd366bd" style="stroke:#000000;stroke-width:0.8;"/>
      </defs>
      <g>
       <use style="stroke:#000000;stroke-width:0.8;" x="96.86" xlink:href="#maacdd366bd" y="293.64"/>
      </g>
     </g>
     <g id="text_1">
      <!-- 0 -->
      <defs>
       <path d="M 31.78125 66.40625 
Q 24.171875 66.40625 20.328125 58.90625 
Q 16.5 51.421875 16.5 36.375 
Q 16.5 21.390625 20.328125 13.890625 
Q 24.171875 6.390625 31.78125 6.390625 
Q 39.453125 6.390625 43.28125 13.890625 
Q 47.125 21.390625 47.125 36.375 
Q 47.125 51.421875 43.28125 58.90625 
Q 39.453125 66.40625 31.78125 66.40625 
z
M 31.78125 74.21875 
Q 44.046875 74.21875 50.515625 64.515625 
Q 56.984375 54.828125 56.984375 36.375 
Q 56.984375 17.96875 50.515625 8.265625 
Q 44.046875 -1.421875 31.78125 -1.421875 
Q 19.53125 -1.421875 13.0625 8.265625 
Q 6.59375 17.96875 6.59375 36.375 
Q 6.59375 54.828125 13.0625 64.515625 
Q 19.53125 74.21875 31.78125 74.21875 
z
" id="DejaVuSans-30"/>
      </defs>
      <g transform="translate(91.451875 313.557344)scale(0.17 -0.17)">
       <use xlink:href="#DejaVuSans-30"/>
      </g>
     </g>
    </g>
    <g id="xtick_2">
     <g id="line2d_2">
      <g>
       <use style="stroke:#000000;stroke-width:0.8;" x="155.178835" xlink:href="#maacdd366bd" y="293.64"/>
      </g>
     </g>
     <g id="text_2">
      <!-- 25 -->
      <defs>
       <path d="M 19.1875 8.296875 
L 53.609375 8.296875 
L 53.609375 0 
L 7.328125 0 
L 7.328125 8.296875 
Q 12.9375 14.109375 22.625 23.890625 
Q 32.328125 33.6875 34.8125 36.53125 
Q 39.546875 41.84375 41.421875 45.53125 
Q 43.3125 49.21875 43.3125 52.78125 
Q 43.3125 58.59375 39.234375 62.25 
Q 35.15625 65.921875 28.609375 65.921875 
Q 23.96875 65.921875 18.8125 64.3125 
Q 13.671875 62.703125 7.8125 59.421875 
L 7.8125 69.390625 
Q 13.765625 71.78125 18.9375 73 
Q 24.125 74.21875 28.421875 74.21875 
Q 39.75 74.21875 46.484375 68.546875 
Q 53.21875 62.890625 53.21875 53.421875 
Q 53.21875 48.921875 51.53125 44.890625 
Q 49.859375 40.875 45.40625 35.40625 
Q 44.1875 33.984375 37.640625 27.21875 
Q 31.109375 20.453125 19.1875 8.296875 
z
" id="DejaVuSans-32"/>
       <path d="M 10.796875 72.90625 
L 49.515625 72.90625 
L 49.515625 64.59375 
L 19.828125 64.59375 
L 19.828125 46.734375 
Q 21.96875 47.46875 24.109375 47.828125 
Q 26.265625 48.1875 28.421875 48.1875 
Q 40.625 48.1875 47.75 41.5 
Q 54.890625 34.8125 54.890625 23.390625 
Q 54.890625 11.625 47.5625 5.09375 
Q 40.234375 -1.421875 26.90625 -1.421875 
Q 22.3125 -1.421875 17.546875 -0.640625 
Q 12.796875 0.140625 7.71875 1.703125 
L 7.71875 11.625 
Q 12.109375 9.234375 16.796875 8.0625 
Q 21.484375 6.890625 26.703125 6.890625 
Q 35.15625 6.890625 40.078125 11.328125 
Q 45.015625 15.765625 45.015625 23.390625 
Q 45.015625 31 40.078125 35.4375 
Q 35.15625 39.890625 26.703125 39.890625 
Q 22.75 39.890625 18.8125 39.015625 
Q 14.890625 38.140625 10.796875 36.28125 
z
" id="DejaVuSans-35"/>
      </defs>
      <g transform="translate(144.362585 313.557344)scale(0.17 -0.17)">
       <use xlink:href="#DejaVuSans-32"/>
       <use x="63.623047" xlink:href="#DejaVuSans-35"/>
      </g>
     </g>
    </g>
    <g id="xtick_3">
     <g id="line2d_3">
      <g>
       <use style="stroke:#000000;stroke-width:0.8;" x="213.49767" xlink:href="#maacdd366bd" y="293.64"/>
      </g>
     </g>
     <g id="text_3">
      <!-- 50 -->
      <g transform="translate(202.68142 313.557344)scale(0.17 -0.17)">
       <use xlink:href="#DejaVuSans-35"/>
       <use x="63.623047" xlink:href="#DejaVuSans-30"/>
      </g>
     </g>
    </g>
    <g id="xtick_4">
     <g id="line2d_4">
      <g>
       <use style="stroke:#000000;stroke-width:0.8;" x="271.816506" xlink:href="#maacdd366bd" y="293.64"/>
      </g>
     </g>
     <g id="text_4">
      <!-- 75 -->
      <defs>
       <path d="M 8.203125 72.90625 
L 55.078125 72.90625 
L 55.078125 68.703125 
L 28.609375 0 
L 18.3125 0 
L 43.21875 64.59375 
L 8.203125 64.59375 
z
" id="DejaVuSans-37"/>
      </defs>
      <g transform="translate(261.000256 313.557344)scale(0.17 -0.17)">
       <use xlink:href="#DejaVuSans-37"/>
       <use x="63.623047" xlink:href="#DejaVuSans-35"/>
      </g>
     </g>
    </g>
    <g id="xtick_5">
     <g id="line2d_5">
      <g>
       <use style="stroke:#000000;stroke-width:0.8;" x="330.135341" xlink:href="#maacdd366bd" y="293.64"/>
      </g>
     </g>
     <g id="text_5">
      <!-- 100 -->
      <defs>
       <path d="M 12.40625 8.296875 
L 28.515625 8.296875 
L 28.515625 63.921875 
L 10.984375 60.40625 
L 10.984375 69.390625 
L 28.421875 72.90625 
L 38.28125 72.90625 
L 38.28125 8.296875 
L 54.390625 8.296875 
L 54.390625 0 
L 12.40625 0 
z
" id="DejaVuSans-31"/>
      </defs>
      <g transform="translate(313.910966 313.557344)scale(0.17 -0.17)">
       <use xlink:href="#DejaVuSans-31"/>
       <use x="63.623047" xlink:href="#DejaVuSans-30"/>
       <use x="127.246094" xlink:href="#DejaVuSans-30"/>
      </g>
     </g>
    </g>
    <g id="text_6">
     <!-- credit score -->
     <defs>
      <path d="M 48.78125 52.59375 
L 48.78125 44.1875 
Q 44.96875 46.296875 41.140625 47.34375 
Q 37.3125 48.390625 33.40625 48.390625 
Q 24.65625 48.390625 19.8125 42.84375 
Q 14.984375 37.3125 14.984375 27.296875 
Q 14.984375 17.28125 19.8125 11.734375 
Q 24.65625 6.203125 33.40625 6.203125 
Q 37.3125 6.203125 41.140625 7.25 
Q 44.96875 8.296875 48.78125 10.40625 
L 48.78125 2.09375 
Q 45.015625 0.34375 40.984375 -0.53125 
Q 36.96875 -1.421875 32.421875 -1.421875 
Q 20.0625 -1.421875 12.78125 6.34375 
Q 5.515625 14.109375 5.515625 27.296875 
Q 5.515625 40.671875 12.859375 48.328125 
Q 20.21875 56 33.015625 56 
Q 37.15625 56 41.109375 55.140625 
Q 45.0625 54.296875 48.78125 52.59375 
z
" id="DejaVuSans-63"/>
      <path d="M 41.109375 46.296875 
Q 39.59375 47.171875 37.8125 47.578125 
Q 36.03125 48 33.890625 48 
Q 26.265625 48 22.1875 43.046875 
Q 18.109375 38.09375 18.109375 28.8125 
L 18.109375 0 
L 9.078125 0 
L 9.078125 54.6875 
L 18.109375 54.6875 
L 18.109375 46.1875 
Q 20.953125 51.171875 25.484375 53.578125 
Q 30.03125 56 36.53125 56 
Q 37.453125 56 38.578125 55.875 
Q 39.703125 55.765625 41.0625 55.515625 
z
" id="DejaVuSans-72"/>
      <path d="M 56.203125 29.59375 
L 56.203125 25.203125 
L 14.890625 25.203125 
Q 15.484375 15.921875 20.484375 11.0625 
Q 25.484375 6.203125 34.421875 6.203125 
Q 39.59375 6.203125 44.453125 7.46875 
Q 49.3125 8.734375 54.109375 11.28125 
L 54.109375 2.78125 
Q 49.265625 0.734375 44.1875 -0.34375 
Q 39.109375 -1.421875 33.890625 -1.421875 
Q 20.796875 -1.421875 13.15625 6.1875 
Q 5.515625 13.8125 5.515625 26.8125 
Q 5.515625 40.234375 12.765625 48.109375 
Q 20.015625 56 32.328125 56 
Q 43.359375 56 49.78125 48.890625 
Q 56.203125 41.796875 56.203125 29.59375 
z
M 47.21875 32.234375 
Q 47.125 39.59375 43.09375 43.984375 
Q 39.0625 48.390625 32.421875 48.390625 
Q 24.90625 48.390625 20.390625 44.140625 
Q 15.875 39.890625 15.1875 32.171875 
z
" id="DejaVuSans-65"/>
      <path d="M 45.40625 46.390625 
L 45.40625 75.984375 
L 54.390625 75.984375 
L 54.390625 0 
L 45.40625 0 
L 45.40625 8.203125 
Q 42.578125 3.328125 38.25 0.953125 
Q 33.9375 -1.421875 27.875 -1.421875 
Q 17.96875 -1.421875 11.734375 6.484375 
Q 5.515625 14.40625 5.515625 27.296875 
Q 5.515625 40.1875 11.734375 48.09375 
Q 17.96875 56 27.875 56 
Q 33.9375 56 38.25 53.625 
Q 42.578125 51.265625 45.40625 46.390625 
z
M 14.796875 27.296875 
Q 14.796875 17.390625 18.875 11.75 
Q 22.953125 6.109375 30.078125 6.109375 
Q 37.203125 6.109375 41.296875 11.75 
Q 45.40625 17.390625 45.40625 27.296875 
Q 45.40625 37.203125 41.296875 42.84375 
Q 37.203125 48.484375 30.078125 48.484375 
Q 22.953125 48.484375 18.875 42.84375 
Q 14.796875 37.203125 14.796875 27.296875 
z
" id="DejaVuSans-64"/>
      <path d="M 9.421875 54.6875 
L 18.40625 54.6875 
L 18.40625 0 
L 9.421875 0 
z
M 9.421875 75.984375 
L 18.40625 75.984375 
L 18.40625 64.59375 
L 9.421875 64.59375 
z
" id="DejaVuSans-69"/>
      <path d="M 18.3125 70.21875 
L 18.3125 54.6875 
L 36.8125 54.6875 
L 36.8125 47.703125 
L 18.3125 47.703125 
L 18.3125 18.015625 
Q 18.3125 11.328125 20.140625 9.421875 
Q 21.96875 7.515625 27.59375 7.515625 
L 36.8125 7.515625 
L 36.8125 0 
L 27.59375 0 
Q 17.1875 0 13.234375 3.875 
Q 9.28125 7.765625 9.28125 18.015625 
L 9.28125 47.703125 
L 2.6875 47.703125 
L 2.6875 54.6875 
L 9.28125 54.6875 
L 9.28125 70.21875 
z
" id="DejaVuSans-74"/>
      <path id="DejaVuSans-20"/>
      <path d="M 44.28125 53.078125 
L 44.28125 44.578125 
Q 40.484375 46.53125 36.375 47.5 
Q 32.28125 48.484375 27.875 48.484375 
Q 21.1875 48.484375 17.84375 46.4375 
Q 14.5 44.390625 14.5 40.28125 
Q 14.5 37.15625 16.890625 35.375 
Q 19.28125 33.59375 26.515625 31.984375 
L 29.59375 31.296875 
Q 39.15625 29.25 43.1875 25.515625 
Q 47.21875 21.78125 47.21875 15.09375 
Q 47.21875 7.46875 41.1875 3.015625 
Q 35.15625 -1.421875 24.609375 -1.421875 
Q 20.21875 -1.421875 15.453125 -0.5625 
Q 10.6875 0.296875 5.421875 2 
L 5.421875 11.28125 
Q 10.40625 8.6875 15.234375 7.390625 
Q 20.0625 6.109375 24.8125 6.109375 
Q 31.15625 6.109375 34.5625 8.28125 
Q 37.984375 10.453125 37.984375 14.40625 
Q 37.984375 18.0625 35.515625 20.015625 
Q 33.0625 21.96875 24.703125 23.78125 
L 21.578125 24.515625 
Q 13.234375 26.265625 9.515625 29.90625 
Q 5.8125 33.546875 5.8125 39.890625 
Q 5.8125 47.609375 11.28125 51.796875 
Q 16.75 56 26.8125 56 
Q 31.78125 56 36.171875 55.265625 
Q 40.578125 54.546875 44.28125 53.078125 
z
" id="DejaVuSans-73"/>
      <path d="M 30.609375 48.390625 
Q 23.390625 48.390625 19.1875 42.75 
Q 14.984375 37.109375 14.984375 27.296875 
Q 14.984375 17.484375 19.15625 11.84375 
Q 23.34375 6.203125 30.609375 6.203125 
Q 37.796875 6.203125 41.984375 11.859375 
Q 46.1875 17.53125 46.1875 27.296875 
Q 46.1875 37.015625 41.984375 42.703125 
Q 37.796875 48.390625 30.609375 48.390625 
z
M 30.609375 56 
Q 42.328125 56 49.015625 48.375 
Q 55.71875 40.765625 55.71875 27.296875 
Q 55.71875 13.875 49.015625 6.21875 
Q 42.328125 -1.421875 30.609375 -1.421875 
Q 18.84375 -1.421875 12.171875 6.21875 
Q 5.515625 13.875 5.515625 27.296875 
Q 5.515625 40.765625 12.171875 48.375 
Q 18.84375 56 30.609375 56 
z
" id="DejaVuSans-6f"/>
     </defs>
     <g transform="translate(153.244358 336.593625)scale(0.204 -0.204)">
      <use xlink:href="#DejaVuSans-63"/>
      <use x="54.980469" xlink:href="#DejaVuSans-72"/>
      <use x="96.0625" xlink:href="#DejaVuSans-65"/>
      <use x="157.585938" xlink:href="#DejaVuSans-64"/>
      <use x="221.0625" xlink:href="#DejaVuSans-69"/>
      <use x="248.845703" xlink:href="#DejaVuSans-74"/>
      <use x="288.054688" xlink:href="#DejaVuSans-20"/>
      <use x="319.841797" xlink:href="#DejaVuSans-73"/>
      <use x="371.941406" xlink:href="#DejaVuSans-63"/>
      <use x="426.921875" xlink:href="#DejaVuSans-6f"/>
      <use x="488.103516" xlink:href="#DejaVuSans-72"/>
      <use x="529.185547" xlink:href="#DejaVuSans-65"/>
     </g>
    </g>
   </g>
   <g id="matplotlib.axis_2">
    <g id="ytick_1">
     <g id="line2d_6">
      <defs>
       <path d="M 0 0 
L -3.5 0 
" id="m1c678bcb5b" style="stroke:#000000;stroke-width:0.8;"/>
      </defs>
      <g>
       <use style="stroke:#000000;stroke-width:0.8;" x="96.86" xlink:href="#m1c678bcb5b" y="282.110939"/>
      </g>
     </g>
     <g id="text_7">
      <!-- 0% -->
      <defs>
       <path d="M 72.703125 32.078125 
Q 68.453125 32.078125 66.03125 28.46875 
Q 63.625 24.859375 63.625 18.40625 
Q 63.625 12.0625 66.03125 8.421875 
Q 68.453125 4.78125 72.703125 4.78125 
Q 76.859375 4.78125 79.265625 8.421875 
Q 81.6875 12.0625 81.6875 18.40625 
Q 81.6875 24.8125 79.265625 28.4375 
Q 76.859375 32.078125 72.703125 32.078125 
z
M 72.703125 38.28125 
Q 80.421875 38.28125 84.953125 32.90625 
Q 89.5 27.546875 89.5 18.40625 
Q 89.5 9.28125 84.9375 3.921875 
Q 80.375 -1.421875 72.703125 -1.421875 
Q 64.890625 -1.421875 60.34375 3.921875 
Q 55.8125 9.28125 55.8125 18.40625 
Q 55.8125 27.59375 60.375 32.9375 
Q 64.9375 38.28125 72.703125 38.28125 
z
M 22.3125 68.015625 
Q 18.109375 68.015625 15.6875 64.375 
Q 13.28125 60.75 13.28125 54.390625 
Q 13.28125 47.953125 15.671875 44.328125 
Q 18.0625 40.71875 22.3125 40.71875 
Q 26.5625 40.71875 28.96875 44.328125 
Q 31.390625 47.953125 31.390625 54.390625 
Q 31.390625 60.6875 28.953125 64.34375 
Q 26.515625 68.015625 22.3125 68.015625 
z
M 66.40625 74.21875 
L 74.21875 74.21875 
L 28.609375 -1.421875 
L 20.796875 -1.421875 
z
M 22.3125 74.21875 
Q 30.03125 74.21875 34.609375 68.875 
Q 39.203125 63.53125 39.203125 54.390625 
Q 39.203125 45.171875 34.640625 39.84375 
Q 30.078125 34.515625 22.3125 34.515625 
Q 14.546875 34.515625 10.03125 39.859375 
Q 5.515625 45.21875 5.515625 54.390625 
Q 5.515625 63.484375 10.046875 68.84375 
Q 14.59375 74.21875 22.3125 74.21875 
z
" id="DejaVuSans-25"/>
      </defs>
      <g transform="translate(62.891094 288.569611)scale(0.17 -0.17)">
       <use xlink:href="#DejaVuSans-30"/>
       <use x="63.623047" xlink:href="#DejaVuSans-25"/>
      </g>
     </g>
    </g>
    <g id="ytick_2">
     <g id="line2d_7">
      <g>
       <use style="stroke:#000000;stroke-width:0.8;" x="96.86" xlink:href="#m1c678bcb5b" y="232.136682"/>
      </g>
     </g>
     <g id="text_8">
      <!-- 20% -->
      <g transform="translate(52.074844 238.595354)scale(0.17 -0.17)">
       <use xlink:href="#DejaVuSans-32"/>
       <use x="63.623047" xlink:href="#DejaVuSans-30"/>
       <use x="127.246094" xlink:href="#DejaVuSans-25"/>
      </g>
     </g>
    </g>
    <g id="ytick_3">
     <g id="line2d_8">
      <g>
       <use style="stroke:#000000;stroke-width:0.8;" x="96.86" xlink:href="#m1c678bcb5b" y="182.162425"/>
      </g>
     </g>
     <g id="text_9">
      <!-- 40% -->
      <defs>
       <path d="M 37.796875 64.3125 
L 12.890625 25.390625 
L 37.796875 25.390625 
z
M 35.203125 72.90625 
L 47.609375 72.90625 
L 47.609375 25.390625 
L 58.015625 25.390625 
L 58.015625 17.1875 
L 47.609375 17.1875 
L 47.609375 0 
L 37.796875 0 
L 37.796875 17.1875 
L 4.890625 17.1875 
L 4.890625 26.703125 
z
" id="DejaVuSans-34"/>
      </defs>
      <g transform="translate(52.074844 188.621096)scale(0.17 -0.17)">
       <use xlink:href="#DejaVuSans-34"/>
       <use x="63.623047" xlink:href="#DejaVuSans-30"/>
       <use x="127.246094" xlink:href="#DejaVuSans-25"/>
      </g>
     </g>
    </g>
    <g id="ytick_4">
     <g id="line2d_9">
      <g>
       <use style="stroke:#000000;stroke-width:0.8;" x="96.86" xlink:href="#m1c678bcb5b" y="132.188167"/>
      </g>
     </g>
     <g id="text_10">
      <!-- 60% -->
      <defs>
       <path d="M 33.015625 40.375 
Q 26.375 40.375 22.484375 35.828125 
Q 18.609375 31.296875 18.609375 23.390625 
Q 18.609375 15.53125 22.484375 10.953125 
Q 26.375 6.390625 33.015625 6.390625 
Q 39.65625 6.390625 43.53125 10.953125 
Q 47.40625 15.53125 47.40625 23.390625 
Q 47.40625 31.296875 43.53125 35.828125 
Q 39.65625 40.375 33.015625 40.375 
z
M 52.59375 71.296875 
L 52.59375 62.3125 
Q 48.875 64.0625 45.09375 64.984375 
Q 41.3125 65.921875 37.59375 65.921875 
Q 27.828125 65.921875 22.671875 59.328125 
Q 17.53125 52.734375 16.796875 39.40625 
Q 19.671875 43.65625 24.015625 45.921875 
Q 28.375 48.1875 33.59375 48.1875 
Q 44.578125 48.1875 50.953125 41.515625 
Q 57.328125 34.859375 57.328125 23.390625 
Q 57.328125 12.15625 50.6875 5.359375 
Q 44.046875 -1.421875 33.015625 -1.421875 
Q 20.359375 -1.421875 13.671875 8.265625 
Q 6.984375 17.96875 6.984375 36.375 
Q 6.984375 53.65625 15.1875 63.9375 
Q 23.390625 74.21875 37.203125 74.21875 
Q 40.921875 74.21875 44.703125 73.484375 
Q 48.484375 72.75 52.59375 71.296875 
z
" id="DejaVuSans-36"/>
      </defs>
      <g transform="translate(52.074844 138.646839)scale(0.17 -0.17)">
       <use xlink:href="#DejaVuSans-36"/>
       <use x="63.623047" xlink:href="#DejaVuSans-30"/>
       <use x="127.246094" xlink:href="#DejaVuSans-25"/>
      </g>
     </g>
    </g>
    <g id="ytick_5">
     <g id="line2d_10">
      <g>
       <use style="stroke:#000000;stroke-width:0.8;" x="96.86" xlink:href="#m1c678bcb5b" y="82.21391"/>
      </g>
     </g>
     <g id="text_11">
      <!-- 80% -->
      <defs>
       <path d="M 31.78125 34.625 
Q 24.75 34.625 20.71875 30.859375 
Q 16.703125 27.09375 16.703125 20.515625 
Q 16.703125 13.921875 20.71875 10.15625 
Q 24.75 6.390625 31.78125 6.390625 
Q 38.8125 6.390625 42.859375 10.171875 
Q 46.921875 13.96875 46.921875 20.515625 
Q 46.921875 27.09375 42.890625 30.859375 
Q 38.875 34.625 31.78125 34.625 
z
M 21.921875 38.8125 
Q 15.578125 40.375 12.03125 44.71875 
Q 8.5 49.078125 8.5 55.328125 
Q 8.5 64.0625 14.71875 69.140625 
Q 20.953125 74.21875 31.78125 74.21875 
Q 42.671875 74.21875 48.875 69.140625 
Q 55.078125 64.0625 55.078125 55.328125 
Q 55.078125 49.078125 51.53125 44.71875 
Q 48 40.375 41.703125 38.8125 
Q 48.828125 37.15625 52.796875 32.3125 
Q 56.78125 27.484375 56.78125 20.515625 
Q 56.78125 9.90625 50.3125 4.234375 
Q 43.84375 -1.421875 31.78125 -1.421875 
Q 19.734375 -1.421875 13.25 4.234375 
Q 6.78125 9.90625 6.78125 20.515625 
Q 6.78125 27.484375 10.78125 32.3125 
Q 14.796875 37.15625 21.921875 38.8125 
z
M 18.3125 54.390625 
Q 18.3125 48.734375 21.84375 45.5625 
Q 25.390625 42.390625 31.78125 42.390625 
Q 38.140625 42.390625 41.71875 45.5625 
Q 45.3125 48.734375 45.3125 54.390625 
Q 45.3125 60.0625 41.71875 63.234375 
Q 38.140625 66.40625 31.78125 66.40625 
Q 25.390625 66.40625 21.84375 63.234375 
Q 18.3125 60.0625 18.3125 54.390625 
z
" id="DejaVuSans-38"/>
      </defs>
      <g transform="translate(52.074844 88.672582)scale(0.17 -0.17)">
       <use xlink:href="#DejaVuSans-38"/>
       <use x="63.623047" xlink:href="#DejaVuSans-30"/>
       <use x="127.246094" xlink:href="#DejaVuSans-25"/>
      </g>
     </g>
    </g>
    <g id="ytick_6">
     <g id="line2d_11">
      <g>
       <use style="stroke:#000000;stroke-width:0.8;" x="96.86" xlink:href="#m1c678bcb5b" y="32.239653"/>
      </g>
     </g>
     <g id="text_12">
      <!-- 100% -->
      <g transform="translate(41.258594 38.698325)scale(0.17 -0.17)">
       <use xlink:href="#DejaVuSans-31"/>
       <use x="63.623047" xlink:href="#DejaVuSans-30"/>
       <use x="127.246094" xlink:href="#DejaVuSans-30"/>
       <use x="190.869141" xlink:href="#DejaVuSans-25"/>
      </g>
     </g>
    </g>
    <g id="text_13">
     <!-- Non-default rate -->
     <defs>
      <path d="M 9.8125 72.90625 
L 23.09375 72.90625 
L 55.421875 11.921875 
L 55.421875 72.90625 
L 64.984375 72.90625 
L 64.984375 0 
L 51.703125 0 
L 19.390625 60.984375 
L 19.390625 0 
L 9.8125 0 
z
" id="DejaVuSans-4e"/>
      <path d="M 54.890625 33.015625 
L 54.890625 0 
L 45.90625 0 
L 45.90625 32.71875 
Q 45.90625 40.484375 42.875 44.328125 
Q 39.84375 48.1875 33.796875 48.1875 
Q 26.515625 48.1875 22.3125 43.546875 
Q 18.109375 38.921875 18.109375 30.90625 
L 18.109375 0 
L 9.078125 0 
L 9.078125 54.6875 
L 18.109375 54.6875 
L 18.109375 46.1875 
Q 21.34375 51.125 25.703125 53.5625 
Q 30.078125 56 35.796875 56 
Q 45.21875 56 50.046875 50.171875 
Q 54.890625 44.34375 54.890625 33.015625 
z
" id="DejaVuSans-6e"/>
      <path d="M 4.890625 31.390625 
L 31.203125 31.390625 
L 31.203125 23.390625 
L 4.890625 23.390625 
z
" id="DejaVuSans-2d"/>
      <path d="M 37.109375 75.984375 
L 37.109375 68.5 
L 28.515625 68.5 
Q 23.6875 68.5 21.796875 66.546875 
Q 19.921875 64.59375 19.921875 59.515625 
L 19.921875 54.6875 
L 34.71875 54.6875 
L 34.71875 47.703125 
L 19.921875 47.703125 
L 19.921875 0 
L 10.890625 0 
L 10.890625 47.703125 
L 2.296875 47.703125 
L 2.296875 54.6875 
L 10.890625 54.6875 
L 10.890625 58.5 
Q 10.890625 67.625 15.140625 71.796875 
Q 19.390625 75.984375 28.609375 75.984375 
z
" id="DejaVuSans-66"/>
      <path d="M 34.28125 27.484375 
Q 23.390625 27.484375 19.1875 25 
Q 14.984375 22.515625 14.984375 16.5 
Q 14.984375 11.71875 18.140625 8.90625 
Q 21.296875 6.109375 26.703125 6.109375 
Q 34.1875 6.109375 38.703125 11.40625 
Q 43.21875 16.703125 43.21875 25.484375 
L 43.21875 27.484375 
z
M 52.203125 31.203125 
L 52.203125 0 
L 43.21875 0 
L 43.21875 8.296875 
Q 40.140625 3.328125 35.546875 0.953125 
Q 30.953125 -1.421875 24.3125 -1.421875 
Q 15.921875 -1.421875 10.953125 3.296875 
Q 6 8.015625 6 15.921875 
Q 6 25.140625 12.171875 29.828125 
Q 18.359375 34.515625 30.609375 34.515625 
L 43.21875 34.515625 
L 43.21875 35.40625 
Q 43.21875 41.609375 39.140625 45 
Q 35.0625 48.390625 27.6875 48.390625 
Q 23 48.390625 18.546875 47.265625 
Q 14.109375 46.140625 10.015625 43.890625 
L 10.015625 52.203125 
Q 14.9375 54.109375 19.578125 55.046875 
Q 24.21875 56 28.609375 56 
Q 40.484375 56 46.34375 49.84375 
Q 52.203125 43.703125 52.203125 31.203125 
z
" id="DejaVuSans-61"/>
      <path d="M 8.5 21.578125 
L 8.5 54.6875 
L 17.484375 54.6875 
L 17.484375 21.921875 
Q 17.484375 14.15625 20.5 10.265625 
Q 23.53125 6.390625 29.59375 6.390625 
Q 36.859375 6.390625 41.078125 11.03125 
Q 45.3125 15.671875 45.3125 23.6875 
L 45.3125 54.6875 
L 54.296875 54.6875 
L 54.296875 0 
L 45.3125 0 
L 45.3125 8.40625 
Q 42.046875 3.421875 37.71875 1 
Q 33.40625 -1.421875 27.6875 -1.421875 
Q 18.265625 -1.421875 13.375 4.4375 
Q 8.5 10.296875 8.5 21.578125 
z
M 31.109375 56 
z
" id="DejaVuSans-75"/>
      <path d="M 9.421875 75.984375 
L 18.40625 75.984375 
L 18.40625 0 
L 9.421875 0 
z
" id="DejaVuSans-6c"/>
     </defs>
     <g transform="translate(33.016031 241.616313)rotate(-90)scale(0.204 -0.204)">
      <use xlink:href="#DejaVuSans-4e"/>
      <use x="74.804688" xlink:href="#DejaVuSans-6f"/>
      <use x="135.986328" xlink:href="#DejaVuSans-6e"/>
      <use x="199.365234" xlink:href="#DejaVuSans-2d"/>
      <use x="235.449219" xlink:href="#DejaVuSans-64"/>
      <use x="298.925781" xlink:href="#DejaVuSans-65"/>
      <use x="360.449219" xlink:href="#DejaVuSans-66"/>
      <use x="395.654297" xlink:href="#DejaVuSans-61"/>
      <use x="456.933594" xlink:href="#DejaVuSans-75"/>
      <use x="520.3125" xlink:href="#DejaVuSans-6c"/>
      <use x="548.095703" xlink:href="#DejaVuSans-74"/>
      <use x="587.304688" xlink:href="#DejaVuSans-20"/>
      <use x="619.091797" xlink:href="#DejaVuSans-72"/>
      <use x="660.205078" xlink:href="#DejaVuSans-61"/>
      <use x="721.484375" xlink:href="#DejaVuSans-74"/>
      <use x="760.693359" xlink:href="#DejaVuSans-65"/>
     </g>
    </g>
   </g>
   <g id="LineCollection_1">
    <path clip-path="url(#p7f3b966f11)" d="M 96.86 73.884867 
L 330.135341 73.884867 
" style="fill:none;stroke:#000000;"/>
   </g>
   <g id="line2d_12">
    <path clip-path="url(#p7f3b966f11)" d="M 96.86 269.042671 
L 120.187534 254.525149 
L 143.515068 179.538776 
L 171.508109 109.649778 
L 190.170136 64.498036 
L 201.833903 59.900405 
L 211.164917 56.20231 
L 213.49767 55.277786 
L 236.825205 41.284994 
L 242.657088 42.059595 
L 260.152739 44.333423 
L 284.646649 37.611886 
L 303.308677 35.31307 
L 307.974184 34.863302 
L 320.804327 34.488495 
L 328.968964 34.238623 
L 330.135341 34.213636 
L 330.135341 34.213636 
" style="fill:none;stroke:#0000ff;stroke-linecap:square;stroke-width:3;"/>
   </g>
   <g id="line2d_13">
    <path clip-path="url(#p7f3b966f11)" d="M 96.86 281.286364 
L 113.189274 266.044215 
L 120.187534 259.522575 
L 143.515068 246.979036 
L 166.842602 158.299717 
L 190.170136 104.227571 
L 213.49767 69.045694 
L 223.995061 66.022251 
L 235.658828 62.624002 
L 236.825205 62.299169 
L 256.653609 53.053931 
L 261.319115 51.004987 
L 276.482012 45.382883 
L 283.480273 42.784221 
L 306.807807 45.307921 
L 314.972444 41.559852 
L 330.135341 34.638418 
L 330.135341 34.638418 
" style="fill:none;stroke:#008000;stroke-dasharray:11.1,4.8;stroke-dashoffset:0;stroke-width:3;"/>
   </g>
   <g id="line2d_14">
    <path clip-path="url(#p7f3b966f11)" d="M 96.86 279.737162 
L 116.688404 256.099338 
L 121.353911 250.677131 
L 141.182315 229.288149 
L 143.515068 226.764449 
L 166.842602 128.415111 
L 190.170136 90.934418 
L 198.334773 82.039 
L 213.49767 65.497521 
L 236.825205 54.428223 
L 262.485492 47.206943 
L 276.482012 42.609312 
L 283.480273 40.285509 
L 304.475053 37.48695 
L 309.14056 36.887259 
L 318.471574 35.787825 
L 328.968964 34.538469 
L 330.135341 34.413533 
L 330.135341 34.413533 
" style="fill:none;stroke:#00bfbf;stroke-dasharray:19.2,4.8,3,4.8;stroke-dashoffset:0;stroke-width:3;"/>
   </g>
   <g id="line2d_15">
    <path clip-path="url(#p7f3b966f11)" d="M 96.86 278.462818 
L 120.187534 248.953019 
L 143.515068 214.995512 
L 166.842602 121.793522 
L 178.506369 98.780377 
L 190.170136 75.767231 
L 209.99854 56.377219 
L 213.49767 52.97897 
L 219.329554 50.705141 
L 236.825205 43.908642 
L 262.485492 39.011165 
L 270.650129 38.036667 
L 283.480273 36.487465 
L 306.807807 35.912761 
L 330.135341 34.488495 
L 330.135341 34.488495 
" style="fill:none;stroke:#ff0000;stroke-dasharray:3,4.95;stroke-dashoffset:0;stroke-width:3;"/>
   </g>
   <g id="patch_3">
    <path d="M 96.86 293.64 
L 96.86 21.86 
" style="fill:none;stroke:#000000;stroke-linecap:square;stroke-linejoin:miter;stroke-width:0.8;"/>
   </g>
   <g id="patch_4">
    <path d="M 330.135341 293.64 
L 330.135341 21.86 
" style="fill:none;stroke:#000000;stroke-linecap:square;stroke-linejoin:miter;stroke-width:0.8;"/>
   </g>
   <g id="patch_5">
    <path d="M 96.86 293.64 
L 330.135341 293.64 
" style="fill:none;stroke:#000000;stroke-linecap:square;stroke-linejoin:miter;stroke-width:0.8;"/>
   </g>
   <g id="patch_6">
    <path d="M 96.86 21.86 
L 330.135341 21.86 
" style="fill:none;stroke:#000000;stroke-linecap:square;stroke-linejoin:miter;stroke-width:0.8;"/>
   </g>
   <g id="legend_1">
    <g id="patch_7">
     <path d="M 191.417997 285.14 
L 318.235341 285.14 
Q 321.635341 285.14 321.635341 281.74 
L 321.635341 183.62875 
Q 321.635341 180.22875 318.235341 180.22875 
L 191.417997 180.22875 
Q 188.017997 180.22875 188.017997 183.62875 
L 188.017997 281.74 
Q 188.017997 285.14 191.417997 285.14 
z
" style="fill:#ffffff;opacity:0.8;stroke:#cccccc;stroke-linejoin:miter;"/>
    </g>
    <g id="line2d_16">
     <path d="M 194.817997 193.996094 
L 228.817997 193.996094 
" style="fill:none;stroke:#0000ff;stroke-linecap:square;stroke-width:3;"/>
    </g>
    <g id="line2d_17"/>
    <g id="text_14">
     <!-- Asian -->
     <defs>
      <path d="M 34.1875 63.1875 
L 20.796875 26.90625 
L 47.609375 26.90625 
z
M 28.609375 72.90625 
L 39.796875 72.90625 
L 67.578125 0 
L 57.328125 0 
L 50.6875 18.703125 
L 17.828125 18.703125 
L 11.1875 0 
L 0.78125 0 
z
" id="DejaVuSans-41"/>
     </defs>
     <g transform="translate(242.417997 199.946094)scale(0.17 -0.17)">
      <use xlink:href="#DejaVuSans-41"/>
      <use x="68.408203" xlink:href="#DejaVuSans-73"/>
      <use x="120.507812" xlink:href="#DejaVuSans-69"/>
      <use x="148.291016" xlink:href="#DejaVuSans-61"/>
      <use x="209.570312" xlink:href="#DejaVuSans-6e"/>
     </g>
    </g>
    <g id="line2d_18">
     <path d="M 194.817997 218.948906 
L 228.817997 218.948906 
" style="fill:none;stroke:#008000;stroke-dasharray:11.1,4.8;stroke-dashoffset:0;stroke-width:3;"/>
    </g>
    <g id="line2d_19"/>
    <g id="text_15">
     <!-- Black -->
     <defs>
      <path d="M 19.671875 34.8125 
L 19.671875 8.109375 
L 35.5 8.109375 
Q 43.453125 8.109375 47.28125 11.40625 
Q 51.125 14.703125 51.125 21.484375 
Q 51.125 28.328125 47.28125 31.5625 
Q 43.453125 34.8125 35.5 34.8125 
z
M 19.671875 64.796875 
L 19.671875 42.828125 
L 34.28125 42.828125 
Q 41.5 42.828125 45.03125 45.53125 
Q 48.578125 48.25 48.578125 53.8125 
Q 48.578125 59.328125 45.03125 62.0625 
Q 41.5 64.796875 34.28125 64.796875 
z
M 9.8125 72.90625 
L 35.015625 72.90625 
Q 46.296875 72.90625 52.390625 68.21875 
Q 58.5 63.53125 58.5 54.890625 
Q 58.5 48.1875 55.375 44.234375 
Q 52.25 40.28125 46.1875 39.3125 
Q 53.46875 37.75 57.5 32.78125 
Q 61.53125 27.828125 61.53125 20.40625 
Q 61.53125 10.640625 54.890625 5.3125 
Q 48.25 0 35.984375 0 
L 9.8125 0 
z
" id="DejaVuSans-42"/>
      <path d="M 9.078125 75.984375 
L 18.109375 75.984375 
L 18.109375 31.109375 
L 44.921875 54.6875 
L 56.390625 54.6875 
L 27.390625 29.109375 
L 57.625 0 
L 45.90625 0 
L 18.109375 26.703125 
L 18.109375 0 
L 9.078125 0 
z
" id="DejaVuSans-6b"/>
     </defs>
     <g transform="translate(242.417997 224.898906)scale(0.17 -0.17)">
      <use xlink:href="#DejaVuSans-42"/>
      <use x="68.603516" xlink:href="#DejaVuSans-6c"/>
      <use x="96.386719" xlink:href="#DejaVuSans-61"/>
      <use x="157.666016" xlink:href="#DejaVuSans-63"/>
      <use x="212.646484" xlink:href="#DejaVuSans-6b"/>
     </g>
    </g>
    <g id="line2d_20">
     <path d="M 194.817997 243.901719 
L 228.817997 243.901719 
" style="fill:none;stroke:#00bfbf;stroke-dasharray:19.2,4.8,3,4.8;stroke-dashoffset:0;stroke-width:3;"/>
    </g>
    <g id="line2d_21"/>
    <g id="text_16">
     <!-- Hispanic -->
     <defs>
      <path d="M 9.8125 72.90625 
L 19.671875 72.90625 
L 19.671875 43.015625 
L 55.515625 43.015625 
L 55.515625 72.90625 
L 65.375 72.90625 
L 65.375 0 
L 55.515625 0 
L 55.515625 34.71875 
L 19.671875 34.71875 
L 19.671875 0 
L 9.8125 0 
z
" id="DejaVuSans-48"/>
      <path d="M 18.109375 8.203125 
L 18.109375 -20.796875 
L 9.078125 -20.796875 
L 9.078125 54.6875 
L 18.109375 54.6875 
L 18.109375 46.390625 
Q 20.953125 51.265625 25.265625 53.625 
Q 29.59375 56 35.59375 56 
Q 45.5625 56 51.78125 48.09375 
Q 58.015625 40.1875 58.015625 27.296875 
Q 58.015625 14.40625 51.78125 6.484375 
Q 45.5625 -1.421875 35.59375 -1.421875 
Q 29.59375 -1.421875 25.265625 0.953125 
Q 20.953125 3.328125 18.109375 8.203125 
z
M 48.6875 27.296875 
Q 48.6875 37.203125 44.609375 42.84375 
Q 40.53125 48.484375 33.40625 48.484375 
Q 26.265625 48.484375 22.1875 42.84375 
Q 18.109375 37.203125 18.109375 27.296875 
Q 18.109375 17.390625 22.1875 11.75 
Q 26.265625 6.109375 33.40625 6.109375 
Q 40.53125 6.109375 44.609375 11.75 
Q 48.6875 17.390625 48.6875 27.296875 
z
" id="DejaVuSans-70"/>
     </defs>
     <g transform="translate(242.417997 249.851719)scale(0.17 -0.17)">
      <use xlink:href="#DejaVuSans-48"/>
      <use x="75.195312" xlink:href="#DejaVuSans-69"/>
      <use x="102.978516" xlink:href="#DejaVuSans-73"/>
      <use x="155.078125" xlink:href="#DejaVuSans-70"/>
      <use x="218.554688" xlink:href="#DejaVuSans-61"/>
      <use x="279.833984" xlink:href="#DejaVuSans-6e"/>
      <use x="343.212891" xlink:href="#DejaVuSans-69"/>
      <use x="370.996094" xlink:href="#DejaVuSans-63"/>
     </g>
    </g>
    <g id="line2d_22">
     <path d="M 194.817997 268.854531 
L 228.817997 268.854531 
" style="fill:none;stroke:#ff0000;stroke-dasharray:3,4.95;stroke-dashoffset:0;stroke-width:3;"/>
    </g>
    <g id="line2d_23"/>
    <g id="text_17">
     <!-- White -->
     <defs>
      <path d="M 3.328125 72.90625 
L 13.28125 72.90625 
L 28.609375 11.28125 
L 43.890625 72.90625 
L 54.984375 72.90625 
L 70.3125 11.28125 
L 85.59375 72.90625 
L 95.609375 72.90625 
L 77.296875 0 
L 64.890625 0 
L 49.515625 63.28125 
L 33.984375 0 
L 21.578125 0 
z
" id="DejaVuSans-57"/>
      <path d="M 54.890625 33.015625 
L 54.890625 0 
L 45.90625 0 
L 45.90625 32.71875 
Q 45.90625 40.484375 42.875 44.328125 
Q 39.84375 48.1875 33.796875 48.1875 
Q 26.515625 48.1875 22.3125 43.546875 
Q 18.109375 38.921875 18.109375 30.90625 
L 18.109375 0 
L 9.078125 0 
L 9.078125 75.984375 
L 18.109375 75.984375 
L 18.109375 46.1875 
Q 21.34375 51.125 25.703125 53.5625 
Q 30.078125 56 35.796875 56 
Q 45.21875 56 50.046875 50.171875 
Q 54.890625 44.34375 54.890625 33.015625 
z
" id="DejaVuSans-68"/>
     </defs>
     <g transform="translate(242.417997 274.804531)scale(0.17 -0.17)">
      <use xlink:href="#DejaVuSans-57"/>
      <use x="98.876953" xlink:href="#DejaVuSans-68"/>
      <use x="162.255859" xlink:href="#DejaVuSans-69"/>
      <use x="190.039062" xlink:href="#DejaVuSans-74"/>
      <use x="229.248047" xlink:href="#DejaVuSans-65"/>
     </g>
    </g>
   </g>
  </g>
  <g id="axes_2">
   <g id="patch_8">
    <path d="M 443.182841 293.64 
L 676.458182 293.64 
L 676.458182 21.86 
L 443.182841 21.86 
z
" style="fill:#ffffff;"/>
   </g>
   <g id="matplotlib.axis_3">
    <g id="xtick_6">
     <g id="line2d_24">
      <g>
       <use style="stroke:#000000;stroke-width:0.8;" x="453.786265" xlink:href="#maacdd366bd" y="293.64"/>
      </g>
     </g>
     <g id="text_18">
      <!-- 0 -->
      <g transform="translate(448.37814 313.557344)scale(0.17 -0.17)">
       <use xlink:href="#DejaVuSans-30"/>
      </g>
     </g>
    </g>
    <g id="xtick_7">
     <g id="line2d_25">
      <g>
       <use style="stroke:#000000;stroke-width:0.8;" x="559.820511" xlink:href="#maacdd366bd" y="293.64"/>
      </g>
     </g>
     <g id="text_19">
      <!-- 50 -->
      <g transform="translate(549.004261 313.557344)scale(0.17 -0.17)">
       <use xlink:href="#DejaVuSans-35"/>
       <use x="63.623047" xlink:href="#DejaVuSans-30"/>
      </g>
     </g>
    </g>
    <g id="xtick_8">
     <g id="line2d_26">
      <g>
       <use style="stroke:#000000;stroke-width:0.8;" x="665.854757" xlink:href="#maacdd366bd" y="293.64"/>
      </g>
     </g>
     <g id="text_20">
      <!-- 100 -->
      <g transform="translate(649.630382 313.557344)scale(0.17 -0.17)">
       <use xlink:href="#DejaVuSans-31"/>
       <use x="63.623047" xlink:href="#DejaVuSans-30"/>
       <use x="127.246094" xlink:href="#DejaVuSans-30"/>
      </g>
     </g>
    </g>
    <g id="text_21">
     <!-- Within-group score percentile -->
     <defs>
      <path d="M 45.40625 27.984375 
Q 45.40625 37.75 41.375 43.109375 
Q 37.359375 48.484375 30.078125 48.484375 
Q 22.859375 48.484375 18.828125 43.109375 
Q 14.796875 37.75 14.796875 27.984375 
Q 14.796875 18.265625 18.828125 12.890625 
Q 22.859375 7.515625 30.078125 7.515625 
Q 37.359375 7.515625 41.375 12.890625 
Q 45.40625 18.265625 45.40625 27.984375 
z
M 54.390625 6.78125 
Q 54.390625 -7.171875 48.1875 -13.984375 
Q 42 -20.796875 29.203125 -20.796875 
Q 24.46875 -20.796875 20.265625 -20.09375 
Q 16.0625 -19.390625 12.109375 -17.921875 
L 12.109375 -9.1875 
Q 16.0625 -11.328125 19.921875 -12.34375 
Q 23.78125 -13.375 27.78125 -13.375 
Q 36.625 -13.375 41.015625 -8.765625 
Q 45.40625 -4.15625 45.40625 5.171875 
L 45.40625 9.625 
Q 42.625 4.78125 38.28125 2.390625 
Q 33.9375 0 27.875 0 
Q 17.828125 0 11.671875 7.65625 
Q 5.515625 15.328125 5.515625 27.984375 
Q 5.515625 40.671875 11.671875 48.328125 
Q 17.828125 56 27.875 56 
Q 33.9375 56 38.28125 53.609375 
Q 42.625 51.21875 45.40625 46.390625 
L 45.40625 54.6875 
L 54.390625 54.6875 
z
" id="DejaVuSans-67"/>
     </defs>
     <g transform="translate(408.272418 336.593625)scale(0.204 -0.204)">
      <use xlink:href="#DejaVuSans-57"/>
      <use x="98.845703" xlink:href="#DejaVuSans-69"/>
      <use x="126.628906" xlink:href="#DejaVuSans-74"/>
      <use x="165.837891" xlink:href="#DejaVuSans-68"/>
      <use x="229.216797" xlink:href="#DejaVuSans-69"/>
      <use x="257" xlink:href="#DejaVuSans-6e"/>
      <use x="320.378906" xlink:href="#DejaVuSans-2d"/>
      <use x="356.462891" xlink:href="#DejaVuSans-67"/>
      <use x="419.939453" xlink:href="#DejaVuSans-72"/>
      <use x="461.021484" xlink:href="#DejaVuSans-6f"/>
      <use x="522.203125" xlink:href="#DejaVuSans-75"/>
      <use x="585.582031" xlink:href="#DejaVuSans-70"/>
      <use x="649.058594" xlink:href="#DejaVuSans-20"/>
      <use x="680.845703" xlink:href="#DejaVuSans-73"/>
      <use x="732.945312" xlink:href="#DejaVuSans-63"/>
      <use x="787.925781" xlink:href="#DejaVuSans-6f"/>
      <use x="849.107422" xlink:href="#DejaVuSans-72"/>
      <use x="890.189453" xlink:href="#DejaVuSans-65"/>
      <use x="951.712891" xlink:href="#DejaVuSans-20"/>
      <use x="983.5" xlink:href="#DejaVuSans-70"/>
      <use x="1046.976562" xlink:href="#DejaVuSans-65"/>
      <use x="1108.5" xlink:href="#DejaVuSans-72"/>
      <use x="1149.582031" xlink:href="#DejaVuSans-63"/>
      <use x="1204.5625" xlink:href="#DejaVuSans-65"/>
      <use x="1266.085938" xlink:href="#DejaVuSans-6e"/>
      <use x="1329.464844" xlink:href="#DejaVuSans-74"/>
      <use x="1368.673828" xlink:href="#DejaVuSans-69"/>
      <use x="1396.457031" xlink:href="#DejaVuSans-6c"/>
      <use x="1424.240234" xlink:href="#DejaVuSans-65"/>
     </g>
    </g>
   </g>
   <g id="matplotlib.axis_4">
    <g id="ytick_7">
     <g id="line2d_27">
      <g>
       <use style="stroke:#000000;stroke-width:0.8;" x="443.182841" xlink:href="#m1c678bcb5b" y="282.110939"/>
      </g>
     </g>
     <g id="text_22">
      <!-- 0% -->
      <g transform="translate(409.213935 288.569611)scale(0.17 -0.17)">
       <use xlink:href="#DejaVuSans-30"/>
       <use x="63.623047" xlink:href="#DejaVuSans-25"/>
      </g>
     </g>
    </g>
    <g id="ytick_8">
     <g id="line2d_28">
      <g>
       <use style="stroke:#000000;stroke-width:0.8;" x="443.182841" xlink:href="#m1c678bcb5b" y="232.136682"/>
      </g>
     </g>
     <g id="text_23">
      <!-- 20% -->
      <g transform="translate(398.397685 238.595354)scale(0.17 -0.17)">
       <use xlink:href="#DejaVuSans-32"/>
       <use x="63.623047" xlink:href="#DejaVuSans-30"/>
       <use x="127.246094" xlink:href="#DejaVuSans-25"/>
      </g>
     </g>
    </g>
    <g id="ytick_9">
     <g id="line2d_29">
      <g>
       <use style="stroke:#000000;stroke-width:0.8;" x="443.182841" xlink:href="#m1c678bcb5b" y="182.162425"/>
      </g>
     </g>
     <g id="text_24">
      <!-- 40% -->
      <g transform="translate(398.397685 188.621096)scale(0.17 -0.17)">
       <use xlink:href="#DejaVuSans-34"/>
       <use x="63.623047" xlink:href="#DejaVuSans-30"/>
       <use x="127.246094" xlink:href="#DejaVuSans-25"/>
      </g>
     </g>
    </g>
    <g id="ytick_10">
     <g id="line2d_30">
      <g>
       <use style="stroke:#000000;stroke-width:0.8;" x="443.182841" xlink:href="#m1c678bcb5b" y="132.188167"/>
      </g>
     </g>
     <g id="text_25">
      <!-- 60% -->
      <g transform="translate(398.397685 138.646839)scale(0.17 -0.17)">
       <use xlink:href="#DejaVuSans-36"/>
       <use x="63.623047" xlink:href="#DejaVuSans-30"/>
       <use x="127.246094" xlink:href="#DejaVuSans-25"/>
      </g>
     </g>
    </g>
    <g id="ytick_11">
     <g id="line2d_31">
      <g>
       <use style="stroke:#000000;stroke-width:0.8;" x="443.182841" xlink:href="#m1c678bcb5b" y="82.21391"/>
      </g>
     </g>
     <g id="text_26">
      <!-- 80% -->
      <g transform="translate(398.397685 88.672582)scale(0.17 -0.17)">
       <use xlink:href="#DejaVuSans-38"/>
       <use x="63.623047" xlink:href="#DejaVuSans-30"/>
       <use x="127.246094" xlink:href="#DejaVuSans-25"/>
      </g>
     </g>
    </g>
    <g id="ytick_12">
     <g id="line2d_32">
      <g>
       <use style="stroke:#000000;stroke-width:0.8;" x="443.182841" xlink:href="#m1c678bcb5b" y="32.239653"/>
      </g>
     </g>
     <g id="text_27">
      <!-- 100% -->
      <g transform="translate(387.581435 38.698325)scale(0.17 -0.17)">
       <use xlink:href="#DejaVuSans-31"/>
       <use x="63.623047" xlink:href="#DejaVuSans-30"/>
       <use x="127.246094" xlink:href="#DejaVuSans-30"/>
       <use x="190.869141" xlink:href="#DejaVuSans-25"/>
      </g>
     </g>
    </g>
    <g id="text_28">
     <!-- Non-default rate -->
     <g transform="translate(379.338872 241.616313)rotate(-90)scale(0.204 -0.204)">
      <use xlink:href="#DejaVuSans-4e"/>
      <use x="74.804688" xlink:href="#DejaVuSans-6f"/>
      <use x="135.986328" xlink:href="#DejaVuSans-6e"/>
      <use x="199.365234" xlink:href="#DejaVuSans-2d"/>
      <use x="235.449219" xlink:href="#DejaVuSans-64"/>
      <use x="298.925781" xlink:href="#DejaVuSans-65"/>
      <use x="360.449219" xlink:href="#DejaVuSans-66"/>
      <use x="395.654297" xlink:href="#DejaVuSans-61"/>
      <use x="456.933594" xlink:href="#DejaVuSans-75"/>
      <use x="520.3125" xlink:href="#DejaVuSans-6c"/>
      <use x="548.095703" xlink:href="#DejaVuSans-74"/>
      <use x="587.304688" xlink:href="#DejaVuSans-20"/>
      <use x="619.091797" xlink:href="#DejaVuSans-72"/>
      <use x="660.205078" xlink:href="#DejaVuSans-61"/>
      <use x="721.484375" xlink:href="#DejaVuSans-74"/>
      <use x="760.693359" xlink:href="#DejaVuSans-65"/>
     </g>
    </g>
   </g>
   <g id="LineCollection_2">
    <path clip-path="url(#pdc9980e2f8)" d="M 453.786265 73.884867 
L 665.854757 73.884867 
" style="fill:none;stroke:#000000;"/>
   </g>
   <g id="line2d_33">
    <path clip-path="url(#pdc9980e2f8)" d="M 453.786265 269.042671 
L 454.061955 268.318044 
L 455.652468 267.593417 
L 456.055398 266.86879 
L 457.667119 264.69491 
L 458.451772 263.970284 
L 459.045564 263.245657 
L 459.257633 262.496043 
L 460.360389 261.771416 
L 462.056937 260.322163 
L 462.43866 259.597536 
L 464.432104 257.423656 
L 464.686586 256.699029 
L 465.19555 255.974402 
L 465.513653 255.249776 
L 465.958997 254.525149 
L 466.171065 250.77708 
L 467.040546 247.02901 
L 467.48589 243.280941 
L 468.525026 239.532872 
L 470.688124 228.263677 
L 471.600019 224.515608 
L 472.193811 220.767538 
L 473.826738 213.2714 
L 475.671734 202.027192 
L 476.117078 198.279123 
L 477.028972 194.531053 
L 477.347075 190.782984 
L 478.195349 187.034915 
L 478.810348 183.286845 
L 480.019138 179.538776 
L 481.397583 173.666801 
L 481.864134 170.743307 
L 482.62758 167.819813 
L 483.878784 161.947838 
L 484.345335 159.024344 
L 485.490505 156.10085 
L 486.020676 153.177355 
L 486.678089 150.228874 
L 487.123432 147.30538 
L 490.049978 138.509911 
L 490.686183 135.586417 
L 491.746526 132.662923 
L 492.531179 129.739429 
L 493.930831 126.790948 
L 494.418589 123.867454 
L 495.627379 120.94396 
L 496.581687 118.120414 
L 498.320649 115.296869 
L 500.038404 109.649778 
L 502.392364 104.002686 
L 503.240638 101.179141 
L 504.576669 98.355595 
L 505.403736 95.53205 
L 507.079077 92.708504 
L 507.821317 89.909946 
L 509.263383 87.0864 
L 509.984416 84.262855 
L 511.871825 81.439309 
L 512.508031 78.615764 
L 514.310613 75.792218 
L 514.883198 72.968673 
L 516.68578 70.145127 
L 517.131124 67.321582 
L 518.191466 64.498036 
L 519.209395 64.048268 
L 520.672668 63.573512 
L 521.351287 63.123744 
L 522.750939 62.648989 
L 523.662834 62.19922 
L 526.059207 61.274697 
L 527.692135 60.824928 
L 534.202638 58.501125 
L 536.06884 58.051357 
L 537.192803 57.601589 
L 538.910558 57.126833 
L 540.967622 56.20231 
L 542.112792 55.752541 
L 543.660892 55.277786 
L 544.509166 54.578146 
L 546.311748 53.878507 
L 547.350884 53.178867 
L 549.19588 52.479227 
L 550.553118 51.779588 
L 556.045692 49.680669 
L 557.169655 48.981029 
L 559.29034 48.28139 
L 560.159821 47.58175 
L 564.719294 45.482831 
L 565.779636 44.783192 
L 571.378244 41.984633 
L 573.392895 41.284994 
L 576.892025 41.759749 
L 583.296493 42.35944 
L 587.431829 42.809209 
L 589.785789 43.134041 
L 594.451296 43.733732 
L 595.235949 43.883655 
L 599.095596 44.333423 
L 601.555591 43.358925 
L 603.464207 43.034093 
L 605.902995 42.35944 
L 606.496786 42.034608 
L 607.514715 41.709775 
L 610.250399 41.035122 
L 613.367806 40.060624 
L 616.676074 39.735792 
L 621.383995 38.086641 
L 622.550371 37.736821 
L 637.692062 35.887774 
L 638.328267 35.762838 
L 644.266185 35.038212 
L 645.029631 34.888289 
L 665.854757 34.213636 
L 665.854757 34.213636 
" style="fill:none;stroke:#0000ff;stroke-linecap:square;stroke-width:3;"/>
   </g>
   <g id="line2d_34">
    <path clip-path="url(#pdc9980e2f8)" d="M 453.934713 281.286364 
L 456.309881 280.18693 
L 465.089516 279.112483 
L 467.507097 278.01305 
L 473.445015 275.83917 
L 477.537937 274.764723 
L 484.705852 272.565856 
L 485.935849 271.491409 
L 491.364802 270.391976 
L 495.797034 269.317529 
L 499.847542 268.218095 
L 502.413571 267.143649 
L 506.145976 266.044215 
L 507.884938 264.969769 
L 510.938724 263.870335 
L 512.211135 262.795888 
L 514.416647 261.696455 
L 516.091988 260.597021 
L 519.866808 258.897896 
L 524.468694 257.64854 
L 528.243513 257.023862 
L 530.27937 256.374196 
L 534.817636 255.12484 
L 538.168318 254.500162 
L 540.204176 253.875484 
L 543.00348 253.250805 
L 544.784855 252.626127 
L 547.181229 252.001449 
L 554.306731 249.477749 
L 558.314825 247.603714 
L 566.2886 246.979036 
L 568.388078 242.556314 
L 570.9329 238.108605 
L 572.332552 233.685884 
L 574.156341 229.238175 
L 575.449959 224.815453 
L 577.210128 220.367744 
L 578.60978 215.945022 
L 581.027361 211.522301 
L 582.342185 207.074592 
L 584.102354 202.65187 
L 585.438385 198.204161 
L 587.240967 193.781439 
L 588.534585 189.333731 
L 590.337167 184.911009 
L 591.630785 180.488287 
L 593.433367 176.040578 
L 594.620951 171.617856 
L 596.465947 167.170147 
L 597.2506 162.747426 
L 599.795422 155.601107 
L 601.364729 152.902497 
L 602.191796 150.203887 
L 603.506621 147.48029 
L 604.482136 144.78168 
L 607.896438 136.685851 
L 608.914367 133.962254 
L 610.610915 131.263644 
L 611.141086 128.565034 
L 612.477118 125.866424 
L 613.07091 123.142827 
L 614.68263 120.444217 
L 615.297629 117.745607 
L 616.824522 115.046997 
L 617.481934 112.348387 
L 618.605897 109.62479 
L 619.093655 106.92618 
L 619.878308 104.227571 
L 620.790203 102.478472 
L 621.914166 100.704385 
L 622.35951 98.955286 
L 623.5683 97.1812 
L 624.352953 95.432101 
L 625.45571 93.683002 
L 626.028294 91.908916 
L 627.173464 90.159817 
L 629.485011 84.887533 
L 630.290871 83.113447 
L 630.693801 81.364348 
L 631.64811 79.615249 
L 632.093453 77.841163 
L 632.899314 76.092064 
L 633.323451 74.317978 
L 634.46862 70.81978 
L 635.232067 69.045694 
L 635.634997 68.720861 
L 636.674133 68.046208 
L 637.628441 67.371556 
L 639.473437 66.347084 
L 639.770333 66.022251 
L 640.533779 65.672431 
L 643.057394 63.648474 
L 643.396704 63.298654 
L 643.969289 62.973821 
L 644.329805 62.624002 
L 644.987218 62.299169 
L 645.2417 61.749452 
L 647.786522 58.501125 
L 648.40152 57.401692 
L 649.48307 55.227811 
L 649.652724 54.703082 
L 650.204103 54.153365 
L 650.564619 53.053931 
L 650.925135 52.529202 
L 651.412893 51.429768 
L 651.943064 50.580206 
L 652.155133 50.130437 
L 652.515649 49.705656 
L 653.957715 47.531776 
L 654.403059 47.106995 
L 655.208919 45.807664 
L 655.802711 45.382883 
L 657.159949 42.784221 
L 658.199085 43.159028 
L 658.877704 43.533835 
L 661.380112 44.658256 
L 661.464939 44.783192 
L 662.122352 45.182986 
L 662.2708 45.307921 
L 662.546489 43.708745 
L 662.822178 43.159028 
L 663.41597 41.559852 
L 664.179416 39.985663 
L 664.264244 39.435946 
L 664.539933 38.911217 
L 664.815622 37.83677 
L 665.112518 37.31204 
L 665.621482 36.787311 
L 665.83355 35.712864 
L 665.854757 34.638418 
L 665.854757 34.638418 
" style="fill:none;stroke:#008000;stroke-dasharray:11.1,4.8;stroke-dashoffset:0;stroke-width:3;"/>
   </g>
   <g id="line2d_35">
    <path clip-path="url(#pdc9980e2f8)" d="M 453.807472 279.737162 
L 454.782987 278.337882 
L 458.494186 276.938603 
L 459.596942 275.564311 
L 461.187456 274.165032 
L 462.353833 272.765753 
L 464.432104 271.391461 
L 466.022617 269.992182 
L 467.782786 268.617889 
L 468.461405 267.21861 
L 471.218296 265.819331 
L 473.529842 264.445039 
L 475.374838 263.04576 
L 476.689663 261.671468 
L 479.107243 260.272189 
L 480.040345 258.872909 
L 481.736893 257.498617 
L 482.62758 256.099338 
L 484.8543 253.325767 
L 487.059812 250.677131 
L 488.523084 249.427775 
L 489.668254 248.153431 
L 492.022215 246.904075 
L 493.188591 245.654718 
L 494.842725 244.380375 
L 496.09393 243.131018 
L 498.532717 241.856675 
L 499.932369 240.607318 
L 501.756158 239.357962 
L 503.007362 238.083618 
L 504.725117 236.834262 
L 506.145976 235.584905 
L 507.842524 234.310562 
L 508.860453 233.061206 
L 510.238898 231.811849 
L 511.256827 230.537506 
L 512.698893 229.288149 
L 513.610787 228.013806 
L 518.064225 226.764449 
L 519.37905 221.841985 
L 521.436114 216.91952 
L 522.305595 212.022043 
L 523.790075 207.099579 
L 524.935244 202.177115 
L 526.398517 197.25465 
L 528.137479 192.357173 
L 530.533853 187.434709 
L 531.82747 182.512244 
L 533.693673 177.58978 
L 534.732809 172.667316 
L 536.386943 167.769839 
L 537.871422 162.847374 
L 539.886073 157.92491 
L 541.328139 153.002446 
L 543.300376 148.079981 
L 544.827269 143.182504 
L 547.117609 138.26004 
L 548.241572 133.337575 
L 549.895706 128.415111 
L 550.786394 126.541076 
L 552.801044 124.667042 
L 553.967421 122.793007 
L 555.685176 120.918972 
L 557.148448 119.044938 
L 559.735684 115.296869 
L 562.534988 111.548799 
L 564.486018 109.674765 
L 565.41912 107.80073 
L 567.391357 105.926695 
L 568.218424 104.052661 
L 570.508763 102.178626 
L 571.229796 100.304591 
L 573.371688 98.430557 
L 574.050307 96.556522 
L 575.831682 94.682487 
L 576.425474 92.808453 
L 578.461332 89.685062 
L 579.903398 88.410718 
L 580.666844 87.136375 
L 582.299771 85.862031 
L 583.275287 84.587688 
L 584.780973 83.313344 
L 585.671661 82.039 
L 587.453036 80.764657 
L 588.619413 79.490313 
L 589.976651 78.21597 
L 592.415439 75.667283 
L 593.136471 74.392939 
L 594.748192 73.118596 
L 595.469225 71.844252 
L 596.932497 70.569908 
L 597.717151 69.320552 
L 599.646974 66.771865 
L 601.555591 64.947805 
L 602.785588 64.373101 
L 603.633862 63.823384 
L 607.069371 62.174233 
L 607.981266 61.624516 
L 609.211263 61.0748 
L 609.868675 60.525083 
L 611.141086 59.950379 
L 611.92574 59.400662 
L 613.13453 58.850945 
L 613.961597 58.301228 
L 615.234008 57.751511 
L 615.933834 57.201795 
L 617.121418 56.652078 
L 619.708653 54.97794 
L 623.059336 53.478712 
L 624.77709 52.829047 
L 625.349675 52.504214 
L 627.258292 51.854549 
L 627.767256 51.529716 
L 628.679151 51.204884 
L 629.060874 50.880051 
L 630.56656 50.230386 
L 630.990697 49.93054 
L 632.072246 49.605708 
L 632.878107 48.956042 
L 633.811208 48.63121 
L 635.528963 47.606737 
L 636.483271 46.832136 
L 637.416372 46.457329 
L 639.134127 44.908127 
L 640.851882 44.133526 
L 642.399982 42.984118 
L 643.799634 42.609312 
L 646.938248 40.285509 
L 652.112719 38.886229 
L 652.473235 38.736307 
L 654.445472 38.261551 
L 654.699955 38.111628 
L 656.226848 37.636873 
L 656.48133 37.48695 
L 657.880982 37.037182 
L 658.347533 36.762323 
L 664.243037 35.088186 
L 665.600275 34.813327 
L 665.854757 34.538469 
L 665.854757 34.413533 
L 665.854757 34.413533 
" style="fill:none;stroke:#00bfbf;stroke-dasharray:19.2,4.8,3,4.8;stroke-dashoffset:0;stroke-width:3;"/>
   </g>
   <g id="line2d_36">
    <path clip-path="url(#pdc9980e2f8)" d="M 453.807472 278.462818 
L 454.337644 276.988578 
L 456.24626 275.514337 
L 456.818845 274.040096 
L 457.603498 272.565856 
L 458.218497 271.066628 
L 460.063493 268.118147 
L 460.975387 266.643906 
L 461.29349 265.169666 
L 462.671935 263.695425 
L 464.983482 260.746944 
L 465.577274 259.272703 
L 466.74365 257.798463 
L 467.231408 256.324222 
L 468.22813 254.849982 
L 468.673474 253.375741 
L 469.352093 251.9015 
L 469.903471 250.42726 
L 470.645711 248.953019 
L 471.175882 247.253895 
L 472.066569 245.55477 
L 472.745189 243.855645 
L 474.060013 242.15652 
L 474.82346 240.457396 
L 475.841389 238.758271 
L 476.604835 237.059146 
L 477.98328 235.385008 
L 478.704313 233.685884 
L 479.849483 231.986759 
L 480.528102 230.287634 
L 481.546031 228.588509 
L 482.267064 226.889385 
L 483.136545 225.19026 
L 483.751543 223.491135 
L 484.663438 221.792011 
L 485.25723 220.092886 
L 486.105504 218.393761 
L 486.656882 216.694636 
L 488.862394 214.995512 
L 489.583427 210.322919 
L 490.622563 205.675313 
L 491.195147 201.00272 
L 492.107042 196.355114 
L 492.764454 191.682521 
L 494.354968 182.362322 
L 495.627379 177.714716 
L 496.390825 173.042123 
L 497.345134 168.394517 
L 497.981339 163.721924 
L 499.741508 154.401725 
L 501.013919 149.754119 
L 501.756158 145.081526 
L 502.964949 140.43392 
L 503.728395 135.761327 
L 505.276495 131.113721 
L 506.18839 126.441128 
L 507.312353 121.793522 
L 508.054593 119.469719 
L 509.390624 117.170903 
L 510.154071 114.872087 
L 511.193206 112.573272 
L 512.062687 110.274456 
L 513.165443 107.97564 
L 514.013717 105.676824 
L 516.198023 101.079192 
L 517.746123 98.780377 
L 518.297501 96.481561 
L 519.888014 94.182745 
L 520.58784 91.858942 
L 522.220768 89.560126 
L 522.941801 87.26131 
L 524.532314 84.962494 
L 525.16852 82.663679 
L 526.568172 80.364863 
L 527.077136 78.066047 
L 528.201099 75.767231 
L 529.028166 74.617823 
L 530.258164 73.493402 
L 530.830749 72.343995 
L 532.187987 71.194587 
L 532.993847 70.070166 
L 534.308672 68.920758 
L 535.135739 67.796337 
L 537.638147 65.497521 
L 539.801246 63.223693 
L 541.010036 62.074285 
L 541.79469 60.949864 
L 543.40641 59.800456 
L 544.106236 58.676035 
L 545.76037 57.526627 
L 546.608644 56.377219 
L 548.623295 54.103391 
L 550.553118 52.504214 
L 553.882594 51.15491 
L 554.730868 50.705141 
L 558.314825 49.355836 
L 558.951031 48.881081 
L 560.350683 48.431313 
L 561.135336 47.981544 
L 562.38654 47.531776 
L 563.171194 47.082008 
L 564.464811 46.632239 
L 565.228258 46.182471 
L 566.543083 45.732703 
L 567.43377 45.282934 
L 571.781174 43.683758 
L 583.699424 41.135071 
L 585.077869 40.685303 
L 586.562348 40.460419 
L 587.707518 39.985663 
L 590.146306 39.535895 
L 591.948888 39.161088 
L 593.369747 38.886229 
L 596.762843 38.461448 
L 598.480597 38.161603 
L 602.552312 37.761809 
L 604.651791 37.461963 
L 606.963337 37.337027 
L 613.558667 36.487465 
L 641.488088 35.8378 
L 643.121015 35.687877 
L 665.854757 34.488495 
L 665.854757 34.488495 
" style="fill:none;stroke:#ff0000;stroke-dasharray:3,4.95;stroke-dashoffset:0;stroke-width:3;"/>
   </g>
   <g id="patch_9">
    <path d="M 443.182841 293.64 
L 443.182841 21.86 
" style="fill:none;stroke:#000000;stroke-linecap:square;stroke-linejoin:miter;stroke-width:0.8;"/>
   </g>
   <g id="patch_10">
    <path d="M 676.458182 293.64 
L 676.458182 21.86 
" style="fill:none;stroke:#000000;stroke-linecap:square;stroke-linejoin:miter;stroke-width:0.8;"/>
   </g>
   <g id="patch_11">
    <path d="M 443.182841 293.64 
L 676.458182 293.64 
" style="fill:none;stroke:#000000;stroke-linecap:square;stroke-linejoin:miter;stroke-width:0.8;"/>
   </g>
   <g id="patch_12">
    <path d="M 443.182841 21.86 
L 676.458182 21.86 
" style="fill:none;stroke:#000000;stroke-linecap:square;stroke-linejoin:miter;stroke-width:0.8;"/>
   </g>
   <g id="legend_2">
    <g id="patch_13">
     <path d="M 537.740838 285.14 
L 664.558182 285.14 
Q 667.958182 285.14 667.958182 281.74 
L 667.958182 183.62875 
Q 667.958182 180.22875 664.558182 180.22875 
L 537.740838 180.22875 
Q 534.340838 180.22875 534.340838 183.62875 
L 534.340838 281.74 
Q 534.340838 285.14 537.740838 285.14 
z
" style="fill:#ffffff;opacity:0.8;stroke:#cccccc;stroke-linejoin:miter;"/>
    </g>
    <g id="line2d_37">
     <path d="M 541.140838 193.996094 
L 575.140838 193.996094 
" style="fill:none;stroke:#0000ff;stroke-linecap:square;stroke-width:3;"/>
    </g>
    <g id="line2d_38"/>
    <g id="text_29">
     <!-- Asian -->
     <g transform="translate(588.740838 199.946094)scale(0.17 -0.17)">
      <use xlink:href="#DejaVuSans-41"/>
      <use x="68.408203" xlink:href="#DejaVuSans-73"/>
      <use x="120.507812" xlink:href="#DejaVuSans-69"/>
      <use x="148.291016" xlink:href="#DejaVuSans-61"/>
      <use x="209.570312" xlink:href="#DejaVuSans-6e"/>
     </g>
    </g>
    <g id="line2d_39">
     <path d="M 541.140838 218.948906 
L 575.140838 218.948906 
" style="fill:none;stroke:#008000;stroke-dasharray:11.1,4.8;stroke-dashoffset:0;stroke-width:3;"/>
    </g>
    <g id="line2d_40"/>
    <g id="text_30">
     <!-- Black -->
     <g transform="translate(588.740838 224.898906)scale(0.17 -0.17)">
      <use xlink:href="#DejaVuSans-42"/>
      <use x="68.603516" xlink:href="#DejaVuSans-6c"/>
      <use x="96.386719" xlink:href="#DejaVuSans-61"/>
      <use x="157.666016" xlink:href="#DejaVuSans-63"/>
      <use x="212.646484" xlink:href="#DejaVuSans-6b"/>
     </g>
    </g>
    <g id="line2d_41">
     <path d="M 541.140838 243.901719 
L 575.140838 243.901719 
" style="fill:none;stroke:#00bfbf;stroke-dasharray:19.2,4.8,3,4.8;stroke-dashoffset:0;stroke-width:3;"/>
    </g>
    <g id="line2d_42"/>
    <g id="text_31">
     <!-- Hispanic -->
     <g transform="translate(588.740838 249.851719)scale(0.17 -0.17)">
      <use xlink:href="#DejaVuSans-48"/>
      <use x="75.195312" xlink:href="#DejaVuSans-69"/>
      <use x="102.978516" xlink:href="#DejaVuSans-73"/>
      <use x="155.078125" xlink:href="#DejaVuSans-70"/>
      <use x="218.554688" xlink:href="#DejaVuSans-61"/>
      <use x="279.833984" xlink:href="#DejaVuSans-6e"/>
      <use x="343.212891" xlink:href="#DejaVuSans-69"/>
      <use x="370.996094" xlink:href="#DejaVuSans-63"/>
     </g>
    </g>
    <g id="line2d_43">
     <path d="M 541.140838 268.854531 
L 575.140838 268.854531 
" style="fill:none;stroke:#ff0000;stroke-dasharray:3,4.95;stroke-dashoffset:0;stroke-width:3;"/>
    </g>
    <g id="line2d_44"/>
    <g id="text_32">
     <!-- White -->
     <g transform="translate(588.740838 274.804531)scale(0.17 -0.17)">
      <use xlink:href="#DejaVuSans-57"/>
      <use x="98.876953" xlink:href="#DejaVuSans-68"/>
      <use x="162.255859" xlink:href="#DejaVuSans-69"/>
      <use x="190.039062" xlink:href="#DejaVuSans-74"/>
      <use x="229.248047" xlink:href="#DejaVuSans-65"/>
     </g>
    </g>
   </g>
  </g>
 </g>
 <defs>
  <clipPath id="p7f3b966f11">
   <rect height="271.78" width="233.275341" x="96.86" y="21.86"/>
  </clipPath>
  <clipPath id="pdc9980e2f8">
   <rect height="271.78" width="233.275341" x="443.182841" y="21.86"/>
  </clipPath>
 </defs>
</svg>
