<?xml version="1.0" encoding="utf-8" standalone="no"?>
<!DOCTYPE svg PUBLIC "-//W3C//DTD SVG 1.1//EN"
  "http://www.w3.org/Graphics/SVG/1.1/DTD/svg11.dtd">
<svg xmlns:xlink="http://www.w3.org/1999/xlink" width="864pt" height="360pt" viewBox="0 0 864 360" xmlns="http://www.w3.org/2000/svg" version="1.1">
 <metadata>
  <rdf:RDF xmlns:dc="http://purl.org/dc/elements/1.1/" xmlns:cc="http://creativecommons.org/ns#" xmlns:rdf="http://www.w3.org/1999/02/22-rdf-syntax-ns#">
   <cc:Work>
    <dc:type rdf:resource="http://purl.org/dc/dcmitype/StillImage"/>
    <dc:date>2022-06-16T15:13:25.056090</dc:date>
    <dc:format>image/svg+xml</dc:format>
    <dc:creator>
     <cc:Agent>
      <dc:title>Matplotlib v3.5.1, https://matplotlib.org/</dc:title>
     </cc:Agent>
    </dc:creator>
   </cc:Work>
  </rdf:RDF>
 </metadata>
 <defs>
  <style type="text/css">*{stroke-linejoin: round; stroke-linecap: butt}</style>
 </defs>
 <g id="figure_1">
  <g id="patch_1">
   <path d="M 0 360 
L 864 360 
L 864 0 
L 0 0 
L 0 360 
z
" style="fill: none"/>
  </g>
  <g id="axes_1">
   <g id="patch_2">
    <path d="M 97.485 293.64 
L 431.7575 293.64 
L 431.7575 39.36 
L 97.485 39.36 
z
" style="fill: #ffffff"/>
   </g>
   <g id="matplotlib.axis_1">
    <g id="xtick_1">
     <g id="line2d_1">
      <defs>
       <path id="m9e4c3ab223" d="M 0 0 
L 0 3.5 
" style="stroke: #000000; stroke-width: 0.8"/>
      </defs>
      <g>
       <use xlink:href="#m9e4c3ab223" x="97.485" y="293.64" style="stroke: #000000; stroke-width: 0.8"/>
      </g>
     </g>
     <g id="text_1">
      <!-- 0.0 -->
      <g transform="translate(83.967344 313.557344)scale(0.17 -0.17)">
       <defs>
        <path id="DejaVuSans-30" d="M 2034 4250 
Q 1547 4250 1301 3770 
Q 1056 3291 1056 2328 
Q 1056 1369 1301 889 
Q 1547 409 2034 409 
Q 2525 409 2770 889 
Q 3016 1369 3016 2328 
Q 3016 3291 2770 3770 
Q 2525 4250 2034 4250 
z
M 2034 4750 
Q 2819 4750 3233 4129 
Q 3647 3509 3647 2328 
Q 3647 1150 3233 529 
Q 2819 -91 2034 -91 
Q 1250 -91 836 529 
Q 422 1150 422 2328 
Q 422 3509 836 4129 
Q 1250 4750 2034 4750 
z
" transform="scale(0.015625)"/>
        <path id="DejaVuSans-2e" d="M 684 794 
L 1344 794 
L 1344 0 
L 684 0 
L 684 794 
z
" transform="scale(0.015625)"/>
       </defs>
       <use xlink:href="#DejaVuSans-30"/>
       <use xlink:href="#DejaVuSans-2e" x="63.623047"/>
       <use xlink:href="#DejaVuSans-30" x="95.410156"/>
      </g>
     </g>
    </g>
    <g id="xtick_2">
     <g id="line2d_2">
      <g>
       <use xlink:href="#m9e4c3ab223" x="164.3395" y="293.64" style="stroke: #000000; stroke-width: 0.8"/>
      </g>
     </g>
     <g id="text_2">
      <!-- 0.2 -->
      <g transform="translate(150.821844 313.557344)scale(0.17 -0.17)">
       <defs>
        <path id="DejaVuSans-32" d="M 1228 531 
L 3431 531 
L 3431 0 
L 469 0 
L 469 531 
Q 828 903 1448 1529 
Q 2069 2156 2228 2338 
Q 2531 2678 2651 2914 
Q 2772 3150 2772 3378 
Q 2772 3750 2511 3984 
Q 2250 4219 1831 4219 
Q 1534 4219 1204 4116 
Q 875 4013 500 3803 
L 500 4441 
Q 881 4594 1212 4672 
Q 1544 4750 1819 4750 
Q 2544 4750 2975 4387 
Q 3406 4025 3406 3419 
Q 3406 3131 3298 2873 
Q 3191 2616 2906 2266 
Q 2828 2175 2409 1742 
Q 1991 1309 1228 531 
z
" transform="scale(0.015625)"/>
       </defs>
       <use xlink:href="#DejaVuSans-30"/>
       <use xlink:href="#DejaVuSans-2e" x="63.623047"/>
       <use xlink:href="#DejaVuSans-32" x="95.410156"/>
      </g>
     </g>
    </g>
    <g id="xtick_3">
     <g id="line2d_3">
      <g>
       <use xlink:href="#m9e4c3ab223" x="231.194" y="293.64" style="stroke: #000000; stroke-width: 0.8"/>
      </g>
     </g>
     <g id="text_3">
      <!-- 0.4 -->
      <g transform="translate(217.676344 313.557344)scale(0.17 -0.17)">
       <defs>
        <path id="DejaVuSans-34" d="M 2419 4116 
L 825 1625 
L 2419 1625 
L 2419 4116 
z
M 2253 4666 
L 3047 4666 
L 3047 1625 
L 3713 1625 
L 3713 1100 
L 3047 1100 
L 3047 0 
L 2419 0 
L 2419 1100 
L 313 1100 
L 313 1709 
L 2253 4666 
z
" transform="scale(0.015625)"/>
       </defs>
       <use xlink:href="#DejaVuSans-30"/>
       <use xlink:href="#DejaVuSans-2e" x="63.623047"/>
       <use xlink:href="#DejaVuSans-34" x="95.410156"/>
      </g>
     </g>
    </g>
    <g id="xtick_4">
     <g id="line2d_4">
      <g>
       <use xlink:href="#m9e4c3ab223" x="298.0485" y="293.64" style="stroke: #000000; stroke-width: 0.8"/>
      </g>
     </g>
     <g id="text_4">
      <!-- 0.6 -->
      <g transform="translate(284.530844 313.557344)scale(0.17 -0.17)">
       <defs>
        <path id="DejaVuSans-36" d="M 2113 2584 
Q 1688 2584 1439 2293 
Q 1191 2003 1191 1497 
Q 1191 994 1439 701 
Q 1688 409 2113 409 
Q 2538 409 2786 701 
Q 3034 994 3034 1497 
Q 3034 2003 2786 2293 
Q 2538 2584 2113 2584 
z
M 3366 4563 
L 3366 3988 
Q 3128 4100 2886 4159 
Q 2644 4219 2406 4219 
Q 1781 4219 1451 3797 
Q 1122 3375 1075 2522 
Q 1259 2794 1537 2939 
Q 1816 3084 2150 3084 
Q 2853 3084 3261 2657 
Q 3669 2231 3669 1497 
Q 3669 778 3244 343 
Q 2819 -91 2113 -91 
Q 1303 -91 875 529 
Q 447 1150 447 2328 
Q 447 3434 972 4092 
Q 1497 4750 2381 4750 
Q 2619 4750 2861 4703 
Q 3103 4656 3366 4563 
z
" transform="scale(0.015625)"/>
       </defs>
       <use xlink:href="#DejaVuSans-30"/>
       <use xlink:href="#DejaVuSans-2e" x="63.623047"/>
       <use xlink:href="#DejaVuSans-36" x="95.410156"/>
      </g>
     </g>
    </g>
    <g id="xtick_5">
     <g id="line2d_5">
      <g>
       <use xlink:href="#m9e4c3ab223" x="364.903" y="293.64" style="stroke: #000000; stroke-width: 0.8"/>
      </g>
     </g>
     <g id="text_5">
      <!-- 0.8 -->
      <g transform="translate(351.385344 313.557344)scale(0.17 -0.17)">
       <defs>
        <path id="DejaVuSans-38" d="M 2034 2216 
Q 1584 2216 1326 1975 
Q 1069 1734 1069 1313 
Q 1069 891 1326 650 
Q 1584 409 2034 409 
Q 2484 409 2743 651 
Q 3003 894 3003 1313 
Q 3003 1734 2745 1975 
Q 2488 2216 2034 2216 
z
M 1403 2484 
Q 997 2584 770 2862 
Q 544 3141 544 3541 
Q 544 4100 942 4425 
Q 1341 4750 2034 4750 
Q 2731 4750 3128 4425 
Q 3525 4100 3525 3541 
Q 3525 3141 3298 2862 
Q 3072 2584 2669 2484 
Q 3125 2378 3379 2068 
Q 3634 1759 3634 1313 
Q 3634 634 3220 271 
Q 2806 -91 2034 -91 
Q 1263 -91 848 271 
Q 434 634 434 1313 
Q 434 1759 690 2068 
Q 947 2378 1403 2484 
z
M 1172 3481 
Q 1172 3119 1398 2916 
Q 1625 2713 2034 2713 
Q 2441 2713 2670 2916 
Q 2900 3119 2900 3481 
Q 2900 3844 2670 4047 
Q 2441 4250 2034 4250 
Q 1625 4250 1398 4047 
Q 1172 3844 1172 3481 
z
" transform="scale(0.015625)"/>
       </defs>
       <use xlink:href="#DejaVuSans-30"/>
       <use xlink:href="#DejaVuSans-2e" x="63.623047"/>
       <use xlink:href="#DejaVuSans-38" x="95.410156"/>
      </g>
     </g>
    </g>
    <g id="xtick_6">
     <g id="line2d_6">
      <g>
       <use xlink:href="#m9e4c3ab223" x="431.7575" y="293.64" style="stroke: #000000; stroke-width: 0.8"/>
      </g>
     </g>
     <g id="text_6">
      <!-- 1.0 -->
      <g transform="translate(418.239844 313.557344)scale(0.17 -0.17)">
       <defs>
        <path id="DejaVuSans-31" d="M 794 531 
L 1825 531 
L 1825 4091 
L 703 3866 
L 703 4441 
L 1819 4666 
L 2450 4666 
L 2450 531 
L 3481 531 
L 3481 0 
L 794 0 
L 794 531 
z
" transform="scale(0.015625)"/>
       </defs>
       <use xlink:href="#DejaVuSans-31"/>
       <use xlink:href="#DejaVuSans-2e" x="63.623047"/>
       <use xlink:href="#DejaVuSans-30" x="95.410156"/>
      </g>
     </g>
    </g>
    <g id="text_7">
     <!-- Fraction defaulters getting loan -->
     <g transform="translate(104.194375 336.593625)scale(0.204 -0.204)">
      <defs>
       <path id="DejaVuSans-46" d="M 628 4666 
L 3309 4666 
L 3309 4134 
L 1259 4134 
L 1259 2759 
L 3109 2759 
L 3109 2228 
L 1259 2228 
L 1259 0 
L 628 0 
L 628 4666 
z
" transform="scale(0.015625)"/>
       <path id="DejaVuSans-72" d="M 2631 2963 
Q 2534 3019 2420 3045 
Q 2306 3072 2169 3072 
Q 1681 3072 1420 2755 
Q 1159 2438 1159 1844 
L 1159 0 
L 581 0 
L 581 3500 
L 1159 3500 
L 1159 2956 
Q 1341 3275 1631 3429 
Q 1922 3584 2338 3584 
Q 2397 3584 2469 3576 
Q 2541 3569 2628 3553 
L 2631 2963 
z
" transform="scale(0.015625)"/>
       <path id="DejaVuSans-61" d="M 2194 1759 
Q 1497 1759 1228 1600 
Q 959 1441 959 1056 
Q 959 750 1161 570 
Q 1363 391 1709 391 
Q 2188 391 2477 730 
Q 2766 1069 2766 1631 
L 2766 1759 
L 2194 1759 
z
M 3341 1997 
L 3341 0 
L 2766 0 
L 2766 531 
Q 2569 213 2275 61 
Q 1981 -91 1556 -91 
Q 1019 -91 701 211 
Q 384 513 384 1019 
Q 384 1609 779 1909 
Q 1175 2209 1959 2209 
L 2766 2209 
L 2766 2266 
Q 2766 2663 2505 2880 
Q 2244 3097 1772 3097 
Q 1472 3097 1187 3025 
Q 903 2953 641 2809 
L 641 3341 
Q 956 3463 1253 3523 
Q 1550 3584 1831 3584 
Q 2591 3584 2966 3190 
Q 3341 2797 3341 1997 
z
" transform="scale(0.015625)"/>
       <path id="DejaVuSans-63" d="M 3122 3366 
L 3122 2828 
Q 2878 2963 2633 3030 
Q 2388 3097 2138 3097 
Q 1578 3097 1268 2742 
Q 959 2388 959 1747 
Q 959 1106 1268 751 
Q 1578 397 2138 397 
Q 2388 397 2633 464 
Q 2878 531 3122 666 
L 3122 134 
Q 2881 22 2623 -34 
Q 2366 -91 2075 -91 
Q 1284 -91 818 406 
Q 353 903 353 1747 
Q 353 2603 823 3093 
Q 1294 3584 2113 3584 
Q 2378 3584 2631 3529 
Q 2884 3475 3122 3366 
z
" transform="scale(0.015625)"/>
       <path id="DejaVuSans-74" d="M 1172 4494 
L 1172 3500 
L 2356 3500 
L 2356 3053 
L 1172 3053 
L 1172 1153 
Q 1172 725 1289 603 
Q 1406 481 1766 481 
L 2356 481 
L 2356 0 
L 1766 0 
Q 1100 0 847 248 
Q 594 497 594 1153 
L 594 3053 
L 172 3053 
L 172 3500 
L 594 3500 
L 594 4494 
L 1172 4494 
z
" transform="scale(0.015625)"/>
       <path id="DejaVuSans-69" d="M 603 3500 
L 1178 3500 
L 1178 0 
L 603 0 
L 603 3500 
z
M 603 4863 
L 1178 4863 
L 1178 4134 
L 603 4134 
L 603 4863 
z
" transform="scale(0.015625)"/>
       <path id="DejaVuSans-6f" d="M 1959 3097 
Q 1497 3097 1228 2736 
Q 959 2375 959 1747 
Q 959 1119 1226 758 
Q 1494 397 1959 397 
Q 2419 397 2687 759 
Q 2956 1122 2956 1747 
Q 2956 2369 2687 2733 
Q 2419 3097 1959 3097 
z
M 1959 3584 
Q 2709 3584 3137 3096 
Q 3566 2609 3566 1747 
Q 3566 888 3137 398 
Q 2709 -91 1959 -91 
Q 1206 -91 779 398 
Q 353 888 353 1747 
Q 353 2609 779 3096 
Q 1206 3584 1959 3584 
z
" transform="scale(0.015625)"/>
       <path id="DejaVuSans-6e" d="M 3513 2113 
L 3513 0 
L 2938 0 
L 2938 2094 
Q 2938 2591 2744 2837 
Q 2550 3084 2163 3084 
Q 1697 3084 1428 2787 
Q 1159 2491 1159 1978 
L 1159 0 
L 581 0 
L 581 3500 
L 1159 3500 
L 1159 2956 
Q 1366 3272 1645 3428 
Q 1925 3584 2291 3584 
Q 2894 3584 3203 3211 
Q 3513 2838 3513 2113 
z
" transform="scale(0.015625)"/>
       <path id="DejaVuSans-20" transform="scale(0.015625)"/>
       <path id="DejaVuSans-64" d="M 2906 2969 
L 2906 4863 
L 3481 4863 
L 3481 0 
L 2906 0 
L 2906 525 
Q 2725 213 2448 61 
Q 2172 -91 1784 -91 
Q 1150 -91 751 415 
Q 353 922 353 1747 
Q 353 2572 751 3078 
Q 1150 3584 1784 3584 
Q 2172 3584 2448 3432 
Q 2725 3281 2906 2969 
z
M 947 1747 
Q 947 1113 1208 752 
Q 1469 391 1925 391 
Q 2381 391 2643 752 
Q 2906 1113 2906 1747 
Q 2906 2381 2643 2742 
Q 2381 3103 1925 3103 
Q 1469 3103 1208 2742 
Q 947 2381 947 1747 
z
" transform="scale(0.015625)"/>
       <path id="DejaVuSans-65" d="M 3597 1894 
L 3597 1613 
L 953 1613 
Q 991 1019 1311 708 
Q 1631 397 2203 397 
Q 2534 397 2845 478 
Q 3156 559 3463 722 
L 3463 178 
Q 3153 47 2828 -22 
Q 2503 -91 2169 -91 
Q 1331 -91 842 396 
Q 353 884 353 1716 
Q 353 2575 817 3079 
Q 1281 3584 2069 3584 
Q 2775 3584 3186 3129 
Q 3597 2675 3597 1894 
z
M 3022 2063 
Q 3016 2534 2758 2815 
Q 2500 3097 2075 3097 
Q 1594 3097 1305 2825 
Q 1016 2553 972 2059 
L 3022 2063 
z
" transform="scale(0.015625)"/>
       <path id="DejaVuSans-66" d="M 2375 4863 
L 2375 4384 
L 1825 4384 
Q 1516 4384 1395 4259 
Q 1275 4134 1275 3809 
L 1275 3500 
L 2222 3500 
L 2222 3053 
L 1275 3053 
L 1275 0 
L 697 0 
L 697 3053 
L 147 3053 
L 147 3500 
L 697 3500 
L 697 3744 
Q 697 4328 969 4595 
Q 1241 4863 1831 4863 
L 2375 4863 
z
" transform="scale(0.015625)"/>
       <path id="DejaVuSans-75" d="M 544 1381 
L 544 3500 
L 1119 3500 
L 1119 1403 
Q 1119 906 1312 657 
Q 1506 409 1894 409 
Q 2359 409 2629 706 
Q 2900 1003 2900 1516 
L 2900 3500 
L 3475 3500 
L 3475 0 
L 2900 0 
L 2900 538 
Q 2691 219 2414 64 
Q 2138 -91 1772 -91 
Q 1169 -91 856 284 
Q 544 659 544 1381 
z
M 1991 3584 
L 1991 3584 
z
" transform="scale(0.015625)"/>
       <path id="DejaVuSans-6c" d="M 603 4863 
L 1178 4863 
L 1178 0 
L 603 0 
L 603 4863 
z
" transform="scale(0.015625)"/>
       <path id="DejaVuSans-73" d="M 2834 3397 
L 2834 2853 
Q 2591 2978 2328 3040 
Q 2066 3103 1784 3103 
Q 1356 3103 1142 2972 
Q 928 2841 928 2578 
Q 928 2378 1081 2264 
Q 1234 2150 1697 2047 
L 1894 2003 
Q 2506 1872 2764 1633 
Q 3022 1394 3022 966 
Q 3022 478 2636 193 
Q 2250 -91 1575 -91 
Q 1294 -91 989 -36 
Q 684 19 347 128 
L 347 722 
Q 666 556 975 473 
Q 1284 391 1588 391 
Q 1994 391 2212 530 
Q 2431 669 2431 922 
Q 2431 1156 2273 1281 
Q 2116 1406 1581 1522 
L 1381 1569 
Q 847 1681 609 1914 
Q 372 2147 372 2553 
Q 372 3047 722 3315 
Q 1072 3584 1716 3584 
Q 2034 3584 2315 3537 
Q 2597 3491 2834 3397 
z
" transform="scale(0.015625)"/>
       <path id="DejaVuSans-67" d="M 2906 1791 
Q 2906 2416 2648 2759 
Q 2391 3103 1925 3103 
Q 1463 3103 1205 2759 
Q 947 2416 947 1791 
Q 947 1169 1205 825 
Q 1463 481 1925 481 
Q 2391 481 2648 825 
Q 2906 1169 2906 1791 
z
M 3481 434 
Q 3481 -459 3084 -895 
Q 2688 -1331 1869 -1331 
Q 1566 -1331 1297 -1286 
Q 1028 -1241 775 -1147 
L 775 -588 
Q 1028 -725 1275 -790 
Q 1522 -856 1778 -856 
Q 2344 -856 2625 -561 
Q 2906 -266 2906 331 
L 2906 616 
Q 2728 306 2450 153 
Q 2172 0 1784 0 
Q 1141 0 747 490 
Q 353 981 353 1791 
Q 353 2603 747 3093 
Q 1141 3584 1784 3584 
Q 2172 3584 2450 3431 
Q 2728 3278 2906 2969 
L 2906 3500 
L 3481 3500 
L 3481 434 
z
" transform="scale(0.015625)"/>
      </defs>
      <use xlink:href="#DejaVuSans-46"/>
      <use xlink:href="#DejaVuSans-72" x="50.269531"/>
      <use xlink:href="#DejaVuSans-61" x="91.382812"/>
      <use xlink:href="#DejaVuSans-63" x="152.662109"/>
      <use xlink:href="#DejaVuSans-74" x="207.642578"/>
      <use xlink:href="#DejaVuSans-69" x="246.851562"/>
      <use xlink:href="#DejaVuSans-6f" x="274.634766"/>
      <use xlink:href="#DejaVuSans-6e" x="335.816406"/>
      <use xlink:href="#DejaVuSans-20" x="399.195312"/>
      <use xlink:href="#DejaVuSans-64" x="430.982422"/>
      <use xlink:href="#DejaVuSans-65" x="494.458984"/>
      <use xlink:href="#DejaVuSans-66" x="555.982422"/>
      <use xlink:href="#DejaVuSans-61" x="591.1875"/>
      <use xlink:href="#DejaVuSans-75" x="652.466797"/>
      <use xlink:href="#DejaVuSans-6c" x="715.845703"/>
      <use xlink:href="#DejaVuSans-74" x="743.628906"/>
      <use xlink:href="#DejaVuSans-65" x="782.837891"/>
      <use xlink:href="#DejaVuSans-72" x="844.361328"/>
      <use xlink:href="#DejaVuSans-73" x="885.474609"/>
      <use xlink:href="#DejaVuSans-20" x="937.574219"/>
      <use xlink:href="#DejaVuSans-67" x="969.361328"/>
      <use xlink:href="#DejaVuSans-65" x="1032.837891"/>
      <use xlink:href="#DejaVuSans-74" x="1094.361328"/>
      <use xlink:href="#DejaVuSans-74" x="1133.570312"/>
      <use xlink:href="#DejaVuSans-69" x="1172.779297"/>
      <use xlink:href="#DejaVuSans-6e" x="1200.5625"/>
      <use xlink:href="#DejaVuSans-67" x="1263.941406"/>
      <use xlink:href="#DejaVuSans-20" x="1327.417969"/>
      <use xlink:href="#DejaVuSans-6c" x="1359.205078"/>
      <use xlink:href="#DejaVuSans-6f" x="1386.988281"/>
      <use xlink:href="#DejaVuSans-61" x="1448.169922"/>
      <use xlink:href="#DejaVuSans-6e" x="1509.449219"/>
     </g>
    </g>
   </g>
   <g id="matplotlib.axis_2">
    <g id="ytick_1">
     <g id="line2d_7">
      <defs>
       <path id="mf08f99d44b" d="M 0 0 
L -3.5 0 
" style="stroke: #000000; stroke-width: 0.8"/>
      </defs>
      <g>
       <use xlink:href="#mf08f99d44b" x="97.485" y="293.64" style="stroke: #000000; stroke-width: 0.8"/>
      </g>
     </g>
     <g id="text_8">
      <!-- 0.0 -->
      <g transform="translate(63.449688 300.098672)scale(0.17 -0.17)">
       <use xlink:href="#DejaVuSans-30"/>
       <use xlink:href="#DejaVuSans-2e" x="63.623047"/>
       <use xlink:href="#DejaVuSans-30" x="95.410156"/>
      </g>
     </g>
    </g>
    <g id="ytick_2">
     <g id="line2d_8">
      <g>
       <use xlink:href="#mf08f99d44b" x="97.485" y="242.784" style="stroke: #000000; stroke-width: 0.8"/>
      </g>
     </g>
     <g id="text_9">
      <!-- 0.2 -->
      <g transform="translate(63.449688 249.242672)scale(0.17 -0.17)">
       <use xlink:href="#DejaVuSans-30"/>
       <use xlink:href="#DejaVuSans-2e" x="63.623047"/>
       <use xlink:href="#DejaVuSans-32" x="95.410156"/>
      </g>
     </g>
    </g>
    <g id="ytick_3">
     <g id="line2d_9">
      <g>
       <use xlink:href="#mf08f99d44b" x="97.485" y="191.928" style="stroke: #000000; stroke-width: 0.8"/>
      </g>
     </g>
     <g id="text_10">
      <!-- 0.4 -->
      <g transform="translate(63.449688 198.386672)scale(0.17 -0.17)">
       <use xlink:href="#DejaVuSans-30"/>
       <use xlink:href="#DejaVuSans-2e" x="63.623047"/>
       <use xlink:href="#DejaVuSans-34" x="95.410156"/>
      </g>
     </g>
    </g>
    <g id="ytick_4">
     <g id="line2d_10">
      <g>
       <use xlink:href="#mf08f99d44b" x="97.485" y="141.072" style="stroke: #000000; stroke-width: 0.8"/>
      </g>
     </g>
     <g id="text_11">
      <!-- 0.6 -->
      <g transform="translate(63.449688 147.530672)scale(0.17 -0.17)">
       <use xlink:href="#DejaVuSans-30"/>
       <use xlink:href="#DejaVuSans-2e" x="63.623047"/>
       <use xlink:href="#DejaVuSans-36" x="95.410156"/>
      </g>
     </g>
    </g>
    <g id="ytick_5">
     <g id="line2d_11">
      <g>
       <use xlink:href="#mf08f99d44b" x="97.485" y="90.216" style="stroke: #000000; stroke-width: 0.8"/>
      </g>
     </g>
     <g id="text_12">
      <!-- 0.8 -->
      <g transform="translate(63.449688 96.674672)scale(0.17 -0.17)">
       <use xlink:href="#DejaVuSans-30"/>
       <use xlink:href="#DejaVuSans-2e" x="63.623047"/>
       <use xlink:href="#DejaVuSans-38" x="95.410156"/>
      </g>
     </g>
    </g>
    <g id="ytick_6">
     <g id="line2d_12">
      <g>
       <use xlink:href="#mf08f99d44b" x="97.485" y="39.36" style="stroke: #000000; stroke-width: 0.8"/>
      </g>
     </g>
     <g id="text_13">
      <!-- 1.0 -->
      <g transform="translate(63.449688 45.818672)scale(0.17 -0.17)">
       <use xlink:href="#DejaVuSans-31"/>
       <use xlink:href="#DejaVuSans-2e" x="63.623047"/>
       <use xlink:href="#DejaVuSans-30" x="95.410156"/>
      </g>
     </g>
    </g>
    <g id="text_14">
     <!-- Fraction non-defaulters -->
     <g transform="translate(32.363588 284.980969)rotate(-90)scale(0.204 -0.204)">
      <defs>
       <path id="DejaVuSans-2d" d="M 313 2009 
L 1997 2009 
L 1997 1497 
L 313 1497 
L 313 2009 
z
" transform="scale(0.015625)"/>
      </defs>
      <use xlink:href="#DejaVuSans-46"/>
      <use xlink:href="#DejaVuSans-72" x="50.269531"/>
      <use xlink:href="#DejaVuSans-61" x="91.382812"/>
      <use xlink:href="#DejaVuSans-63" x="152.662109"/>
      <use xlink:href="#DejaVuSans-74" x="207.642578"/>
      <use xlink:href="#DejaVuSans-69" x="246.851562"/>
      <use xlink:href="#DejaVuSans-6f" x="274.634766"/>
      <use xlink:href="#DejaVuSans-6e" x="335.816406"/>
      <use xlink:href="#DejaVuSans-20" x="399.195312"/>
      <use xlink:href="#DejaVuSans-6e" x="430.982422"/>
      <use xlink:href="#DejaVuSans-6f" x="494.361328"/>
      <use xlink:href="#DejaVuSans-6e" x="555.542969"/>
      <use xlink:href="#DejaVuSans-2d" x="618.921875"/>
      <use xlink:href="#DejaVuSans-64" x="655.005859"/>
      <use xlink:href="#DejaVuSans-65" x="718.482422"/>
      <use xlink:href="#DejaVuSans-66" x="780.005859"/>
      <use xlink:href="#DejaVuSans-61" x="815.210938"/>
      <use xlink:href="#DejaVuSans-75" x="876.490234"/>
      <use xlink:href="#DejaVuSans-6c" x="939.869141"/>
      <use xlink:href="#DejaVuSans-74" x="967.652344"/>
      <use xlink:href="#DejaVuSans-65" x="1006.861328"/>
      <use xlink:href="#DejaVuSans-72" x="1068.384766"/>
      <use xlink:href="#DejaVuSans-73" x="1109.498047"/>
     </g>
     <!-- getting loan -->
     <g transform="translate(55.207125 228.053812)rotate(-90)scale(0.204 -0.204)">
      <use xlink:href="#DejaVuSans-67"/>
      <use xlink:href="#DejaVuSans-65" x="63.476562"/>
      <use xlink:href="#DejaVuSans-74" x="125"/>
      <use xlink:href="#DejaVuSans-74" x="164.208984"/>
      <use xlink:href="#DejaVuSans-69" x="203.417969"/>
      <use xlink:href="#DejaVuSans-6e" x="231.201172"/>
      <use xlink:href="#DejaVuSans-67" x="294.580078"/>
      <use xlink:href="#DejaVuSans-20" x="358.056641"/>
      <use xlink:href="#DejaVuSans-6c" x="389.84375"/>
      <use xlink:href="#DejaVuSans-6f" x="417.626953"/>
      <use xlink:href="#DejaVuSans-61" x="478.808594"/>
      <use xlink:href="#DejaVuSans-6e" x="540.087891"/>
     </g>
    </g>
   </g>
   <g id="line2d_13">
    <path d="M 431.7575 39.36 
L 390.034698 39.893123 
L 343.665691 40.746226 
L 329.750025 41.143071 
L 313.493467 41.806969 
L 299.223246 42.580461 
L 285.778538 43.504281 
L 276.582629 44.287873 
L 265.813572 45.415296 
L 253.864601 46.926643 
L 245.043168 48.219641 
L 237.749626 49.444203 
L 226.816072 51.581671 
L 219.914779 53.161299 
L 210.756702 55.527539 
L 202.476317 57.990577 
L 196.297686 60.079985 
L 189.413266 62.639655 
L 184.2685 64.79127 
L 179.624857 66.939595 
L 175.030277 69.317461 
L 170.323639 72.053102 
L 166.515408 74.574163 
L 162.519006 77.596715 
L 159.193328 80.520802 
L 156.451499 83.362116 
L 152.094933 88.840295 
L 147.521779 95.003881 
L 142.474897 102.310291 
L 138.642403 108.262085 
L 134.690842 114.8225 
L 132.027739 119.600576 
L 128.823604 125.981947 
L 126.822192 130.376275 
L 124.09066 136.969768 
L 121.823872 143.238195 
L 120.040071 149.027302 
L 118.442832 155.291595 
L 112.577914 181.295101 
L 110.073994 190.987013 
L 106.978094 202.651124 
L 105.217535 210.587494 
L 104.034403 216.832651 
L 102.64221 225.434888 
L 101.839419 231.686275 
L 100.670115 242.314556 
L 99.710114 253.138527 
L 98.973832 264.255359 
L 97.903485 284.639842 
L 97.485 293.64 
L 97.485 293.64 
" clip-path="url(#p466039c8f3)" style="fill: none; stroke: #0000ff; stroke-width: 3; stroke-linecap: square"/>
   </g>
   <g id="line2d_14">
    <path d="M 431.405976 39.361745 
L 425.806416 39.426904 
L 399.548157 39.943517 
L 385.76325 40.427309 
L 368.438693 41.26973 
L 357.11177 41.963942 
L 334.827279 43.679579 
L 320.0077 45.029554 
L 307.862228 46.309602 
L 293.535369 48.09623 
L 281.749065 49.839324 
L 263.803938 52.773342 
L 249.83333 55.245305 
L 232.579472 58.535941 
L 220.127589 61.094263 
L 206.128358 64.203296 
L 200.821696 65.463225 
L 184.540885 69.457472 
L 180.34247 70.641544 
L 172.680208 73.204573 
L 166.895362 75.636295 
L 161.302035 78.506326 
L 154.995144 82.34629 
L 150.034806 85.938874 
L 145.333816 89.920368 
L 140.893658 94.293001 
L 136.855162 98.890183 
L 133.514444 103.249308 
L 130.490315 107.780961 
L 127.762196 112.227623 
L 125.277619 116.66172 
L 122.914386 121.277784 
L 120.813634 125.758574 
L 118.730683 130.568276 
L 117.028081 134.890575 
L 115.176378 140.047051 
L 112.646419 148.039725 
L 111.153959 153.583805 
L 109.393375 160.841345 
L 107.95281 167.445458 
L 106.127271 177.023346 
L 104.926282 184.515605 
L 103.99062 191.574641 
L 102.207953 207.790082 
L 100.558849 224.81025 
L 99.543439 237.642969 
L 98.924497 248.274694 
L 98.347151 262.746536 
L 97.485 293.64 
L 97.485 293.64 
" clip-path="url(#p466039c8f3)" style="fill: none; stroke-dasharray: 11.1,4.8; stroke-dashoffset: 0; stroke: #008000; stroke-width: 3"/>
   </g>
   <g id="line2d_15">
    <path d="M 431.680837 39.360425 
L 410.990711 39.614632 
L 394.013121 40.001625 
L 380.083511 40.450406 
L 356.617954 41.471817 
L 341.07076 42.327925 
L 325.364637 43.405437 
L 310.053105 44.711137 
L 290.057001 46.70945 
L 269.05109 49.153251 
L 251.704527 51.475287 
L 237.979999 53.56446 
L 221.685309 56.315749 
L 213.853214 57.963217 
L 207.219306 59.676964 
L 199.62552 62.044107 
L 191.353998 65.04877 
L 185.260623 67.656966 
L 179.154199 70.74996 
L 172.91208 74.435864 
L 169.575072 76.668659 
L 167.100806 78.460438 
L 161.894368 82.655749 
L 158.343881 85.973575 
L 154.081368 90.222404 
L 150.001128 94.57664 
L 146.827005 98.201631 
L 143.544795 102.211704 
L 140.30828 106.427237 
L 137.318055 110.606162 
L 134.261538 115.194337 
L 131.553243 119.581059 
L 128.421449 125.19991 
L 125.87881 130.264292 
L 122.730746 137.126978 
L 120.015315 143.657989 
L 117.535206 150.235567 
L 115.711828 155.626373 
L 113.957427 161.415137 
L 111.976745 168.908151 
L 109.663994 178.536583 
L 107.578206 188.206748 
L 105.829734 197.311083 
L 104.16486 207.1799 
L 102.423485 218.839584 
L 101.083622 229.29918 
L 100.09335 238.752457 
L 99.326063 248.15565 
L 98.648496 259.445833 
L 97.989412 274.148363 
L 97.59472 287.929581 
L 97.485 293.64 
L 97.485 293.64 
" clip-path="url(#p466039c8f3)" style="fill: none; stroke-dasharray: 19.2,4.8,3,4.8; stroke-dashoffset: 0; stroke: #00bfbf; stroke-width: 3"/>
   </g>
   <g id="line2d_16">
    <path d="M 431.621008 39.360489 
L 403.704161 39.576864 
L 376.426422 40.014917 
L 349.317851 40.661485 
L 326.717825 41.427009 
L 306.627478 42.330571 
L 285.928248 43.455481 
L 267.542464 44.637429 
L 248.520648 46.101191 
L 231.969436 47.592985 
L 220.820508 48.883731 
L 211.73804 50.238785 
L 204.089532 51.60565 
L 198.506487 52.768451 
L 192.774358 54.163309 
L 186.676384 55.87184 
L 181.191782 57.661756 
L 174.945168 60.038164 
L 170.62161 61.941436 
L 163.824358 65.257131 
L 159.867615 67.416743 
L 156.109737 69.65799 
L 151.547144 72.642979 
L 148.045893 75.180937 
L 144.508558 78.011811 
L 141.27953 80.88377 
L 138.680217 83.472388 
L 136.791679 85.59618 
L 133.948844 89.064331 
L 130.50919 93.728726 
L 127.525485 98.268832 
L 124.799626 102.938361 
L 122.566006 107.291285 
L 120.337816 112.282334 
L 118.717747 116.549104 
L 116.623418 122.645067 
L 114.702758 128.850086 
L 112.982904 135.103693 
L 111.450543 141.469701 
L 109.769389 149.643107 
L 108.215129 158.215898 
L 106.640992 168.191567 
L 105.45223 177.28851 
L 104.201788 188.783708 
L 102.999508 201.899346 
L 101.820844 217.668493 
L 99.815358 247.884234 
L 98.613023 268.842692 
L 97.626978 290.121618 
L 97.485 293.64 
L 97.485 293.64 
" clip-path="url(#p466039c8f3)" style="fill: none; stroke-dasharray: 3,4.95; stroke-dashoffset: 0; stroke: #ff0000; stroke-width: 3"/>
   </g>
   <g id="patch_3">
    <path d="M 97.485 293.64 
L 97.485 39.36 
" style="fill: none; stroke: #000000; stroke-width: 0.8; stroke-linejoin: miter; stroke-linecap: square"/>
   </g>
   <g id="patch_4">
    <path d="M 431.7575 293.64 
L 431.7575 39.36 
" style="fill: none; stroke: #000000; stroke-width: 0.8; stroke-linejoin: miter; stroke-linecap: square"/>
   </g>
   <g id="patch_5">
    <path d="M 97.485 293.64 
L 431.7575 293.64 
" style="fill: none; stroke: #000000; stroke-width: 0.8; stroke-linejoin: miter; stroke-linecap: square"/>
   </g>
   <g id="patch_6">
    <path d="M 97.485 39.36 
L 431.7575 39.36 
" style="fill: none; stroke: #000000; stroke-width: 0.8; stroke-linejoin: miter; stroke-linecap: square"/>
   </g>
   <g id="text_15">
    <!-- ROC curve of credit score -->
    <g transform="translate(134.445344 33.36)scale(0.204 -0.204)">
     <defs>
      <path id="DejaVuSans-52" d="M 2841 2188 
Q 3044 2119 3236 1894 
Q 3428 1669 3622 1275 
L 4263 0 
L 3584 0 
L 2988 1197 
Q 2756 1666 2539 1819 
Q 2322 1972 1947 1972 
L 1259 1972 
L 1259 0 
L 628 0 
L 628 4666 
L 2053 4666 
Q 2853 4666 3247 4331 
Q 3641 3997 3641 3322 
Q 3641 2881 3436 2590 
Q 3231 2300 2841 2188 
z
M 1259 4147 
L 1259 2491 
L 2053 2491 
Q 2509 2491 2742 2702 
Q 2975 2913 2975 3322 
Q 2975 3731 2742 3939 
Q 2509 4147 2053 4147 
L 1259 4147 
z
" transform="scale(0.015625)"/>
      <path id="DejaVuSans-4f" d="M 2522 4238 
Q 1834 4238 1429 3725 
Q 1025 3213 1025 2328 
Q 1025 1447 1429 934 
Q 1834 422 2522 422 
Q 3209 422 3611 934 
Q 4013 1447 4013 2328 
Q 4013 3213 3611 3725 
Q 3209 4238 2522 4238 
z
M 2522 4750 
Q 3503 4750 4090 4092 
Q 4678 3434 4678 2328 
Q 4678 1225 4090 567 
Q 3503 -91 2522 -91 
Q 1538 -91 948 565 
Q 359 1222 359 2328 
Q 359 3434 948 4092 
Q 1538 4750 2522 4750 
z
" transform="scale(0.015625)"/>
      <path id="DejaVuSans-43" d="M 4122 4306 
L 4122 3641 
Q 3803 3938 3442 4084 
Q 3081 4231 2675 4231 
Q 1875 4231 1450 3742 
Q 1025 3253 1025 2328 
Q 1025 1406 1450 917 
Q 1875 428 2675 428 
Q 3081 428 3442 575 
Q 3803 722 4122 1019 
L 4122 359 
Q 3791 134 3420 21 
Q 3050 -91 2638 -91 
Q 1578 -91 968 557 
Q 359 1206 359 2328 
Q 359 3453 968 4101 
Q 1578 4750 2638 4750 
Q 3056 4750 3426 4639 
Q 3797 4528 4122 4306 
z
" transform="scale(0.015625)"/>
      <path id="DejaVuSans-76" d="M 191 3500 
L 800 3500 
L 1894 563 
L 2988 3500 
L 3597 3500 
L 2284 0 
L 1503 0 
L 191 3500 
z
" transform="scale(0.015625)"/>
     </defs>
     <use xlink:href="#DejaVuSans-52"/>
     <use xlink:href="#DejaVuSans-4f" x="69.482422"/>
     <use xlink:href="#DejaVuSans-43" x="148.193359"/>
     <use xlink:href="#DejaVuSans-20" x="218.017578"/>
     <use xlink:href="#DejaVuSans-63" x="249.804688"/>
     <use xlink:href="#DejaVuSans-75" x="304.785156"/>
     <use xlink:href="#DejaVuSans-72" x="368.164062"/>
     <use xlink:href="#DejaVuSans-76" x="409.277344"/>
     <use xlink:href="#DejaVuSans-65" x="468.457031"/>
     <use xlink:href="#DejaVuSans-20" x="529.980469"/>
     <use xlink:href="#DejaVuSans-6f" x="561.767578"/>
     <use xlink:href="#DejaVuSans-66" x="622.949219"/>
     <use xlink:href="#DejaVuSans-20" x="658.154297"/>
     <use xlink:href="#DejaVuSans-63" x="689.941406"/>
     <use xlink:href="#DejaVuSans-72" x="744.921875"/>
     <use xlink:href="#DejaVuSans-65" x="783.785156"/>
     <use xlink:href="#DejaVuSans-64" x="845.308594"/>
     <use xlink:href="#DejaVuSans-69" x="908.785156"/>
     <use xlink:href="#DejaVuSans-74" x="936.568359"/>
     <use xlink:href="#DejaVuSans-20" x="975.777344"/>
     <use xlink:href="#DejaVuSans-73" x="1007.564453"/>
     <use xlink:href="#DejaVuSans-63" x="1059.664062"/>
     <use xlink:href="#DejaVuSans-6f" x="1114.644531"/>
     <use xlink:href="#DejaVuSans-72" x="1175.826172"/>
     <use xlink:href="#DejaVuSans-65" x="1214.689453"/>
    </g>
   </g>
   <g id="legend_1">
    <g id="patch_7">
     <path d="M 293.040156 285.14 
L 419.8575 285.14 
Q 423.2575 285.14 423.2575 281.74 
L 423.2575 183.62875 
Q 423.2575 180.22875 419.8575 180.22875 
L 293.040156 180.22875 
Q 289.640156 180.22875 289.640156 183.62875 
L 289.640156 281.74 
Q 289.640156 285.14 293.040156 285.14 
z
" style="fill: #ffffff; opacity: 0.8; stroke: #cccccc; stroke-linejoin: miter"/>
    </g>
    <g id="line2d_17">
     <path d="M 296.440156 193.996094 
L 313.440156 193.996094 
L 330.440156 193.996094 
" style="fill: none; stroke: #0000ff; stroke-width: 3; stroke-linecap: square"/>
    </g>
    <g id="text_16">
     <!-- Asian -->
     <g transform="translate(344.040156 199.946094)scale(0.17 -0.17)">
      <defs>
       <path id="DejaVuSans-41" d="M 2188 4044 
L 1331 1722 
L 3047 1722 
L 2188 4044 
z
M 1831 4666 
L 2547 4666 
L 4325 0 
L 3669 0 
L 3244 1197 
L 1141 1197 
L 716 0 
L 50 0 
L 1831 4666 
z
" transform="scale(0.015625)"/>
      </defs>
      <use xlink:href="#DejaVuSans-41"/>
      <use xlink:href="#DejaVuSans-73" x="68.408203"/>
      <use xlink:href="#DejaVuSans-69" x="120.507812"/>
      <use xlink:href="#DejaVuSans-61" x="148.291016"/>
      <use xlink:href="#DejaVuSans-6e" x="209.570312"/>
     </g>
    </g>
    <g id="line2d_18">
     <path d="M 296.440156 218.948906 
L 313.440156 218.948906 
L 330.440156 218.948906 
" style="fill: none; stroke-dasharray: 11.1,4.8; stroke-dashoffset: 0; stroke: #008000; stroke-width: 3"/>
    </g>
    <g id="text_17">
     <!-- Black -->
     <g transform="translate(344.040156 224.898906)scale(0.17 -0.17)">
      <defs>
       <path id="DejaVuSans-42" d="M 1259 2228 
L 1259 519 
L 2272 519 
Q 2781 519 3026 730 
Q 3272 941 3272 1375 
Q 3272 1813 3026 2020 
Q 2781 2228 2272 2228 
L 1259 2228 
z
M 1259 4147 
L 1259 2741 
L 2194 2741 
Q 2656 2741 2882 2914 
Q 3109 3088 3109 3444 
Q 3109 3797 2882 3972 
Q 2656 4147 2194 4147 
L 1259 4147 
z
M 628 4666 
L 2241 4666 
Q 2963 4666 3353 4366 
Q 3744 4066 3744 3513 
Q 3744 3084 3544 2831 
Q 3344 2578 2956 2516 
Q 3422 2416 3680 2098 
Q 3938 1781 3938 1306 
Q 3938 681 3513 340 
Q 3088 0 2303 0 
L 628 0 
L 628 4666 
z
" transform="scale(0.015625)"/>
       <path id="DejaVuSans-6b" d="M 581 4863 
L 1159 4863 
L 1159 1991 
L 2875 3500 
L 3609 3500 
L 1753 1863 
L 3688 0 
L 2938 0 
L 1159 1709 
L 1159 0 
L 581 0 
L 581 4863 
z
" transform="scale(0.015625)"/>
      </defs>
      <use xlink:href="#DejaVuSans-42"/>
      <use xlink:href="#DejaVuSans-6c" x="68.603516"/>
      <use xlink:href="#DejaVuSans-61" x="96.386719"/>
      <use xlink:href="#DejaVuSans-63" x="157.666016"/>
      <use xlink:href="#DejaVuSans-6b" x="212.646484"/>
     </g>
    </g>
    <g id="line2d_19">
     <path d="M 296.440156 243.901719 
L 313.440156 243.901719 
L 330.440156 243.901719 
" style="fill: none; stroke-dasharray: 19.2,4.8,3,4.8; stroke-dashoffset: 0; stroke: #00bfbf; stroke-width: 3"/>
    </g>
    <g id="text_18">
     <!-- Hispanic -->
     <g transform="translate(344.040156 249.851719)scale(0.17 -0.17)">
      <defs>
       <path id="DejaVuSans-48" d="M 628 4666 
L 1259 4666 
L 1259 2753 
L 3553 2753 
L 3553 4666 
L 4184 4666 
L 4184 0 
L 3553 0 
L 3553 2222 
L 1259 2222 
L 1259 0 
L 628 0 
L 628 4666 
z
" transform="scale(0.015625)"/>
       <path id="DejaVuSans-70" d="M 1159 525 
L 1159 -1331 
L 581 -1331 
L 581 3500 
L 1159 3500 
L 1159 2969 
Q 1341 3281 1617 3432 
Q 1894 3584 2278 3584 
Q 2916 3584 3314 3078 
Q 3713 2572 3713 1747 
Q 3713 922 3314 415 
Q 2916 -91 2278 -91 
Q 1894 -91 1617 61 
Q 1341 213 1159 525 
z
M 3116 1747 
Q 3116 2381 2855 2742 
Q 2594 3103 2138 3103 
Q 1681 3103 1420 2742 
Q 1159 2381 1159 1747 
Q 1159 1113 1420 752 
Q 1681 391 2138 391 
Q 2594 391 2855 752 
Q 3116 1113 3116 1747 
z
" transform="scale(0.015625)"/>
      </defs>
      <use xlink:href="#DejaVuSans-48"/>
      <use xlink:href="#DejaVuSans-69" x="75.195312"/>
      <use xlink:href="#DejaVuSans-73" x="102.978516"/>
      <use xlink:href="#DejaVuSans-70" x="155.078125"/>
      <use xlink:href="#DejaVuSans-61" x="218.554688"/>
      <use xlink:href="#DejaVuSans-6e" x="279.833984"/>
      <use xlink:href="#DejaVuSans-69" x="343.212891"/>
      <use xlink:href="#DejaVuSans-63" x="370.996094"/>
     </g>
    </g>
    <g id="line2d_20">
     <path d="M 296.440156 268.854531 
L 313.440156 268.854531 
L 330.440156 268.854531 
" style="fill: none; stroke-dasharray: 3,4.95; stroke-dashoffset: 0; stroke: #ff0000; stroke-width: 3"/>
    </g>
    <g id="text_19">
     <!-- White -->
     <g transform="translate(344.040156 274.804531)scale(0.17 -0.17)">
      <defs>
       <path id="DejaVuSans-57" d="M 213 4666 
L 850 4666 
L 1831 722 
L 2809 4666 
L 3519 4666 
L 4500 722 
L 5478 4666 
L 6119 4666 
L 4947 0 
L 4153 0 
L 3169 4050 
L 2175 0 
L 1381 0 
L 213 4666 
z
" transform="scale(0.015625)"/>
       <path id="DejaVuSans-68" d="M 3513 2113 
L 3513 0 
L 2938 0 
L 2938 2094 
Q 2938 2591 2744 2837 
Q 2550 3084 2163 3084 
Q 1697 3084 1428 2787 
Q 1159 2491 1159 1978 
L 1159 0 
L 581 0 
L 581 4863 
L 1159 4863 
L 1159 2956 
Q 1366 3272 1645 3428 
Q 1925 3584 2291 3584 
Q 2894 3584 3203 3211 
Q 3513 2838 3513 2113 
z
" transform="scale(0.015625)"/>
      </defs>
      <use xlink:href="#DejaVuSans-57"/>
      <use xlink:href="#DejaVuSans-68" x="98.876953"/>
      <use xlink:href="#DejaVuSans-69" x="162.255859"/>
      <use xlink:href="#DejaVuSans-74" x="190.039062"/>
      <use xlink:href="#DejaVuSans-65" x="229.248047"/>
     </g>
    </g>
   </g>
  </g>
  <g id="axes_2">
   <g id="patch_8">
    <path d="M 497.805 293.64 
L 832.0775 293.64 
L 832.0775 39.36 
L 497.805 39.36 
z
" style="fill: #ffffff"/>
   </g>
   <g id="matplotlib.axis_3">
    <g id="xtick_7">
     <g id="line2d_21">
      <g>
       <use xlink:href="#m9e4c3ab223" x="497.805" y="293.64" style="stroke: #000000; stroke-width: 0.8"/>
      </g>
     </g>
     <g id="text_20">
      <!-- 0.00 -->
      <g transform="translate(478.879219 313.557344)scale(0.17 -0.17)">
       <use xlink:href="#DejaVuSans-30"/>
       <use xlink:href="#DejaVuSans-2e" x="63.623047"/>
       <use xlink:href="#DejaVuSans-30" x="95.410156"/>
       <use xlink:href="#DejaVuSans-30" x="159.033203"/>
      </g>
     </g>
    </g>
    <g id="xtick_8">
     <g id="line2d_22">
      <g>
       <use xlink:href="#m9e4c3ab223" x="553.517083" y="293.64" style="stroke: #000000; stroke-width: 0.8"/>
      </g>
     </g>
     <g id="text_21">
      <!-- 0.05 -->
      <g transform="translate(534.591302 313.557344)scale(0.17 -0.17)">
       <defs>
        <path id="DejaVuSans-35" d="M 691 4666 
L 3169 4666 
L 3169 4134 
L 1269 4134 
L 1269 2991 
Q 1406 3038 1543 3061 
Q 1681 3084 1819 3084 
Q 2600 3084 3056 2656 
Q 3513 2228 3513 1497 
Q 3513 744 3044 326 
Q 2575 -91 1722 -91 
Q 1428 -91 1123 -41 
Q 819 9 494 109 
L 494 744 
Q 775 591 1075 516 
Q 1375 441 1709 441 
Q 2250 441 2565 725 
Q 2881 1009 2881 1497 
Q 2881 1984 2565 2268 
Q 2250 2553 1709 2553 
Q 1456 2553 1204 2497 
Q 953 2441 691 2322 
L 691 4666 
z
" transform="scale(0.015625)"/>
       </defs>
       <use xlink:href="#DejaVuSans-30"/>
       <use xlink:href="#DejaVuSans-2e" x="63.623047"/>
       <use xlink:href="#DejaVuSans-30" x="95.410156"/>
       <use xlink:href="#DejaVuSans-35" x="159.033203"/>
      </g>
     </g>
    </g>
    <g id="xtick_9">
     <g id="line2d_23">
      <g>
       <use xlink:href="#m9e4c3ab223" x="609.229167" y="293.64" style="stroke: #000000; stroke-width: 0.8"/>
      </g>
     </g>
     <g id="text_22">
      <!-- 0.10 -->
      <g transform="translate(590.303385 313.557344)scale(0.17 -0.17)">
       <use xlink:href="#DejaVuSans-30"/>
       <use xlink:href="#DejaVuSans-2e" x="63.623047"/>
       <use xlink:href="#DejaVuSans-31" x="95.410156"/>
       <use xlink:href="#DejaVuSans-30" x="159.033203"/>
      </g>
     </g>
    </g>
    <g id="xtick_10">
     <g id="line2d_24">
      <g>
       <use xlink:href="#m9e4c3ab223" x="664.94125" y="293.64" style="stroke: #000000; stroke-width: 0.8"/>
      </g>
     </g>
     <g id="text_23">
      <!-- 0.15 -->
      <g transform="translate(646.015469 313.557344)scale(0.17 -0.17)">
       <use xlink:href="#DejaVuSans-30"/>
       <use xlink:href="#DejaVuSans-2e" x="63.623047"/>
       <use xlink:href="#DejaVuSans-31" x="95.410156"/>
       <use xlink:href="#DejaVuSans-35" x="159.033203"/>
      </g>
     </g>
    </g>
    <g id="xtick_11">
     <g id="line2d_25">
      <g>
       <use xlink:href="#m9e4c3ab223" x="720.653333" y="293.64" style="stroke: #000000; stroke-width: 0.8"/>
      </g>
     </g>
     <g id="text_24">
      <!-- 0.20 -->
      <g transform="translate(701.727552 313.557344)scale(0.17 -0.17)">
       <use xlink:href="#DejaVuSans-30"/>
       <use xlink:href="#DejaVuSans-2e" x="63.623047"/>
       <use xlink:href="#DejaVuSans-32" x="95.410156"/>
       <use xlink:href="#DejaVuSans-30" x="159.033203"/>
      </g>
     </g>
    </g>
    <g id="xtick_12">
     <g id="line2d_26">
      <g>
       <use xlink:href="#m9e4c3ab223" x="776.365417" y="293.64" style="stroke: #000000; stroke-width: 0.8"/>
      </g>
     </g>
     <g id="text_25">
      <!-- 0.25 -->
      <g transform="translate(757.439635 313.557344)scale(0.17 -0.17)">
       <use xlink:href="#DejaVuSans-30"/>
       <use xlink:href="#DejaVuSans-2e" x="63.623047"/>
       <use xlink:href="#DejaVuSans-32" x="95.410156"/>
       <use xlink:href="#DejaVuSans-35" x="159.033203"/>
      </g>
     </g>
    </g>
    <g id="xtick_13">
     <g id="line2d_27">
      <g>
       <use xlink:href="#m9e4c3ab223" x="832.0775" y="293.64" style="stroke: #000000; stroke-width: 0.8"/>
      </g>
     </g>
     <g id="text_26">
      <!-- 0.30 -->
      <g transform="translate(813.151719 313.557344)scale(0.17 -0.17)">
       <defs>
        <path id="DejaVuSans-33" d="M 2597 2516 
Q 3050 2419 3304 2112 
Q 3559 1806 3559 1356 
Q 3559 666 3084 287 
Q 2609 -91 1734 -91 
Q 1441 -91 1130 -33 
Q 819 25 488 141 
L 488 750 
Q 750 597 1062 519 
Q 1375 441 1716 441 
Q 2309 441 2620 675 
Q 2931 909 2931 1356 
Q 2931 1769 2642 2001 
Q 2353 2234 1838 2234 
L 1294 2234 
L 1294 2753 
L 1863 2753 
Q 2328 2753 2575 2939 
Q 2822 3125 2822 3475 
Q 2822 3834 2567 4026 
Q 2313 4219 1838 4219 
Q 1578 4219 1281 4162 
Q 984 4106 628 3988 
L 628 4550 
Q 988 4650 1302 4700 
Q 1616 4750 1894 4750 
Q 2613 4750 3031 4423 
Q 3450 4097 3450 3541 
Q 3450 3153 3228 2886 
Q 3006 2619 2597 2516 
z
" transform="scale(0.015625)"/>
       </defs>
       <use xlink:href="#DejaVuSans-30"/>
       <use xlink:href="#DejaVuSans-2e" x="63.623047"/>
       <use xlink:href="#DejaVuSans-33" x="95.410156"/>
       <use xlink:href="#DejaVuSans-30" x="159.033203"/>
      </g>
     </g>
    </g>
    <g id="text_27">
     <!-- Fraction defaulters getting loan -->
     <g transform="translate(504.514375 336.593625)scale(0.204 -0.204)">
      <use xlink:href="#DejaVuSans-46"/>
      <use xlink:href="#DejaVuSans-72" x="50.269531"/>
      <use xlink:href="#DejaVuSans-61" x="91.382812"/>
      <use xlink:href="#DejaVuSans-63" x="152.662109"/>
      <use xlink:href="#DejaVuSans-74" x="207.642578"/>
      <use xlink:href="#DejaVuSans-69" x="246.851562"/>
      <use xlink:href="#DejaVuSans-6f" x="274.634766"/>
      <use xlink:href="#DejaVuSans-6e" x="335.816406"/>
      <use xlink:href="#DejaVuSans-20" x="399.195312"/>
      <use xlink:href="#DejaVuSans-64" x="430.982422"/>
      <use xlink:href="#DejaVuSans-65" x="494.458984"/>
      <use xlink:href="#DejaVuSans-66" x="555.982422"/>
      <use xlink:href="#DejaVuSans-61" x="591.1875"/>
      <use xlink:href="#DejaVuSans-75" x="652.466797"/>
      <use xlink:href="#DejaVuSans-6c" x="715.845703"/>
      <use xlink:href="#DejaVuSans-74" x="743.628906"/>
      <use xlink:href="#DejaVuSans-65" x="782.837891"/>
      <use xlink:href="#DejaVuSans-72" x="844.361328"/>
      <use xlink:href="#DejaVuSans-73" x="885.474609"/>
      <use xlink:href="#DejaVuSans-20" x="937.574219"/>
      <use xlink:href="#DejaVuSans-67" x="969.361328"/>
      <use xlink:href="#DejaVuSans-65" x="1032.837891"/>
      <use xlink:href="#DejaVuSans-74" x="1094.361328"/>
      <use xlink:href="#DejaVuSans-74" x="1133.570312"/>
      <use xlink:href="#DejaVuSans-69" x="1172.779297"/>
      <use xlink:href="#DejaVuSans-6e" x="1200.5625"/>
      <use xlink:href="#DejaVuSans-67" x="1263.941406"/>
      <use xlink:href="#DejaVuSans-20" x="1327.417969"/>
      <use xlink:href="#DejaVuSans-6c" x="1359.205078"/>
      <use xlink:href="#DejaVuSans-6f" x="1386.988281"/>
      <use xlink:href="#DejaVuSans-61" x="1448.169922"/>
      <use xlink:href="#DejaVuSans-6e" x="1509.449219"/>
     </g>
    </g>
   </g>
   <g id="matplotlib.axis_4">
    <g id="ytick_7">
     <g id="line2d_28">
      <g>
       <use xlink:href="#mf08f99d44b" x="497.805" y="293.64" style="stroke: #000000; stroke-width: 0.8"/>
      </g>
     </g>
     <g id="text_28">
      <!-- 0.4 -->
      <g transform="translate(463.769687 300.098672)scale(0.17 -0.17)">
       <use xlink:href="#DejaVuSans-30"/>
       <use xlink:href="#DejaVuSans-2e" x="63.623047"/>
       <use xlink:href="#DejaVuSans-34" x="95.410156"/>
      </g>
     </g>
    </g>
    <g id="ytick_8">
     <g id="line2d_29">
      <g>
       <use xlink:href="#mf08f99d44b" x="497.805" y="251.26" style="stroke: #000000; stroke-width: 0.8"/>
      </g>
     </g>
     <g id="text_29">
      <!-- 0.5 -->
      <g transform="translate(463.769687 257.718672)scale(0.17 -0.17)">
       <use xlink:href="#DejaVuSans-30"/>
       <use xlink:href="#DejaVuSans-2e" x="63.623047"/>
       <use xlink:href="#DejaVuSans-35" x="95.410156"/>
      </g>
     </g>
    </g>
    <g id="ytick_9">
     <g id="line2d_30">
      <g>
       <use xlink:href="#mf08f99d44b" x="497.805" y="208.88" style="stroke: #000000; stroke-width: 0.8"/>
      </g>
     </g>
     <g id="text_30">
      <!-- 0.6 -->
      <g transform="translate(463.769687 215.338672)scale(0.17 -0.17)">
       <use xlink:href="#DejaVuSans-30"/>
       <use xlink:href="#DejaVuSans-2e" x="63.623047"/>
       <use xlink:href="#DejaVuSans-36" x="95.410156"/>
      </g>
     </g>
    </g>
    <g id="ytick_10">
     <g id="line2d_31">
      <g>
       <use xlink:href="#mf08f99d44b" x="497.805" y="166.5" style="stroke: #000000; stroke-width: 0.8"/>
      </g>
     </g>
     <g id="text_31">
      <!-- 0.7 -->
      <g transform="translate(463.769687 172.958672)scale(0.17 -0.17)">
       <defs>
        <path id="DejaVuSans-37" d="M 525 4666 
L 3525 4666 
L 3525 4397 
L 1831 0 
L 1172 0 
L 2766 4134 
L 525 4134 
L 525 4666 
z
" transform="scale(0.015625)"/>
       </defs>
       <use xlink:href="#DejaVuSans-30"/>
       <use xlink:href="#DejaVuSans-2e" x="63.623047"/>
       <use xlink:href="#DejaVuSans-37" x="95.410156"/>
      </g>
     </g>
    </g>
    <g id="ytick_11">
     <g id="line2d_32">
      <g>
       <use xlink:href="#mf08f99d44b" x="497.805" y="124.12" style="stroke: #000000; stroke-width: 0.8"/>
      </g>
     </g>
     <g id="text_32">
      <!-- 0.8 -->
      <g transform="translate(463.769687 130.578672)scale(0.17 -0.17)">
       <use xlink:href="#DejaVuSans-30"/>
       <use xlink:href="#DejaVuSans-2e" x="63.623047"/>
       <use xlink:href="#DejaVuSans-38" x="95.410156"/>
      </g>
     </g>
    </g>
    <g id="ytick_12">
     <g id="line2d_33">
      <g>
       <use xlink:href="#mf08f99d44b" x="497.805" y="81.74" style="stroke: #000000; stroke-width: 0.8"/>
      </g>
     </g>
     <g id="text_33">
      <!-- 0.9 -->
      <g transform="translate(463.769687 88.198672)scale(0.17 -0.17)">
       <defs>
        <path id="DejaVuSans-39" d="M 703 97 
L 703 672 
Q 941 559 1184 500 
Q 1428 441 1663 441 
Q 2288 441 2617 861 
Q 2947 1281 2994 2138 
Q 2813 1869 2534 1725 
Q 2256 1581 1919 1581 
Q 1219 1581 811 2004 
Q 403 2428 403 3163 
Q 403 3881 828 4315 
Q 1253 4750 1959 4750 
Q 2769 4750 3195 4129 
Q 3622 3509 3622 2328 
Q 3622 1225 3098 567 
Q 2575 -91 1691 -91 
Q 1453 -91 1209 -44 
Q 966 3 703 97 
z
M 1959 2075 
Q 2384 2075 2632 2365 
Q 2881 2656 2881 3163 
Q 2881 3666 2632 3958 
Q 2384 4250 1959 4250 
Q 1534 4250 1286 3958 
Q 1038 3666 1038 3163 
Q 1038 2656 1286 2365 
Q 1534 2075 1959 2075 
z
" transform="scale(0.015625)"/>
       </defs>
       <use xlink:href="#DejaVuSans-30"/>
       <use xlink:href="#DejaVuSans-2e" x="63.623047"/>
       <use xlink:href="#DejaVuSans-39" x="95.410156"/>
      </g>
     </g>
    </g>
    <g id="ytick_13">
     <g id="line2d_34">
      <g>
       <use xlink:href="#mf08f99d44b" x="497.805" y="39.36" style="stroke: #000000; stroke-width: 0.8"/>
      </g>
     </g>
     <g id="text_34">
      <!-- 1.0 -->
      <g transform="translate(463.769687 45.818672)scale(0.17 -0.17)">
       <use xlink:href="#DejaVuSans-31"/>
       <use xlink:href="#DejaVuSans-2e" x="63.623047"/>
       <use xlink:href="#DejaVuSans-30" x="95.410156"/>
      </g>
     </g>
    </g>
   </g>
   <g id="line2d_35">
    <path d="M 865 67.797429 
L 847.776055 70.410962 
L 827.180619 73.893308 
L 804.232555 78.159425 
L 787.083334 81.74545 
L 771.604523 85.325992 
L 756.289257 89.289101 
L 740.600462 93.848503 
L 727.906361 98.050272 
L 714.585019 103.087859 
L 703.499428 107.961336 
L 694.359996 112.696861 
L 687.111283 117.184335 
L 675.204506 124.871932 
L 668.214062 129.593022 
L 659.512654 135.681561 
L 651.913776 141.187658 
L 643.635681 147.41979 
L 634.996345 154.196809 
L 627.238998 160.528881 
L 621.824472 165.130834 
L 615.01038 171.181113 
L 608.701057 177.172301 
L 602.267013 183.729911 
L 599.37985 186.828649 
L 592.203248 194.999457 
L 586.490533 202.042947 
L 581.334737 208.979569 
L 577.035375 215.416392 
L 572.98857 222.138837 
L 569.689977 228.351629 
L 566.404537 235.406023 
L 562.232089 245.373594 
L 557.21982 256.682881 
L 552.073946 267.769901 
L 548.114712 275.918502 
L 544.124326 283.801639 
L 537.59002 296.075373 
L 531.69155 306.988819 
L 529.448646 311.511874 
L 525.079193 321.146356 
L 522.40236 327.678386 
L 519.636342 335.147751 
L 516.936549 343.095873 
L 514.311751 351.943752 
L 512.319731 359.903792 
L 512.062734 361 
L 512.062734 361 
" clip-path="url(#p1aa33bd0b9)" style="fill: none; stroke: #0000ff; stroke-width: 3; stroke-linecap: square"/>
   </g>
   <g id="line2d_36">
    <path d="M 865 80.184087 
L 842.260654 82.865374 
L 787.991282 89.522454 
L 773.996566 91.495906 
L 757.392007 94.156945 
L 748.455695 95.767621 
L 737.068502 98.059147 
L 729.172872 99.820492 
L 718.677762 102.403117 
L 710.528449 104.603876 
L 696.791245 108.659278 
L 689.50548 111.003817 
L 679.998686 114.327471 
L 672.971022 116.991456 
L 663.741928 120.775176 
L 657.301053 123.62728 
L 648.578738 127.790977 
L 642.500527 130.915002 
L 634.284992 135.458676 
L 629.038873 138.576972 
L 621.148735 143.616475 
L 617.903148 145.842179 
L 607.822715 153.394935 
L 598.728987 160.806039 
L 590.447062 168.196201 
L 586.386446 172.077448 
L 582.569621 175.889639 
L 575.567115 183.357623 
L 568.623944 191.373794 
L 562.948604 198.577625 
L 556.776259 207.171752 
L 551.099759 215.88581 
L 547.188481 222.523447 
L 543.368197 229.733008 
L 539.987597 236.516691 
L 535.928055 245.309805 
L 532.6977 252.835764 
L 529.27466 261.476496 
L 526.61257 268.79891 
L 524.685851 274.53198 
L 522.609273 281.286009 
L 520.164607 290.28254 
L 518.133929 298.959853 
L 514.530884 315.398869 
L 511.285699 331.224732 
L 508.9155 343.677063 
L 506.94226 354.915934 
L 505.96526 361 
L 505.96526 361 
" clip-path="url(#p1aa33bd0b9)" style="fill: none; stroke-dasharray: 11.1,4.8; stroke-dashoffset: 0; stroke: #008000; stroke-width: 3"/>
   </g>
   <g id="line2d_37">
    <path d="M 865 73.029297 
L 863.58602 73.221607 
L 851.829852 74.969612 
L 838.273402 77.166845 
L 820.166273 80.360802 
L 810.701659 82.174617 
L 797.495049 84.920592 
L 790.39041 86.521609 
L 779.475405 89.184213 
L 770.035663 91.6766 
L 757.707419 95.198734 
L 749.2286 97.819773 
L 738.10524 101.541098 
L 729.857688 104.527397 
L 718.035267 109.165559 
L 712.502895 111.519582 
L 700.667936 117.049292 
L 686.45956 124.130673 
L 672.858761 131.387733 
L 662.278349 137.429385 
L 651.337649 144.11284 
L 640.549268 151.138728 
L 630.58185 158.103603 
L 620.39346 165.750562 
L 611.365811 173.061765 
L 604.199047 179.34448 
L 598.435358 184.839323 
L 592.451032 190.867153 
L 585.701599 198.091113 
L 579.797922 204.813642 
L 572.906051 213.189981 
L 567.329381 220.454649 
L 563.159217 226.261058 
L 558.561093 233.137288 
L 554.413736 239.845464 
L 551.108627 245.678206 
L 546.110818 255.273585 
L 541.406194 264.879139 
L 536.674842 275.148345 
L 533.015171 283.638685 
L 528.819105 294.062667 
L 525.620779 302.611804 
L 522.361386 312.038458 
L 519.185841 321.862345 
L 515.933078 332.633677 
L 513.52909 341.1887 
L 510.992983 350.973685 
L 508.64731 361 
L 508.64731 361 
" clip-path="url(#p1aa33bd0b9)" style="fill: none; stroke-dasharray: 19.2,4.8,3,4.8; stroke-dashoffset: 0; stroke: #00bfbf; stroke-width: 3"/>
   </g>
   <g id="line2d_38">
    <path d="M 865 58.676288 
L 853.153439 59.769417 
L 834.543289 61.707418 
L 815.436194 64.032181 
L 795.109615 66.879733 
L 776.827606 69.862926 
L 763.490435 72.327157 
L 756.005559 73.823607 
L 741.593699 76.995726 
L 726.209834 80.664715 
L 713.024245 84.096915 
L 700.319117 87.698966 
L 686.987857 91.83973 
L 674.925761 95.910603 
L 662.70585 100.465127 
L 651.093419 105.26073 
L 640.991538 109.903922 
L 633.090102 113.975425 
L 625.773291 118.22938 
L 619.351146 122.200552 
L 612.087987 127.019605 
L 605.323249 131.843099 
L 597.939951 137.541387 
L 591.996098 142.520056 
L 586.890859 147.153299 
L 581.408353 152.578809 
L 575.979682 158.513577 
L 572.041846 163.343919 
L 566.530436 170.888636 
L 561.599727 178.168445 
L 558.112571 183.667779 
L 555.197528 188.510143 
L 552.146602 193.894673 
L 549.464679 198.932822 
L 546.9149 204.042819 
L 544.356809 209.542836 
L 541.9316 215.17065 
L 538.752964 223.165179 
L 535.697143 231.398009 
L 532.465225 240.726747 
L 530.3393 247.340401 
L 528.324973 254.079278 
L 526.478109 260.782555 
L 523.799695 271.630635 
L 522.068399 279.353386 
L 519.380197 292.546429 
L 517.213365 304.294312 
L 514.893704 318.313992 
L 513.087795 330.664148 
L 509.221617 358.741186 
L 508.921892 361 
L 508.921892 361 
" clip-path="url(#p1aa33bd0b9)" style="fill: none; stroke-dasharray: 3,4.95; stroke-dashoffset: 0; stroke: #ff0000; stroke-width: 3"/>
   </g>
   <g id="patch_9">
    <path d="M 497.805 293.64 
L 497.805 39.36 
" style="fill: none; stroke: #000000; stroke-width: 0.8; stroke-linejoin: miter; stroke-linecap: square"/>
   </g>
   <g id="patch_10">
    <path d="M 832.0775 293.64 
L 832.0775 39.36 
" style="fill: none; stroke: #000000; stroke-width: 0.8; stroke-linejoin: miter; stroke-linecap: square"/>
   </g>
   <g id="patch_11">
    <path d="M 497.805 293.64 
L 832.0775 293.64 
" style="fill: none; stroke: #000000; stroke-width: 0.8; stroke-linejoin: miter; stroke-linecap: square"/>
   </g>
   <g id="patch_12">
    <path d="M 497.805 39.36 
L 832.0775 39.36 
" style="fill: none; stroke: #000000; stroke-width: 0.8; stroke-linejoin: miter; stroke-linecap: square"/>
   </g>
   <g id="text_35">
    <!-- ROC curve of credit score -->
    <g transform="translate(534.765344 33.36)scale(0.204 -0.204)">
     <use xlink:href="#DejaVuSans-52"/>
     <use xlink:href="#DejaVuSans-4f" x="69.482422"/>
     <use xlink:href="#DejaVuSans-43" x="148.193359"/>
     <use xlink:href="#DejaVuSans-20" x="218.017578"/>
     <use xlink:href="#DejaVuSans-63" x="249.804688"/>
     <use xlink:href="#DejaVuSans-75" x="304.785156"/>
     <use xlink:href="#DejaVuSans-72" x="368.164062"/>
     <use xlink:href="#DejaVuSans-76" x="409.277344"/>
     <use xlink:href="#DejaVuSans-65" x="468.457031"/>
     <use xlink:href="#DejaVuSans-20" x="529.980469"/>
     <use xlink:href="#DejaVuSans-6f" x="561.767578"/>
     <use xlink:href="#DejaVuSans-66" x="622.949219"/>
     <use xlink:href="#DejaVuSans-20" x="658.154297"/>
     <use xlink:href="#DejaVuSans-63" x="689.941406"/>
     <use xlink:href="#DejaVuSans-72" x="744.921875"/>
     <use xlink:href="#DejaVuSans-65" x="783.785156"/>
     <use xlink:href="#DejaVuSans-64" x="845.308594"/>
     <use xlink:href="#DejaVuSans-69" x="908.785156"/>
     <use xlink:href="#DejaVuSans-74" x="936.568359"/>
     <use xlink:href="#DejaVuSans-20" x="975.777344"/>
     <use xlink:href="#DejaVuSans-73" x="1007.564453"/>
     <use xlink:href="#DejaVuSans-63" x="1059.664062"/>
     <use xlink:href="#DejaVuSans-6f" x="1114.644531"/>
     <use xlink:href="#DejaVuSans-72" x="1175.826172"/>
     <use xlink:href="#DejaVuSans-65" x="1214.689453"/>
    </g>
   </g>
   <g id="legend_2">
    <g id="patch_13">
     <path d="M 693.360156 285.14 
L 820.1775 285.14 
Q 823.5775 285.14 823.5775 281.74 
L 823.5775 183.62875 
Q 823.5775 180.22875 820.1775 180.22875 
L 693.360156 180.22875 
Q 689.960156 180.22875 689.960156 183.62875 
L 689.960156 281.74 
Q 689.960156 285.14 693.360156 285.14 
z
" style="fill: #ffffff; opacity: 0.8; stroke: #cccccc; stroke-linejoin: miter"/>
    </g>
    <g id="line2d_39">
     <path d="M 696.760156 193.996094 
L 713.760156 193.996094 
L 730.760156 193.996094 
" style="fill: none; stroke: #0000ff; stroke-width: 3; stroke-linecap: square"/>
    </g>
    <g id="text_36">
     <!-- Asian -->
     <g transform="translate(744.360156 199.946094)scale(0.17 -0.17)">
      <use xlink:href="#DejaVuSans-41"/>
      <use xlink:href="#DejaVuSans-73" x="68.408203"/>
      <use xlink:href="#DejaVuSans-69" x="120.507812"/>
      <use xlink:href="#DejaVuSans-61" x="148.291016"/>
      <use xlink:href="#DejaVuSans-6e" x="209.570312"/>
     </g>
    </g>
    <g id="line2d_40">
     <path d="M 696.760156 218.948906 
L 713.760156 218.948906 
L 730.760156 218.948906 
" style="fill: none; stroke-dasharray: 11.1,4.8; stroke-dashoffset: 0; stroke: #008000; stroke-width: 3"/>
    </g>
    <g id="text_37">
     <!-- Black -->
     <g transform="translate(744.360156 224.898906)scale(0.17 -0.17)">
      <use xlink:href="#DejaVuSans-42"/>
      <use xlink:href="#DejaVuSans-6c" x="68.603516"/>
      <use xlink:href="#DejaVuSans-61" x="96.386719"/>
      <use xlink:href="#DejaVuSans-63" x="157.666016"/>
      <use xlink:href="#DejaVuSans-6b" x="212.646484"/>
     </g>
    </g>
    <g id="line2d_41">
     <path d="M 696.760156 243.901719 
L 713.760156 243.901719 
L 730.760156 243.901719 
" style="fill: none; stroke-dasharray: 19.2,4.8,3,4.8; stroke-dashoffset: 0; stroke: #00bfbf; stroke-width: 3"/>
    </g>
    <g id="text_38">
     <!-- Hispanic -->
     <g transform="translate(744.360156 249.851719)scale(0.17 -0.17)">
      <use xlink:href="#DejaVuSans-48"/>
      <use xlink:href="#DejaVuSans-69" x="75.195312"/>
      <use xlink:href="#DejaVuSans-73" x="102.978516"/>
      <use xlink:href="#DejaVuSans-70" x="155.078125"/>
      <use xlink:href="#DejaVuSans-61" x="218.554688"/>
      <use xlink:href="#DejaVuSans-6e" x="279.833984"/>
      <use xlink:href="#DejaVuSans-69" x="343.212891"/>
      <use xlink:href="#DejaVuSans-63" x="370.996094"/>
     </g>
    </g>
    <g id="line2d_42">
     <path d="M 696.760156 268.854531 
L 713.760156 268.854531 
L 730.760156 268.854531 
" style="fill: none; stroke-dasharray: 3,4.95; stroke-dashoffset: 0; stroke: #ff0000; stroke-width: 3"/>
    </g>
    <g id="text_39">
     <!-- White -->
     <g transform="translate(744.360156 274.804531)scale(0.17 -0.17)">
      <use xlink:href="#DejaVuSans-57"/>
      <use xlink:href="#DejaVuSans-68" x="98.876953"/>
      <use xlink:href="#DejaVuSans-69" x="162.255859"/>
      <use xlink:href="#DejaVuSans-74" x="190.039062"/>
      <use xlink:href="#DejaVuSans-65" x="229.248047"/>
     </g>
    </g>
   </g>
  </g>
 </g>
 <defs>
  <clipPath id="p466039c8f3">
   <rect x="97.485" y="39.36" width="334.2725" height="254.28"/>
  </clipPath>
  <clipPath id="p1aa33bd0b9">
   <rect x="497.805" y="39.36" width="334.2725" height="254.28"/>
  </clipPath>
 </defs>
</svg>
