<?xml version="1.0" encoding="utf-8" standalone="no"?>
<!DOCTYPE svg PUBLIC "-//W3C//DTD SVG 1.1//EN"
  "http://www.w3.org/Graphics/SVG/1.1/DTD/svg11.dtd">
<svg xmlns:xlink="http://www.w3.org/1999/xlink" width="720pt" height="360pt" viewBox="0 0 720 360" xmlns="http://www.w3.org/2000/svg" version="1.1">
 <metadata>
  <rdf:RDF xmlns:dc="http://purl.org/dc/elements/1.1/" xmlns:cc="http://creativecommons.org/ns#" xmlns:rdf="http://www.w3.org/1999/02/22-rdf-syntax-ns#">
   <cc:Work>
    <dc:type rdf:resource="http://purl.org/dc/dcmitype/StillImage"/>
    <dc:date>2022-06-14T17:12:30.219237</dc:date>
    <dc:format>image/svg+xml</dc:format>
    <dc:creator>
     <cc:Agent>
      <dc:title>Matplotlib v3.5.1, https://matplotlib.org/</dc:title>
     </cc:Agent>
    </dc:creator>
   </cc:Work>
  </rdf:RDF>
 </metadata>
 <defs>
  <style type="text/css">*{stroke-linejoin: round; stroke-linecap: butt}</style>
 </defs>
 <g id="figure_1">
  <g id="patch_1">
   <path d="M 0 360 
L 720 360 
L 720 0 
L 0 0 
L 0 360 
z
" style="fill: none"/>
  </g>
  <g id="axes_1">
   <g id="patch_2">
    <path d="M 96.86 293.64 
L 340.396963 293.64 
L 340.396963 18.36 
L 96.86 18.36 
z
" style="fill: #ffffff"/>
   </g>
   <g id="matplotlib.axis_1">
    <g id="xtick_1">
     <g id="line2d_1">
      <defs>
       <path id="m0e5463ae64" d="M 0 0 
L 0 3.5 
" style="stroke: #000000; stroke-width: 0.8"/>
      </defs>
      <g>
       <use xlink:href="#m0e5463ae64" x="96.86" y="293.64" style="stroke: #000000; stroke-width: 0.8"/>
      </g>
     </g>
     <g id="text_1">
      <!-- 0 -->
      <g transform="translate(91.451875 313.557344)scale(0.17 -0.17)">
       <defs>
        <path id="DejaVuSans-30" d="M 2034 4250 
Q 1547 4250 1301 3770 
Q 1056 3291 1056 2328 
Q 1056 1369 1301 889 
Q 1547 409 2034 409 
Q 2525 409 2770 889 
Q 3016 1369 3016 2328 
Q 3016 3291 2770 3770 
Q 2525 4250 2034 4250 
z
M 2034 4750 
Q 2819 4750 3233 4129 
Q 3647 3509 3647 2328 
Q 3647 1150 3233 529 
Q 2819 -91 2034 -91 
Q 1250 -91 836 529 
Q 422 1150 422 2328 
Q 422 3509 836 4129 
Q 1250 4750 2034 4750 
z
" transform="scale(0.015625)"/>
       </defs>
       <use xlink:href="#DejaVuSans-30"/>
      </g>
     </g>
    </g>
    <g id="xtick_2">
     <g id="line2d_2">
      <g>
       <use xlink:href="#m0e5463ae64" x="157.744241" y="293.64" style="stroke: #000000; stroke-width: 0.8"/>
      </g>
     </g>
     <g id="text_2">
      <!-- 25 -->
      <g transform="translate(146.927991 313.557344)scale(0.17 -0.17)">
       <defs>
        <path id="DejaVuSans-32" d="M 1228 531 
L 3431 531 
L 3431 0 
L 469 0 
L 469 531 
Q 828 903 1448 1529 
Q 2069 2156 2228 2338 
Q 2531 2678 2651 2914 
Q 2772 3150 2772 3378 
Q 2772 3750 2511 3984 
Q 2250 4219 1831 4219 
Q 1534 4219 1204 4116 
Q 875 4013 500 3803 
L 500 4441 
Q 881 4594 1212 4672 
Q 1544 4750 1819 4750 
Q 2544 4750 2975 4387 
Q 3406 4025 3406 3419 
Q 3406 3131 3298 2873 
Q 3191 2616 2906 2266 
Q 2828 2175 2409 1742 
Q 1991 1309 1228 531 
z
" transform="scale(0.015625)"/>
        <path id="DejaVuSans-35" d="M 691 4666 
L 3169 4666 
L 3169 4134 
L 1269 4134 
L 1269 2991 
Q 1406 3038 1543 3061 
Q 1681 3084 1819 3084 
Q 2600 3084 3056 2656 
Q 3513 2228 3513 1497 
Q 3513 744 3044 326 
Q 2575 -91 1722 -91 
Q 1428 -91 1123 -41 
Q 819 9 494 109 
L 494 744 
Q 775 591 1075 516 
Q 1375 441 1709 441 
Q 2250 441 2565 725 
Q 2881 1009 2881 1497 
Q 2881 1984 2565 2268 
Q 2250 2553 1709 2553 
Q 1456 2553 1204 2497 
Q 953 2441 691 2322 
L 691 4666 
z
" transform="scale(0.015625)"/>
       </defs>
       <use xlink:href="#DejaVuSans-32"/>
       <use xlink:href="#DejaVuSans-35" x="63.623047"/>
      </g>
     </g>
    </g>
    <g id="xtick_3">
     <g id="line2d_3">
      <g>
       <use xlink:href="#m0e5463ae64" x="218.628481" y="293.64" style="stroke: #000000; stroke-width: 0.8"/>
      </g>
     </g>
     <g id="text_3">
      <!-- 50 -->
      <g transform="translate(207.812231 313.557344)scale(0.17 -0.17)">
       <use xlink:href="#DejaVuSans-35"/>
       <use xlink:href="#DejaVuSans-30" x="63.623047"/>
      </g>
     </g>
    </g>
    <g id="xtick_4">
     <g id="line2d_4">
      <g>
       <use xlink:href="#m0e5463ae64" x="279.512722" y="293.64" style="stroke: #000000; stroke-width: 0.8"/>
      </g>
     </g>
     <g id="text_4">
      <!-- 75 -->
      <g transform="translate(268.696472 313.557344)scale(0.17 -0.17)">
       <defs>
        <path id="DejaVuSans-37" d="M 525 4666 
L 3525 4666 
L 3525 4397 
L 1831 0 
L 1172 0 
L 2766 4134 
L 525 4134 
L 525 4666 
z
" transform="scale(0.015625)"/>
       </defs>
       <use xlink:href="#DejaVuSans-37"/>
       <use xlink:href="#DejaVuSans-35" x="63.623047"/>
      </g>
     </g>
    </g>
    <g id="xtick_5">
     <g id="line2d_5">
      <g>
       <use xlink:href="#m0e5463ae64" x="340.396963" y="293.64" style="stroke: #000000; stroke-width: 0.8"/>
      </g>
     </g>
     <g id="text_5">
      <!-- 100 -->
      <g transform="translate(324.172588 313.557344)scale(0.17 -0.17)">
       <defs>
        <path id="DejaVuSans-31" d="M 794 531 
L 1825 531 
L 1825 4091 
L 703 3866 
L 703 4441 
L 1819 4666 
L 2450 4666 
L 2450 531 
L 3481 531 
L 3481 0 
L 794 0 
L 794 531 
z
" transform="scale(0.015625)"/>
       </defs>
       <use xlink:href="#DejaVuSans-31"/>
       <use xlink:href="#DejaVuSans-30" x="63.623047"/>
       <use xlink:href="#DejaVuSans-30" x="127.246094"/>
      </g>
     </g>
    </g>
    <g id="text_6">
     <!-- credit score -->
     <g transform="translate(158.827794 336.593625)scale(0.204 -0.204)">
      <defs>
       <path id="DejaVuSans-63" d="M 3122 3366 
L 3122 2828 
Q 2878 2963 2633 3030 
Q 2388 3097 2138 3097 
Q 1578 3097 1268 2742 
Q 959 2388 959 1747 
Q 959 1106 1268 751 
Q 1578 397 2138 397 
Q 2388 397 2633 464 
Q 2878 531 3122 666 
L 3122 134 
Q 2881 22 2623 -34 
Q 2366 -91 2075 -91 
Q 1284 -91 818 406 
Q 353 903 353 1747 
Q 353 2603 823 3093 
Q 1294 3584 2113 3584 
Q 2378 3584 2631 3529 
Q 2884 3475 3122 3366 
z
" transform="scale(0.015625)"/>
       <path id="DejaVuSans-72" d="M 2631 2963 
Q 2534 3019 2420 3045 
Q 2306 3072 2169 3072 
Q 1681 3072 1420 2755 
Q 1159 2438 1159 1844 
L 1159 0 
L 581 0 
L 581 3500 
L 1159 3500 
L 1159 2956 
Q 1341 3275 1631 3429 
Q 1922 3584 2338 3584 
Q 2397 3584 2469 3576 
Q 2541 3569 2628 3553 
L 2631 2963 
z
" transform="scale(0.015625)"/>
       <path id="DejaVuSans-65" d="M 3597 1894 
L 3597 1613 
L 953 1613 
Q 991 1019 1311 708 
Q 1631 397 2203 397 
Q 2534 397 2845 478 
Q 3156 559 3463 722 
L 3463 178 
Q 3153 47 2828 -22 
Q 2503 -91 2169 -91 
Q 1331 -91 842 396 
Q 353 884 353 1716 
Q 353 2575 817 3079 
Q 1281 3584 2069 3584 
Q 2775 3584 3186 3129 
Q 3597 2675 3597 1894 
z
M 3022 2063 
Q 3016 2534 2758 2815 
Q 2500 3097 2075 3097 
Q 1594 3097 1305 2825 
Q 1016 2553 972 2059 
L 3022 2063 
z
" transform="scale(0.015625)"/>
       <path id="DejaVuSans-64" d="M 2906 2969 
L 2906 4863 
L 3481 4863 
L 3481 0 
L 2906 0 
L 2906 525 
Q 2725 213 2448 61 
Q 2172 -91 1784 -91 
Q 1150 -91 751 415 
Q 353 922 353 1747 
Q 353 2572 751 3078 
Q 1150 3584 1784 3584 
Q 2172 3584 2448 3432 
Q 2725 3281 2906 2969 
z
M 947 1747 
Q 947 1113 1208 752 
Q 1469 391 1925 391 
Q 2381 391 2643 752 
Q 2906 1113 2906 1747 
Q 2906 2381 2643 2742 
Q 2381 3103 1925 3103 
Q 1469 3103 1208 2742 
Q 947 2381 947 1747 
z
" transform="scale(0.015625)"/>
       <path id="DejaVuSans-69" d="M 603 3500 
L 1178 3500 
L 1178 0 
L 603 0 
L 603 3500 
z
M 603 4863 
L 1178 4863 
L 1178 4134 
L 603 4134 
L 603 4863 
z
" transform="scale(0.015625)"/>
       <path id="DejaVuSans-74" d="M 1172 4494 
L 1172 3500 
L 2356 3500 
L 2356 3053 
L 1172 3053 
L 1172 1153 
Q 1172 725 1289 603 
Q 1406 481 1766 481 
L 2356 481 
L 2356 0 
L 1766 0 
Q 1100 0 847 248 
Q 594 497 594 1153 
L 594 3053 
L 172 3053 
L 172 3500 
L 594 3500 
L 594 4494 
L 1172 4494 
z
" transform="scale(0.015625)"/>
       <path id="DejaVuSans-20" transform="scale(0.015625)"/>
       <path id="DejaVuSans-73" d="M 2834 3397 
L 2834 2853 
Q 2591 2978 2328 3040 
Q 2066 3103 1784 3103 
Q 1356 3103 1142 2972 
Q 928 2841 928 2578 
Q 928 2378 1081 2264 
Q 1234 2150 1697 2047 
L 1894 2003 
Q 2506 1872 2764 1633 
Q 3022 1394 3022 966 
Q 3022 478 2636 193 
Q 2250 -91 1575 -91 
Q 1294 -91 989 -36 
Q 684 19 347 128 
L 347 722 
Q 666 556 975 473 
Q 1284 391 1588 391 
Q 1994 391 2212 530 
Q 2431 669 2431 922 
Q 2431 1156 2273 1281 
Q 2116 1406 1581 1522 
L 1381 1569 
Q 847 1681 609 1914 
Q 372 2147 372 2553 
Q 372 3047 722 3315 
Q 1072 3584 1716 3584 
Q 2034 3584 2315 3537 
Q 2597 3491 2834 3397 
z
" transform="scale(0.015625)"/>
       <path id="DejaVuSans-6f" d="M 1959 3097 
Q 1497 3097 1228 2736 
Q 959 2375 959 1747 
Q 959 1119 1226 758 
Q 1494 397 1959 397 
Q 2419 397 2687 759 
Q 2956 1122 2956 1747 
Q 2956 2369 2687 2733 
Q 2419 3097 1959 3097 
z
M 1959 3584 
Q 2709 3584 3137 3096 
Q 3566 2609 3566 1747 
Q 3566 888 3137 398 
Q 2709 -91 1959 -91 
Q 1206 -91 779 398 
Q 353 888 353 1747 
Q 353 2609 779 3096 
Q 1206 3584 1959 3584 
z
" transform="scale(0.015625)"/>
      </defs>
      <use xlink:href="#DejaVuSans-63"/>
      <use xlink:href="#DejaVuSans-72" x="54.980469"/>
      <use xlink:href="#DejaVuSans-65" x="93.84375"/>
      <use xlink:href="#DejaVuSans-64" x="155.367188"/>
      <use xlink:href="#DejaVuSans-69" x="218.84375"/>
      <use xlink:href="#DejaVuSans-74" x="246.626953"/>
      <use xlink:href="#DejaVuSans-20" x="285.835938"/>
      <use xlink:href="#DejaVuSans-73" x="317.623047"/>
      <use xlink:href="#DejaVuSans-63" x="369.722656"/>
      <use xlink:href="#DejaVuSans-6f" x="424.703125"/>
      <use xlink:href="#DejaVuSans-72" x="485.884766"/>
      <use xlink:href="#DejaVuSans-65" x="524.748047"/>
     </g>
    </g>
   </g>
   <g id="matplotlib.axis_2">
    <g id="ytick_1">
     <g id="line2d_6">
      <defs>
       <path id="md308e53c4f" d="M 0 0 
L -3.5 0 
" style="stroke: #000000; stroke-width: 0.8"/>
      </defs>
      <g>
       <use xlink:href="#md308e53c4f" x="96.86" y="281.962467" style="stroke: #000000; stroke-width: 0.8"/>
      </g>
     </g>
     <g id="text_7">
      <!-- 0% -->
      <g transform="translate(62.891094 288.421139)scale(0.17 -0.17)">
       <defs>
        <path id="DejaVuSans-25" d="M 4653 2053 
Q 4381 2053 4226 1822 
Q 4072 1591 4072 1178 
Q 4072 772 4226 539 
Q 4381 306 4653 306 
Q 4919 306 5073 539 
Q 5228 772 5228 1178 
Q 5228 1588 5073 1820 
Q 4919 2053 4653 2053 
z
M 4653 2450 
Q 5147 2450 5437 2106 
Q 5728 1763 5728 1178 
Q 5728 594 5436 251 
Q 5144 -91 4653 -91 
Q 4153 -91 3862 251 
Q 3572 594 3572 1178 
Q 3572 1766 3864 2108 
Q 4156 2450 4653 2450 
z
M 1428 4353 
Q 1159 4353 1004 4120 
Q 850 3888 850 3481 
Q 850 3069 1003 2837 
Q 1156 2606 1428 2606 
Q 1700 2606 1854 2837 
Q 2009 3069 2009 3481 
Q 2009 3884 1853 4118 
Q 1697 4353 1428 4353 
z
M 4250 4750 
L 4750 4750 
L 1831 -91 
L 1331 -91 
L 4250 4750 
z
M 1428 4750 
Q 1922 4750 2215 4408 
Q 2509 4066 2509 3481 
Q 2509 2891 2217 2550 
Q 1925 2209 1428 2209 
Q 931 2209 642 2551 
Q 353 2894 353 3481 
Q 353 4063 643 4406 
Q 934 4750 1428 4750 
z
" transform="scale(0.015625)"/>
       </defs>
       <use xlink:href="#DejaVuSans-30"/>
       <use xlink:href="#DejaVuSans-25" x="63.623047"/>
      </g>
     </g>
    </g>
    <g id="ytick_2">
     <g id="line2d_7">
      <g>
       <use xlink:href="#md308e53c4f" x="96.86" y="231.344638" style="stroke: #000000; stroke-width: 0.8"/>
      </g>
     </g>
     <g id="text_8">
      <!-- 20% -->
      <g transform="translate(52.074844 237.80331)scale(0.17 -0.17)">
       <use xlink:href="#DejaVuSans-32"/>
       <use xlink:href="#DejaVuSans-30" x="63.623047"/>
       <use xlink:href="#DejaVuSans-25" x="127.246094"/>
      </g>
     </g>
    </g>
    <g id="ytick_3">
     <g id="line2d_8">
      <g>
       <use xlink:href="#md308e53c4f" x="96.86" y="180.726809" style="stroke: #000000; stroke-width: 0.8"/>
      </g>
     </g>
     <g id="text_9">
      <!-- 40% -->
      <g transform="translate(52.074844 187.185481)scale(0.17 -0.17)">
       <defs>
        <path id="DejaVuSans-34" d="M 2419 4116 
L 825 1625 
L 2419 1625 
L 2419 4116 
z
M 2253 4666 
L 3047 4666 
L 3047 1625 
L 3713 1625 
L 3713 1100 
L 3047 1100 
L 3047 0 
L 2419 0 
L 2419 1100 
L 313 1100 
L 313 1709 
L 2253 4666 
z
" transform="scale(0.015625)"/>
       </defs>
       <use xlink:href="#DejaVuSans-34"/>
       <use xlink:href="#DejaVuSans-30" x="63.623047"/>
       <use xlink:href="#DejaVuSans-25" x="127.246094"/>
      </g>
     </g>
    </g>
    <g id="ytick_4">
     <g id="line2d_9">
      <g>
       <use xlink:href="#md308e53c4f" x="96.86" y="130.108981" style="stroke: #000000; stroke-width: 0.8"/>
      </g>
     </g>
     <g id="text_10">
      <!-- 60% -->
      <g transform="translate(52.074844 136.567652)scale(0.17 -0.17)">
       <defs>
        <path id="DejaVuSans-36" d="M 2113 2584 
Q 1688 2584 1439 2293 
Q 1191 2003 1191 1497 
Q 1191 994 1439 701 
Q 1688 409 2113 409 
Q 2538 409 2786 701 
Q 3034 994 3034 1497 
Q 3034 2003 2786 2293 
Q 2538 2584 2113 2584 
z
M 3366 4563 
L 3366 3988 
Q 3128 4100 2886 4159 
Q 2644 4219 2406 4219 
Q 1781 4219 1451 3797 
Q 1122 3375 1075 2522 
Q 1259 2794 1537 2939 
Q 1816 3084 2150 3084 
Q 2853 3084 3261 2657 
Q 3669 2231 3669 1497 
Q 3669 778 3244 343 
Q 2819 -91 2113 -91 
Q 1303 -91 875 529 
Q 447 1150 447 2328 
Q 447 3434 972 4092 
Q 1497 4750 2381 4750 
Q 2619 4750 2861 4703 
Q 3103 4656 3366 4563 
z
" transform="scale(0.015625)"/>
       </defs>
       <use xlink:href="#DejaVuSans-36"/>
       <use xlink:href="#DejaVuSans-30" x="63.623047"/>
       <use xlink:href="#DejaVuSans-25" x="127.246094"/>
      </g>
     </g>
    </g>
    <g id="ytick_5">
     <g id="line2d_10">
      <g>
       <use xlink:href="#md308e53c4f" x="96.86" y="79.491152" style="stroke: #000000; stroke-width: 0.8"/>
      </g>
     </g>
     <g id="text_11">
      <!-- 80% -->
      <g transform="translate(52.074844 85.949824)scale(0.17 -0.17)">
       <defs>
        <path id="DejaVuSans-38" d="M 2034 2216 
Q 1584 2216 1326 1975 
Q 1069 1734 1069 1313 
Q 1069 891 1326 650 
Q 1584 409 2034 409 
Q 2484 409 2743 651 
Q 3003 894 3003 1313 
Q 3003 1734 2745 1975 
Q 2488 2216 2034 2216 
z
M 1403 2484 
Q 997 2584 770 2862 
Q 544 3141 544 3541 
Q 544 4100 942 4425 
Q 1341 4750 2034 4750 
Q 2731 4750 3128 4425 
Q 3525 4100 3525 3541 
Q 3525 3141 3298 2862 
Q 3072 2584 2669 2484 
Q 3125 2378 3379 2068 
Q 3634 1759 3634 1313 
Q 3634 634 3220 271 
Q 2806 -91 2034 -91 
Q 1263 -91 848 271 
Q 434 634 434 1313 
Q 434 1759 690 2068 
Q 947 2378 1403 2484 
z
M 1172 3481 
Q 1172 3119 1398 2916 
Q 1625 2713 2034 2713 
Q 2441 2713 2670 2916 
Q 2900 3119 2900 3481 
Q 2900 3844 2670 4047 
Q 2441 4250 2034 4250 
Q 1625 4250 1398 4047 
Q 1172 3844 1172 3481 
z
" transform="scale(0.015625)"/>
       </defs>
       <use xlink:href="#DejaVuSans-38"/>
       <use xlink:href="#DejaVuSans-30" x="63.623047"/>
       <use xlink:href="#DejaVuSans-25" x="127.246094"/>
      </g>
     </g>
    </g>
    <g id="ytick_6">
     <g id="line2d_11">
      <g>
       <use xlink:href="#md308e53c4f" x="96.86" y="28.873323" style="stroke: #000000; stroke-width: 0.8"/>
      </g>
     </g>
     <g id="text_12">
      <!-- 100% -->
      <g transform="translate(41.258594 35.331995)scale(0.17 -0.17)">
       <use xlink:href="#DejaVuSans-31"/>
       <use xlink:href="#DejaVuSans-30" x="63.623047"/>
       <use xlink:href="#DejaVuSans-30" x="127.246094"/>
       <use xlink:href="#DejaVuSans-25" x="190.869141"/>
      </g>
     </g>
    </g>
    <g id="text_13">
     <!-- Non-default rate -->
     <g transform="translate(33.016031 239.866313)rotate(-90)scale(0.204 -0.204)">
      <defs>
       <path id="DejaVuSans-4e" d="M 628 4666 
L 1478 4666 
L 3547 763 
L 3547 4666 
L 4159 4666 
L 4159 0 
L 3309 0 
L 1241 3903 
L 1241 0 
L 628 0 
L 628 4666 
z
" transform="scale(0.015625)"/>
       <path id="DejaVuSans-6e" d="M 3513 2113 
L 3513 0 
L 2938 0 
L 2938 2094 
Q 2938 2591 2744 2837 
Q 2550 3084 2163 3084 
Q 1697 3084 1428 2787 
Q 1159 2491 1159 1978 
L 1159 0 
L 581 0 
L 581 3500 
L 1159 3500 
L 1159 2956 
Q 1366 3272 1645 3428 
Q 1925 3584 2291 3584 
Q 2894 3584 3203 3211 
Q 3513 2838 3513 2113 
z
" transform="scale(0.015625)"/>
       <path id="DejaVuSans-2d" d="M 313 2009 
L 1997 2009 
L 1997 1497 
L 313 1497 
L 313 2009 
z
" transform="scale(0.015625)"/>
       <path id="DejaVuSans-66" d="M 2375 4863 
L 2375 4384 
L 1825 4384 
Q 1516 4384 1395 4259 
Q 1275 4134 1275 3809 
L 1275 3500 
L 2222 3500 
L 2222 3053 
L 1275 3053 
L 1275 0 
L 697 0 
L 697 3053 
L 147 3053 
L 147 3500 
L 697 3500 
L 697 3744 
Q 697 4328 969 4595 
Q 1241 4863 1831 4863 
L 2375 4863 
z
" transform="scale(0.015625)"/>
       <path id="DejaVuSans-61" d="M 2194 1759 
Q 1497 1759 1228 1600 
Q 959 1441 959 1056 
Q 959 750 1161 570 
Q 1363 391 1709 391 
Q 2188 391 2477 730 
Q 2766 1069 2766 1631 
L 2766 1759 
L 2194 1759 
z
M 3341 1997 
L 3341 0 
L 2766 0 
L 2766 531 
Q 2569 213 2275 61 
Q 1981 -91 1556 -91 
Q 1019 -91 701 211 
Q 384 513 384 1019 
Q 384 1609 779 1909 
Q 1175 2209 1959 2209 
L 2766 2209 
L 2766 2266 
Q 2766 2663 2505 2880 
Q 2244 3097 1772 3097 
Q 1472 3097 1187 3025 
Q 903 2953 641 2809 
L 641 3341 
Q 956 3463 1253 3523 
Q 1550 3584 1831 3584 
Q 2591 3584 2966 3190 
Q 3341 2797 3341 1997 
z
" transform="scale(0.015625)"/>
       <path id="DejaVuSans-75" d="M 544 1381 
L 544 3500 
L 1119 3500 
L 1119 1403 
Q 1119 906 1312 657 
Q 1506 409 1894 409 
Q 2359 409 2629 706 
Q 2900 1003 2900 1516 
L 2900 3500 
L 3475 3500 
L 3475 0 
L 2900 0 
L 2900 538 
Q 2691 219 2414 64 
Q 2138 -91 1772 -91 
Q 1169 -91 856 284 
Q 544 659 544 1381 
z
M 1991 3584 
L 1991 3584 
z
" transform="scale(0.015625)"/>
       <path id="DejaVuSans-6c" d="M 603 4863 
L 1178 4863 
L 1178 0 
L 603 0 
L 603 4863 
z
" transform="scale(0.015625)"/>
      </defs>
      <use xlink:href="#DejaVuSans-4e"/>
      <use xlink:href="#DejaVuSans-6f" x="74.804688"/>
      <use xlink:href="#DejaVuSans-6e" x="135.986328"/>
      <use xlink:href="#DejaVuSans-2d" x="199.365234"/>
      <use xlink:href="#DejaVuSans-64" x="235.449219"/>
      <use xlink:href="#DejaVuSans-65" x="298.925781"/>
      <use xlink:href="#DejaVuSans-66" x="360.449219"/>
      <use xlink:href="#DejaVuSans-61" x="395.654297"/>
      <use xlink:href="#DejaVuSans-75" x="456.933594"/>
      <use xlink:href="#DejaVuSans-6c" x="520.3125"/>
      <use xlink:href="#DejaVuSans-74" x="548.095703"/>
      <use xlink:href="#DejaVuSans-20" x="587.304688"/>
      <use xlink:href="#DejaVuSans-72" x="619.091797"/>
      <use xlink:href="#DejaVuSans-61" x="660.205078"/>
      <use xlink:href="#DejaVuSans-74" x="721.484375"/>
      <use xlink:href="#DejaVuSans-65" x="760.693359"/>
     </g>
    </g>
   </g>
   <g id="line2d_12">
    <path d="M 96.86 268.725905 
L 121.213696 254.021425 
L 145.567393 178.069373 
L 174.791828 107.28034 
L 194.274785 61.547132 
L 206.451633 56.890291 
L 216.193112 53.144572 
L 218.628481 52.208142 
L 242.982178 38.03515 
L 249.070602 38.819726 
L 267.335874 41.122838 
L 292.907255 34.31474 
L 312.390212 31.98632 
L 317.260951 31.530759 
L 330.655484 31.151125 
L 339.179278 30.898036 
L 340.396963 30.872727 
L 340.396963 30.872727 
" clip-path="url(#p3c90eb43e7)" style="fill: none; stroke: #0000ff; stroke-width: 3; stroke-linecap: square"/>
   </g>
   <g id="line2d_13">
    <path d="M 96.86 281.127273 
L 111.472218 267.890711 
L 121.213696 259.083208 
L 145.567393 246.378133 
L 169.921089 156.556796 
L 194.274785 101.788305 
L 217.410797 67.950287 
L 218.628481 66.153354 
L 229.587645 63.090975 
L 241.764493 59.648963 
L 242.982178 59.319947 
L 263.68282 49.955649 
L 268.553559 47.880318 
L 284.383461 42.185812 
L 291.68957 39.553685 
L 316.043267 42.109885 
L 324.56706 38.313548 
L 340.396963 31.302979 
L 340.396963 31.302979 
" clip-path="url(#p3c90eb43e7)" style="fill: none; stroke-dasharray: 11.1,4.8; stroke-dashoffset: 0; stroke: #008000; stroke-width: 3"/>
   </g>
   <g id="line2d_14">
    <path d="M 96.86 279.55812 
L 117.560642 255.615887 
L 122.431381 250.123853 
L 143.132023 228.459422 
L 145.567393 225.903222 
L 169.921089 126.287335 
L 194.274785 88.323963 
L 202.798579 79.313989 
L 218.628481 62.559488 
L 242.982178 51.347639 
L 269.771244 44.033363 
L 284.383461 39.376523 
L 291.68957 37.022793 
L 313.607897 34.188195 
L 318.478636 33.580781 
L 328.220115 32.467189 
L 339.179278 31.201743 
L 340.396963 31.075199 
L 340.396963 31.075199 
" clip-path="url(#p3c90eb43e7)" style="fill: none; stroke-dasharray: 19.2,4.8,3,4.8; stroke-dashoffset: 0; stroke: #00bfbf; stroke-width: 3"/>
   </g>
   <g id="line2d_15">
    <path d="M 96.86 278.267365 
L 121.213696 248.377538 
L 145.567393 213.982723 
L 169.921089 119.580472 
L 182.097937 96.270962 
L 194.274785 72.961452 
L 214.975427 53.321734 
L 218.628481 49.879722 
L 224.716905 47.576611 
L 242.982178 40.692586 
L 269.771244 35.732039 
L 278.295037 34.744991 
L 291.68957 33.175838 
L 316.043267 32.593733 
L 340.396963 31.151125 
L 340.396963 31.151125 
" clip-path="url(#p3c90eb43e7)" style="fill: none; stroke-dasharray: 3,4.95; stroke-dashoffset: 0; stroke: #ff0000; stroke-width: 3"/>
   </g>
   <g id="LineCollection_1">
    <path d="M 96.86 71.054847 
L 340.396963 71.054847 
" clip-path="url(#p3c90eb43e7)" style="fill: none; stroke: #000000"/>
   </g>
   <g id="patch_3">
    <path d="M 96.86 293.64 
L 96.86 18.36 
" style="fill: none; stroke: #000000; stroke-width: 0.8; stroke-linejoin: miter; stroke-linecap: square"/>
   </g>
   <g id="patch_4">
    <path d="M 340.396963 293.64 
L 340.396963 18.36 
" style="fill: none; stroke: #000000; stroke-width: 0.8; stroke-linejoin: miter; stroke-linecap: square"/>
   </g>
   <g id="patch_5">
    <path d="M 96.86 293.64 
L 340.396963 293.64 
" style="fill: none; stroke: #000000; stroke-width: 0.8; stroke-linejoin: miter; stroke-linecap: square"/>
   </g>
   <g id="patch_6">
    <path d="M 96.86 18.36 
L 340.396963 18.36 
" style="fill: none; stroke: #000000; stroke-width: 0.8; stroke-linejoin: miter; stroke-linecap: square"/>
   </g>
   <g id="legend_1">
    <g id="patch_7">
     <path d="M 201.679619 285.14 
L 328.496963 285.14 
Q 331.896963 285.14 331.896963 281.74 
L 331.896963 183.62875 
Q 331.896963 180.22875 328.496963 180.22875 
L 201.679619 180.22875 
Q 198.279619 180.22875 198.279619 183.62875 
L 198.279619 281.74 
Q 198.279619 285.14 201.679619 285.14 
z
" style="fill: #ffffff; opacity: 0.8; stroke: #cccccc; stroke-linejoin: miter"/>
    </g>
    <g id="line2d_16">
     <path d="M 205.079619 193.996094 
L 222.079619 193.996094 
L 239.079619 193.996094 
" style="fill: none; stroke: #0000ff; stroke-width: 3; stroke-linecap: square"/>
    </g>
    <g id="text_14">
     <!-- Asian -->
     <g transform="translate(252.679619 199.946094)scale(0.17 -0.17)">
      <defs>
       <path id="DejaVuSans-41" d="M 2188 4044 
L 1331 1722 
L 3047 1722 
L 2188 4044 
z
M 1831 4666 
L 2547 4666 
L 4325 0 
L 3669 0 
L 3244 1197 
L 1141 1197 
L 716 0 
L 50 0 
L 1831 4666 
z
" transform="scale(0.015625)"/>
      </defs>
      <use xlink:href="#DejaVuSans-41"/>
      <use xlink:href="#DejaVuSans-73" x="68.408203"/>
      <use xlink:href="#DejaVuSans-69" x="120.507812"/>
      <use xlink:href="#DejaVuSans-61" x="148.291016"/>
      <use xlink:href="#DejaVuSans-6e" x="209.570312"/>
     </g>
    </g>
    <g id="line2d_17">
     <path d="M 205.079619 218.948906 
L 222.079619 218.948906 
L 239.079619 218.948906 
" style="fill: none; stroke-dasharray: 11.1,4.8; stroke-dashoffset: 0; stroke: #008000; stroke-width: 3"/>
    </g>
    <g id="text_15">
     <!-- Black -->
     <g transform="translate(252.679619 224.898906)scale(0.17 -0.17)">
      <defs>
       <path id="DejaVuSans-42" d="M 1259 2228 
L 1259 519 
L 2272 519 
Q 2781 519 3026 730 
Q 3272 941 3272 1375 
Q 3272 1813 3026 2020 
Q 2781 2228 2272 2228 
L 1259 2228 
z
M 1259 4147 
L 1259 2741 
L 2194 2741 
Q 2656 2741 2882 2914 
Q 3109 3088 3109 3444 
Q 3109 3797 2882 3972 
Q 2656 4147 2194 4147 
L 1259 4147 
z
M 628 4666 
L 2241 4666 
Q 2963 4666 3353 4366 
Q 3744 4066 3744 3513 
Q 3744 3084 3544 2831 
Q 3344 2578 2956 2516 
Q 3422 2416 3680 2098 
Q 3938 1781 3938 1306 
Q 3938 681 3513 340 
Q 3088 0 2303 0 
L 628 0 
L 628 4666 
z
" transform="scale(0.015625)"/>
       <path id="DejaVuSans-6b" d="M 581 4863 
L 1159 4863 
L 1159 1991 
L 2875 3500 
L 3609 3500 
L 1753 1863 
L 3688 0 
L 2938 0 
L 1159 1709 
L 1159 0 
L 581 0 
L 581 4863 
z
" transform="scale(0.015625)"/>
      </defs>
      <use xlink:href="#DejaVuSans-42"/>
      <use xlink:href="#DejaVuSans-6c" x="68.603516"/>
      <use xlink:href="#DejaVuSans-61" x="96.386719"/>
      <use xlink:href="#DejaVuSans-63" x="157.666016"/>
      <use xlink:href="#DejaVuSans-6b" x="212.646484"/>
     </g>
    </g>
    <g id="line2d_18">
     <path d="M 205.079619 243.901719 
L 222.079619 243.901719 
L 239.079619 243.901719 
" style="fill: none; stroke-dasharray: 19.2,4.8,3,4.8; stroke-dashoffset: 0; stroke: #00bfbf; stroke-width: 3"/>
    </g>
    <g id="text_16">
     <!-- Hispanic -->
     <g transform="translate(252.679619 249.851719)scale(0.17 -0.17)">
      <defs>
       <path id="DejaVuSans-48" d="M 628 4666 
L 1259 4666 
L 1259 2753 
L 3553 2753 
L 3553 4666 
L 4184 4666 
L 4184 0 
L 3553 0 
L 3553 2222 
L 1259 2222 
L 1259 0 
L 628 0 
L 628 4666 
z
" transform="scale(0.015625)"/>
       <path id="DejaVuSans-70" d="M 1159 525 
L 1159 -1331 
L 581 -1331 
L 581 3500 
L 1159 3500 
L 1159 2969 
Q 1341 3281 1617 3432 
Q 1894 3584 2278 3584 
Q 2916 3584 3314 3078 
Q 3713 2572 3713 1747 
Q 3713 922 3314 415 
Q 2916 -91 2278 -91 
Q 1894 -91 1617 61 
Q 1341 213 1159 525 
z
M 3116 1747 
Q 3116 2381 2855 2742 
Q 2594 3103 2138 3103 
Q 1681 3103 1420 2742 
Q 1159 2381 1159 1747 
Q 1159 1113 1420 752 
Q 1681 391 2138 391 
Q 2594 391 2855 752 
Q 3116 1113 3116 1747 
z
" transform="scale(0.015625)"/>
      </defs>
      <use xlink:href="#DejaVuSans-48"/>
      <use xlink:href="#DejaVuSans-69" x="75.195312"/>
      <use xlink:href="#DejaVuSans-73" x="102.978516"/>
      <use xlink:href="#DejaVuSans-70" x="155.078125"/>
      <use xlink:href="#DejaVuSans-61" x="218.554688"/>
      <use xlink:href="#DejaVuSans-6e" x="279.833984"/>
      <use xlink:href="#DejaVuSans-69" x="343.212891"/>
      <use xlink:href="#DejaVuSans-63" x="370.996094"/>
     </g>
    </g>
    <g id="line2d_19">
     <path d="M 205.079619 268.854531 
L 222.079619 268.854531 
L 239.079619 268.854531 
" style="fill: none; stroke-dasharray: 3,4.95; stroke-dashoffset: 0; stroke: #ff0000; stroke-width: 3"/>
    </g>
    <g id="text_17">
     <!-- White -->
     <g transform="translate(252.679619 274.804531)scale(0.17 -0.17)">
      <defs>
       <path id="DejaVuSans-57" d="M 213 4666 
L 850 4666 
L 1831 722 
L 2809 4666 
L 3519 4666 
L 4500 722 
L 5478 4666 
L 6119 4666 
L 4947 0 
L 4153 0 
L 3169 4050 
L 2175 0 
L 1381 0 
L 213 4666 
z
" transform="scale(0.015625)"/>
       <path id="DejaVuSans-68" d="M 3513 2113 
L 3513 0 
L 2938 0 
L 2938 2094 
Q 2938 2591 2744 2837 
Q 2550 3084 2163 3084 
Q 1697 3084 1428 2787 
Q 1159 2491 1159 1978 
L 1159 0 
L 581 0 
L 581 4863 
L 1159 4863 
L 1159 2956 
Q 1366 3272 1645 3428 
Q 1925 3584 2291 3584 
Q 2894 3584 3203 3211 
Q 3513 2838 3513 2113 
z
" transform="scale(0.015625)"/>
      </defs>
      <use xlink:href="#DejaVuSans-57"/>
      <use xlink:href="#DejaVuSans-68" x="98.876953"/>
      <use xlink:href="#DejaVuSans-69" x="162.255859"/>
      <use xlink:href="#DejaVuSans-74" x="190.039062"/>
      <use xlink:href="#DejaVuSans-65" x="229.248047"/>
     </g>
    </g>
   </g>
  </g>
  <g id="axes_2">
   <g id="patch_8">
    <path d="M 453.444463 293.64 
L 696.981426 293.64 
L 696.981426 18.36 
L 453.444463 18.36 
z
" style="fill: #ffffff"/>
   </g>
   <g id="matplotlib.axis_3">
    <g id="xtick_6">
     <g id="line2d_20">
      <g>
       <use xlink:href="#m0e5463ae64" x="464.514325" y="293.64" style="stroke: #000000; stroke-width: 0.8"/>
      </g>
     </g>
     <g id="text_18">
      <!-- 0 -->
      <g transform="translate(459.1062 313.557344)scale(0.17 -0.17)">
       <use xlink:href="#DejaVuSans-30"/>
      </g>
     </g>
    </g>
    <g id="xtick_7">
     <g id="line2d_21">
      <g>
       <use xlink:href="#m0e5463ae64" x="575.212944" y="293.64" style="stroke: #000000; stroke-width: 0.8"/>
      </g>
     </g>
     <g id="text_19">
      <!-- 50 -->
      <g transform="translate(564.396694 313.557344)scale(0.17 -0.17)">
       <use xlink:href="#DejaVuSans-35"/>
       <use xlink:href="#DejaVuSans-30" x="63.623047"/>
      </g>
     </g>
    </g>
    <g id="xtick_8">
     <g id="line2d_22">
      <g>
       <use xlink:href="#m0e5463ae64" x="685.911564" y="293.64" style="stroke: #000000; stroke-width: 0.8"/>
      </g>
     </g>
     <g id="text_20">
      <!-- 100 -->
      <g transform="translate(669.687189 313.557344)scale(0.17 -0.17)">
       <use xlink:href="#DejaVuSans-31"/>
       <use xlink:href="#DejaVuSans-30" x="63.623047"/>
       <use xlink:href="#DejaVuSans-30" x="127.246094"/>
      </g>
     </g>
    </g>
    <g id="text_21">
     <!-- Within-group score percentile -->
     <g transform="translate(424.5701 336.593625)scale(0.204 -0.204)">
      <defs>
       <path id="DejaVuSans-67" d="M 2906 1791 
Q 2906 2416 2648 2759 
Q 2391 3103 1925 3103 
Q 1463 3103 1205 2759 
Q 947 2416 947 1791 
Q 947 1169 1205 825 
Q 1463 481 1925 481 
Q 2391 481 2648 825 
Q 2906 1169 2906 1791 
z
M 3481 434 
Q 3481 -459 3084 -895 
Q 2688 -1331 1869 -1331 
Q 1566 -1331 1297 -1286 
Q 1028 -1241 775 -1147 
L 775 -588 
Q 1028 -725 1275 -790 
Q 1522 -856 1778 -856 
Q 2344 -856 2625 -561 
Q 2906 -266 2906 331 
L 2906 616 
Q 2728 306 2450 153 
Q 2172 0 1784 0 
Q 1141 0 747 490 
Q 353 981 353 1791 
Q 353 2603 747 3093 
Q 1141 3584 1784 3584 
Q 2172 3584 2450 3431 
Q 2728 3278 2906 2969 
L 2906 3500 
L 3481 3500 
L 3481 434 
z
" transform="scale(0.015625)"/>
      </defs>
      <use xlink:href="#DejaVuSans-57"/>
      <use xlink:href="#DejaVuSans-69" x="96.626953"/>
      <use xlink:href="#DejaVuSans-74" x="124.410156"/>
      <use xlink:href="#DejaVuSans-68" x="163.619141"/>
      <use xlink:href="#DejaVuSans-69" x="226.998047"/>
      <use xlink:href="#DejaVuSans-6e" x="254.78125"/>
      <use xlink:href="#DejaVuSans-2d" x="318.160156"/>
      <use xlink:href="#DejaVuSans-67" x="354.244141"/>
      <use xlink:href="#DejaVuSans-72" x="417.720703"/>
      <use xlink:href="#DejaVuSans-6f" x="456.583984"/>
      <use xlink:href="#DejaVuSans-75" x="517.765625"/>
      <use xlink:href="#DejaVuSans-70" x="581.144531"/>
      <use xlink:href="#DejaVuSans-20" x="644.621094"/>
      <use xlink:href="#DejaVuSans-73" x="676.408203"/>
      <use xlink:href="#DejaVuSans-63" x="728.507812"/>
      <use xlink:href="#DejaVuSans-6f" x="783.488281"/>
      <use xlink:href="#DejaVuSans-72" x="844.669922"/>
      <use xlink:href="#DejaVuSans-65" x="883.533203"/>
      <use xlink:href="#DejaVuSans-20" x="945.056641"/>
      <use xlink:href="#DejaVuSans-70" x="976.84375"/>
      <use xlink:href="#DejaVuSans-65" x="1040.320312"/>
      <use xlink:href="#DejaVuSans-72" x="1101.84375"/>
      <use xlink:href="#DejaVuSans-63" x="1140.707031"/>
      <use xlink:href="#DejaVuSans-65" x="1195.6875"/>
      <use xlink:href="#DejaVuSans-6e" x="1257.210938"/>
      <use xlink:href="#DejaVuSans-74" x="1320.589844"/>
      <use xlink:href="#DejaVuSans-69" x="1359.798828"/>
      <use xlink:href="#DejaVuSans-6c" x="1387.582031"/>
      <use xlink:href="#DejaVuSans-65" x="1415.365234"/>
     </g>
    </g>
   </g>
   <g id="matplotlib.axis_4">
    <g id="ytick_7">
     <g id="line2d_23">
      <g>
       <use xlink:href="#md308e53c4f" x="453.444463" y="281.962467" style="stroke: #000000; stroke-width: 0.8"/>
      </g>
     </g>
     <g id="text_22">
      <!-- 0% -->
      <g transform="translate(419.475557 288.421139)scale(0.17 -0.17)">
       <use xlink:href="#DejaVuSans-30"/>
       <use xlink:href="#DejaVuSans-25" x="63.623047"/>
      </g>
     </g>
    </g>
    <g id="ytick_8">
     <g id="line2d_24">
      <g>
       <use xlink:href="#md308e53c4f" x="453.444463" y="231.344638" style="stroke: #000000; stroke-width: 0.8"/>
      </g>
     </g>
     <g id="text_23">
      <!-- 20% -->
      <g transform="translate(408.659307 237.80331)scale(0.17 -0.17)">
       <use xlink:href="#DejaVuSans-32"/>
       <use xlink:href="#DejaVuSans-30" x="63.623047"/>
       <use xlink:href="#DejaVuSans-25" x="127.246094"/>
      </g>
     </g>
    </g>
    <g id="ytick_9">
     <g id="line2d_25">
      <g>
       <use xlink:href="#md308e53c4f" x="453.444463" y="180.726809" style="stroke: #000000; stroke-width: 0.8"/>
      </g>
     </g>
     <g id="text_24">
      <!-- 40% -->
      <g transform="translate(408.659307 187.185481)scale(0.17 -0.17)">
       <use xlink:href="#DejaVuSans-34"/>
       <use xlink:href="#DejaVuSans-30" x="63.623047"/>
       <use xlink:href="#DejaVuSans-25" x="127.246094"/>
      </g>
     </g>
    </g>
    <g id="ytick_10">
     <g id="line2d_26">
      <g>
       <use xlink:href="#md308e53c4f" x="453.444463" y="130.108981" style="stroke: #000000; stroke-width: 0.8"/>
      </g>
     </g>
     <g id="text_25">
      <!-- 60% -->
      <g transform="translate(408.659307 136.567652)scale(0.17 -0.17)">
       <use xlink:href="#DejaVuSans-36"/>
       <use xlink:href="#DejaVuSans-30" x="63.623047"/>
       <use xlink:href="#DejaVuSans-25" x="127.246094"/>
      </g>
     </g>
    </g>
    <g id="ytick_11">
     <g id="line2d_27">
      <g>
       <use xlink:href="#md308e53c4f" x="453.444463" y="79.491152" style="stroke: #000000; stroke-width: 0.8"/>
      </g>
     </g>
     <g id="text_26">
      <!-- 80% -->
      <g transform="translate(408.659307 85.949824)scale(0.17 -0.17)">
       <use xlink:href="#DejaVuSans-38"/>
       <use xlink:href="#DejaVuSans-30" x="63.623047"/>
       <use xlink:href="#DejaVuSans-25" x="127.246094"/>
      </g>
     </g>
    </g>
    <g id="ytick_12">
     <g id="line2d_28">
      <g>
       <use xlink:href="#md308e53c4f" x="453.444463" y="28.873323" style="stroke: #000000; stroke-width: 0.8"/>
      </g>
     </g>
     <g id="text_27">
      <!-- 100% -->
      <g transform="translate(397.843057 35.331995)scale(0.17 -0.17)">
       <use xlink:href="#DejaVuSans-31"/>
       <use xlink:href="#DejaVuSans-30" x="63.623047"/>
       <use xlink:href="#DejaVuSans-30" x="127.246094"/>
       <use xlink:href="#DejaVuSans-25" x="190.869141"/>
      </g>
     </g>
    </g>
    <g id="text_28">
     <!-- Non-default rate -->
     <g transform="translate(389.600494 239.866313)rotate(-90)scale(0.204 -0.204)">
      <use xlink:href="#DejaVuSans-4e"/>
      <use xlink:href="#DejaVuSans-6f" x="74.804688"/>
      <use xlink:href="#DejaVuSans-6e" x="135.986328"/>
      <use xlink:href="#DejaVuSans-2d" x="199.365234"/>
      <use xlink:href="#DejaVuSans-64" x="235.449219"/>
      <use xlink:href="#DejaVuSans-65" x="298.925781"/>
      <use xlink:href="#DejaVuSans-66" x="360.449219"/>
      <use xlink:href="#DejaVuSans-61" x="395.654297"/>
      <use xlink:href="#DejaVuSans-75" x="456.933594"/>
      <use xlink:href="#DejaVuSans-6c" x="520.3125"/>
      <use xlink:href="#DejaVuSans-74" x="548.095703"/>
      <use xlink:href="#DejaVuSans-20" x="587.304688"/>
      <use xlink:href="#DejaVuSans-72" x="619.091797"/>
      <use xlink:href="#DejaVuSans-61" x="660.205078"/>
      <use xlink:href="#DejaVuSans-74" x="721.484375"/>
      <use xlink:href="#DejaVuSans-65" x="760.693359"/>
     </g>
    </g>
   </g>
   <g id="line2d_29">
    <path d="M 464.514325 268.725905 
L 464.802141 267.991946 
L 466.46262 267.257988 
L 466.883275 266.524029 
L 468.565894 264.322154 
L 469.385064 263.588195 
L 470.004976 262.854237 
L 470.226374 262.094969 
L 471.377639 261.361011 
L 473.148817 259.893094 
L 473.547332 259.159135 
L 475.628466 256.957259 
L 475.894143 256.223301 
L 476.425496 255.489342 
L 476.757592 254.755384 
L 477.222526 254.021425 
L 477.443924 250.225088 
L 478.351652 246.428751 
L 478.816586 242.632414 
L 479.901433 238.836077 
L 482.159685 227.421756 
L 483.111693 223.625419 
L 483.731605 219.829082 
L 485.436364 212.236408 
L 487.36252 200.847396 
L 487.827454 197.051059 
L 488.779462 193.254722 
L 489.111558 189.458385 
L 489.997147 185.662048 
L 490.639199 181.865711 
L 491.901163 178.069373 
L 493.340245 172.121778 
L 493.827319 169.160635 
L 494.624349 166.199492 
L 495.930593 160.251898 
L 496.417667 157.290755 
L 497.613212 154.329612 
L 498.166705 151.368469 
L 498.853037 148.382017 
L 499.317971 145.420874 
L 502.373253 136.512136 
L 503.037444 133.550993 
L 504.144431 130.58985 
L 504.9636 127.628707 
L 506.424822 124.642255 
L 506.934036 121.681112 
L 508.196 118.719969 
L 509.192288 115.860062 
L 511.007745 113.000154 
L 512.801063 107.28034 
L 515.258572 101.560525 
L 516.144161 98.700618 
L 517.538963 95.840711 
L 518.402413 92.980803 
L 520.151451 90.120896 
L 520.926341 87.286297 
L 522.431842 84.42639 
L 523.184593 81.566483 
L 525.155028 78.706575 
L 525.81922 75.846668 
L 527.701097 72.986761 
L 528.298869 70.126853 
L 530.180746 67.266946 
L 530.64568 64.407039 
L 531.752666 61.547132 
L 532.815373 61.091571 
L 534.343014 60.610702 
L 535.051485 60.155141 
L 536.512707 59.674272 
L 537.464715 59.218711 
L 539.966504 58.282282 
L 541.671263 57.826721 
L 548.468158 55.472992 
L 550.416453 55.017432 
L 551.589859 54.561871 
L 553.383176 54.081002 
L 555.53073 53.144572 
L 556.726275 52.689011 
L 558.342475 52.208142 
L 559.228064 51.499492 
L 561.10994 50.790843 
L 562.194787 50.082193 
L 564.120943 49.373544 
L 565.537885 48.664894 
L 571.272073 46.538945 
L 572.445479 45.830296 
L 574.659451 45.121646 
L 575.56718 44.412996 
L 580.32722 42.287048 
L 581.434207 41.578398 
L 587.279094 38.7438 
L 589.382368 38.03515 
L 593.035422 38.516019 
L 599.721619 39.123433 
L 604.038865 39.578994 
L 606.496374 39.90801 
L 611.367113 40.515424 
L 612.186283 40.667277 
L 616.215713 41.122838 
L 618.783921 40.13579 
L 620.776496 39.806774 
L 623.322564 39.123433 
L 623.942477 38.794417 
L 625.005183 38.465402 
L 627.861208 37.782061 
L 631.115747 36.795013 
L 634.569544 36.465997 
L 639.484563 34.795609 
L 640.702247 34.441284 
L 656.51001 32.568425 
L 657.174202 32.44188 
L 663.373325 31.707921 
L 664.170355 31.556068 
L 685.911564 30.872727 
L 685.911564 30.872727 
" clip-path="url(#p1a8a790c92)" style="fill: none; stroke: #0000ff; stroke-width: 3; stroke-linecap: square"/>
   </g>
   <g id="line2d_30">
    <path d="M 464.669303 281.127273 
L 467.148952 280.01368 
L 476.314798 278.925397 
L 478.838726 277.811805 
L 485.037849 275.609929 
L 489.310816 274.521646 
L 496.794042 272.294462 
L 498.078146 271.206178 
L 503.745915 270.092586 
L 508.373118 269.004303 
L 512.601805 267.890711 
L 515.280712 266.802427 
L 519.177303 265.688835 
L 520.99276 264.600552 
L 524.180881 263.486959 
L 525.509264 262.398676 
L 527.811795 261.285084 
L 529.560834 260.171492 
L 533.501704 258.450485 
L 538.306024 257.18504 
L 542.246895 256.552317 
L 544.372309 255.894285 
L 549.11021 254.628839 
L 552.608286 253.996117 
L 554.7337 253.363394 
L 557.656143 252.730671 
L 559.51588 252.097948 
L 562.017669 251.465225 
L 569.456616 248.909025 
L 573.641024 247.010856 
L 581.96556 246.378133 
L 584.157393 241.898455 
L 586.81416 237.393469 
L 588.275381 232.913791 
L 590.179398 228.408804 
L 591.529921 223.929126 
L 593.367518 219.424139 
L 594.82874 214.944462 
L 597.352668 210.464784 
L 598.725331 205.959797 
L 600.562928 201.480119 
L 601.957731 196.975132 
L 603.839607 192.495455 
L 605.19013 187.990468 
L 607.072007 183.51079 
L 608.42253 179.031112 
L 610.304407 174.526125 
L 611.544231 170.046447 
L 613.470387 165.541461 
L 614.289557 161.061783 
L 616.946324 153.823433 
L 618.584663 151.090071 
L 619.448113 148.356708 
L 620.820775 145.598036 
L 621.839203 142.864673 
L 625.403698 134.664585 
L 626.466405 131.905914 
L 628.237583 129.172551 
L 628.791076 126.439188 
L 630.185879 123.705825 
L 630.805791 120.947154 
L 632.48841 118.213791 
L 633.130462 115.480428 
L 634.724522 112.747065 
L 635.410853 110.013703 
L 636.584259 107.255031 
L 637.093472 104.521668 
L 637.912642 101.788305 
L 638.86465 100.016681 
L 640.038056 98.219748 
L 640.50299 96.448124 
L 641.764954 94.651192 
L 642.584124 92.879568 
L 643.73539 91.107944 
L 644.333162 89.311011 
L 645.528707 87.539387 
L 647.941937 82.199206 
L 648.783247 80.402273 
L 649.203901 78.630649 
L 650.200189 76.859025 
L 650.665123 75.062092 
L 651.506433 73.290468 
L 651.949227 71.493535 
L 653.144772 67.950287 
L 653.941802 66.153354 
L 654.362457 65.824338 
L 655.447304 65.140997 
L 656.443591 64.457657 
L 658.369747 63.419991 
L 658.679703 63.090975 
L 659.476733 62.73665 
L 662.11136 60.686628 
L 662.465596 60.332304 
L 663.063369 60.003288 
L 663.439744 59.648963 
L 664.126075 59.319947 
L 664.391752 58.763151 
L 667.048519 55.472992 
L 667.690571 54.3594 
L 668.819697 52.157524 
L 668.996815 51.626037 
L 669.572447 51.069241 
L 669.948823 49.955649 
L 670.325198 49.424162 
L 670.834412 48.310569 
L 671.387905 47.450066 
L 671.609302 46.994506 
L 671.985677 46.564254 
L 673.491179 44.362379 
L 673.956113 43.932127 
L 674.797422 42.616064 
L 675.417335 42.185812 
L 676.834277 39.553685 
L 677.919123 39.933319 
L 678.627595 40.312952 
L 681.240082 41.451853 
L 681.328641 41.578398 
L 682.014972 41.983341 
L 682.16995 42.109885 
L 682.457767 40.490115 
L 682.745583 39.933319 
L 683.365495 38.313548 
L 684.162525 36.719086 
L 684.251084 36.16229 
L 684.538901 35.630803 
L 684.826717 34.54252 
L 685.136673 34.011033 
L 685.668027 33.479545 
L 685.889424 32.391262 
L 685.911564 31.302979 
L 685.911564 31.302979 
" clip-path="url(#p1a8a790c92)" style="fill: none; stroke-dasharray: 11.1,4.8; stroke-dashoffset: 0; stroke: #008000; stroke-width: 3"/>
   </g>
   <g id="line2d_31">
    <path d="M 464.536464 279.55812 
L 465.554892 278.140821 
L 469.429343 276.723522 
L 470.580609 275.331531 
L 472.241088 273.914232 
L 473.458773 272.496933 
L 475.628466 271.104943 
L 477.288945 269.687643 
L 479.126543 268.295653 
L 479.835014 266.878354 
L 482.713178 265.461055 
L 485.126408 264.069064 
L 487.052564 262.651765 
L 488.425227 261.259775 
L 490.949155 259.842476 
L 491.923303 258.425177 
L 493.694481 257.033186 
L 494.624349 255.615887 
L 496.94902 252.806598 
L 499.251552 250.123853 
L 500.779192 248.858407 
L 501.974738 247.567652 
L 504.432247 246.302207 
L 505.649932 245.036761 
L 507.37683 243.746006 
L 508.683074 242.48056 
L 511.229142 241.189806 
L 512.690364 239.92436 
L 514.59438 238.658914 
L 515.900624 237.36816 
L 517.693942 236.102714 
L 519.177303 234.837268 
L 520.948481 233.546514 
L 522.011188 232.281068 
L 523.45027 231.015622 
L 524.512977 229.724868 
L 526.018478 228.459422 
L 526.970486 227.168667 
L 531.619828 225.903222 
L 532.992491 220.917365 
L 535.140044 215.931509 
L 536.047773 210.970962 
L 537.597553 205.985106 
L 538.793098 200.99925 
L 540.320739 196.013394 
L 542.136197 191.052846 
L 544.637986 186.06699 
L 545.988509 181.081134 
L 547.936804 176.095278 
L 549.021651 171.109422 
L 550.748549 166.148875 
L 552.29833 161.163019 
L 554.401604 156.177162 
L 555.907105 151.191306 
L 557.966099 146.20545 
L 559.560159 141.244903 
L 561.95125 136.259047 
L 563.124655 131.273191 
L 564.851553 126.287335 
L 565.781422 124.389166 
L 567.884696 122.490997 
L 569.10238 120.592829 
L 570.895698 118.69466 
L 572.423339 116.796492 
L 575.124385 113.000154 
L 578.046829 109.203817 
L 580.083683 107.305649 
L 581.057831 105.40748 
L 583.116826 103.509312 
L 583.980275 101.611143 
L 586.371365 99.712974 
L 587.124116 97.814806 
L 589.360228 95.916637 
L 590.068699 94.018469 
L 591.928436 92.1203 
L 592.548348 90.222132 
L 593.743893 88.323963 
L 594.673762 87.058517 
L 596.179263 85.767763 
L 596.976293 84.477008 
L 598.681052 83.186253 
L 599.699479 81.895499 
L 601.271399 80.604744 
L 602.201268 79.313989 
L 604.061004 78.023235 
L 605.278689 76.73248 
L 606.695632 75.441726 
L 609.2417 72.860216 
L 609.99445 71.569462 
L 611.677069 70.278707 
L 612.42982 68.987952 
L 613.957461 67.697198 
L 614.776631 66.431752 
L 616.791346 63.850243 
L 618.783921 62.002692 
L 620.068025 61.420587 
L 620.953614 60.863791 
L 624.540249 59.193402 
L 625.492257 58.636606 
L 626.776361 58.07981 
L 627.462693 57.523014 
L 628.791076 56.940909 
L 629.610246 56.384113 
L 630.87221 55.827317 
L 631.735659 55.270521 
L 633.064043 54.713725 
L 633.794654 54.156929 
L 635.034478 53.600132 
L 637.735524 51.904435 
L 641.233601 50.3859 
L 643.026918 49.727868 
L 643.624691 49.398853 
L 645.617266 48.740821 
L 646.14862 48.411805 
L 647.100628 48.082789 
L 647.499143 47.753773 
L 649.071063 47.095741 
L 649.513858 46.792034 
L 650.642984 46.463019 
L 651.484293 45.804987 
L 652.458441 45.475971 
L 654.251759 44.438305 
L 655.248046 43.653729 
L 656.222194 43.274095 
L 658.015512 41.704943 
L 659.808829 40.920366 
L 661.425029 39.756156 
L 662.886251 39.376523 
L 666.16293 37.022793 
L 671.565023 35.605494 
L 671.941398 35.453641 
L 674.000392 34.972771 
L 674.266069 34.820918 
L 675.860129 34.340049 
L 676.125806 34.188195 
L 677.587027 33.732635 
L 678.074101 33.454237 
L 684.228945 31.758539 
L 685.645887 31.480141 
L 685.911564 31.201743 
L 685.911564 31.075199 
L 685.911564 31.075199 
" clip-path="url(#p1a8a790c92)" style="fill: none; stroke-dasharray: 19.2,4.8,3,4.8; stroke-dashoffset: 0; stroke: #00bfbf; stroke-width: 3"/>
   </g>
   <g id="line2d_32">
    <path d="M 464.536464 278.267365 
L 465.089958 276.774139 
L 467.082533 275.280914 
L 467.680305 273.787688 
L 468.499475 272.294462 
L 469.141527 270.775927 
L 471.067683 267.789475 
L 472.019691 266.296249 
L 472.351787 264.803023 
L 473.790869 263.309797 
L 476.204099 260.323345 
L 476.824011 258.830119 
L 478.041696 257.336893 
L 478.55091 255.843667 
L 479.591477 254.350441 
L 480.056411 252.857215 
L 480.764882 251.363989 
L 481.340515 249.870763 
L 482.115405 248.377538 
L 482.668898 246.656531 
L 483.598767 244.935525 
L 484.307238 243.214519 
L 485.679901 241.493513 
L 486.476931 239.772507 
L 487.539638 238.0515 
L 488.336668 236.330494 
L 489.77575 234.634797 
L 490.5285 232.913791 
L 491.724045 231.192785 
L 492.432517 229.471778 
L 493.495223 227.750772 
L 494.247974 226.029766 
L 495.155703 224.30876 
L 495.797755 222.587754 
L 496.749763 220.866748 
L 497.369675 219.145741 
L 498.255264 217.424735 
L 498.830897 215.703729 
L 501.133428 213.982723 
L 501.886179 209.249956 
L 502.971025 204.542498 
L 503.568798 199.809731 
L 504.520806 195.102273 
L 505.207137 190.369506 
L 506.867617 180.929281 
L 508.196 176.221823 
L 508.99303 171.489056 
L 509.989318 166.781598 
L 510.653509 162.048831 
L 512.491106 152.608605 
L 513.81949 147.901147 
L 514.59438 143.16838 
L 515.856344 138.460922 
L 516.653375 133.728155 
L 518.269574 129.020697 
L 519.221582 124.28793 
L 520.394988 119.580472 
L 521.169878 117.226743 
L 522.564681 114.898323 
L 523.361711 112.569903 
L 524.446557 110.241483 
L 525.354286 107.913063 
L 526.505552 105.584643 
L 527.391141 103.256222 
L 529.671532 98.599382 
L 531.287732 96.270962 
L 531.863365 93.942542 
L 533.523844 91.614122 
L 534.254455 89.260393 
L 535.959214 86.931973 
L 536.711964 84.603553 
L 538.372444 82.275132 
L 539.036635 79.946712 
L 540.497857 77.618292 
L 541.029211 75.289872 
L 542.202616 72.961452 
L 543.066065 71.797242 
L 544.350169 70.658341 
L 544.947942 69.494131 
L 546.364884 68.329921 
L 547.206193 67.191019 
L 548.578856 66.026809 
L 549.442306 64.887908 
L 552.054793 62.559488 
L 554.313045 60.256377 
L 555.575009 59.092167 
L 556.394179 57.953266 
L 558.076798 56.789056 
L 558.807409 55.650154 
L 560.534307 54.485944 
L 561.419896 53.321734 
L 563.52317 51.018623 
L 565.537885 49.398853 
L 569.013822 48.032171 
L 569.89941 47.576611 
L 573.641024 46.209929 
L 574.305216 45.72906 
L 575.766437 45.2735 
L 576.585607 44.817939 
L 577.891851 44.362379 
L 578.711021 43.906818 
L 580.061544 43.451258 
L 580.858574 42.995697 
L 582.231237 42.540137 
L 583.161105 42.084576 
L 587.699748 40.464806 
L 600.142273 37.883297 
L 601.581355 37.427736 
L 603.131136 37.199956 
L 604.326681 36.719086 
L 606.872749 36.263526 
L 608.754626 35.883892 
L 610.237987 35.605494 
L 613.780343 35.175243 
L 615.573661 34.871536 
L 619.824488 34.466593 
L 622.016321 34.162886 
L 624.42955 34.036342 
L 631.315005 33.175838 
L 659.432454 32.593733 
L 667.80127 32.087555 
L 680.797287 31.50545 
L 685.712306 31.27767 
L 685.911564 31.151125 
L 685.911564 31.151125 
" clip-path="url(#p1a8a790c92)" style="fill: none; stroke-dasharray: 3,4.95; stroke-dashoffset: 0; stroke: #ff0000; stroke-width: 3"/>
   </g>
   <g id="LineCollection_2">
    <path d="M 464.514325 71.054847 
L 685.911564 71.054847 
" clip-path="url(#p1a8a790c92)" style="fill: none; stroke: #000000"/>
   </g>
   <g id="patch_9">
    <path d="M 453.444463 293.64 
L 453.444463 18.36 
" style="fill: none; stroke: #000000; stroke-width: 0.8; stroke-linejoin: miter; stroke-linecap: square"/>
   </g>
   <g id="patch_10">
    <path d="M 696.981426 293.64 
L 696.981426 18.36 
" style="fill: none; stroke: #000000; stroke-width: 0.8; stroke-linejoin: miter; stroke-linecap: square"/>
   </g>
   <g id="patch_11">
    <path d="M 453.444463 293.64 
L 696.981426 293.64 
" style="fill: none; stroke: #000000; stroke-width: 0.8; stroke-linejoin: miter; stroke-linecap: square"/>
   </g>
   <g id="patch_12">
    <path d="M 453.444463 18.36 
L 696.981426 18.36 
" style="fill: none; stroke: #000000; stroke-width: 0.8; stroke-linejoin: miter; stroke-linecap: square"/>
   </g>
   <g id="legend_2">
    <g id="patch_13">
     <path d="M 558.264082 285.14 
L 685.081426 285.14 
Q 688.481426 285.14 688.481426 281.74 
L 688.481426 183.62875 
Q 688.481426 180.22875 685.081426 180.22875 
L 558.264082 180.22875 
Q 554.864082 180.22875 554.864082 183.62875 
L 554.864082 281.74 
Q 554.864082 285.14 558.264082 285.14 
z
" style="fill: #ffffff; opacity: 0.8; stroke: #cccccc; stroke-linejoin: miter"/>
    </g>
    <g id="line2d_33">
     <path d="M 561.664082 193.996094 
L 578.664082 193.996094 
L 595.664082 193.996094 
" style="fill: none; stroke: #0000ff; stroke-width: 3; stroke-linecap: square"/>
    </g>
    <g id="text_29">
     <!-- Asian -->
     <g transform="translate(609.264082 199.946094)scale(0.17 -0.17)">
      <use xlink:href="#DejaVuSans-41"/>
      <use xlink:href="#DejaVuSans-73" x="68.408203"/>
      <use xlink:href="#DejaVuSans-69" x="120.507812"/>
      <use xlink:href="#DejaVuSans-61" x="148.291016"/>
      <use xlink:href="#DejaVuSans-6e" x="209.570312"/>
     </g>
    </g>
    <g id="line2d_34">
     <path d="M 561.664082 218.948906 
L 578.664082 218.948906 
L 595.664082 218.948906 
" style="fill: none; stroke-dasharray: 11.1,4.8; stroke-dashoffset: 0; stroke: #008000; stroke-width: 3"/>
    </g>
    <g id="text_30">
     <!-- Black -->
     <g transform="translate(609.264082 224.898906)scale(0.17 -0.17)">
      <use xlink:href="#DejaVuSans-42"/>
      <use xlink:href="#DejaVuSans-6c" x="68.603516"/>
      <use xlink:href="#DejaVuSans-61" x="96.386719"/>
      <use xlink:href="#DejaVuSans-63" x="157.666016"/>
      <use xlink:href="#DejaVuSans-6b" x="212.646484"/>
     </g>
    </g>
    <g id="line2d_35">
     <path d="M 561.664082 243.901719 
L 578.664082 243.901719 
L 595.664082 243.901719 
" style="fill: none; stroke-dasharray: 19.2,4.8,3,4.8; stroke-dashoffset: 0; stroke: #00bfbf; stroke-width: 3"/>
    </g>
    <g id="text_31">
     <!-- Hispanic -->
     <g transform="translate(609.264082 249.851719)scale(0.17 -0.17)">
      <use xlink:href="#DejaVuSans-48"/>
      <use xlink:href="#DejaVuSans-69" x="75.195312"/>
      <use xlink:href="#DejaVuSans-73" x="102.978516"/>
      <use xlink:href="#DejaVuSans-70" x="155.078125"/>
      <use xlink:href="#DejaVuSans-61" x="218.554688"/>
      <use xlink:href="#DejaVuSans-6e" x="279.833984"/>
      <use xlink:href="#DejaVuSans-69" x="343.212891"/>
      <use xlink:href="#DejaVuSans-63" x="370.996094"/>
     </g>
    </g>
    <g id="line2d_36">
     <path d="M 561.664082 268.854531 
L 578.664082 268.854531 
L 595.664082 268.854531 
" style="fill: none; stroke-dasharray: 3,4.95; stroke-dashoffset: 0; stroke: #ff0000; stroke-width: 3"/>
    </g>
    <g id="text_32">
     <!-- White -->
     <g transform="translate(609.264082 274.804531)scale(0.17 -0.17)">
      <use xlink:href="#DejaVuSans-57"/>
      <use xlink:href="#DejaVuSans-68" x="98.876953"/>
      <use xlink:href="#DejaVuSans-69" x="162.255859"/>
      <use xlink:href="#DejaVuSans-74" x="190.039062"/>
      <use xlink:href="#DejaVuSans-65" x="229.248047"/>
     </g>
    </g>
   </g>
  </g>
 </g>
 <defs>
  <clipPath id="p3c90eb43e7">
   <rect x="96.86" y="18.36" width="243.536963" height="275.28"/>
  </clipPath>
  <clipPath id="p1a8a790c92">
   <rect x="453.444463" y="18.36" width="243.536963" height="275.28"/>
  </clipPath>
 </defs>
</svg>
