<?xml version="1.0" encoding="utf-8" standalone="no"?>
<!DOCTYPE svg PUBLIC "-//W3C//DTD SVG 1.1//EN"
  "http://www.w3.org/Graphics/SVG/1.1/DTD/svg11.dtd">
<!-- Created with matplotlib (http://matplotlib.org/) -->
<svg height="360pt" version="1.1" viewBox="0 0 432 360" width="432pt" xmlns="http://www.w3.org/2000/svg" xmlns:xlink="http://www.w3.org/1999/xlink">
 <defs>
  <style type="text/css">
*{stroke-linecap:butt;stroke-linejoin:round;}
  </style>
 </defs>
 <g id="figure_1">
  <g id="patch_1">
   <path d="M 0 360 
L 432 360 
L 432 0 
L 0 0 
z
" style="fill:#ffffff;"/>
  </g>
  <g id="axes_1">
   <g id="patch_2">
    <path d="M 76.485 292.64 
L 410.14 292.64 
L 410.14 40.36 
L 76.485 40.36 
z
" style="fill:#ffffff;"/>
   </g>
   <g id="matplotlib.axis_1">
    <g id="xtick_1">
     <g id="line2d_1">
      <defs>
       <path d="M 0 0 
L 0 3.5 
" id="made4d9e7d5" style="stroke:#000000;stroke-width:0.8;"/>
      </defs>
      <g>
       <use style="stroke:#000000;stroke-width:0.8;" x="91.651136" xlink:href="#made4d9e7d5" y="292.64"/>
      </g>
     </g>
     <g id="text_1">
      <!-- 0 -->
      <defs>
       <path d="M 31.78125 66.40625 
Q 24.171875 66.40625 20.328125 58.90625 
Q 16.5 51.421875 16.5 36.375 
Q 16.5 21.390625 20.328125 13.890625 
Q 24.171875 6.390625 31.78125 6.390625 
Q 39.453125 6.390625 43.28125 13.890625 
Q 47.125 21.390625 47.125 36.375 
Q 47.125 51.421875 43.28125 58.90625 
Q 39.453125 66.40625 31.78125 66.40625 
z
M 31.78125 74.21875 
Q 44.046875 74.21875 50.515625 64.515625 
Q 56.984375 54.828125 56.984375 36.375 
Q 56.984375 17.96875 50.515625 8.265625 
Q 44.046875 -1.421875 31.78125 -1.421875 
Q 19.53125 -1.421875 13.0625 8.265625 
Q 6.59375 17.96875 6.59375 36.375 
Q 6.59375 54.828125 13.0625 64.515625 
Q 19.53125 74.21875 31.78125 74.21875 
z
" id="DejaVuSans-30"/>
      </defs>
      <g transform="translate(86.243011 312.557344)scale(0.17 -0.17)">
       <use xlink:href="#DejaVuSans-30"/>
      </g>
     </g>
    </g>
    <g id="xtick_2">
     <g id="line2d_2">
      <g>
       <use style="stroke:#000000;stroke-width:0.8;" x="152.315682" xlink:href="#made4d9e7d5" y="292.64"/>
      </g>
     </g>
     <g id="text_2">
      <!-- 20 -->
      <defs>
       <path d="M 19.1875 8.296875 
L 53.609375 8.296875 
L 53.609375 0 
L 7.328125 0 
L 7.328125 8.296875 
Q 12.9375 14.109375 22.625 23.890625 
Q 32.328125 33.6875 34.8125 36.53125 
Q 39.546875 41.84375 41.421875 45.53125 
Q 43.3125 49.21875 43.3125 52.78125 
Q 43.3125 58.59375 39.234375 62.25 
Q 35.15625 65.921875 28.609375 65.921875 
Q 23.96875 65.921875 18.8125 64.3125 
Q 13.671875 62.703125 7.8125 59.421875 
L 7.8125 69.390625 
Q 13.765625 71.78125 18.9375 73 
Q 24.125 74.21875 28.421875 74.21875 
Q 39.75 74.21875 46.484375 68.546875 
Q 53.21875 62.890625 53.21875 53.421875 
Q 53.21875 48.921875 51.53125 44.890625 
Q 49.859375 40.875 45.40625 35.40625 
Q 44.1875 33.984375 37.640625 27.21875 
Q 31.109375 20.453125 19.1875 8.296875 
z
" id="DejaVuSans-32"/>
      </defs>
      <g transform="translate(141.499432 312.557344)scale(0.17 -0.17)">
       <use xlink:href="#DejaVuSans-32"/>
       <use x="63.623047" xlink:href="#DejaVuSans-30"/>
      </g>
     </g>
    </g>
    <g id="xtick_3">
     <g id="line2d_3">
      <g>
       <use style="stroke:#000000;stroke-width:0.8;" x="212.980227" xlink:href="#made4d9e7d5" y="292.64"/>
      </g>
     </g>
     <g id="text_3">
      <!-- 40 -->
      <defs>
       <path d="M 37.796875 64.3125 
L 12.890625 25.390625 
L 37.796875 25.390625 
z
M 35.203125 72.90625 
L 47.609375 72.90625 
L 47.609375 25.390625 
L 58.015625 25.390625 
L 58.015625 17.1875 
L 47.609375 17.1875 
L 47.609375 0 
L 37.796875 0 
L 37.796875 17.1875 
L 4.890625 17.1875 
L 4.890625 26.703125 
z
" id="DejaVuSans-34"/>
      </defs>
      <g transform="translate(202.163977 312.557344)scale(0.17 -0.17)">
       <use xlink:href="#DejaVuSans-34"/>
       <use x="63.623047" xlink:href="#DejaVuSans-30"/>
      </g>
     </g>
    </g>
    <g id="xtick_4">
     <g id="line2d_4">
      <g>
       <use style="stroke:#000000;stroke-width:0.8;" x="273.644773" xlink:href="#made4d9e7d5" y="292.64"/>
      </g>
     </g>
     <g id="text_4">
      <!-- 60 -->
      <defs>
       <path d="M 33.015625 40.375 
Q 26.375 40.375 22.484375 35.828125 
Q 18.609375 31.296875 18.609375 23.390625 
Q 18.609375 15.53125 22.484375 10.953125 
Q 26.375 6.390625 33.015625 6.390625 
Q 39.65625 6.390625 43.53125 10.953125 
Q 47.40625 15.53125 47.40625 23.390625 
Q 47.40625 31.296875 43.53125 35.828125 
Q 39.65625 40.375 33.015625 40.375 
z
M 52.59375 71.296875 
L 52.59375 62.3125 
Q 48.875 64.0625 45.09375 64.984375 
Q 41.3125 65.921875 37.59375 65.921875 
Q 27.828125 65.921875 22.671875 59.328125 
Q 17.53125 52.734375 16.796875 39.40625 
Q 19.671875 43.65625 24.015625 45.921875 
Q 28.375 48.1875 33.59375 48.1875 
Q 44.578125 48.1875 50.953125 41.515625 
Q 57.328125 34.859375 57.328125 23.390625 
Q 57.328125 12.15625 50.6875 5.359375 
Q 44.046875 -1.421875 33.015625 -1.421875 
Q 20.359375 -1.421875 13.671875 8.265625 
Q 6.984375 17.96875 6.984375 36.375 
Q 6.984375 53.65625 15.1875 63.9375 
Q 23.390625 74.21875 37.203125 74.21875 
Q 40.921875 74.21875 44.703125 73.484375 
Q 48.484375 72.75 52.59375 71.296875 
z
" id="DejaVuSans-36"/>
      </defs>
      <g transform="translate(262.828523 312.557344)scale(0.17 -0.17)">
       <use xlink:href="#DejaVuSans-36"/>
       <use x="63.623047" xlink:href="#DejaVuSans-30"/>
      </g>
     </g>
    </g>
    <g id="xtick_5">
     <g id="line2d_5">
      <g>
       <use style="stroke:#000000;stroke-width:0.8;" x="334.309318" xlink:href="#made4d9e7d5" y="292.64"/>
      </g>
     </g>
     <g id="text_5">
      <!-- 80 -->
      <defs>
       <path d="M 31.78125 34.625 
Q 24.75 34.625 20.71875 30.859375 
Q 16.703125 27.09375 16.703125 20.515625 
Q 16.703125 13.921875 20.71875 10.15625 
Q 24.75 6.390625 31.78125 6.390625 
Q 38.8125 6.390625 42.859375 10.171875 
Q 46.921875 13.96875 46.921875 20.515625 
Q 46.921875 27.09375 42.890625 30.859375 
Q 38.875 34.625 31.78125 34.625 
z
M 21.921875 38.8125 
Q 15.578125 40.375 12.03125 44.71875 
Q 8.5 49.078125 8.5 55.328125 
Q 8.5 64.0625 14.71875 69.140625 
Q 20.953125 74.21875 31.78125 74.21875 
Q 42.671875 74.21875 48.875 69.140625 
Q 55.078125 64.0625 55.078125 55.328125 
Q 55.078125 49.078125 51.53125 44.71875 
Q 48 40.375 41.703125 38.8125 
Q 48.828125 37.15625 52.796875 32.3125 
Q 56.78125 27.484375 56.78125 20.515625 
Q 56.78125 9.90625 50.3125 4.234375 
Q 43.84375 -1.421875 31.78125 -1.421875 
Q 19.734375 -1.421875 13.25 4.234375 
Q 6.78125 9.90625 6.78125 20.515625 
Q 6.78125 27.484375 10.78125 32.3125 
Q 14.796875 37.15625 21.921875 38.8125 
z
M 18.3125 54.390625 
Q 18.3125 48.734375 21.84375 45.5625 
Q 25.390625 42.390625 31.78125 42.390625 
Q 38.140625 42.390625 41.71875 45.5625 
Q 45.3125 48.734375 45.3125 54.390625 
Q 45.3125 60.0625 41.71875 63.234375 
Q 38.140625 66.40625 31.78125 66.40625 
Q 25.390625 66.40625 21.84375 63.234375 
Q 18.3125 60.0625 18.3125 54.390625 
z
" id="DejaVuSans-38"/>
      </defs>
      <g transform="translate(323.493068 312.557344)scale(0.17 -0.17)">
       <use xlink:href="#DejaVuSans-38"/>
       <use x="63.623047" xlink:href="#DejaVuSans-30"/>
      </g>
     </g>
    </g>
    <g id="xtick_6">
     <g id="line2d_6">
      <g>
       <use style="stroke:#000000;stroke-width:0.8;" x="394.973864" xlink:href="#made4d9e7d5" y="292.64"/>
      </g>
     </g>
     <g id="text_6">
      <!-- 100 -->
      <defs>
       <path d="M 12.40625 8.296875 
L 28.515625 8.296875 
L 28.515625 63.921875 
L 10.984375 60.40625 
L 10.984375 69.390625 
L 28.421875 72.90625 
L 38.28125 72.90625 
L 38.28125 8.296875 
L 54.390625 8.296875 
L 54.390625 0 
L 12.40625 0 
z
" id="DejaVuSans-31"/>
      </defs>
      <g transform="translate(378.749489 312.557344)scale(0.17 -0.17)">
       <use xlink:href="#DejaVuSans-31"/>
       <use x="63.623047" xlink:href="#DejaVuSans-30"/>
       <use x="127.246094" xlink:href="#DejaVuSans-30"/>
      </g>
     </g>
    </g>
    <g id="text_7">
     <!-- Score -->
     <defs>
      <path d="M 53.515625 70.515625 
L 53.515625 60.890625 
Q 47.90625 63.578125 42.921875 64.890625 
Q 37.9375 66.21875 33.296875 66.21875 
Q 25.25 66.21875 20.875 63.09375 
Q 16.5 59.96875 16.5 54.203125 
Q 16.5 49.359375 19.40625 46.890625 
Q 22.3125 44.4375 30.421875 42.921875 
L 36.375 41.703125 
Q 47.40625 39.59375 52.65625 34.296875 
Q 57.90625 29 57.90625 20.125 
Q 57.90625 9.515625 50.796875 4.046875 
Q 43.703125 -1.421875 29.984375 -1.421875 
Q 24.8125 -1.421875 18.96875 -0.25 
Q 13.140625 0.921875 6.890625 3.21875 
L 6.890625 13.375 
Q 12.890625 10.015625 18.65625 8.296875 
Q 24.421875 6.59375 29.984375 6.59375 
Q 38.421875 6.59375 43.015625 9.90625 
Q 47.609375 13.234375 47.609375 19.390625 
Q 47.609375 24.75 44.3125 27.78125 
Q 41.015625 30.8125 33.5 32.328125 
L 27.484375 33.5 
Q 16.453125 35.6875 11.515625 40.375 
Q 6.59375 45.0625 6.59375 53.421875 
Q 6.59375 63.09375 13.40625 68.65625 
Q 20.21875 74.21875 32.171875 74.21875 
Q 37.3125 74.21875 42.625 73.28125 
Q 47.953125 72.359375 53.515625 70.515625 
z
" id="DejaVuSans-53"/>
      <path d="M 48.78125 52.59375 
L 48.78125 44.1875 
Q 44.96875 46.296875 41.140625 47.34375 
Q 37.3125 48.390625 33.40625 48.390625 
Q 24.65625 48.390625 19.8125 42.84375 
Q 14.984375 37.3125 14.984375 27.296875 
Q 14.984375 17.28125 19.8125 11.734375 
Q 24.65625 6.203125 33.40625 6.203125 
Q 37.3125 6.203125 41.140625 7.25 
Q 44.96875 8.296875 48.78125 10.40625 
L 48.78125 2.09375 
Q 45.015625 0.34375 40.984375 -0.53125 
Q 36.96875 -1.421875 32.421875 -1.421875 
Q 20.0625 -1.421875 12.78125 6.34375 
Q 5.515625 14.109375 5.515625 27.296875 
Q 5.515625 40.671875 12.859375 48.328125 
Q 20.21875 56 33.015625 56 
Q 37.15625 56 41.109375 55.140625 
Q 45.0625 54.296875 48.78125 52.59375 
z
" id="DejaVuSans-63"/>
      <path d="M 30.609375 48.390625 
Q 23.390625 48.390625 19.1875 42.75 
Q 14.984375 37.109375 14.984375 27.296875 
Q 14.984375 17.484375 19.15625 11.84375 
Q 23.34375 6.203125 30.609375 6.203125 
Q 37.796875 6.203125 41.984375 11.859375 
Q 46.1875 17.53125 46.1875 27.296875 
Q 46.1875 37.015625 41.984375 42.703125 
Q 37.796875 48.390625 30.609375 48.390625 
z
M 30.609375 56 
Q 42.328125 56 49.015625 48.375 
Q 55.71875 40.765625 55.71875 27.296875 
Q 55.71875 13.875 49.015625 6.21875 
Q 42.328125 -1.421875 30.609375 -1.421875 
Q 18.84375 -1.421875 12.171875 6.21875 
Q 5.515625 13.875 5.515625 27.296875 
Q 5.515625 40.765625 12.171875 48.375 
Q 18.84375 56 30.609375 56 
z
" id="DejaVuSans-6f"/>
      <path d="M 41.109375 46.296875 
Q 39.59375 47.171875 37.8125 47.578125 
Q 36.03125 48 33.890625 48 
Q 26.265625 48 22.1875 43.046875 
Q 18.109375 38.09375 18.109375 28.8125 
L 18.109375 0 
L 9.078125 0 
L 9.078125 54.6875 
L 18.109375 54.6875 
L 18.109375 46.1875 
Q 20.953125 51.171875 25.484375 53.578125 
Q 30.03125 56 36.53125 56 
Q 37.453125 56 38.578125 55.875 
Q 39.703125 55.765625 41.0625 55.515625 
z
" id="DejaVuSans-72"/>
      <path d="M 56.203125 29.59375 
L 56.203125 25.203125 
L 14.890625 25.203125 
Q 15.484375 15.921875 20.484375 11.0625 
Q 25.484375 6.203125 34.421875 6.203125 
Q 39.59375 6.203125 44.453125 7.46875 
Q 49.3125 8.734375 54.109375 11.28125 
L 54.109375 2.78125 
Q 49.265625 0.734375 44.1875 -0.34375 
Q 39.109375 -1.421875 33.890625 -1.421875 
Q 20.796875 -1.421875 13.15625 6.1875 
Q 5.515625 13.8125 5.515625 26.8125 
Q 5.515625 40.234375 12.765625 48.109375 
Q 20.015625 56 32.328125 56 
Q 43.359375 56 49.78125 48.890625 
Q 56.203125 41.796875 56.203125 29.59375 
z
M 47.21875 32.234375 
Q 47.125 39.59375 43.09375 43.984375 
Q 39.0625 48.390625 32.421875 48.390625 
Q 24.90625 48.390625 20.390625 44.140625 
Q 15.875 39.890625 15.1875 32.171875 
z
" id="DejaVuSans-65"/>
     </defs>
     <g transform="translate(214.521406 335.593625)scale(0.204 -0.204)">
      <use xlink:href="#DejaVuSans-53"/>
      <use x="63.476562" xlink:href="#DejaVuSans-63"/>
      <use x="118.457031" xlink:href="#DejaVuSans-6f"/>
      <use x="179.638672" xlink:href="#DejaVuSans-72"/>
      <use x="220.720703" xlink:href="#DejaVuSans-65"/>
     </g>
    </g>
   </g>
   <g id="matplotlib.axis_2">
    <g id="ytick_1">
     <g id="line2d_7">
      <defs>
       <path d="M 0 0 
L -3.5 0 
" id="m9b3b86891b" style="stroke:#000000;stroke-width:0.8;"/>
      </defs>
      <g>
       <use style="stroke:#000000;stroke-width:0.8;" x="76.485" xlink:href="#m9b3b86891b" y="281.172727"/>
      </g>
     </g>
     <g id="text_8">
      <!-- 0.0 -->
      <defs>
       <path d="M 10.6875 12.40625 
L 21 12.40625 
L 21 0 
L 10.6875 0 
z
" id="DejaVuSans-2e"/>
      </defs>
      <g transform="translate(42.449688 287.631399)scale(0.17 -0.17)">
       <use xlink:href="#DejaVuSans-30"/>
       <use x="63.623047" xlink:href="#DejaVuSans-2e"/>
       <use x="95.410156" xlink:href="#DejaVuSans-30"/>
      </g>
     </g>
    </g>
    <g id="ytick_2">
     <g id="line2d_8">
      <g>
       <use style="stroke:#000000;stroke-width:0.8;" x="76.485" xlink:href="#m9b3b86891b" y="235.303636"/>
      </g>
     </g>
     <g id="text_9">
      <!-- 0.2 -->
      <g transform="translate(42.449688 241.762308)scale(0.17 -0.17)">
       <use xlink:href="#DejaVuSans-30"/>
       <use x="63.623047" xlink:href="#DejaVuSans-2e"/>
       <use x="95.410156" xlink:href="#DejaVuSans-32"/>
      </g>
     </g>
    </g>
    <g id="ytick_3">
     <g id="line2d_9">
      <g>
       <use style="stroke:#000000;stroke-width:0.8;" x="76.485" xlink:href="#m9b3b86891b" y="189.434545"/>
      </g>
     </g>
     <g id="text_10">
      <!-- 0.4 -->
      <g transform="translate(42.449688 195.893217)scale(0.17 -0.17)">
       <use xlink:href="#DejaVuSans-30"/>
       <use x="63.623047" xlink:href="#DejaVuSans-2e"/>
       <use x="95.410156" xlink:href="#DejaVuSans-34"/>
      </g>
     </g>
    </g>
    <g id="ytick_4">
     <g id="line2d_10">
      <g>
       <use style="stroke:#000000;stroke-width:0.8;" x="76.485" xlink:href="#m9b3b86891b" y="143.565455"/>
      </g>
     </g>
     <g id="text_11">
      <!-- 0.6 -->
      <g transform="translate(42.449688 150.024126)scale(0.17 -0.17)">
       <use xlink:href="#DejaVuSans-30"/>
       <use x="63.623047" xlink:href="#DejaVuSans-2e"/>
       <use x="95.410156" xlink:href="#DejaVuSans-36"/>
      </g>
     </g>
    </g>
    <g id="ytick_5">
     <g id="line2d_11">
      <g>
       <use style="stroke:#000000;stroke-width:0.8;" x="76.485" xlink:href="#m9b3b86891b" y="97.696364"/>
      </g>
     </g>
     <g id="text_12">
      <!-- 0.8 -->
      <g transform="translate(42.449688 104.155036)scale(0.17 -0.17)">
       <use xlink:href="#DejaVuSans-30"/>
       <use x="63.623047" xlink:href="#DejaVuSans-2e"/>
       <use x="95.410156" xlink:href="#DejaVuSans-38"/>
      </g>
     </g>
    </g>
    <g id="ytick_6">
     <g id="line2d_12">
      <g>
       <use style="stroke:#000000;stroke-width:0.8;" x="76.485" xlink:href="#m9b3b86891b" y="51.827273"/>
      </g>
     </g>
     <g id="text_13">
      <!-- 1.0 -->
      <g transform="translate(42.449688 58.285945)scale(0.17 -0.17)">
       <use xlink:href="#DejaVuSans-31"/>
       <use x="63.623047" xlink:href="#DejaVuSans-2e"/>
       <use x="95.410156" xlink:href="#DejaVuSans-30"/>
      </g>
     </g>
    </g>
    <g id="text_14">
     <!-- Cumulative proportion -->
     <defs>
      <path d="M 64.40625 67.28125 
L 64.40625 56.890625 
Q 59.421875 61.53125 53.78125 63.8125 
Q 48.140625 66.109375 41.796875 66.109375 
Q 29.296875 66.109375 22.65625 58.46875 
Q 16.015625 50.828125 16.015625 36.375 
Q 16.015625 21.96875 22.65625 14.328125 
Q 29.296875 6.6875 41.796875 6.6875 
Q 48.140625 6.6875 53.78125 8.984375 
Q 59.421875 11.28125 64.40625 15.921875 
L 64.40625 5.609375 
Q 59.234375 2.09375 53.4375 0.328125 
Q 47.65625 -1.421875 41.21875 -1.421875 
Q 24.65625 -1.421875 15.125 8.703125 
Q 5.609375 18.84375 5.609375 36.375 
Q 5.609375 53.953125 15.125 64.078125 
Q 24.65625 74.21875 41.21875 74.21875 
Q 47.75 74.21875 53.53125 72.484375 
Q 59.328125 70.75 64.40625 67.28125 
z
" id="DejaVuSans-43"/>
      <path d="M 8.5 21.578125 
L 8.5 54.6875 
L 17.484375 54.6875 
L 17.484375 21.921875 
Q 17.484375 14.15625 20.5 10.265625 
Q 23.53125 6.390625 29.59375 6.390625 
Q 36.859375 6.390625 41.078125 11.03125 
Q 45.3125 15.671875 45.3125 23.6875 
L 45.3125 54.6875 
L 54.296875 54.6875 
L 54.296875 0 
L 45.3125 0 
L 45.3125 8.40625 
Q 42.046875 3.421875 37.71875 1 
Q 33.40625 -1.421875 27.6875 -1.421875 
Q 18.265625 -1.421875 13.375 4.4375 
Q 8.5 10.296875 8.5 21.578125 
z
M 31.109375 56 
z
" id="DejaVuSans-75"/>
      <path d="M 52 44.1875 
Q 55.375 50.25 60.0625 53.125 
Q 64.75 56 71.09375 56 
Q 79.640625 56 84.28125 50.015625 
Q 88.921875 44.046875 88.921875 33.015625 
L 88.921875 0 
L 79.890625 0 
L 79.890625 32.71875 
Q 79.890625 40.578125 77.09375 44.375 
Q 74.3125 48.1875 68.609375 48.1875 
Q 61.625 48.1875 57.5625 43.546875 
Q 53.515625 38.921875 53.515625 30.90625 
L 53.515625 0 
L 44.484375 0 
L 44.484375 32.71875 
Q 44.484375 40.625 41.703125 44.40625 
Q 38.921875 48.1875 33.109375 48.1875 
Q 26.21875 48.1875 22.15625 43.53125 
Q 18.109375 38.875 18.109375 30.90625 
L 18.109375 0 
L 9.078125 0 
L 9.078125 54.6875 
L 18.109375 54.6875 
L 18.109375 46.1875 
Q 21.1875 51.21875 25.484375 53.609375 
Q 29.78125 56 35.6875 56 
Q 41.65625 56 45.828125 52.96875 
Q 50 49.953125 52 44.1875 
z
" id="DejaVuSans-6d"/>
      <path d="M 9.421875 75.984375 
L 18.40625 75.984375 
L 18.40625 0 
L 9.421875 0 
z
" id="DejaVuSans-6c"/>
      <path d="M 34.28125 27.484375 
Q 23.390625 27.484375 19.1875 25 
Q 14.984375 22.515625 14.984375 16.5 
Q 14.984375 11.71875 18.140625 8.90625 
Q 21.296875 6.109375 26.703125 6.109375 
Q 34.1875 6.109375 38.703125 11.40625 
Q 43.21875 16.703125 43.21875 25.484375 
L 43.21875 27.484375 
z
M 52.203125 31.203125 
L 52.203125 0 
L 43.21875 0 
L 43.21875 8.296875 
Q 40.140625 3.328125 35.546875 0.953125 
Q 30.953125 -1.421875 24.3125 -1.421875 
Q 15.921875 -1.421875 10.953125 3.296875 
Q 6 8.015625 6 15.921875 
Q 6 25.140625 12.171875 29.828125 
Q 18.359375 34.515625 30.609375 34.515625 
L 43.21875 34.515625 
L 43.21875 35.40625 
Q 43.21875 41.609375 39.140625 45 
Q 35.0625 48.390625 27.6875 48.390625 
Q 23 48.390625 18.546875 47.265625 
Q 14.109375 46.140625 10.015625 43.890625 
L 10.015625 52.203125 
Q 14.9375 54.109375 19.578125 55.046875 
Q 24.21875 56 28.609375 56 
Q 40.484375 56 46.34375 49.84375 
Q 52.203125 43.703125 52.203125 31.203125 
z
" id="DejaVuSans-61"/>
      <path d="M 18.3125 70.21875 
L 18.3125 54.6875 
L 36.8125 54.6875 
L 36.8125 47.703125 
L 18.3125 47.703125 
L 18.3125 18.015625 
Q 18.3125 11.328125 20.140625 9.421875 
Q 21.96875 7.515625 27.59375 7.515625 
L 36.8125 7.515625 
L 36.8125 0 
L 27.59375 0 
Q 17.1875 0 13.234375 3.875 
Q 9.28125 7.765625 9.28125 18.015625 
L 9.28125 47.703125 
L 2.6875 47.703125 
L 2.6875 54.6875 
L 9.28125 54.6875 
L 9.28125 70.21875 
z
" id="DejaVuSans-74"/>
      <path d="M 9.421875 54.6875 
L 18.40625 54.6875 
L 18.40625 0 
L 9.421875 0 
z
M 9.421875 75.984375 
L 18.40625 75.984375 
L 18.40625 64.59375 
L 9.421875 64.59375 
z
" id="DejaVuSans-69"/>
      <path d="M 2.984375 54.6875 
L 12.5 54.6875 
L 29.59375 8.796875 
L 46.6875 54.6875 
L 56.203125 54.6875 
L 35.6875 0 
L 23.484375 0 
z
" id="DejaVuSans-76"/>
      <path id="DejaVuSans-20"/>
      <path d="M 18.109375 8.203125 
L 18.109375 -20.796875 
L 9.078125 -20.796875 
L 9.078125 54.6875 
L 18.109375 54.6875 
L 18.109375 46.390625 
Q 20.953125 51.265625 25.265625 53.625 
Q 29.59375 56 35.59375 56 
Q 45.5625 56 51.78125 48.09375 
Q 58.015625 40.1875 58.015625 27.296875 
Q 58.015625 14.40625 51.78125 6.484375 
Q 45.5625 -1.421875 35.59375 -1.421875 
Q 29.59375 -1.421875 25.265625 0.953125 
Q 20.953125 3.328125 18.109375 8.203125 
z
M 48.6875 27.296875 
Q 48.6875 37.203125 44.609375 42.84375 
Q 40.53125 48.484375 33.40625 48.484375 
Q 26.265625 48.484375 22.1875 42.84375 
Q 18.109375 37.203125 18.109375 27.296875 
Q 18.109375 17.390625 22.1875 11.75 
Q 26.265625 6.109375 33.40625 6.109375 
Q 40.53125 6.109375 44.609375 11.75 
Q 48.6875 17.390625 48.6875 27.296875 
z
" id="DejaVuSans-70"/>
      <path d="M 54.890625 33.015625 
L 54.890625 0 
L 45.90625 0 
L 45.90625 32.71875 
Q 45.90625 40.484375 42.875 44.328125 
Q 39.84375 48.1875 33.796875 48.1875 
Q 26.515625 48.1875 22.3125 43.546875 
Q 18.109375 38.921875 18.109375 30.90625 
L 18.109375 0 
L 9.078125 0 
L 9.078125 54.6875 
L 18.109375 54.6875 
L 18.109375 46.1875 
Q 21.34375 51.125 25.703125 53.5625 
Q 30.078125 56 35.796875 56 
Q 45.21875 56 50.046875 50.171875 
Q 54.890625 44.34375 54.890625 33.015625 
z
" id="DejaVuSans-6e"/>
     </defs>
     <g transform="translate(34.207125 281.312156)rotate(-90)scale(0.204 -0.204)">
      <use xlink:href="#DejaVuSans-43"/>
      <use x="69.824219" xlink:href="#DejaVuSans-75"/>
      <use x="133.203125" xlink:href="#DejaVuSans-6d"/>
      <use x="230.615234" xlink:href="#DejaVuSans-75"/>
      <use x="293.994141" xlink:href="#DejaVuSans-6c"/>
      <use x="321.777344" xlink:href="#DejaVuSans-61"/>
      <use x="383.056641" xlink:href="#DejaVuSans-74"/>
      <use x="422.265625" xlink:href="#DejaVuSans-69"/>
      <use x="450.048828" xlink:href="#DejaVuSans-76"/>
      <use x="509.228516" xlink:href="#DejaVuSans-65"/>
      <use x="570.751953" xlink:href="#DejaVuSans-20"/>
      <use x="602.539062" xlink:href="#DejaVuSans-70"/>
      <use x="666.015625" xlink:href="#DejaVuSans-72"/>
      <use x="707.097656" xlink:href="#DejaVuSans-6f"/>
      <use x="768.279297" xlink:href="#DejaVuSans-70"/>
      <use x="831.755859" xlink:href="#DejaVuSans-6f"/>
      <use x="892.9375" xlink:href="#DejaVuSans-72"/>
      <use x="934.050781" xlink:href="#DejaVuSans-74"/>
      <use x="973.259766" xlink:href="#DejaVuSans-69"/>
      <use x="1001.042969" xlink:href="#DejaVuSans-6f"/>
      <use x="1062.224609" xlink:href="#DejaVuSans-6e"/>
     </g>
    </g>
   </g>
   <g id="line2d_13">
    <path clip-path="url(#pd990133f84)" d="M 91.651136 281.172727 
L 93.16775 280.874578 
L 94.684364 279.154487 
L 96.200977 278.718731 
L 97.717591 278.145367 
L 99.234205 277.709611 
L 103.784045 275.48496 
L 105.300659 275.255615 
L 106.817273 274.063018 
L 109.8505 272.228255 
L 111.367114 271.815433 
L 115.916955 269.659585 
L 117.433568 269.384371 
L 118.950182 268.833942 
L 120.466795 268.489924 
L 121.983409 268.008298 
L 123.500023 267.778953 
L 125.016636 266.838636 
L 126.53325 266.357011 
L 128.049864 265.233218 
L 132.599705 262.893895 
L 134.116318 261.907709 
L 135.632932 261.265542 
L 138.666159 259.499582 
L 143.216 257.504276 
L 144.732614 257.022651 
L 146.249227 256.036465 
L 147.765841 255.692447 
L 149.282455 254.775065 
L 150.799068 254.109964 
L 152.315682 252.802695 
L 155.348909 251.311949 
L 156.865523 250.807389 
L 158.382136 249.981745 
L 161.415364 248.628607 
L 162.931977 248.124047 
L 164.448591 246.885582 
L 165.965205 246.312218 
L 167.481818 245.601247 
L 168.998432 245.119622 
L 173.548273 241.954655 
L 175.064886 241.266618 
L 176.5815 240.119891 
L 178.098114 239.271313 
L 179.614727 237.757633 
L 181.131341 237.230138 
L 182.647955 235.922869 
L 184.164568 234.890815 
L 185.681182 233.010182 
L 188.714409 231.152484 
L 191.747636 228.606749 
L 193.26425 227.689367 
L 194.780864 226.244491 
L 196.297477 225.350044 
L 197.814091 223.538215 
L 199.330705 222.735505 
L 200.847318 221.175956 
L 202.363932 220.396182 
L 203.880545 218.355007 
L 205.397159 217.666971 
L 206.913773 215.717535 
L 208.430386 215.098302 
L 209.947 213.148865 
L 211.463614 212.66724 
L 214.496841 210.419655 
L 216.013455 208.837171 
L 217.530068 208.103265 
L 219.046682 206.589585 
L 220.563295 205.6034 
L 223.596523 203.011796 
L 225.113136 201.245836 
L 229.662977 197.02588 
L 231.179591 195.489265 
L 232.696205 194.204931 
L 234.212818 192.186691 
L 235.729432 190.97116 
L 237.246045 189.113462 
L 238.762659 188.104342 
L 241.795886 185.650345 
L 243.3125 183.976124 
L 244.829114 183.058742 
L 246.345727 181.109305 
L 247.862341 179.985513 
L 249.378955 177.990207 
L 250.895568 176.522396 
L 255.445409 170.582349 
L 256.962023 169.366818 
L 258.478636 167.073364 
L 259.99525 166.133047 
L 261.511864 164.504695 
L 263.028477 163.151556 
L 264.545091 161.20212 
L 266.061705 160.055393 
L 267.578318 158.518778 
L 269.094932 157.211509 
L 270.611545 155.285007 
L 272.128159 154.000673 
L 273.644773 151.821891 
L 276.678 149.482567 
L 279.711227 146.546945 
L 281.227841 144.345229 
L 282.744455 142.923287 
L 285.777682 139.299629 
L 287.294295 138.473985 
L 288.810909 136.639222 
L 290.327523 135.584233 
L 293.36075 132.625676 
L 294.877364 131.983509 
L 296.393977 129.644185 
L 297.910591 129.047887 
L 299.427205 128.199309 
L 300.943818 126.364545 
L 303.977045 124.025222 
L 308.526886 121.364815 
L 310.0435 119.300705 
L 313.076727 116.663233 
L 314.593341 116.021065 
L 316.109955 114.920207 
L 317.626568 113.291855 
L 320.659795 110.723185 
L 322.176409 109.782869 
L 323.693023 108.590273 
L 325.209636 105.012484 
L 328.242864 102.994244 
L 329.759477 102.145665 
L 332.792705 99.921015 
L 335.825932 97.489953 
L 337.342545 95.311171 
L 344.925614 89.600469 
L 346.442227 87.857444 
L 349.475455 86.27496 
L 350.992068 84.600738 
L 352.508682 83.75216 
L 354.025295 82.284349 
L 355.541909 81.596313 
L 357.058523 80.105567 
L 358.575136 79.302858 
L 360.09175 77.812113 
L 361.608364 76.825927 
L 363.124977 75.17464 
L 369.191432 71.849131 
L 370.708045 70.725338 
L 373.741273 68.890575 
L 375.257886 67.445698 
L 376.7745 66.298971 
L 378.291114 64.372469 
L 379.807727 62.835855 
L 381.324341 62.239556 
L 382.840955 60.358924 
L 384.357568 59.854364 
L 385.874182 58.432422 
L 387.390795 56.574724 
L 388.907409 54.258335 
L 390.424023 52.72172 
L 391.940636 52.079553 
L 394.973864 51.827273 
L 394.973864 51.827273 
" style="fill:none;stroke:#0000ff;stroke-linecap:square;stroke-width:3;"/>
   </g>
   <g id="line2d_14">
    <path clip-path="url(#pd990133f84)" d="M 91.651136 281.012185 
L 93.16775 278.443516 
L 94.684364 268.948615 
L 96.200977 266.334076 
L 99.234205 259.912404 
L 100.750818 255.486036 
L 102.267432 251.77064 
L 103.784045 247.73416 
L 105.300659 246.403956 
L 106.817273 240.532713 
L 108.333886 235.739393 
L 109.8505 231.358895 
L 111.367114 228.583815 
L 112.883727 224.547335 
L 114.400341 222.666702 
L 115.916955 219.364127 
L 117.433568 217.988055 
L 118.950182 215.602862 
L 120.466795 213.791033 
L 121.983409 211.337036 
L 123.500023 209.708684 
L 126.53325 204.731887 
L 128.049864 200.649538 
L 129.566477 198.447822 
L 131.083091 195.856218 
L 132.599705 193.539829 
L 134.116318 189.916171 
L 135.632932 187.714455 
L 137.149545 184.687095 
L 138.666159 182.760593 
L 140.182773 180.168989 
L 141.699386 178.242487 
L 143.216 176.063705 
L 149.282455 169.343884 
L 150.799068 168.128353 
L 152.315682 159.504964 
L 153.832295 157.234444 
L 155.348909 154.482298 
L 156.865523 152.968618 
L 158.382136 150.996247 
L 159.89875 149.59724 
L 161.415364 147.693673 
L 162.931977 146.179993 
L 164.448591 143.565455 
L 165.965205 142.143513 
L 167.481818 140.239945 
L 168.998432 138.795069 
L 170.515045 136.845633 
L 172.031659 135.446625 
L 173.548273 133.497189 
L 175.064886 132.098182 
L 176.5815 130.148745 
L 178.098114 128.864411 
L 179.614727 126.869105 
L 181.131341 126.020527 
L 182.647955 124.36924 
L 184.164568 123.268382 
L 185.681182 121.571225 
L 187.197795 120.676778 
L 188.714409 119.254836 
L 190.231023 118.199847 
L 194.780864 114.507385 
L 196.297477 113.406527 
L 197.814091 111.571764 
L 199.330705 110.9984 
L 200.847318 109.553524 
L 202.363932 108.911356 
L 203.880545 107.168331 
L 205.397159 106.503229 
L 206.913773 104.851942 
L 208.430386 104.140971 
L 209.947 102.92544 
L 211.463614 102.397945 
L 212.980227 101.549367 
L 214.496841 100.563182 
L 216.013455 99.347651 
L 217.530068 98.866025 
L 219.046682 97.558756 
L 220.563295 96.710178 
L 222.079909 95.517582 
L 223.596523 94.898349 
L 225.113136 93.659884 
L 229.662977 91.160018 
L 231.179591 90.288505 
L 232.696205 89.852749 
L 234.212818 88.820695 
L 235.729432 88.339069 
L 237.246045 87.467556 
L 238.762659 87.008865 
L 241.795886 85.7704 
L 243.3125 84.944756 
L 244.829114 84.509 
L 246.345727 83.820964 
L 249.378955 82.880647 
L 250.895568 82.353153 
L 255.445409 80.357847 
L 256.962023 80.036764 
L 258.478636 79.21112 
L 264.545091 77.19288 
L 266.061705 76.9406 
L 272.128159 75.105836 
L 273.644773 74.394865 
L 275.161386 74.119651 
L 279.711227 72.789447 
L 285.777682 70.977618 
L 290.327523 70.106105 
L 291.844136 69.762087 
L 294.877364 69.349265 
L 296.393977 68.752967 
L 299.427205 68.36308 
L 300.943818 67.973193 
L 303.977045 67.445698 
L 305.493659 67.10168 
L 308.526886 66.642989 
L 310.0435 66.253102 
L 313.076727 65.633869 
L 314.593341 65.450393 
L 316.109955 65.129309 
L 320.659795 63.936713 
L 322.176409 63.707367 
L 323.693023 63.340415 
L 325.209636 62.698247 
L 334.309318 61.230436 
L 337.342545 60.313055 
L 341.892386 59.625018 
L 344.925614 59.051655 
L 346.442227 58.707636 
L 349.475455 58.226011 
L 350.992068 57.744385 
L 355.541909 57.033415 
L 357.058523 56.666462 
L 358.575136 56.574724 
L 360.09175 56.299509 
L 361.608364 56.161902 
L 363.124977 55.863753 
L 366.158205 55.611473 
L 369.191432 55.405062 
L 370.708045 55.106913 
L 375.257886 54.464745 
L 379.807727 53.639102 
L 381.324341 53.547364 
L 382.840955 53.249215 
L 384.357568 53.157476 
L 385.874182 52.951065 
L 387.390795 52.629982 
L 388.907409 52.079553 
L 391.940636 51.850207 
L 394.973864 51.827273 
L 394.973864 51.827273 
" style="fill:none;stroke:#008000;stroke-dasharray:11.1,4.8;stroke-dashoffset:0;stroke-width:3;"/>
   </g>
   <g id="line2d_15">
    <path clip-path="url(#pd990133f84)" d="M 91.651136 281.149793 
L 93.16775 280.094804 
L 94.684364 276.081258 
L 96.200977 274.888662 
L 97.717591 273.168571 
L 99.234205 271.907171 
L 100.750818 269.659585 
L 102.267432 267.939495 
L 103.784045 266.035927 
L 105.300659 265.302022 
L 106.817273 262.320531 
L 108.333886 259.820665 
L 109.8505 257.82536 
L 111.367114 256.403418 
L 112.883727 253.78888 
L 114.400341 252.77976 
L 115.916955 250.944996 
L 117.433568 249.981745 
L 118.950182 248.857953 
L 121.983409 246.312218 
L 123.500023 245.188425 
L 125.016636 243.605942 
L 126.53325 242.367476 
L 128.049864 239.821742 
L 129.566477 238.560342 
L 131.083091 236.771447 
L 132.599705 235.418309 
L 134.116318 232.780836 
L 135.632932 231.267156 
L 137.149545 229.294785 
L 138.666159 227.941647 
L 140.182773 226.083949 
L 141.699386 224.547335 
L 143.216 222.712571 
L 144.732614 221.611713 
L 146.249227 220.120967 
L 147.765841 219.020109 
L 149.282455 217.46056 
L 150.799068 216.474375 
L 152.315682 211.65812 
L 153.832295 210.236178 
L 155.348909 208.011527 
L 156.865523 207.071211 
L 158.382136 205.465793 
L 159.89875 204.227327 
L 161.415364 202.644844 
L 162.931977 200.764211 
L 164.448591 198.172607 
L 165.965205 196.7736 
L 167.481818 194.75536 
L 168.998432 193.631567 
L 170.515045 191.842673 
L 172.031659 190.237255 
L 173.548273 188.058473 
L 175.064886 186.498924 
L 176.5815 184.366011 
L 178.098114 182.714724 
L 179.614727 180.237793 
L 181.131341 179.022262 
L 182.647955 177.233367 
L 184.164568 176.270116 
L 185.681182 174.091335 
L 187.197795 172.829935 
L 188.714409 170.972236 
L 190.231023 169.389753 
L 193.26425 166.591738 
L 196.297477 163.564378 
L 197.814091 161.4544 
L 199.330705 160.44528 
L 200.847318 158.312367 
L 202.363932 157.41792 
L 203.880545 154.940989 
L 205.397159 154.161215 
L 206.913773 151.844825 
L 208.430386 151.11092 
L 209.947 149.184418 
L 211.463614 148.542251 
L 212.980227 147.303785 
L 214.496841 146.340535 
L 216.013455 144.780985 
L 217.530068 143.955342 
L 219.046682 142.189382 
L 220.563295 141.134393 
L 222.079909 139.50604 
L 223.596523 138.542789 
L 225.113136 136.616287 
L 226.62975 135.354887 
L 228.146364 133.887076 
L 231.179591 131.249604 
L 232.696205 130.469829 
L 234.212818 128.726804 
L 235.729432 127.947029 
L 237.246045 126.364545 
L 238.762659 125.515967 
L 241.795886 123.428924 
L 243.3125 122.052851 
L 244.829114 121.364815 
L 246.345727 120.034611 
L 247.862341 119.117229 
L 249.378955 117.80996 
L 255.445409 113.085444 
L 256.962023 112.374473 
L 258.478636 110.9984 
L 259.99525 110.149822 
L 261.511864 108.842553 
L 263.028477 107.948105 
L 264.545091 106.572033 
L 266.061705 105.815193 
L 267.578318 104.530858 
L 269.094932 103.659345 
L 270.611545 102.558487 
L 272.128159 101.732844 
L 273.644773 100.471444 
L 275.161386 99.760473 
L 284.261068 94.623135 
L 285.777682 93.568145 
L 287.294295 93.017716 
L 288.810909 92.031531 
L 290.327523 91.618709 
L 291.844136 90.724262 
L 293.36075 89.990356 
L 294.877364 89.531665 
L 296.393977 88.362004 
L 299.427205 87.490491 
L 300.943818 86.481371 
L 307.010273 84.073244 
L 308.526886 83.591618 
L 310.0435 82.582498 
L 316.109955 80.7248 
L 319.143182 78.867102 
L 323.693023 77.19288 
L 325.209636 75.6792 
L 328.242864 74.555407 
L 329.759477 74.16552 
L 335.825932 71.64272 
L 337.342545 70.656535 
L 341.892386 69.188724 
L 343.409 68.707098 
L 344.925614 68.087865 
L 346.442227 67.193418 
L 349.475455 66.298971 
L 350.992068 65.33572 
L 352.508682 64.945833 
L 354.025295 64.166058 
L 355.541909 63.890844 
L 357.058523 63.225742 
L 358.575136 62.858789 
L 360.09175 62.239556 
L 361.608364 61.964342 
L 363.124977 61.276305 
L 366.158205 60.450662 
L 367.674818 60.267185 
L 369.191432 59.946102 
L 370.708045 59.372738 
L 373.741273 58.638833 
L 375.257886 57.904927 
L 376.7745 57.400367 
L 378.291114 56.574724 
L 379.807727 55.932556 
L 381.324341 55.634407 
L 382.840955 54.946371 
L 384.357568 54.785829 
L 385.874182 54.304204 
L 387.390795 53.570298 
L 388.907409 52.607047 
L 390.424023 52.102487 
L 391.940636 51.873142 
L 394.973864 51.827273 
L 394.973864 51.827273 
" style="fill:none;stroke:#00bfbf;stroke-dasharray:19.2,4.8,3,4.8;stroke-dashoffset:0;stroke-width:3;"/>
   </g>
   <g id="line2d_16">
    <path clip-path="url(#pd990133f84)" d="M 91.651136 281.149793 
L 93.16775 280.576429 
L 94.684364 278.51232 
L 96.200977 277.893087 
L 97.717591 277.044509 
L 99.234205 276.379407 
L 102.267432 274.384102 
L 103.784045 273.397916 
L 105.300659 273.053898 
L 106.817273 271.563153 
L 109.8505 269.063287 
L 111.367114 268.42112 
L 112.883727 267.15972 
L 114.400341 266.632225 
L 115.916955 265.554302 
L 117.433568 265.072676 
L 118.950182 264.338771 
L 120.466795 263.742473 
L 121.983409 262.939764 
L 123.500023 262.3664 
L 125.016636 261.403149 
L 126.53325 260.669244 
L 128.049864 259.247302 
L 129.566477 258.421658 
L 131.083091 257.3208 
L 132.599705 256.495156 
L 134.116318 255.004411 
L 135.632932 254.224636 
L 137.149545 252.986171 
L 138.666159 252.252265 
L 140.182773 251.151407 
L 141.699386 250.371633 
L 143.216 249.431316 
L 144.732614 248.766215 
L 146.249227 247.780029 
L 147.765841 247.137862 
L 149.282455 246.22048 
L 150.799068 245.624182 
L 152.315682 243.238989 
L 153.832295 242.459215 
L 155.348909 241.335422 
L 156.865523 240.716189 
L 158.382136 239.730004 
L 159.89875 239.019033 
L 162.931977 237.298942 
L 164.448591 235.922869 
L 165.965205 235.097225 
L 167.481818 234.065171 
L 168.998432 233.377135 
L 172.031659 231.473567 
L 173.548273 230.097495 
L 175.064886 229.294785 
L 176.5815 227.987516 
L 178.098114 227.161873 
L 179.614727 225.487651 
L 181.131341 224.501465 
L 182.647955 223.285935 
L 184.164568 222.483225 
L 185.681182 221.038349 
L 187.197795 220.212705 
L 188.714409 219.088913 
L 190.231023 218.148596 
L 191.747636 216.956 
L 193.26425 216.038618 
L 196.297477 213.67636 
L 197.814091 212.002138 
L 199.330705 211.40584 
L 200.847318 209.685749 
L 202.363932 208.928909 
L 203.880545 207.162949 
L 205.397159 206.383175 
L 206.913773 204.663084 
L 208.430386 203.975047 
L 209.947 202.461367 
L 211.463614 201.910938 
L 212.980227 200.695407 
L 214.496841 199.80096 
L 216.013455 198.470756 
L 217.530068 197.851524 
L 219.046682 196.383713 
L 220.563295 195.5122 
L 222.079909 194.090258 
L 223.596523 193.195811 
L 226.62975 190.489535 
L 229.662977 188.150211 
L 231.179591 186.842942 
L 232.696205 185.994364 
L 234.212818 184.251338 
L 235.729432 183.494498 
L 237.246045 181.705604 
L 238.762659 180.788222 
L 241.795886 178.60944 
L 243.3125 177.210433 
L 244.829114 176.522396 
L 246.345727 175.238062 
L 247.862341 174.251876 
L 249.378955 172.921673 
L 250.895568 172.004291 
L 255.445409 168.128353 
L 256.962023 167.440316 
L 258.478636 165.926636 
L 259.99525 165.078058 
L 261.511864 163.72492 
L 263.028477 162.876342 
L 264.545091 161.477335 
L 266.061705 160.651691 
L 267.578318 159.229749 
L 269.094932 158.266498 
L 270.611545 156.844556 
L 272.128159 155.835436 
L 273.644773 154.298822 
L 275.161386 153.564916 
L 282.744455 147.624869 
L 285.777682 144.872724 
L 287.294295 144.230556 
L 288.810909 142.900353 
L 290.327523 142.051775 
L 291.844136 140.675702 
L 294.877364 139.184956 
L 296.393977 137.579538 
L 297.910591 137.052044 
L 299.427205 136.341073 
L 300.943818 134.71272 
L 305.493659 131.754164 
L 308.526886 130.217549 
L 310.0435 128.497458 
L 316.109955 124.690324 
L 319.143182 121.364815 
L 323.693023 118.016371 
L 325.209636 115.516505 
L 328.242864 113.154247 
L 329.759477 112.145127 
L 331.276091 110.677316 
L 332.792705 109.668196 
L 335.825932 106.984855 
L 337.342545 104.530858 
L 341.892386 101.15948 
L 343.409 99.943949 
L 344.925614 98.292662 
L 346.442227 96.343225 
L 349.475455 94.164444 
L 350.992068 91.939793 
L 352.508682 90.655458 
L 354.025295 89.095909 
L 355.541909 88.155593 
L 357.058523 86.297895 
L 358.575136 85.380513 
L 360.09175 83.522815 
L 361.608364 82.513695 
L 363.124977 80.380782 
L 366.158205 78.179065 
L 367.674818 77.491029 
L 369.191432 76.413105 
L 370.708045 74.807687 
L 373.741273 72.537167 
L 375.257886 70.587731 
L 376.7745 68.982313 
L 378.291114 66.321905 
L 379.807727 64.280731 
L 381.324341 63.478022 
L 382.840955 61.345109 
L 384.357568 60.748811 
L 385.874182 59.235131 
L 387.390795 57.125153 
L 388.907409 54.258335 
L 390.424023 52.698785 
L 391.940636 52.033684 
L 393.45725 51.873142 
L 394.973864 51.827273 
L 394.973864 51.827273 
" style="fill:none;stroke:#ff0000;stroke-dasharray:3,4.95;stroke-dashoffset:0;stroke-width:3;"/>
   </g>
   <g id="patch_3">
    <path d="M 76.485 292.64 
L 76.485 40.36 
" style="fill:none;stroke:#000000;stroke-linecap:square;stroke-linejoin:miter;stroke-width:0.8;"/>
   </g>
   <g id="patch_4">
    <path d="M 410.14 292.64 
L 410.14 40.36 
" style="fill:none;stroke:#000000;stroke-linecap:square;stroke-linejoin:miter;stroke-width:0.8;"/>
   </g>
   <g id="patch_5">
    <path d="M 76.485 292.64 
L 410.14 292.64 
" style="fill:none;stroke:#000000;stroke-linecap:square;stroke-linejoin:miter;stroke-width:0.8;"/>
   </g>
   <g id="patch_6">
    <path d="M 76.485 40.36 
L 410.14 40.36 
" style="fill:none;stroke:#000000;stroke-linecap:square;stroke-linejoin:miter;stroke-width:0.8;"/>
   </g>
   <g id="text_15">
    <!-- Cumulative distribution by group -->
    <defs>
     <path d="M 45.40625 46.390625 
L 45.40625 75.984375 
L 54.390625 75.984375 
L 54.390625 0 
L 45.40625 0 
L 45.40625 8.203125 
Q 42.578125 3.328125 38.25 0.953125 
Q 33.9375 -1.421875 27.875 -1.421875 
Q 17.96875 -1.421875 11.734375 6.484375 
Q 5.515625 14.40625 5.515625 27.296875 
Q 5.515625 40.1875 11.734375 48.09375 
Q 17.96875 56 27.875 56 
Q 33.9375 56 38.25 53.625 
Q 42.578125 51.265625 45.40625 46.390625 
z
M 14.796875 27.296875 
Q 14.796875 17.390625 18.875 11.75 
Q 22.953125 6.109375 30.078125 6.109375 
Q 37.203125 6.109375 41.296875 11.75 
Q 45.40625 17.390625 45.40625 27.296875 
Q 45.40625 37.203125 41.296875 42.84375 
Q 37.203125 48.484375 30.078125 48.484375 
Q 22.953125 48.484375 18.875 42.84375 
Q 14.796875 37.203125 14.796875 27.296875 
z
" id="DejaVuSans-64"/>
     <path d="M 44.28125 53.078125 
L 44.28125 44.578125 
Q 40.484375 46.53125 36.375 47.5 
Q 32.28125 48.484375 27.875 48.484375 
Q 21.1875 48.484375 17.84375 46.4375 
Q 14.5 44.390625 14.5 40.28125 
Q 14.5 37.15625 16.890625 35.375 
Q 19.28125 33.59375 26.515625 31.984375 
L 29.59375 31.296875 
Q 39.15625 29.25 43.1875 25.515625 
Q 47.21875 21.78125 47.21875 15.09375 
Q 47.21875 7.46875 41.1875 3.015625 
Q 35.15625 -1.421875 24.609375 -1.421875 
Q 20.21875 -1.421875 15.453125 -0.5625 
Q 10.6875 0.296875 5.421875 2 
L 5.421875 11.28125 
Q 10.40625 8.6875 15.234375 7.390625 
Q 20.0625 6.109375 24.8125 6.109375 
Q 31.15625 6.109375 34.5625 8.28125 
Q 37.984375 10.453125 37.984375 14.40625 
Q 37.984375 18.0625 35.515625 20.015625 
Q 33.0625 21.96875 24.703125 23.78125 
L 21.578125 24.515625 
Q 13.234375 26.265625 9.515625 29.90625 
Q 5.8125 33.546875 5.8125 39.890625 
Q 5.8125 47.609375 11.28125 51.796875 
Q 16.75 56 26.8125 56 
Q 31.78125 56 36.171875 55.265625 
Q 40.578125 54.546875 44.28125 53.078125 
z
" id="DejaVuSans-73"/>
     <path d="M 48.6875 27.296875 
Q 48.6875 37.203125 44.609375 42.84375 
Q 40.53125 48.484375 33.40625 48.484375 
Q 26.265625 48.484375 22.1875 42.84375 
Q 18.109375 37.203125 18.109375 27.296875 
Q 18.109375 17.390625 22.1875 11.75 
Q 26.265625 6.109375 33.40625 6.109375 
Q 40.53125 6.109375 44.609375 11.75 
Q 48.6875 17.390625 48.6875 27.296875 
z
M 18.109375 46.390625 
Q 20.953125 51.265625 25.265625 53.625 
Q 29.59375 56 35.59375 56 
Q 45.5625 56 51.78125 48.09375 
Q 58.015625 40.1875 58.015625 27.296875 
Q 58.015625 14.40625 51.78125 6.484375 
Q 45.5625 -1.421875 35.59375 -1.421875 
Q 29.59375 -1.421875 25.265625 0.953125 
Q 20.953125 3.328125 18.109375 8.203125 
L 18.109375 0 
L 9.078125 0 
L 9.078125 75.984375 
L 18.109375 75.984375 
z
" id="DejaVuSans-62"/>
     <path d="M 32.171875 -5.078125 
Q 28.375 -14.84375 24.75 -17.8125 
Q 21.140625 -20.796875 15.09375 -20.796875 
L 7.90625 -20.796875 
L 7.90625 -13.28125 
L 13.1875 -13.28125 
Q 16.890625 -13.28125 18.9375 -11.515625 
Q 21 -9.765625 23.484375 -3.21875 
L 25.09375 0.875 
L 2.984375 54.6875 
L 12.5 54.6875 
L 29.59375 11.921875 
L 46.6875 54.6875 
L 56.203125 54.6875 
z
" id="DejaVuSans-79"/>
     <path d="M 45.40625 27.984375 
Q 45.40625 37.75 41.375 43.109375 
Q 37.359375 48.484375 30.078125 48.484375 
Q 22.859375 48.484375 18.828125 43.109375 
Q 14.796875 37.75 14.796875 27.984375 
Q 14.796875 18.265625 18.828125 12.890625 
Q 22.859375 7.515625 30.078125 7.515625 
Q 37.359375 7.515625 41.375 12.890625 
Q 45.40625 18.265625 45.40625 27.984375 
z
M 54.390625 6.78125 
Q 54.390625 -7.171875 48.1875 -13.984375 
Q 42 -20.796875 29.203125 -20.796875 
Q 24.46875 -20.796875 20.265625 -20.09375 
Q 16.0625 -19.390625 12.109375 -17.921875 
L 12.109375 -9.1875 
Q 16.0625 -11.328125 19.921875 -12.34375 
Q 23.78125 -13.375 27.78125 -13.375 
Q 36.625 -13.375 41.015625 -8.765625 
Q 45.40625 -4.15625 45.40625 5.171875 
L 45.40625 9.625 
Q 42.625 4.78125 38.28125 2.390625 
Q 33.9375 0 27.875 0 
Q 17.828125 0 11.671875 7.65625 
Q 5.515625 15.328125 5.515625 27.984375 
Q 5.515625 40.671875 11.671875 48.328125 
Q 17.828125 56 27.875 56 
Q 33.9375 56 38.28125 53.609375 
Q 42.625 51.21875 45.40625 46.390625 
L 45.40625 54.6875 
L 54.390625 54.6875 
z
" id="DejaVuSans-67"/>
    </defs>
    <g transform="translate(74.886594 34.36)scale(0.204 -0.204)">
     <use xlink:href="#DejaVuSans-43"/>
     <use x="69.824219" xlink:href="#DejaVuSans-75"/>
     <use x="133.203125" xlink:href="#DejaVuSans-6d"/>
     <use x="230.615234" xlink:href="#DejaVuSans-75"/>
     <use x="293.994141" xlink:href="#DejaVuSans-6c"/>
     <use x="321.777344" xlink:href="#DejaVuSans-61"/>
     <use x="383.056641" xlink:href="#DejaVuSans-74"/>
     <use x="422.265625" xlink:href="#DejaVuSans-69"/>
     <use x="450.048828" xlink:href="#DejaVuSans-76"/>
     <use x="509.228516" xlink:href="#DejaVuSans-65"/>
     <use x="570.751953" xlink:href="#DejaVuSans-20"/>
     <use x="602.539062" xlink:href="#DejaVuSans-64"/>
     <use x="666.015625" xlink:href="#DejaVuSans-69"/>
     <use x="693.798828" xlink:href="#DejaVuSans-73"/>
     <use x="745.898438" xlink:href="#DejaVuSans-74"/>
     <use x="785.107422" xlink:href="#DejaVuSans-72"/>
     <use x="826.220703" xlink:href="#DejaVuSans-69"/>
     <use x="854.003906" xlink:href="#DejaVuSans-62"/>
     <use x="917.480469" xlink:href="#DejaVuSans-75"/>
     <use x="980.859375" xlink:href="#DejaVuSans-74"/>
     <use x="1020.068359" xlink:href="#DejaVuSans-69"/>
     <use x="1047.851562" xlink:href="#DejaVuSans-6f"/>
     <use x="1109.033203" xlink:href="#DejaVuSans-6e"/>
     <use x="1172.412109" xlink:href="#DejaVuSans-20"/>
     <use x="1204.199219" xlink:href="#DejaVuSans-62"/>
     <use x="1267.675781" xlink:href="#DejaVuSans-79"/>
     <use x="1326.855469" xlink:href="#DejaVuSans-20"/>
     <use x="1358.642578" xlink:href="#DejaVuSans-67"/>
     <use x="1422.119141" xlink:href="#DejaVuSans-72"/>
     <use x="1463.201172" xlink:href="#DejaVuSans-6f"/>
     <use x="1524.382812" xlink:href="#DejaVuSans-75"/>
     <use x="1587.761719" xlink:href="#DejaVuSans-70"/>
    </g>
   </g>
   <g id="legend_1">
    <g id="patch_7">
     <path d="M 271.422656 284.14 
L 398.24 284.14 
Q 401.64 284.14 401.64 280.74 
L 401.64 182.62875 
Q 401.64 179.22875 398.24 179.22875 
L 271.422656 179.22875 
Q 268.022656 179.22875 268.022656 182.62875 
L 268.022656 280.74 
Q 268.022656 284.14 271.422656 284.14 
z
" style="fill:#ffffff;opacity:0.8;stroke:#cccccc;stroke-linejoin:miter;"/>
    </g>
    <g id="line2d_17">
     <path d="M 274.822656 192.996094 
L 308.822656 192.996094 
" style="fill:none;stroke:#0000ff;stroke-linecap:square;stroke-width:3;"/>
    </g>
    <g id="line2d_18"/>
    <g id="text_16">
     <!-- Asian -->
     <defs>
      <path d="M 34.1875 63.1875 
L 20.796875 26.90625 
L 47.609375 26.90625 
z
M 28.609375 72.90625 
L 39.796875 72.90625 
L 67.578125 0 
L 57.328125 0 
L 50.6875 18.703125 
L 17.828125 18.703125 
L 11.1875 0 
L 0.78125 0 
z
" id="DejaVuSans-41"/>
     </defs>
     <g transform="translate(322.422656 198.946094)scale(0.17 -0.17)">
      <use xlink:href="#DejaVuSans-41"/>
      <use x="68.408203" xlink:href="#DejaVuSans-73"/>
      <use x="120.507812" xlink:href="#DejaVuSans-69"/>
      <use x="148.291016" xlink:href="#DejaVuSans-61"/>
      <use x="209.570312" xlink:href="#DejaVuSans-6e"/>
     </g>
    </g>
    <g id="line2d_19">
     <path d="M 274.822656 217.948906 
L 308.822656 217.948906 
" style="fill:none;stroke:#008000;stroke-dasharray:11.1,4.8;stroke-dashoffset:0;stroke-width:3;"/>
    </g>
    <g id="line2d_20"/>
    <g id="text_17">
     <!-- Black -->
     <defs>
      <path d="M 19.671875 34.8125 
L 19.671875 8.109375 
L 35.5 8.109375 
Q 43.453125 8.109375 47.28125 11.40625 
Q 51.125 14.703125 51.125 21.484375 
Q 51.125 28.328125 47.28125 31.5625 
Q 43.453125 34.8125 35.5 34.8125 
z
M 19.671875 64.796875 
L 19.671875 42.828125 
L 34.28125 42.828125 
Q 41.5 42.828125 45.03125 45.53125 
Q 48.578125 48.25 48.578125 53.8125 
Q 48.578125 59.328125 45.03125 62.0625 
Q 41.5 64.796875 34.28125 64.796875 
z
M 9.8125 72.90625 
L 35.015625 72.90625 
Q 46.296875 72.90625 52.390625 68.21875 
Q 58.5 63.53125 58.5 54.890625 
Q 58.5 48.1875 55.375 44.234375 
Q 52.25 40.28125 46.1875 39.3125 
Q 53.46875 37.75 57.5 32.78125 
Q 61.53125 27.828125 61.53125 20.40625 
Q 61.53125 10.640625 54.890625 5.3125 
Q 48.25 0 35.984375 0 
L 9.8125 0 
z
" id="DejaVuSans-42"/>
      <path d="M 9.078125 75.984375 
L 18.109375 75.984375 
L 18.109375 31.109375 
L 44.921875 54.6875 
L 56.390625 54.6875 
L 27.390625 29.109375 
L 57.625 0 
L 45.90625 0 
L 18.109375 26.703125 
L 18.109375 0 
L 9.078125 0 
z
" id="DejaVuSans-6b"/>
     </defs>
     <g transform="translate(322.422656 223.898906)scale(0.17 -0.17)">
      <use xlink:href="#DejaVuSans-42"/>
      <use x="68.603516" xlink:href="#DejaVuSans-6c"/>
      <use x="96.386719" xlink:href="#DejaVuSans-61"/>
      <use x="157.666016" xlink:href="#DejaVuSans-63"/>
      <use x="212.646484" xlink:href="#DejaVuSans-6b"/>
     </g>
    </g>
    <g id="line2d_21">
     <path d="M 274.822656 242.901719 
L 308.822656 242.901719 
" style="fill:none;stroke:#00bfbf;stroke-dasharray:19.2,4.8,3,4.8;stroke-dashoffset:0;stroke-width:3;"/>
    </g>
    <g id="line2d_22"/>
    <g id="text_18">
     <!-- Hispanic -->
     <defs>
      <path d="M 9.8125 72.90625 
L 19.671875 72.90625 
L 19.671875 43.015625 
L 55.515625 43.015625 
L 55.515625 72.90625 
L 65.375 72.90625 
L 65.375 0 
L 55.515625 0 
L 55.515625 34.71875 
L 19.671875 34.71875 
L 19.671875 0 
L 9.8125 0 
z
" id="DejaVuSans-48"/>
     </defs>
     <g transform="translate(322.422656 248.851719)scale(0.17 -0.17)">
      <use xlink:href="#DejaVuSans-48"/>
      <use x="75.195312" xlink:href="#DejaVuSans-69"/>
      <use x="102.978516" xlink:href="#DejaVuSans-73"/>
      <use x="155.078125" xlink:href="#DejaVuSans-70"/>
      <use x="218.554688" xlink:href="#DejaVuSans-61"/>
      <use x="279.833984" xlink:href="#DejaVuSans-6e"/>
      <use x="343.212891" xlink:href="#DejaVuSans-69"/>
      <use x="370.996094" xlink:href="#DejaVuSans-63"/>
     </g>
    </g>
    <g id="line2d_23">
     <path d="M 274.822656 267.854531 
L 308.822656 267.854531 
" style="fill:none;stroke:#ff0000;stroke-dasharray:3,4.95;stroke-dashoffset:0;stroke-width:3;"/>
    </g>
    <g id="line2d_24"/>
    <g id="text_19">
     <!-- White -->
     <defs>
      <path d="M 3.328125 72.90625 
L 13.28125 72.90625 
L 28.609375 11.28125 
L 43.890625 72.90625 
L 54.984375 72.90625 
L 70.3125 11.28125 
L 85.59375 72.90625 
L 95.609375 72.90625 
L 77.296875 0 
L 64.890625 0 
L 49.515625 63.28125 
L 33.984375 0 
L 21.578125 0 
z
" id="DejaVuSans-57"/>
      <path d="M 54.890625 33.015625 
L 54.890625 0 
L 45.90625 0 
L 45.90625 32.71875 
Q 45.90625 40.484375 42.875 44.328125 
Q 39.84375 48.1875 33.796875 48.1875 
Q 26.515625 48.1875 22.3125 43.546875 
Q 18.109375 38.921875 18.109375 30.90625 
L 18.109375 0 
L 9.078125 0 
L 9.078125 75.984375 
L 18.109375 75.984375 
L 18.109375 46.1875 
Q 21.34375 51.125 25.703125 53.5625 
Q 30.078125 56 35.796875 56 
Q 45.21875 56 50.046875 50.171875 
Q 54.890625 44.34375 54.890625 33.015625 
z
" id="DejaVuSans-68"/>
     </defs>
     <g transform="translate(322.422656 273.804531)scale(0.17 -0.17)">
      <use xlink:href="#DejaVuSans-57"/>
      <use x="98.876953" xlink:href="#DejaVuSans-68"/>
      <use x="162.255859" xlink:href="#DejaVuSans-69"/>
      <use x="190.039062" xlink:href="#DejaVuSans-74"/>
      <use x="229.248047" xlink:href="#DejaVuSans-65"/>
     </g>
    </g>
   </g>
  </g>
 </g>
 <defs>
  <clipPath id="pd990133f84">
   <rect height="252.28" width="333.655" x="76.485" y="40.36"/>
  </clipPath>
 </defs>
</svg>
