<?xml version="1.0" encoding="utf-8" standalone="no"?>
<!DOCTYPE svg PUBLIC "-//W3C//DTD SVG 1.1//EN"
  "http://www.w3.org/Graphics/SVG/1.1/DTD/svg11.dtd">
<svg xmlns:xlink="http://www.w3.org/1999/xlink" width="504pt" height="360pt" viewBox="0 0 504 360" xmlns="http://www.w3.org/2000/svg" version="1.1">
 <metadata>
  <rdf:RDF xmlns:dc="http://purl.org/dc/elements/1.1/" xmlns:cc="http://creativecommons.org/ns#" xmlns:rdf="http://www.w3.org/1999/02/22-rdf-syntax-ns#">
   <cc:Work>
    <dc:type rdf:resource="http://purl.org/dc/dcmitype/StillImage"/>
    <dc:date>2022-06-14T17:12:30.060518</dc:date>
    <dc:format>image/svg+xml</dc:format>
    <dc:creator>
     <cc:Agent>
      <dc:title>Matplotlib v3.5.1, https://matplotlib.org/</dc:title>
     </cc:Agent>
    </dc:creator>
   </cc:Work>
  </rdf:RDF>
 </metadata>
 <defs>
  <style type="text/css">*{stroke-linejoin: round; stroke-linecap: butt}</style>
 </defs>
 <g id="figure_1">
  <g id="patch_1">
   <path d="M 0 360 
L 504 360 
L 504 0 
L 0 0 
L 0 360 
z
" style="fill: none"/>
  </g>
  <g id="axes_1">
   <g id="patch_2">
    <path d="M 97.485 293.64 
L 472.0775 293.64 
L 472.0775 39.36 
L 97.485 39.36 
z
" style="fill: #ffffff"/>
   </g>
   <g id="matplotlib.axis_1">
    <g id="xtick_1">
     <g id="line2d_1">
      <defs>
       <path id="m04a7b97a32" d="M 0 0 
L 0 3.5 
" style="stroke: #000000; stroke-width: 0.8"/>
      </defs>
      <g>
       <use xlink:href="#m04a7b97a32" x="97.485" y="293.64" style="stroke: #000000; stroke-width: 0.8"/>
      </g>
     </g>
     <g id="text_1">
      <!-- 0.0 -->
      <g transform="translate(83.967344 313.557344)scale(0.17 -0.17)">
       <defs>
        <path id="DejaVuSans-30" d="M 2034 4250 
Q 1547 4250 1301 3770 
Q 1056 3291 1056 2328 
Q 1056 1369 1301 889 
Q 1547 409 2034 409 
Q 2525 409 2770 889 
Q 3016 1369 3016 2328 
Q 3016 3291 2770 3770 
Q 2525 4250 2034 4250 
z
M 2034 4750 
Q 2819 4750 3233 4129 
Q 3647 3509 3647 2328 
Q 3647 1150 3233 529 
Q 2819 -91 2034 -91 
Q 1250 -91 836 529 
Q 422 1150 422 2328 
Q 422 3509 836 4129 
Q 1250 4750 2034 4750 
z
" transform="scale(0.015625)"/>
        <path id="DejaVuSans-2e" d="M 684 794 
L 1344 794 
L 1344 0 
L 684 0 
L 684 794 
z
" transform="scale(0.015625)"/>
       </defs>
       <use xlink:href="#DejaVuSans-30"/>
       <use xlink:href="#DejaVuSans-2e" x="63.623047"/>
       <use xlink:href="#DejaVuSans-30" x="95.410156"/>
      </g>
     </g>
    </g>
    <g id="xtick_2">
     <g id="line2d_2">
      <g>
       <use xlink:href="#m04a7b97a32" x="191.133125" y="293.64" style="stroke: #000000; stroke-width: 0.8"/>
      </g>
     </g>
     <g id="text_2">
      <!-- 0.1 -->
      <g transform="translate(177.615469 313.557344)scale(0.17 -0.17)">
       <defs>
        <path id="DejaVuSans-31" d="M 794 531 
L 1825 531 
L 1825 4091 
L 703 3866 
L 703 4441 
L 1819 4666 
L 2450 4666 
L 2450 531 
L 3481 531 
L 3481 0 
L 794 0 
L 794 531 
z
" transform="scale(0.015625)"/>
       </defs>
       <use xlink:href="#DejaVuSans-30"/>
       <use xlink:href="#DejaVuSans-2e" x="63.623047"/>
       <use xlink:href="#DejaVuSans-31" x="95.410156"/>
      </g>
     </g>
    </g>
    <g id="xtick_3">
     <g id="line2d_3">
      <g>
       <use xlink:href="#m04a7b97a32" x="284.78125" y="293.64" style="stroke: #000000; stroke-width: 0.8"/>
      </g>
     </g>
     <g id="text_3">
      <!-- 0.2 -->
      <g transform="translate(271.263594 313.557344)scale(0.17 -0.17)">
       <defs>
        <path id="DejaVuSans-32" d="M 1228 531 
L 3431 531 
L 3431 0 
L 469 0 
L 469 531 
Q 828 903 1448 1529 
Q 2069 2156 2228 2338 
Q 2531 2678 2651 2914 
Q 2772 3150 2772 3378 
Q 2772 3750 2511 3984 
Q 2250 4219 1831 4219 
Q 1534 4219 1204 4116 
Q 875 4013 500 3803 
L 500 4441 
Q 881 4594 1212 4672 
Q 1544 4750 1819 4750 
Q 2544 4750 2975 4387 
Q 3406 4025 3406 3419 
Q 3406 3131 3298 2873 
Q 3191 2616 2906 2266 
Q 2828 2175 2409 1742 
Q 1991 1309 1228 531 
z
" transform="scale(0.015625)"/>
       </defs>
       <use xlink:href="#DejaVuSans-30"/>
       <use xlink:href="#DejaVuSans-2e" x="63.623047"/>
       <use xlink:href="#DejaVuSans-32" x="95.410156"/>
      </g>
     </g>
    </g>
    <g id="xtick_4">
     <g id="line2d_4">
      <g>
       <use xlink:href="#m04a7b97a32" x="378.429375" y="293.64" style="stroke: #000000; stroke-width: 0.8"/>
      </g>
     </g>
     <g id="text_4">
      <!-- 0.3 -->
      <g transform="translate(364.911719 313.557344)scale(0.17 -0.17)">
       <defs>
        <path id="DejaVuSans-33" d="M 2597 2516 
Q 3050 2419 3304 2112 
Q 3559 1806 3559 1356 
Q 3559 666 3084 287 
Q 2609 -91 1734 -91 
Q 1441 -91 1130 -33 
Q 819 25 488 141 
L 488 750 
Q 750 597 1062 519 
Q 1375 441 1716 441 
Q 2309 441 2620 675 
Q 2931 909 2931 1356 
Q 2931 1769 2642 2001 
Q 2353 2234 1838 2234 
L 1294 2234 
L 1294 2753 
L 1863 2753 
Q 2328 2753 2575 2939 
Q 2822 3125 2822 3475 
Q 2822 3834 2567 4026 
Q 2313 4219 1838 4219 
Q 1578 4219 1281 4162 
Q 984 4106 628 3988 
L 628 4550 
Q 988 4650 1302 4700 
Q 1616 4750 1894 4750 
Q 2613 4750 3031 4423 
Q 3450 4097 3450 3541 
Q 3450 3153 3228 2886 
Q 3006 2619 2597 2516 
z
" transform="scale(0.015625)"/>
       </defs>
       <use xlink:href="#DejaVuSans-30"/>
       <use xlink:href="#DejaVuSans-2e" x="63.623047"/>
       <use xlink:href="#DejaVuSans-33" x="95.410156"/>
      </g>
     </g>
    </g>
    <g id="xtick_5">
     <g id="line2d_5">
      <g>
       <use xlink:href="#m04a7b97a32" x="472.0775" y="293.64" style="stroke: #000000; stroke-width: 0.8"/>
      </g>
     </g>
     <g id="text_5">
      <!-- 0.4 -->
      <g transform="translate(458.559844 313.557344)scale(0.17 -0.17)">
       <defs>
        <path id="DejaVuSans-34" d="M 2419 4116 
L 825 1625 
L 2419 1625 
L 2419 4116 
z
M 2253 4666 
L 3047 4666 
L 3047 1625 
L 3713 1625 
L 3713 1100 
L 3047 1100 
L 3047 0 
L 2419 0 
L 2419 1100 
L 313 1100 
L 313 1709 
L 2253 4666 
z
" transform="scale(0.015625)"/>
       </defs>
       <use xlink:href="#DejaVuSans-30"/>
       <use xlink:href="#DejaVuSans-2e" x="63.623047"/>
       <use xlink:href="#DejaVuSans-34" x="95.410156"/>
      </g>
     </g>
    </g>
    <g id="text_6">
     <!-- Fraction defaulters getting loan -->
     <g transform="translate(124.354375 336.593625)scale(0.204 -0.204)">
      <defs>
       <path id="DejaVuSans-46" d="M 628 4666 
L 3309 4666 
L 3309 4134 
L 1259 4134 
L 1259 2759 
L 3109 2759 
L 3109 2228 
L 1259 2228 
L 1259 0 
L 628 0 
L 628 4666 
z
" transform="scale(0.015625)"/>
       <path id="DejaVuSans-72" d="M 2631 2963 
Q 2534 3019 2420 3045 
Q 2306 3072 2169 3072 
Q 1681 3072 1420 2755 
Q 1159 2438 1159 1844 
L 1159 0 
L 581 0 
L 581 3500 
L 1159 3500 
L 1159 2956 
Q 1341 3275 1631 3429 
Q 1922 3584 2338 3584 
Q 2397 3584 2469 3576 
Q 2541 3569 2628 3553 
L 2631 2963 
z
" transform="scale(0.015625)"/>
       <path id="DejaVuSans-61" d="M 2194 1759 
Q 1497 1759 1228 1600 
Q 959 1441 959 1056 
Q 959 750 1161 570 
Q 1363 391 1709 391 
Q 2188 391 2477 730 
Q 2766 1069 2766 1631 
L 2766 1759 
L 2194 1759 
z
M 3341 1997 
L 3341 0 
L 2766 0 
L 2766 531 
Q 2569 213 2275 61 
Q 1981 -91 1556 -91 
Q 1019 -91 701 211 
Q 384 513 384 1019 
Q 384 1609 779 1909 
Q 1175 2209 1959 2209 
L 2766 2209 
L 2766 2266 
Q 2766 2663 2505 2880 
Q 2244 3097 1772 3097 
Q 1472 3097 1187 3025 
Q 903 2953 641 2809 
L 641 3341 
Q 956 3463 1253 3523 
Q 1550 3584 1831 3584 
Q 2591 3584 2966 3190 
Q 3341 2797 3341 1997 
z
" transform="scale(0.015625)"/>
       <path id="DejaVuSans-63" d="M 3122 3366 
L 3122 2828 
Q 2878 2963 2633 3030 
Q 2388 3097 2138 3097 
Q 1578 3097 1268 2742 
Q 959 2388 959 1747 
Q 959 1106 1268 751 
Q 1578 397 2138 397 
Q 2388 397 2633 464 
Q 2878 531 3122 666 
L 3122 134 
Q 2881 22 2623 -34 
Q 2366 -91 2075 -91 
Q 1284 -91 818 406 
Q 353 903 353 1747 
Q 353 2603 823 3093 
Q 1294 3584 2113 3584 
Q 2378 3584 2631 3529 
Q 2884 3475 3122 3366 
z
" transform="scale(0.015625)"/>
       <path id="DejaVuSans-74" d="M 1172 4494 
L 1172 3500 
L 2356 3500 
L 2356 3053 
L 1172 3053 
L 1172 1153 
Q 1172 725 1289 603 
Q 1406 481 1766 481 
L 2356 481 
L 2356 0 
L 1766 0 
Q 1100 0 847 248 
Q 594 497 594 1153 
L 594 3053 
L 172 3053 
L 172 3500 
L 594 3500 
L 594 4494 
L 1172 4494 
z
" transform="scale(0.015625)"/>
       <path id="DejaVuSans-69" d="M 603 3500 
L 1178 3500 
L 1178 0 
L 603 0 
L 603 3500 
z
M 603 4863 
L 1178 4863 
L 1178 4134 
L 603 4134 
L 603 4863 
z
" transform="scale(0.015625)"/>
       <path id="DejaVuSans-6f" d="M 1959 3097 
Q 1497 3097 1228 2736 
Q 959 2375 959 1747 
Q 959 1119 1226 758 
Q 1494 397 1959 397 
Q 2419 397 2687 759 
Q 2956 1122 2956 1747 
Q 2956 2369 2687 2733 
Q 2419 3097 1959 3097 
z
M 1959 3584 
Q 2709 3584 3137 3096 
Q 3566 2609 3566 1747 
Q 3566 888 3137 398 
Q 2709 -91 1959 -91 
Q 1206 -91 779 398 
Q 353 888 353 1747 
Q 353 2609 779 3096 
Q 1206 3584 1959 3584 
z
" transform="scale(0.015625)"/>
       <path id="DejaVuSans-6e" d="M 3513 2113 
L 3513 0 
L 2938 0 
L 2938 2094 
Q 2938 2591 2744 2837 
Q 2550 3084 2163 3084 
Q 1697 3084 1428 2787 
Q 1159 2491 1159 1978 
L 1159 0 
L 581 0 
L 581 3500 
L 1159 3500 
L 1159 2956 
Q 1366 3272 1645 3428 
Q 1925 3584 2291 3584 
Q 2894 3584 3203 3211 
Q 3513 2838 3513 2113 
z
" transform="scale(0.015625)"/>
       <path id="DejaVuSans-20" transform="scale(0.015625)"/>
       <path id="DejaVuSans-64" d="M 2906 2969 
L 2906 4863 
L 3481 4863 
L 3481 0 
L 2906 0 
L 2906 525 
Q 2725 213 2448 61 
Q 2172 -91 1784 -91 
Q 1150 -91 751 415 
Q 353 922 353 1747 
Q 353 2572 751 3078 
Q 1150 3584 1784 3584 
Q 2172 3584 2448 3432 
Q 2725 3281 2906 2969 
z
M 947 1747 
Q 947 1113 1208 752 
Q 1469 391 1925 391 
Q 2381 391 2643 752 
Q 2906 1113 2906 1747 
Q 2906 2381 2643 2742 
Q 2381 3103 1925 3103 
Q 1469 3103 1208 2742 
Q 947 2381 947 1747 
z
" transform="scale(0.015625)"/>
       <path id="DejaVuSans-65" d="M 3597 1894 
L 3597 1613 
L 953 1613 
Q 991 1019 1311 708 
Q 1631 397 2203 397 
Q 2534 397 2845 478 
Q 3156 559 3463 722 
L 3463 178 
Q 3153 47 2828 -22 
Q 2503 -91 2169 -91 
Q 1331 -91 842 396 
Q 353 884 353 1716 
Q 353 2575 817 3079 
Q 1281 3584 2069 3584 
Q 2775 3584 3186 3129 
Q 3597 2675 3597 1894 
z
M 3022 2063 
Q 3016 2534 2758 2815 
Q 2500 3097 2075 3097 
Q 1594 3097 1305 2825 
Q 1016 2553 972 2059 
L 3022 2063 
z
" transform="scale(0.015625)"/>
       <path id="DejaVuSans-66" d="M 2375 4863 
L 2375 4384 
L 1825 4384 
Q 1516 4384 1395 4259 
Q 1275 4134 1275 3809 
L 1275 3500 
L 2222 3500 
L 2222 3053 
L 1275 3053 
L 1275 0 
L 697 0 
L 697 3053 
L 147 3053 
L 147 3500 
L 697 3500 
L 697 3744 
Q 697 4328 969 4595 
Q 1241 4863 1831 4863 
L 2375 4863 
z
" transform="scale(0.015625)"/>
       <path id="DejaVuSans-75" d="M 544 1381 
L 544 3500 
L 1119 3500 
L 1119 1403 
Q 1119 906 1312 657 
Q 1506 409 1894 409 
Q 2359 409 2629 706 
Q 2900 1003 2900 1516 
L 2900 3500 
L 3475 3500 
L 3475 0 
L 2900 0 
L 2900 538 
Q 2691 219 2414 64 
Q 2138 -91 1772 -91 
Q 1169 -91 856 284 
Q 544 659 544 1381 
z
M 1991 3584 
L 1991 3584 
z
" transform="scale(0.015625)"/>
       <path id="DejaVuSans-6c" d="M 603 4863 
L 1178 4863 
L 1178 0 
L 603 0 
L 603 4863 
z
" transform="scale(0.015625)"/>
       <path id="DejaVuSans-73" d="M 2834 3397 
L 2834 2853 
Q 2591 2978 2328 3040 
Q 2066 3103 1784 3103 
Q 1356 3103 1142 2972 
Q 928 2841 928 2578 
Q 928 2378 1081 2264 
Q 1234 2150 1697 2047 
L 1894 2003 
Q 2506 1872 2764 1633 
Q 3022 1394 3022 966 
Q 3022 478 2636 193 
Q 2250 -91 1575 -91 
Q 1294 -91 989 -36 
Q 684 19 347 128 
L 347 722 
Q 666 556 975 473 
Q 1284 391 1588 391 
Q 1994 391 2212 530 
Q 2431 669 2431 922 
Q 2431 1156 2273 1281 
Q 2116 1406 1581 1522 
L 1381 1569 
Q 847 1681 609 1914 
Q 372 2147 372 2553 
Q 372 3047 722 3315 
Q 1072 3584 1716 3584 
Q 2034 3584 2315 3537 
Q 2597 3491 2834 3397 
z
" transform="scale(0.015625)"/>
       <path id="DejaVuSans-67" d="M 2906 1791 
Q 2906 2416 2648 2759 
Q 2391 3103 1925 3103 
Q 1463 3103 1205 2759 
Q 947 2416 947 1791 
Q 947 1169 1205 825 
Q 1463 481 1925 481 
Q 2391 481 2648 825 
Q 2906 1169 2906 1791 
z
M 3481 434 
Q 3481 -459 3084 -895 
Q 2688 -1331 1869 -1331 
Q 1566 -1331 1297 -1286 
Q 1028 -1241 775 -1147 
L 775 -588 
Q 1028 -725 1275 -790 
Q 1522 -856 1778 -856 
Q 2344 -856 2625 -561 
Q 2906 -266 2906 331 
L 2906 616 
Q 2728 306 2450 153 
Q 2172 0 1784 0 
Q 1141 0 747 490 
Q 353 981 353 1791 
Q 353 2603 747 3093 
Q 1141 3584 1784 3584 
Q 2172 3584 2450 3431 
Q 2728 3278 2906 2969 
L 2906 3500 
L 3481 3500 
L 3481 434 
z
" transform="scale(0.015625)"/>
      </defs>
      <use xlink:href="#DejaVuSans-46"/>
      <use xlink:href="#DejaVuSans-72" x="50.269531"/>
      <use xlink:href="#DejaVuSans-61" x="91.382812"/>
      <use xlink:href="#DejaVuSans-63" x="152.662109"/>
      <use xlink:href="#DejaVuSans-74" x="207.642578"/>
      <use xlink:href="#DejaVuSans-69" x="246.851562"/>
      <use xlink:href="#DejaVuSans-6f" x="274.634766"/>
      <use xlink:href="#DejaVuSans-6e" x="335.816406"/>
      <use xlink:href="#DejaVuSans-20" x="399.195312"/>
      <use xlink:href="#DejaVuSans-64" x="430.982422"/>
      <use xlink:href="#DejaVuSans-65" x="494.458984"/>
      <use xlink:href="#DejaVuSans-66" x="555.982422"/>
      <use xlink:href="#DejaVuSans-61" x="591.1875"/>
      <use xlink:href="#DejaVuSans-75" x="652.466797"/>
      <use xlink:href="#DejaVuSans-6c" x="715.845703"/>
      <use xlink:href="#DejaVuSans-74" x="743.628906"/>
      <use xlink:href="#DejaVuSans-65" x="782.837891"/>
      <use xlink:href="#DejaVuSans-72" x="844.361328"/>
      <use xlink:href="#DejaVuSans-73" x="885.474609"/>
      <use xlink:href="#DejaVuSans-20" x="937.574219"/>
      <use xlink:href="#DejaVuSans-67" x="969.361328"/>
      <use xlink:href="#DejaVuSans-65" x="1032.837891"/>
      <use xlink:href="#DejaVuSans-74" x="1094.361328"/>
      <use xlink:href="#DejaVuSans-74" x="1133.570312"/>
      <use xlink:href="#DejaVuSans-69" x="1172.779297"/>
      <use xlink:href="#DejaVuSans-6e" x="1200.5625"/>
      <use xlink:href="#DejaVuSans-67" x="1263.941406"/>
      <use xlink:href="#DejaVuSans-20" x="1327.417969"/>
      <use xlink:href="#DejaVuSans-6c" x="1359.205078"/>
      <use xlink:href="#DejaVuSans-6f" x="1386.988281"/>
      <use xlink:href="#DejaVuSans-61" x="1448.169922"/>
      <use xlink:href="#DejaVuSans-6e" x="1509.449219"/>
     </g>
    </g>
   </g>
   <g id="matplotlib.axis_2">
    <g id="ytick_1">
     <g id="line2d_6">
      <defs>
       <path id="ma6c27bbee9" d="M 0 0 
L -3.5 0 
" style="stroke: #000000; stroke-width: 0.8"/>
      </defs>
      <g>
       <use xlink:href="#ma6c27bbee9" x="97.485" y="293.64" style="stroke: #000000; stroke-width: 0.8"/>
      </g>
     </g>
     <g id="text_7">
      <!-- 0.3 -->
      <g transform="translate(63.449687 300.098672)scale(0.17 -0.17)">
       <use xlink:href="#DejaVuSans-30"/>
       <use xlink:href="#DejaVuSans-2e" x="63.623047"/>
       <use xlink:href="#DejaVuSans-33" x="95.410156"/>
      </g>
     </g>
    </g>
    <g id="ytick_2">
     <g id="line2d_7">
      <g>
       <use xlink:href="#ma6c27bbee9" x="97.485" y="257.314286" style="stroke: #000000; stroke-width: 0.8"/>
      </g>
     </g>
     <g id="text_8">
      <!-- 0.4 -->
      <g transform="translate(63.449687 263.772958)scale(0.17 -0.17)">
       <use xlink:href="#DejaVuSans-30"/>
       <use xlink:href="#DejaVuSans-2e" x="63.623047"/>
       <use xlink:href="#DejaVuSans-34" x="95.410156"/>
      </g>
     </g>
    </g>
    <g id="ytick_3">
     <g id="line2d_8">
      <g>
       <use xlink:href="#ma6c27bbee9" x="97.485" y="220.988571" style="stroke: #000000; stroke-width: 0.8"/>
      </g>
     </g>
     <g id="text_9">
      <!-- 0.5 -->
      <g transform="translate(63.449687 227.447243)scale(0.17 -0.17)">
       <defs>
        <path id="DejaVuSans-35" d="M 691 4666 
L 3169 4666 
L 3169 4134 
L 1269 4134 
L 1269 2991 
Q 1406 3038 1543 3061 
Q 1681 3084 1819 3084 
Q 2600 3084 3056 2656 
Q 3513 2228 3513 1497 
Q 3513 744 3044 326 
Q 2575 -91 1722 -91 
Q 1428 -91 1123 -41 
Q 819 9 494 109 
L 494 744 
Q 775 591 1075 516 
Q 1375 441 1709 441 
Q 2250 441 2565 725 
Q 2881 1009 2881 1497 
Q 2881 1984 2565 2268 
Q 2250 2553 1709 2553 
Q 1456 2553 1204 2497 
Q 953 2441 691 2322 
L 691 4666 
z
" transform="scale(0.015625)"/>
       </defs>
       <use xlink:href="#DejaVuSans-30"/>
       <use xlink:href="#DejaVuSans-2e" x="63.623047"/>
       <use xlink:href="#DejaVuSans-35" x="95.410156"/>
      </g>
     </g>
    </g>
    <g id="ytick_4">
     <g id="line2d_9">
      <g>
       <use xlink:href="#ma6c27bbee9" x="97.485" y="184.662857" style="stroke: #000000; stroke-width: 0.8"/>
      </g>
     </g>
     <g id="text_10">
      <!-- 0.6 -->
      <g transform="translate(63.449687 191.121529)scale(0.17 -0.17)">
       <defs>
        <path id="DejaVuSans-36" d="M 2113 2584 
Q 1688 2584 1439 2293 
Q 1191 2003 1191 1497 
Q 1191 994 1439 701 
Q 1688 409 2113 409 
Q 2538 409 2786 701 
Q 3034 994 3034 1497 
Q 3034 2003 2786 2293 
Q 2538 2584 2113 2584 
z
M 3366 4563 
L 3366 3988 
Q 3128 4100 2886 4159 
Q 2644 4219 2406 4219 
Q 1781 4219 1451 3797 
Q 1122 3375 1075 2522 
Q 1259 2794 1537 2939 
Q 1816 3084 2150 3084 
Q 2853 3084 3261 2657 
Q 3669 2231 3669 1497 
Q 3669 778 3244 343 
Q 2819 -91 2113 -91 
Q 1303 -91 875 529 
Q 447 1150 447 2328 
Q 447 3434 972 4092 
Q 1497 4750 2381 4750 
Q 2619 4750 2861 4703 
Q 3103 4656 3366 4563 
z
" transform="scale(0.015625)"/>
       </defs>
       <use xlink:href="#DejaVuSans-30"/>
       <use xlink:href="#DejaVuSans-2e" x="63.623047"/>
       <use xlink:href="#DejaVuSans-36" x="95.410156"/>
      </g>
     </g>
    </g>
    <g id="ytick_5">
     <g id="line2d_10">
      <g>
       <use xlink:href="#ma6c27bbee9" x="97.485" y="148.337143" style="stroke: #000000; stroke-width: 0.8"/>
      </g>
     </g>
     <g id="text_11">
      <!-- 0.7 -->
      <g transform="translate(63.449687 154.795815)scale(0.17 -0.17)">
       <defs>
        <path id="DejaVuSans-37" d="M 525 4666 
L 3525 4666 
L 3525 4397 
L 1831 0 
L 1172 0 
L 2766 4134 
L 525 4134 
L 525 4666 
z
" transform="scale(0.015625)"/>
       </defs>
       <use xlink:href="#DejaVuSans-30"/>
       <use xlink:href="#DejaVuSans-2e" x="63.623047"/>
       <use xlink:href="#DejaVuSans-37" x="95.410156"/>
      </g>
     </g>
    </g>
    <g id="ytick_6">
     <g id="line2d_11">
      <g>
       <use xlink:href="#ma6c27bbee9" x="97.485" y="112.011429" style="stroke: #000000; stroke-width: 0.8"/>
      </g>
     </g>
     <g id="text_12">
      <!-- 0.8 -->
      <g transform="translate(63.449687 118.4701)scale(0.17 -0.17)">
       <defs>
        <path id="DejaVuSans-38" d="M 2034 2216 
Q 1584 2216 1326 1975 
Q 1069 1734 1069 1313 
Q 1069 891 1326 650 
Q 1584 409 2034 409 
Q 2484 409 2743 651 
Q 3003 894 3003 1313 
Q 3003 1734 2745 1975 
Q 2488 2216 2034 2216 
z
M 1403 2484 
Q 997 2584 770 2862 
Q 544 3141 544 3541 
Q 544 4100 942 4425 
Q 1341 4750 2034 4750 
Q 2731 4750 3128 4425 
Q 3525 4100 3525 3541 
Q 3525 3141 3298 2862 
Q 3072 2584 2669 2484 
Q 3125 2378 3379 2068 
Q 3634 1759 3634 1313 
Q 3634 634 3220 271 
Q 2806 -91 2034 -91 
Q 1263 -91 848 271 
Q 434 634 434 1313 
Q 434 1759 690 2068 
Q 947 2378 1403 2484 
z
M 1172 3481 
Q 1172 3119 1398 2916 
Q 1625 2713 2034 2713 
Q 2441 2713 2670 2916 
Q 2900 3119 2900 3481 
Q 2900 3844 2670 4047 
Q 2441 4250 2034 4250 
Q 1625 4250 1398 4047 
Q 1172 3844 1172 3481 
z
" transform="scale(0.015625)"/>
       </defs>
       <use xlink:href="#DejaVuSans-30"/>
       <use xlink:href="#DejaVuSans-2e" x="63.623047"/>
       <use xlink:href="#DejaVuSans-38" x="95.410156"/>
      </g>
     </g>
    </g>
    <g id="ytick_7">
     <g id="line2d_12">
      <g>
       <use xlink:href="#ma6c27bbee9" x="97.485" y="75.685714" style="stroke: #000000; stroke-width: 0.8"/>
      </g>
     </g>
     <g id="text_13">
      <!-- 0.9 -->
      <g transform="translate(63.449687 82.144386)scale(0.17 -0.17)">
       <defs>
        <path id="DejaVuSans-39" d="M 703 97 
L 703 672 
Q 941 559 1184 500 
Q 1428 441 1663 441 
Q 2288 441 2617 861 
Q 2947 1281 2994 2138 
Q 2813 1869 2534 1725 
Q 2256 1581 1919 1581 
Q 1219 1581 811 2004 
Q 403 2428 403 3163 
Q 403 3881 828 4315 
Q 1253 4750 1959 4750 
Q 2769 4750 3195 4129 
Q 3622 3509 3622 2328 
Q 3622 1225 3098 567 
Q 2575 -91 1691 -91 
Q 1453 -91 1209 -44 
Q 966 3 703 97 
z
M 1959 2075 
Q 2384 2075 2632 2365 
Q 2881 2656 2881 3163 
Q 2881 3666 2632 3958 
Q 2384 4250 1959 4250 
Q 1534 4250 1286 3958 
Q 1038 3666 1038 3163 
Q 1038 2656 1286 2365 
Q 1534 2075 1959 2075 
z
" transform="scale(0.015625)"/>
       </defs>
       <use xlink:href="#DejaVuSans-30"/>
       <use xlink:href="#DejaVuSans-2e" x="63.623047"/>
       <use xlink:href="#DejaVuSans-39" x="95.410156"/>
      </g>
     </g>
    </g>
    <g id="ytick_8">
     <g id="line2d_13">
      <g>
       <use xlink:href="#ma6c27bbee9" x="97.485" y="39.36" style="stroke: #000000; stroke-width: 0.8"/>
      </g>
     </g>
     <g id="text_14">
      <!-- 1.0 -->
      <g transform="translate(63.449687 45.818672)scale(0.17 -0.17)">
       <use xlink:href="#DejaVuSans-31"/>
       <use xlink:href="#DejaVuSans-2e" x="63.623047"/>
       <use xlink:href="#DejaVuSans-30" x="95.410156"/>
      </g>
     </g>
    </g>
    <g id="text_15">
     <!-- Fraction non-defaulters -->
     <g transform="translate(32.363587 284.980969)rotate(-90)scale(0.204 -0.204)">
      <defs>
       <path id="DejaVuSans-2d" d="M 313 2009 
L 1997 2009 
L 1997 1497 
L 313 1497 
L 313 2009 
z
" transform="scale(0.015625)"/>
      </defs>
      <use xlink:href="#DejaVuSans-46"/>
      <use xlink:href="#DejaVuSans-72" x="50.269531"/>
      <use xlink:href="#DejaVuSans-61" x="91.382812"/>
      <use xlink:href="#DejaVuSans-63" x="152.662109"/>
      <use xlink:href="#DejaVuSans-74" x="207.642578"/>
      <use xlink:href="#DejaVuSans-69" x="246.851562"/>
      <use xlink:href="#DejaVuSans-6f" x="274.634766"/>
      <use xlink:href="#DejaVuSans-6e" x="335.816406"/>
      <use xlink:href="#DejaVuSans-20" x="399.195312"/>
      <use xlink:href="#DejaVuSans-6e" x="430.982422"/>
      <use xlink:href="#DejaVuSans-6f" x="494.361328"/>
      <use xlink:href="#DejaVuSans-6e" x="555.542969"/>
      <use xlink:href="#DejaVuSans-2d" x="618.921875"/>
      <use xlink:href="#DejaVuSans-64" x="655.005859"/>
      <use xlink:href="#DejaVuSans-65" x="718.482422"/>
      <use xlink:href="#DejaVuSans-66" x="780.005859"/>
      <use xlink:href="#DejaVuSans-61" x="815.210938"/>
      <use xlink:href="#DejaVuSans-75" x="876.490234"/>
      <use xlink:href="#DejaVuSans-6c" x="939.869141"/>
      <use xlink:href="#DejaVuSans-74" x="967.652344"/>
      <use xlink:href="#DejaVuSans-65" x="1006.861328"/>
      <use xlink:href="#DejaVuSans-72" x="1068.384766"/>
      <use xlink:href="#DejaVuSans-73" x="1109.498047"/>
     </g>
     <!-- getting loan -->
     <g transform="translate(55.207125 228.053812)rotate(-90)scale(0.204 -0.204)">
      <use xlink:href="#DejaVuSans-67"/>
      <use xlink:href="#DejaVuSans-65" x="63.476562"/>
      <use xlink:href="#DejaVuSans-74" x="125"/>
      <use xlink:href="#DejaVuSans-74" x="164.208984"/>
      <use xlink:href="#DejaVuSans-69" x="203.417969"/>
      <use xlink:href="#DejaVuSans-6e" x="231.201172"/>
      <use xlink:href="#DejaVuSans-67" x="294.580078"/>
      <use xlink:href="#DejaVuSans-20" x="358.056641"/>
      <use xlink:href="#DejaVuSans-6c" x="389.84375"/>
      <use xlink:href="#DejaVuSans-6f" x="417.626953"/>
      <use xlink:href="#DejaVuSans-61" x="478.808594"/>
      <use xlink:href="#DejaVuSans-6e" x="540.087891"/>
     </g>
    </g>
   </g>
   <g id="line2d_14">
    <path d="M 505 52.498799 
L 490.443416 53.766005 
L 464.501221 56.309458 
L 449.802955 57.961063 
L 430.580344 60.318091 
L 414.821379 62.456484 
L 395.712707 65.319329 
L 381.812595 67.630331 
L 374.313717 68.959978 
L 355.02667 72.61665 
L 340.613348 75.690386 
L 327.603947 78.759421 
L 314.732001 82.156372 
L 301.546116 86.064432 
L 290.877167 89.665947 
L 279.681043 93.983879 
L 270.363991 98.161145 
L 262.682617 102.220166 
L 252.395145 108.783512 
L 244.083373 114.359754 
L 237.665557 118.851258 
L 227.00805 126.640849 
L 217.196988 134.23891 
L 210.181308 139.935504 
L 201.71904 147.163572 
L 195.992033 152.349525 
L 190.689267 157.48483 
L 185.281678 163.105638 
L 179.674622 169.38325 
L 173.743786 176.576251 
L 172.022096 178.802526 
L 167.68883 184.748202 
L 164.075366 190.265479 
L 160.674168 196.027575 
L 157.901816 201.352825 
L 155.140518 207.399449 
L 150.469944 218.671379 
L 146.22167 228.316723 
L 140.727584 240.142487 
L 136.414778 248.881405 
L 130.922922 259.401749 
L 125.965464 268.756131 
L 124.08038 272.633035 
L 120.408008 280.891162 
L 117.270663 288.838798 
L 115.833481 292.892358 
L 113.5644 299.705034 
L 111.358348 307.28893 
L 109.684125 314.111822 
L 107.285347 324.919381 
L 105.501209 334.073191 
L 103.923858 343.42629 
L 102.686772 352.090639 
L 101.61519 361 
L 101.61519 361 
" clip-path="url(#p0507b3da13)" style="fill: none; stroke: #0000ff; stroke-width: 3; stroke-linecap: square"/>
   </g>
   <g id="line2d_15">
    <path d="M 505 63.886315 
L 475.95897 66.754202 
L 441.074393 70.408947 
L 410.053355 73.887888 
L 386.98796 76.650321 
L 341.376447 82.356389 
L 329.614376 84.04792 
L 315.658823 86.32881 
L 308.148165 87.70939 
L 298.577627 89.673554 
L 291.941625 91.183279 
L 283.120851 93.396957 
L 276.271638 95.283322 
L 264.725997 98.759381 
L 258.602566 100.768986 
L 250.612437 103.617832 
L 244.70593 105.901248 
L 236.949199 109.144436 
L 231.535868 111.589097 
L 224.205067 115.15798 
L 219.096543 117.835716 
L 212.191672 121.730294 
L 207.782492 124.403119 
L 198.423303 130.630439 
L 189.951052 137.10423 
L 182.30809 143.456604 
L 175.347421 149.791029 
L 168.726707 156.385405 
L 162.841345 162.786534 
L 157.005852 169.657538 
L 152.235927 175.83225 
L 147.048286 183.198645 
L 142.277386 190.667837 
L 138.990093 196.35724 
L 135.779277 202.536864 
L 132.938001 208.35145 
L 129.526098 215.888404 
L 126.811097 222.339226 
L 123.934151 229.745568 
L 121.696757 236.021923 
L 120.077417 240.935983 
L 118.332126 246.72515 
L 116.27747 254.436463 
L 114.570756 261.87416 
L 111.542522 275.964745 
L 108.416327 291.599453 
L 106.096542 304.288928 
L 104.226697 315.811364 
L 103.020443 324.387293 
L 101.890228 334.10072 
L 100.903071 344.679088 
L 100.033538 356.318817 
L 99.754754 361 
L 99.754754 361 
" clip-path="url(#p0507b3da13)" style="fill: none; stroke-dasharray: 11.1,4.8; stroke-dashoffset: 0; stroke: #008000; stroke-width: 3"/>
   </g>
   <g id="line2d_16">
    <path d="M 505 58.534636 
L 491.088818 59.652086 
L 445.438422 63.582499 
L 423.496415 65.936025 
L 404.911187 68.384235 
L 395.030538 69.882525 
L 383.636814 71.765867 
L 368.418404 74.503544 
L 360.463726 76.058243 
L 343.39283 79.784237 
L 334.21915 82.066468 
L 326.285375 84.2028 
L 315.923916 87.221772 
L 308.797765 89.468376 
L 299.448969 92.658084 
L 292.517189 95.217769 
L 282.580856 99.193336 
L 277.931091 101.21107 
L 267.98422 105.950822 
L 256.042577 112.020577 
L 244.611579 118.240914 
L 235.719112 123.419473 
L 226.523835 129.148148 
L 217.456578 135.170338 
L 209.079311 141.140231 
L 200.516324 147.694768 
L 192.9289 153.961513 
L 186.905485 159.346697 
L 182.061305 164.056563 
L 177.031688 169.223274 
L 171.359025 175.41524 
L 166.397191 181.177407 
L 160.604813 188.357127 
L 155.917817 194.583985 
L 152.41294 199.560907 
L 148.548377 205.454818 
L 145.062668 211.204684 
L 142.284839 216.204176 
L 138.084355 224.428787 
L 134.130283 232.662119 
L 130.153746 241.464296 
L 127.077921 248.74173 
L 123.551273 257.676571 
L 120.863192 265.004404 
L 118.123786 273.084393 
L 115.454851 281.504867 
L 112.319265 292.15355 
L 109.893923 301.157384 
L 107.56672 310.701685 
L 105.717313 319.299884 
L 104.333689 326.820556 
L 103.236743 333.594531 
L 101.892149 343.364646 
L 100.605776 355.134099 
L 100.040261 361 
L 100.040261 361 
" clip-path="url(#p0507b3da13)" style="fill: none; stroke-dasharray: 19.2,4.8,3,4.8; stroke-dashoffset: 0; stroke: #00bfbf; stroke-width: 3"/>
   </g>
   <g id="line2d_17">
    <path d="M 505 49.686429 
L 474.249923 51.121407 
L 453.975274 52.258728 
L 435.339463 53.502497 
L 417.570647 54.901121 
L 396.142967 56.853786 
L 380.501785 58.514929 
L 364.442938 60.507584 
L 347.359157 62.948343 
L 331.993766 65.505365 
L 314.493563 68.900235 
L 302.380897 71.619194 
L 289.451295 74.764041 
L 278.369268 77.705927 
L 267.691051 80.793399 
L 256.486591 84.342626 
L 246.348821 87.831945 
L 236.078412 91.735823 
L 226.318569 95.84634 
L 217.82829 99.826219 
L 211.187409 103.316079 
L 205.037884 106.962326 
L 199.640296 110.366188 
L 193.535863 114.496804 
L 187.850337 118.631228 
L 181.644933 123.515474 
L 176.649332 127.782905 
L 172.358557 131.754256 
L 167.750701 136.404693 
L 163.188093 141.491637 
L 159.87848 145.631931 
L 155.246332 152.098831 
L 151.102242 158.338667 
L 148.17141 163.052382 
L 144.06178 170.15832 
L 140.903158 176.136705 
L 137.460946 183.324992 
L 134.571868 190.054843 
L 131.048552 199.196226 
L 128.468678 206.443033 
L 125.35445 215.922175 
L 123.135972 223.405096 
L 120.754433 232.447955 
L 118.63425 241.570942 
L 116.302421 252.82244 
L 114.251234 263.821282 
L 112.166752 276.396074 
L 110.729703 286.177917 
L 107.080269 313.115302 
L 103.759207 339.327116 
L 101.90038 355.185628 
L 101.282538 361 
L 101.282538 361 
" clip-path="url(#p0507b3da13)" style="fill: none; stroke-dasharray: 3,4.95; stroke-dashoffset: 0; stroke: #ff0000; stroke-width: 3"/>
   </g>
   <g id="patch_3">
    <path d="M 97.485 293.64 
L 97.485 39.36 
" style="fill: none; stroke: #000000; stroke-width: 0.8; stroke-linejoin: miter; stroke-linecap: square"/>
   </g>
   <g id="patch_4">
    <path d="M 472.0775 293.64 
L 472.0775 39.36 
" style="fill: none; stroke: #000000; stroke-width: 0.8; stroke-linejoin: miter; stroke-linecap: square"/>
   </g>
   <g id="patch_5">
    <path d="M 97.485 293.64 
L 472.0775 293.64 
" style="fill: none; stroke: #000000; stroke-width: 0.8; stroke-linejoin: miter; stroke-linecap: square"/>
   </g>
   <g id="patch_6">
    <path d="M 97.485 39.36 
L 472.0775 39.36 
" style="fill: none; stroke: #000000; stroke-width: 0.8; stroke-linejoin: miter; stroke-linecap: square"/>
   </g>
   <g id="PathCollection_1">
    <defs>
     <path id="m92083b9249" d="M 0 -4.1833 
L -4.1833 4.1833 
L 4.1833 4.1833 
z
" style="stroke: #000000; stroke-width: 3"/>
    </defs>
    <g clip-path="url(#p0507b3da13)">
     <use xlink:href="#m92083b9249" x="270.363991" y="98.161145" style="stroke: #000000; stroke-width: 3"/>
     <use xlink:href="#m92083b9249" x="116.27747" y="254.436463" style="stroke: #000000; stroke-width: 3"/>
     <use xlink:href="#m92083b9249" x="149.716901" y="203.625403" style="stroke: #000000; stroke-width: 3"/>
     <use xlink:href="#m92083b9249" x="201.321937" y="109.280903" style="stroke: #000000; stroke-width: 3"/>
    </g>
   </g>
   <g id="PathCollection_2">
    <defs>
     <path id="m1e36e3aa20" d="M 0 5 
C 1.326016 5 2.597899 4.473168 3.535534 3.535534 
C 4.473168 2.597899 5 1.326016 5 0 
C 5 -1.326016 4.473168 -2.597899 3.535534 -3.535534 
C 2.597899 -4.473168 1.326016 -5 0 -5 
C -1.326016 -5 -2.597899 -4.473168 -3.535534 -3.535534 
C -4.473168 -2.597899 -5 -1.326016 -5 0 
C -5 1.326016 -4.473168 2.597899 -3.535534 3.535534 
C -2.597899 4.473168 -1.326016 5 0 5 
z
" style="stroke: #008000; stroke-width: 3"/>
    </defs>
    <g clip-path="url(#p0507b3da13)">
     <use xlink:href="#m1e36e3aa20" x="244.084533" y="114.358964" style="fill: #008000; stroke: #008000; stroke-width: 3"/>
     <use xlink:href="#m1e36e3aa20" x="129.52671" y="215.88702" style="fill: #008000; stroke: #008000; stroke-width: 3"/>
     <use xlink:href="#m1e36e3aa20" x="171.359994" y="175.414161" style="fill: #008000; stroke: #008000; stroke-width: 3"/>
     <use xlink:href="#m1e36e3aa20" x="193.536899" y="114.496088" style="fill: #008000; stroke: #008000; stroke-width: 3"/>
    </g>
   </g>
   <g id="PathCollection_3">
    <defs>
     <path id="mb8072cadf8" d="M -5.700877 5.700877 
L 5.700877 -5.700877 
M -5.700877 -5.700877 
L 5.700877 5.700877 
" style="stroke: #800080; stroke-width: 3"/>
    </defs>
    <g clip-path="url(#p0507b3da13)">
     <use xlink:href="#mb8072cadf8" x="176.823434" y="172.765249" style="fill: #800080; stroke: #800080; stroke-width: 3"/>
     <use xlink:href="#mb8072cadf8" x="401.854842" y="74.850423" style="fill: #800080; stroke: #800080; stroke-width: 3"/>
     <use xlink:href="#mb8072cadf8" x="249.809244" y="115.361691" style="fill: #800080; stroke: #800080; stroke-width: 3"/>
     <use xlink:href="#mb8072cadf8" x="151.102242" y="158.338667" style="fill: #800080; stroke: #800080; stroke-width: 3"/>
    </g>
   </g>
   <g id="text_16">
    <!-- ROC curve with thresholds -->
    <g transform="translate(149.255125 33.36)scale(0.204 -0.204)">
     <defs>
      <path id="DejaVuSans-52" d="M 2841 2188 
Q 3044 2119 3236 1894 
Q 3428 1669 3622 1275 
L 4263 0 
L 3584 0 
L 2988 1197 
Q 2756 1666 2539 1819 
Q 2322 1972 1947 1972 
L 1259 1972 
L 1259 0 
L 628 0 
L 628 4666 
L 2053 4666 
Q 2853 4666 3247 4331 
Q 3641 3997 3641 3322 
Q 3641 2881 3436 2590 
Q 3231 2300 2841 2188 
z
M 1259 4147 
L 1259 2491 
L 2053 2491 
Q 2509 2491 2742 2702 
Q 2975 2913 2975 3322 
Q 2975 3731 2742 3939 
Q 2509 4147 2053 4147 
L 1259 4147 
z
" transform="scale(0.015625)"/>
      <path id="DejaVuSans-4f" d="M 2522 4238 
Q 1834 4238 1429 3725 
Q 1025 3213 1025 2328 
Q 1025 1447 1429 934 
Q 1834 422 2522 422 
Q 3209 422 3611 934 
Q 4013 1447 4013 2328 
Q 4013 3213 3611 3725 
Q 3209 4238 2522 4238 
z
M 2522 4750 
Q 3503 4750 4090 4092 
Q 4678 3434 4678 2328 
Q 4678 1225 4090 567 
Q 3503 -91 2522 -91 
Q 1538 -91 948 565 
Q 359 1222 359 2328 
Q 359 3434 948 4092 
Q 1538 4750 2522 4750 
z
" transform="scale(0.015625)"/>
      <path id="DejaVuSans-43" d="M 4122 4306 
L 4122 3641 
Q 3803 3938 3442 4084 
Q 3081 4231 2675 4231 
Q 1875 4231 1450 3742 
Q 1025 3253 1025 2328 
Q 1025 1406 1450 917 
Q 1875 428 2675 428 
Q 3081 428 3442 575 
Q 3803 722 4122 1019 
L 4122 359 
Q 3791 134 3420 21 
Q 3050 -91 2638 -91 
Q 1578 -91 968 557 
Q 359 1206 359 2328 
Q 359 3453 968 4101 
Q 1578 4750 2638 4750 
Q 3056 4750 3426 4639 
Q 3797 4528 4122 4306 
z
" transform="scale(0.015625)"/>
      <path id="DejaVuSans-76" d="M 191 3500 
L 800 3500 
L 1894 563 
L 2988 3500 
L 3597 3500 
L 2284 0 
L 1503 0 
L 191 3500 
z
" transform="scale(0.015625)"/>
      <path id="DejaVuSans-77" d="M 269 3500 
L 844 3500 
L 1563 769 
L 2278 3500 
L 2956 3500 
L 3675 769 
L 4391 3500 
L 4966 3500 
L 4050 0 
L 3372 0 
L 2619 2869 
L 1863 0 
L 1184 0 
L 269 3500 
z
" transform="scale(0.015625)"/>
      <path id="DejaVuSans-68" d="M 3513 2113 
L 3513 0 
L 2938 0 
L 2938 2094 
Q 2938 2591 2744 2837 
Q 2550 3084 2163 3084 
Q 1697 3084 1428 2787 
Q 1159 2491 1159 1978 
L 1159 0 
L 581 0 
L 581 4863 
L 1159 4863 
L 1159 2956 
Q 1366 3272 1645 3428 
Q 1925 3584 2291 3584 
Q 2894 3584 3203 3211 
Q 3513 2838 3513 2113 
z
" transform="scale(0.015625)"/>
     </defs>
     <use xlink:href="#DejaVuSans-52"/>
     <use xlink:href="#DejaVuSans-4f" x="69.482422"/>
     <use xlink:href="#DejaVuSans-43" x="148.193359"/>
     <use xlink:href="#DejaVuSans-20" x="218.017578"/>
     <use xlink:href="#DejaVuSans-63" x="249.804688"/>
     <use xlink:href="#DejaVuSans-75" x="304.785156"/>
     <use xlink:href="#DejaVuSans-72" x="368.164062"/>
     <use xlink:href="#DejaVuSans-76" x="409.277344"/>
     <use xlink:href="#DejaVuSans-65" x="468.457031"/>
     <use xlink:href="#DejaVuSans-20" x="529.980469"/>
     <use xlink:href="#DejaVuSans-77" x="561.767578"/>
     <use xlink:href="#DejaVuSans-69" x="643.554688"/>
     <use xlink:href="#DejaVuSans-74" x="671.337891"/>
     <use xlink:href="#DejaVuSans-68" x="710.546875"/>
     <use xlink:href="#DejaVuSans-20" x="773.925781"/>
     <use xlink:href="#DejaVuSans-74" x="805.712891"/>
     <use xlink:href="#DejaVuSans-68" x="844.921875"/>
     <use xlink:href="#DejaVuSans-72" x="908.300781"/>
     <use xlink:href="#DejaVuSans-65" x="947.164062"/>
     <use xlink:href="#DejaVuSans-73" x="1008.6875"/>
     <use xlink:href="#DejaVuSans-68" x="1060.787109"/>
     <use xlink:href="#DejaVuSans-6f" x="1124.166016"/>
     <use xlink:href="#DejaVuSans-6c" x="1185.347656"/>
     <use xlink:href="#DejaVuSans-64" x="1213.130859"/>
     <use xlink:href="#DejaVuSans-73" x="1276.607422"/>
    </g>
   </g>
   <g id="PathCollection_4">
    <defs>
     <path id="m5dfd6cd223" d="M -6.708204 0 
L 6.708204 0 
M 0 6.708204 
L 0 -6.708204 
" style="stroke: #a52a2a; stroke-width: 3"/>
    </defs>
    <g clip-path="url(#p0507b3da13)">
     <use xlink:href="#m5dfd6cd223" x="204.183369" y="145.006256" style="fill: #a52a2a; stroke: #a52a2a; stroke-width: 3"/>
    </g>
   </g>
   <g id="legend_1">
    <g id="patch_7">
     <path d="M 268.058906 285.14 
L 460.1775 285.14 
Q 463.5775 285.14 463.5775 281.74 
L 463.5775 183.62875 
Q 463.5775 180.22875 460.1775 180.22875 
L 268.058906 180.22875 
Q 264.658906 180.22875 264.658906 183.62875 
L 264.658906 281.74 
Q 264.658906 285.14 268.058906 285.14 
z
" style="fill: #ffffff; opacity: 0.8; stroke: #cccccc; stroke-linejoin: miter"/>
    </g>
    <g id="PathCollection_5">
     <g>
      <use xlink:href="#m92083b9249" x="288.458906" y="195.483594" style="stroke: #000000; stroke-width: 3"/>
     </g>
    </g>
    <g id="text_17">
     <!-- Max profit -->
     <g transform="translate(319.058906 199.946094)scale(0.17 -0.17)">
      <defs>
       <path id="DejaVuSans-4d" d="M 628 4666 
L 1569 4666 
L 2759 1491 
L 3956 4666 
L 4897 4666 
L 4897 0 
L 4281 0 
L 4281 4097 
L 3078 897 
L 2444 897 
L 1241 4097 
L 1241 0 
L 628 0 
L 628 4666 
z
" transform="scale(0.015625)"/>
       <path id="DejaVuSans-78" d="M 3513 3500 
L 2247 1797 
L 3578 0 
L 2900 0 
L 1881 1375 
L 863 0 
L 184 0 
L 1544 1831 
L 300 3500 
L 978 3500 
L 1906 2253 
L 2834 3500 
L 3513 3500 
z
" transform="scale(0.015625)"/>
       <path id="DejaVuSans-70" d="M 1159 525 
L 1159 -1331 
L 581 -1331 
L 581 3500 
L 1159 3500 
L 1159 2969 
Q 1341 3281 1617 3432 
Q 1894 3584 2278 3584 
Q 2916 3584 3314 3078 
Q 3713 2572 3713 1747 
Q 3713 922 3314 415 
Q 2916 -91 2278 -91 
Q 1894 -91 1617 61 
Q 1341 213 1159 525 
z
M 3116 1747 
Q 3116 2381 2855 2742 
Q 2594 3103 2138 3103 
Q 1681 3103 1420 2742 
Q 1159 2381 1159 1747 
Q 1159 1113 1420 752 
Q 1681 391 2138 391 
Q 2594 391 2855 752 
Q 3116 1113 3116 1747 
z
" transform="scale(0.015625)"/>
      </defs>
      <use xlink:href="#DejaVuSans-4d"/>
      <use xlink:href="#DejaVuSans-61" x="86.279297"/>
      <use xlink:href="#DejaVuSans-78" x="147.558594"/>
      <use xlink:href="#DejaVuSans-20" x="206.738281"/>
      <use xlink:href="#DejaVuSans-70" x="238.525391"/>
      <use xlink:href="#DejaVuSans-72" x="302.001953"/>
      <use xlink:href="#DejaVuSans-6f" x="340.865234"/>
      <use xlink:href="#DejaVuSans-66" x="402.046875"/>
      <use xlink:href="#DejaVuSans-69" x="437.251953"/>
      <use xlink:href="#DejaVuSans-74" x="465.035156"/>
     </g>
    </g>
    <g id="PathCollection_6">
     <g>
      <use xlink:href="#m1e36e3aa20" x="288.458906" y="220.436406" style="fill: #008000; stroke: #008000; stroke-width: 3"/>
     </g>
    </g>
    <g id="text_18">
     <!-- Single threshold -->
     <g transform="translate(319.058906 224.898906)scale(0.17 -0.17)">
      <defs>
       <path id="DejaVuSans-53" d="M 3425 4513 
L 3425 3897 
Q 3066 4069 2747 4153 
Q 2428 4238 2131 4238 
Q 1616 4238 1336 4038 
Q 1056 3838 1056 3469 
Q 1056 3159 1242 3001 
Q 1428 2844 1947 2747 
L 2328 2669 
Q 3034 2534 3370 2195 
Q 3706 1856 3706 1288 
Q 3706 609 3251 259 
Q 2797 -91 1919 -91 
Q 1588 -91 1214 -16 
Q 841 59 441 206 
L 441 856 
Q 825 641 1194 531 
Q 1563 422 1919 422 
Q 2459 422 2753 634 
Q 3047 847 3047 1241 
Q 3047 1584 2836 1778 
Q 2625 1972 2144 2069 
L 1759 2144 
Q 1053 2284 737 2584 
Q 422 2884 422 3419 
Q 422 4038 858 4394 
Q 1294 4750 2059 4750 
Q 2388 4750 2728 4690 
Q 3069 4631 3425 4513 
z
" transform="scale(0.015625)"/>
      </defs>
      <use xlink:href="#DejaVuSans-53"/>
      <use xlink:href="#DejaVuSans-69" x="63.476562"/>
      <use xlink:href="#DejaVuSans-6e" x="91.259766"/>
      <use xlink:href="#DejaVuSans-67" x="154.638672"/>
      <use xlink:href="#DejaVuSans-6c" x="218.115234"/>
      <use xlink:href="#DejaVuSans-65" x="245.898438"/>
      <use xlink:href="#DejaVuSans-20" x="307.421875"/>
      <use xlink:href="#DejaVuSans-74" x="339.208984"/>
      <use xlink:href="#DejaVuSans-68" x="378.417969"/>
      <use xlink:href="#DejaVuSans-72" x="441.796875"/>
      <use xlink:href="#DejaVuSans-65" x="480.660156"/>
      <use xlink:href="#DejaVuSans-73" x="542.183594"/>
      <use xlink:href="#DejaVuSans-68" x="594.283203"/>
      <use xlink:href="#DejaVuSans-6f" x="657.662109"/>
      <use xlink:href="#DejaVuSans-6c" x="718.84375"/>
      <use xlink:href="#DejaVuSans-64" x="746.626953"/>
     </g>
    </g>
    <g id="PathCollection_7">
     <g>
      <use xlink:href="#mb8072cadf8" x="288.458906" y="245.389219" style="fill: #800080; stroke: #800080; stroke-width: 3"/>
     </g>
    </g>
    <g id="text_19">
     <!-- Independence -->
     <g transform="translate(319.058906 249.851719)scale(0.17 -0.17)">
      <defs>
       <path id="DejaVuSans-49" d="M 628 4666 
L 1259 4666 
L 1259 0 
L 628 0 
L 628 4666 
z
" transform="scale(0.015625)"/>
      </defs>
      <use xlink:href="#DejaVuSans-49"/>
      <use xlink:href="#DejaVuSans-6e" x="29.492188"/>
      <use xlink:href="#DejaVuSans-64" x="92.871094"/>
      <use xlink:href="#DejaVuSans-65" x="156.347656"/>
      <use xlink:href="#DejaVuSans-70" x="217.871094"/>
      <use xlink:href="#DejaVuSans-65" x="281.347656"/>
      <use xlink:href="#DejaVuSans-6e" x="342.871094"/>
      <use xlink:href="#DejaVuSans-64" x="406.25"/>
      <use xlink:href="#DejaVuSans-65" x="469.726562"/>
      <use xlink:href="#DejaVuSans-6e" x="531.25"/>
      <use xlink:href="#DejaVuSans-63" x="594.628906"/>
      <use xlink:href="#DejaVuSans-65" x="649.609375"/>
     </g>
    </g>
    <g id="PathCollection_8">
     <g>
      <use xlink:href="#m5dfd6cd223" x="288.458906" y="270.342031" style="fill: #a52a2a; stroke: #a52a2a; stroke-width: 3"/>
     </g>
    </g>
    <g id="text_20">
     <!-- Separation -->
     <g transform="translate(319.058906 274.804531)scale(0.17 -0.17)">
      <use xlink:href="#DejaVuSans-53"/>
      <use xlink:href="#DejaVuSans-65" x="63.476562"/>
      <use xlink:href="#DejaVuSans-70" x="125"/>
      <use xlink:href="#DejaVuSans-61" x="188.476562"/>
      <use xlink:href="#DejaVuSans-72" x="249.755859"/>
      <use xlink:href="#DejaVuSans-61" x="290.869141"/>
      <use xlink:href="#DejaVuSans-74" x="352.148438"/>
      <use xlink:href="#DejaVuSans-69" x="391.357422"/>
      <use xlink:href="#DejaVuSans-6f" x="419.140625"/>
      <use xlink:href="#DejaVuSans-6e" x="480.322266"/>
     </g>
    </g>
   </g>
  </g>
 </g>
 <defs>
  <clipPath id="p0507b3da13">
   <rect x="97.485" y="39.36" width="374.5925" height="254.28"/>
  </clipPath>
 </defs>
</svg>
