<?xml version="1.0" encoding="UTF-8" standalone="no"?>
<svg
   xmlns:dc="http://purl.org/dc/elements/1.1/"
   xmlns:cc="http://creativecommons.org/ns#"
   xmlns:rdf="http://www.w3.org/1999/02/22-rdf-syntax-ns#"
   xmlns:svg="http://www.w3.org/2000/svg"
   xmlns="http://www.w3.org/2000/svg"
   viewBox="0 0 131.85001 78.699997"
   height="78.699997"
   width="131.85001"
   xml:space="preserve"
   version="1.1"
   id="svg2"><metadata
     id="metadata8"><rdf:RDF><cc:Work
         rdf:about=""><dc:format>image/svg+xml</dc:format><dc:type
           rdf:resource="http://purl.org/dc/dcmitype/StillImage" /></cc:Work></rdf:RDF></metadata><defs
     id="defs6" /><g
     transform="matrix(1.25,0,0,-1.25,0,78.7)"
     id="g10"><g
       transform="translate(10.22,52.74)"
       id="g12"><g
         id="g14"><g
           id="g16"><g
             id="g18"><g
               id="g20"><path
                 id="path22"
                 style="fill:none;stroke:#000000;stroke-width:0.59776002;stroke-linecap:butt;stroke-linejoin:miter;stroke-miterlimit:10;stroke-dasharray:none;stroke-opacity:1"
                 d="M 9.92134,0 C 9.92134,5.47948 5.47948,9.92134 0,9.92134 -5.47948,9.92134 -9.92134,5.47948 -9.92134,0 c 0,-5.47948 4.44186,-9.92134 9.92134,-9.92134 5.47948,0 9.92134,4.44186 9.92134,9.92134 z" /></g><g
               transform="translate(-5.539,-2.493)"
               id="g24"><g
                 id="g26"><g
                   transform="translate(-4.681,-50.247)"
                   id="g28"><text
                     id="text30"
                     style="font-variant:normal;font-size:9.96259975px;font-family:'URW Palladio L';-inkscape-font-specification:URWPalladioL-Ital;writing-mode:lr-tb;fill:#000000;fill-opacity:1;fill-rule:nonzero;stroke:none"
                     transform="matrix(1,0,0,-1,4.955,50.247)"><tspan
                       id="tspan32"
                       y="0"
                       x="0">Z</tspan></text>
<text
                     id="text34"
                     style="font-variant:normal;font-size:7.57159996px;font-family:'URW Palladio L';-inkscape-font-specification:URWPalladioL-Roma;writing-mode:lr-tb;fill:#000000;fill-opacity:1;fill-rule:nonzero;stroke:none"
                     transform="matrix(1,0,0,-1,11.475,48.389)"><tspan
                       id="tspan36"
                       y="0"
                       x="0">1</tspan></text>
<g
                     transform="translate(4.681,50.247)"
                     id="g38" /></g></g><g
                 transform="translate(5.539,2.493)"
                 id="g40" /></g></g><g
             id="g42"><g
               id="g44"><path
                 id="path46"
                 style="fill:none;stroke:#000000;stroke-width:0.59776002;stroke-linecap:butt;stroke-linejoin:miter;stroke-miterlimit:10;stroke-dasharray:none;stroke-opacity:1"
                 d="m 38.26814,0 c 0,5.47948 -4.44186,9.92134 -9.92134,9.92134 -5.47948,0 -9.92134,-4.44186 -9.92134,-9.92134 0,-5.47948 4.44186,-9.92134 9.92134,-9.92134 5.47948,0 9.92134,4.44186 9.92134,9.92134 z" /></g><g
               transform="translate(22.807,-2.55)"
               id="g48"><g
                 id="g50"><g
                   transform="translate(-33.027,-50.19)"
                   id="g52"><text
                     id="text54"
                     style="font-variant:normal;font-size:9.96259975px;font-family:'URW Palladio L';-inkscape-font-specification:URWPalladioL-Ital;writing-mode:lr-tb;fill:#000000;fill-opacity:1;fill-rule:nonzero;stroke:none"
                     transform="matrix(1,0,0,-1,33.301,50.19)"><tspan
                       id="tspan56"
                       y="0"
                       x="0">Z</tspan></text>
<text
                     id="text58"
                     style="font-variant:normal;font-size:7.57159996px;font-family:'URW Palladio L';-inkscape-font-specification:URWPalladioL-Roma;writing-mode:lr-tb;fill:#000000;fill-opacity:1;fill-rule:nonzero;stroke:none"
                     transform="matrix(1,0,0,-1,39.822,48.446)"><tspan
                       id="tspan60"
                       y="0"
                       x="0">2</tspan></text>
<g
                     transform="translate(33.027,50.19)"
                     id="g62" /></g></g><g
                 transform="translate(-22.807,2.55)"
                 id="g64" /></g></g><g
             id="g66"><g
               id="g68"><path
                 id="path70"
                 style="fill:none;stroke:#ffffff;stroke-width:0.59776002;stroke-linecap:butt;stroke-linejoin:miter;stroke-miterlimit:10;stroke-dasharray:none;stroke-opacity:1"
                 d="m 66.61496,0 c 0,5.47948 -4.44186,9.92134 -9.92134,9.92134 -5.47948,0 -9.92136,-4.44186 -9.92136,-9.92134 0,-5.47948 4.44188,-9.92134 9.92136,-9.92134 5.47948,0 9.92134,4.44186 9.92134,9.92134 z" /></g><g
               transform="translate(50.34,-2.307)"
               id="g72"><g
                 id="g74"><g
                   transform="translate(-60.56,-50.433)"
                   id="g76"><text
                     id="text78"
                     style="font-variant:normal;font-weight:normal;font-size:10.3810997px;font-family:CMSY10;-inkscape-font-specification:CMSY10;writing-mode:lr-tb;fill:#000000;fill-opacity:1;fill-rule:nonzero;stroke:none"
                     transform="matrix(1,0,0,-1,60.685,50.433)"><tspan
                       id="tspan80"
                       y="0"
                       x="0 4.7836108 9.5776024">···</tspan></text>
<g
                     transform="translate(60.56,50.433)"
                     id="g82" /></g></g><g
                 transform="translate(-50.34,2.307)"
                 id="g84" /></g></g><g
             id="g86"><g
               id="g88"><path
                 id="path90"
                 style="fill:none;stroke:#000000;stroke-width:0.59776002;stroke-linecap:butt;stroke-linejoin:miter;stroke-miterlimit:10;stroke-dasharray:none;stroke-opacity:1"
                 d="m 94.96176,0 c 0,5.47948 -4.44186,9.92134 -9.92134,9.92134 -5.47948,0 -9.92134,-4.44186 -9.92134,-9.92134 0,-5.47948 4.44186,-9.92134 9.92134,-9.92134 5.47948,0 9.92134,4.44186 9.92134,9.92134 z" /></g><g
               transform="translate(79.546,-1.651)"
               id="g92"><g
                 id="g94"><g
                   transform="translate(-89.766,-51.089)"
                   id="g96"><text
                     id="text98"
                     style="font-variant:normal;font-size:9.96259975px;font-family:'URW Palladio L';-inkscape-font-specification:URWPalladioL-Ital;writing-mode:lr-tb;fill:#000000;fill-opacity:1;fill-rule:nonzero;stroke:none"
                     transform="matrix(1,0,0,-1,90.04,51.089)"><tspan
                       id="tspan100"
                       y="0"
                       x="0">Z</tspan></text>
<text
                     id="text102"
                     style="font-variant:normal;font-size:7.57159996px;font-family:'URW Palladio L';-inkscape-font-specification:URWPalladioL-Ital;writing-mode:lr-tb;fill:#000000;fill-opacity:1;fill-rule:nonzero;stroke:none"
                     transform="matrix(1,0,0,-1,96.655,49.595)"><tspan
                       id="tspan104"
                       y="0"
                       x="0">q</tspan></text>
<g
                     transform="translate(89.766,51.089)"
                     id="g106" /></g></g><g
                 transform="translate(-79.546,1.651)"
                 id="g108" /></g></g><g
             id="g110"><g
               id="g112"><path
                 id="path114"
                 style="fill:none;stroke:#000000;stroke-width:0.59776002;stroke-linecap:butt;stroke-linejoin:miter;stroke-miterlimit:10;stroke-dasharray:none;stroke-opacity:1"
                 d="m 9.92134,-42.5202 c 0,5.47947 -4.44186,9.92134 -9.92134,9.92134 -5.47948,0 -9.92134,-4.44187 -9.92134,-9.92134 0,-5.47948 4.44186,-9.92134 9.92134,-9.92134 5.47948,0 9.92134,4.44186 9.92134,9.92134 z" /></g><g
               transform="translate(-5.888,-45.013)"
               id="g116"><g
                 id="g118"><g
                   transform="translate(-4.332,-7.727)"
                   id="g120"><text
                     id="text122"
                     style="font-variant:normal;font-size:9.96259975px;font-family:'URW Palladio L';-inkscape-font-specification:URWPalladioL-Ital;writing-mode:lr-tb;fill:#000000;fill-opacity:1;fill-rule:nonzero;stroke:none"
                     transform="matrix(1,0,0,-1,4.606,7.727)"><tspan
                       id="tspan124"
                       y="0"
                       x="0">X</tspan></text>
<text
                     id="text126"
                     style="font-variant:normal;font-size:7.57159996px;font-family:'URW Palladio L';-inkscape-font-specification:URWPalladioL-Roma;writing-mode:lr-tb;fill:#000000;fill-opacity:1;fill-rule:nonzero;stroke:none"
                     transform="matrix(1,0,0,-1,11.824,5.869)"><tspan
                       id="tspan128"
                       y="0"
                       x="0">1</tspan></text>
<g
                     transform="translate(4.332,7.727)"
                     id="g130" /></g></g><g
                 transform="translate(5.888,45.013)"
                 id="g132" /></g></g><g
             id="g134"><g
               id="g136"><path
                 id="path138"
                 style="fill:none;stroke:#000000;stroke-width:0.59776002;stroke-linecap:butt;stroke-linejoin:miter;stroke-miterlimit:10;stroke-dasharray:none;stroke-opacity:1"
                 d="m 38.26814,-42.5202 c 0,5.47947 -4.44186,9.92134 -9.92134,9.92134 -5.47948,0 -9.92134,-4.44187 -9.92134,-9.92134 0,-5.47948 4.44186,-9.92134 9.92134,-9.92134 5.47948,0 9.92134,4.44186 9.92134,9.92134 z" /></g><g
               transform="translate(22.459,-45.07)"
               id="g140"><g
                 id="g142"><g
                   transform="translate(-32.679,-7.67)"
                   id="g144"><text
                     id="text146"
                     style="font-variant:normal;font-size:9.96259975px;font-family:'URW Palladio L';-inkscape-font-specification:URWPalladioL-Ital;writing-mode:lr-tb;fill:#000000;fill-opacity:1;fill-rule:nonzero;stroke:none"
                     transform="matrix(1,0,0,-1,32.953,7.67)"><tspan
                       id="tspan148"
                       y="0"
                       x="0">X</tspan></text>
<text
                     id="text150"
                     style="font-variant:normal;font-size:7.57159996px;font-family:'URW Palladio L';-inkscape-font-specification:URWPalladioL-Roma;writing-mode:lr-tb;fill:#000000;fill-opacity:1;fill-rule:nonzero;stroke:none"
                     transform="matrix(1,0,0,-1,40.171,5.926)"><tspan
                       id="tspan152"
                       y="0"
                       x="0">2</tspan></text>
<g
                     transform="translate(32.679,7.67)"
                     id="g154" /></g></g><g
                 transform="translate(-22.459,45.07)"
                 id="g156" /></g></g><g
             id="g158"><g
               id="g160"><path
                 id="path162"
                 style="fill:none;stroke:#ffffff;stroke-width:0.59776002;stroke-linecap:butt;stroke-linejoin:miter;stroke-miterlimit:10;stroke-dasharray:none;stroke-opacity:1"
                 d="m 66.61496,-42.5202 c 0,5.47947 -4.44186,9.92134 -9.92134,9.92134 -5.47948,0 -9.92136,-4.44187 -9.92136,-9.92134 0,-5.47948 4.44188,-9.92134 9.92136,-9.92134 5.47948,0 9.92134,4.44186 9.92134,9.92134 z" /></g><g
               transform="translate(50.34,-44.826)"
               id="g164"><g
                 id="g166"><g
                   transform="translate(-60.56,-7.914)"
                   id="g168"><text
                     id="text170"
                     style="font-variant:normal;font-weight:normal;font-size:10.3810997px;font-family:CMSY10;-inkscape-font-specification:CMSY10;writing-mode:lr-tb;fill:#000000;fill-opacity:1;fill-rule:nonzero;stroke:none"
                     transform="matrix(1,0,0,-1,60.685,7.914)"><tspan
                       id="tspan172"
                       y="0"
                       x="0 4.7836108 9.5776024">···</tspan></text>
<g
                     transform="translate(60.56,7.914)"
                     id="g174" /></g></g><g
                 transform="translate(-50.34,44.826)"
                 id="g176" /></g></g><g
             id="g178"><g
               id="g180"><path
                 id="path182"
                 style="fill:none;stroke:#000000;stroke-width:0.59776002;stroke-linecap:butt;stroke-linejoin:miter;stroke-miterlimit:10;stroke-dasharray:none;stroke-opacity:1"
                 d="m 94.96176,-42.5202 c 0,5.47947 -4.44186,9.92134 -9.92134,9.92134 -5.47948,0 -9.92134,-4.44187 -9.92134,-9.92134 0,-5.47948 4.44186,-9.92134 9.92134,-9.92134 5.47948,0 9.92134,4.44186 9.92134,9.92134 z" /></g><g
               transform="translate(78.849,-44.17)"
               id="g184"><g
                 id="g186"><g
                   transform="translate(-89.069,-8.57)"
                   id="g188"><text
                     id="text190"
                     style="font-variant:normal;font-size:9.96259975px;font-family:'URW Palladio L';-inkscape-font-specification:URWPalladioL-Ital;writing-mode:lr-tb;fill:#000000;fill-opacity:1;fill-rule:nonzero;stroke:none"
                     transform="matrix(1,0,0,-1,89.343,8.57)"><tspan
                       id="tspan192"
                       y="0"
                       x="0">X</tspan></text>
<text
                     id="text194"
                     style="font-variant:normal;font-size:7.57159996px;font-family:'URW Palladio L';-inkscape-font-specification:URWPalladioL-Ital;writing-mode:lr-tb;fill:#000000;fill-opacity:1;fill-rule:nonzero;stroke:none"
                     transform="matrix(1,0,0,-1,97.072,7.075)"><tspan
                       id="tspan196"
                       y="0"
                       x="0">p</tspan></text>
<g
                     transform="translate(89.069,8.57)"
                     id="g198" /></g></g><g
                 transform="translate(-78.849,44.17)"
                 id="g200" /></g></g><g
             id="g202"><path
               id="path204"
               style="fill:none;stroke:#000000;stroke-width:0.59776002;stroke-linecap:butt;stroke-linejoin:miter;stroke-miterlimit:10;stroke-dasharray:none;stroke-opacity:1"
               d="M 0,-10.22021 0,-31.71715" /><g
               transform="matrix(0,-1,1,0,0,-31.71715)"
               id="g206"><g
                 id="g208"><path
                   id="path210"
                   style="fill:none;stroke:#000000;stroke-width:0.47819999;stroke-linecap:round;stroke-linejoin:round;stroke-miterlimit:10;stroke-dasharray:none;stroke-opacity:1"
                   d="M -1.37483,1.83311 C -1.26025,1.14569 0,0.11455 0.34369,0 0,-0.11455 -1.26025,-1.14569 -1.37483,-1.83311" /></g></g></g><g
             id="g212"><path
               id="path214"
               style="fill:none;stroke:#000000;stroke-width:0.59776002;stroke-linecap:butt;stroke-linejoin:miter;stroke-miterlimit:10;stroke-dasharray:none;stroke-opacity:1"
               d="M 5.6865,-8.52972 22.33589,-33.50404" /><g
               transform="matrix(0.55637,-0.8346,0.8346,0.55637,22.33589,-33.50404)"
               id="g216"><g
                 id="g218"><path
                   id="path220"
                   style="fill:none;stroke:#000000;stroke-width:0.47819999;stroke-linecap:round;stroke-linejoin:round;stroke-miterlimit:10;stroke-dasharray:none;stroke-opacity:1"
                   d="M -1.37483,1.83311 C -1.26025,1.14569 0,0.11455 0.34369,0 0,-0.11455 -1.26025,-1.14569 -1.37483,-1.83311" /></g></g></g><g
             id="g222"><path
               id="path224"
               style="fill:none;stroke:#000000;stroke-width:0.59776002;stroke-linecap:butt;stroke-linejoin:miter;stroke-miterlimit:10;stroke-dasharray:none;stroke-opacity:1"
               d="M 9.1777,-4.58893 75.37793,-37.68887" /><g
               transform="matrix(0.89442,-0.4472,0.4472,0.89442,75.37793,-37.68886)"
               id="g226"><g
                 id="g228"><path
                   id="path230"
                   style="fill:none;stroke:#000000;stroke-width:0.47819999;stroke-linecap:round;stroke-linejoin:round;stroke-miterlimit:10;stroke-dasharray:none;stroke-opacity:1"
                   d="M -1.37483,1.83311 C -1.26025,1.14569 0,0.11455 0.34369,0 0,-0.11455 -1.26025,-1.14569 -1.37483,-1.83311" /></g></g></g><g
             id="g232"><path
               id="path234"
               style="fill:none;stroke:#000000;stroke-width:0.59776002;stroke-linecap:butt;stroke-linejoin:miter;stroke-miterlimit:10;stroke-dasharray:none;stroke-opacity:1"
               d="M 22.66031,-8.52972 6.0109,-33.50404" /><g
               transform="matrix(-0.55637,-0.8346,0.8346,-0.55637,6.0109,-33.50404)"
               id="g236"><g
                 id="g238"><path
                   id="path240"
                   style="fill:none;stroke:#000000;stroke-width:0.47819999;stroke-linecap:round;stroke-linejoin:round;stroke-miterlimit:10;stroke-dasharray:none;stroke-opacity:1"
                   d="M -1.37483,1.83311 C -1.26025,1.14569 0,0.11455 0.34369,0 0,-0.11455 -1.26025,-1.14569 -1.37483,-1.83311" /></g></g></g><g
             id="g242"><path
               id="path244"
               style="fill:none;stroke:#000000;stroke-width:0.59776002;stroke-linecap:butt;stroke-linejoin:miter;stroke-miterlimit:10;stroke-dasharray:none;stroke-opacity:1"
               d="m 28.3468,-10.22021 0,-21.49694" /><g
               transform="matrix(0,-1,1,0,28.3468,-31.71715)"
               id="g246"><g
                 id="g248"><path
                   id="path250"
                   style="fill:none;stroke:#000000;stroke-width:0.47819999;stroke-linecap:round;stroke-linejoin:round;stroke-miterlimit:10;stroke-dasharray:none;stroke-opacity:1"
                   d="M -1.37483,1.83311 C -1.26025,1.14569 0,0.11455 0.34369,0 0,-0.11455 -1.26025,-1.14569 -1.37483,-1.83311" /></g></g></g><g
             id="g252"><path
               id="path254"
               style="fill:none;stroke:#000000;stroke-width:0.59776002;stroke-linecap:butt;stroke-linejoin:miter;stroke-miterlimit:10;stroke-dasharray:none;stroke-opacity:1"
               d="M 36.5623,-6.1615 76.39796,-36.0383" /><g
               transform="matrix(0.8,-0.60004,0.60004,0.8,76.39795,-36.03828)"
               id="g256"><g
                 id="g258"><path
                   id="path260"
                   style="fill:none;stroke:#000000;stroke-width:0.47819999;stroke-linecap:round;stroke-linejoin:round;stroke-miterlimit:10;stroke-dasharray:none;stroke-opacity:1"
                   d="M -1.37483,1.83311 C -1.26025,1.14569 0,0.11455 0.34369,0 0,-0.11455 -1.26025,-1.14569 -1.37483,-1.83311" /></g></g></g><g
             id="g262"><path
               id="path264"
               style="fill:none;stroke:#000000;stroke-width:0.59776002;stroke-linecap:butt;stroke-linejoin:miter;stroke-miterlimit:10;stroke-dasharray:none;stroke-opacity:1"
               d="M 75.86272,-4.58893 9.66249,-37.68887" /><g
               transform="matrix(-0.89442,-0.4472,0.4472,-0.89442,9.66249,-37.68886)"
               id="g266"><g
                 id="g268"><path
                   id="path270"
                   style="fill:none;stroke:#000000;stroke-width:0.47819999;stroke-linecap:round;stroke-linejoin:round;stroke-miterlimit:10;stroke-dasharray:none;stroke-opacity:1"
                   d="M -1.37483,1.83311 C -1.26025,1.14569 0,0.11455 0.34369,0 0,-0.11455 -1.26025,-1.14569 -1.37483,-1.83311" /></g></g></g><g
             id="g272"><path
               id="path274"
               style="fill:none;stroke:#000000;stroke-width:0.59776002;stroke-linecap:butt;stroke-linejoin:miter;stroke-miterlimit:10;stroke-dasharray:none;stroke-opacity:1"
               d="M 76.82492,-6.1615 36.98926,-36.0383" /><g
               transform="matrix(-0.8,-0.60004,0.60004,-0.8,36.98927,-36.03828)"
               id="g276"><g
                 id="g278"><path
                   id="path280"
                   style="fill:none;stroke:#000000;stroke-width:0.47819999;stroke-linecap:round;stroke-linejoin:round;stroke-miterlimit:10;stroke-dasharray:none;stroke-opacity:1"
                   d="M -1.37483,1.83311 C -1.26025,1.14569 0,0.11455 0.34369,0 0,-0.11455 -1.26025,-1.14569 -1.37483,-1.83311" /></g></g></g><g
             id="g282"><path
               id="path284"
               style="fill:none;stroke:#000000;stroke-width:0.59776002;stroke-linecap:butt;stroke-linejoin:miter;stroke-miterlimit:10;stroke-dasharray:none;stroke-opacity:1"
               d="m 85.04042,-10.22021 0,-21.49694" /><g
               transform="matrix(0,-1,1,0,85.04042,-31.71715)"
               id="g286"><g
                 id="g288"><path
                   id="path290"
                   style="fill:none;stroke:#000000;stroke-width:0.47819999;stroke-linecap:round;stroke-linejoin:round;stroke-miterlimit:10;stroke-dasharray:none;stroke-opacity:1"
                   d="M -1.37483,1.83311 C -1.26025,1.14569 0,0.11455 0.34369,0 0,-0.11455 -1.26025,-1.14569 -1.37483,-1.83311" /></g></g></g></g></g></g></g></svg>