<?xml version="1.0" encoding="utf-8" standalone="no"?>
<!DOCTYPE svg PUBLIC "-//W3C//DTD SVG 1.1//EN"
  "http://www.w3.org/Graphics/SVG/1.1/DTD/svg11.dtd">
<!-- Created with matplotlib (http://matplotlib.org/) -->
<svg height="360pt" version="1.1" viewBox="0 0 360 360" width="360pt" xmlns="http://www.w3.org/2000/svg" xmlns:xlink="http://www.w3.org/1999/xlink">
 <defs>
  <style type="text/css">
*{stroke-linecap:butt;stroke-linejoin:round;}
  </style>
 </defs>
 <g id="figure_1">
  <g id="patch_1">
   <path d="M 0 360 
L 360 360 
L 360 0 
L 0 0 
z
" style="fill:#ffffff;"/>
  </g>
  <g id="axes_1">
   <g id="patch_2">
    <path d="M 45 315 
L 324 315 
L 324 43.2 
L 45 43.2 
z
" style="fill:#ffffff;"/>
   </g>
   <g id="matplotlib.axis_1">
    <g id="text_1">
     <!-- GPA -->
     <defs>
      <path d="M 59.515625 10.40625 
L 59.515625 29.984375 
L 43.40625 29.984375 
L 43.40625 38.09375 
L 69.28125 38.09375 
L 69.28125 6.78125 
Q 63.578125 2.734375 56.6875 0.65625 
Q 49.8125 -1.421875 42 -1.421875 
Q 24.90625 -1.421875 15.25 8.5625 
Q 5.609375 18.5625 5.609375 36.375 
Q 5.609375 54.25 15.25 64.234375 
Q 24.90625 74.21875 42 74.21875 
Q 49.125 74.21875 55.546875 72.453125 
Q 61.96875 70.703125 67.390625 67.28125 
L 67.390625 56.78125 
Q 61.921875 61.421875 55.765625 63.765625 
Q 49.609375 66.109375 42.828125 66.109375 
Q 29.4375 66.109375 22.71875 58.640625 
Q 16.015625 51.171875 16.015625 36.375 
Q 16.015625 21.625 22.71875 14.15625 
Q 29.4375 6.6875 42.828125 6.6875 
Q 48.046875 6.6875 52.140625 7.59375 
Q 56.25 8.5 59.515625 10.40625 
z
" id="DejaVuSans-47"/>
      <path d="M 19.671875 64.796875 
L 19.671875 37.40625 
L 32.078125 37.40625 
Q 38.96875 37.40625 42.71875 40.96875 
Q 46.484375 44.53125 46.484375 51.125 
Q 46.484375 57.671875 42.71875 61.234375 
Q 38.96875 64.796875 32.078125 64.796875 
z
M 9.8125 72.90625 
L 32.078125 72.90625 
Q 44.34375 72.90625 50.609375 67.359375 
Q 56.890625 61.8125 56.890625 51.125 
Q 56.890625 40.328125 50.609375 34.8125 
Q 44.34375 29.296875 32.078125 29.296875 
L 19.671875 29.296875 
L 19.671875 0 
L 9.8125 0 
z
" id="DejaVuSans-50"/>
      <path d="M 34.1875 63.1875 
L 20.796875 26.90625 
L 47.609375 26.90625 
z
M 28.609375 72.90625 
L 39.796875 72.90625 
L 67.578125 0 
L 57.328125 0 
L 50.6875 18.703125 
L 17.828125 18.703125 
L 11.1875 0 
L 0.78125 0 
z
" id="DejaVuSans-41"/>
     </defs>
     <g transform="translate(163.478438 334.500812)scale(0.204 -0.204)">
      <use xlink:href="#DejaVuSans-47"/>
      <use x="77.490234" xlink:href="#DejaVuSans-50"/>
      <use x="137.699219" xlink:href="#DejaVuSans-41"/>
     </g>
    </g>
   </g>
   <g id="matplotlib.axis_2">
    <g id="text_2">
     <!-- Interview score -->
     <defs>
      <path d="M 9.8125 72.90625 
L 19.671875 72.90625 
L 19.671875 0 
L 9.8125 0 
z
" id="DejaVuSans-49"/>
      <path d="M 54.890625 33.015625 
L 54.890625 0 
L 45.90625 0 
L 45.90625 32.71875 
Q 45.90625 40.484375 42.875 44.328125 
Q 39.84375 48.1875 33.796875 48.1875 
Q 26.515625 48.1875 22.3125 43.546875 
Q 18.109375 38.921875 18.109375 30.90625 
L 18.109375 0 
L 9.078125 0 
L 9.078125 54.6875 
L 18.109375 54.6875 
L 18.109375 46.1875 
Q 21.34375 51.125 25.703125 53.5625 
Q 30.078125 56 35.796875 56 
Q 45.21875 56 50.046875 50.171875 
Q 54.890625 44.34375 54.890625 33.015625 
z
" id="DejaVuSans-6e"/>
      <path d="M 18.3125 70.21875 
L 18.3125 54.6875 
L 36.8125 54.6875 
L 36.8125 47.703125 
L 18.3125 47.703125 
L 18.3125 18.015625 
Q 18.3125 11.328125 20.140625 9.421875 
Q 21.96875 7.515625 27.59375 7.515625 
L 36.8125 7.515625 
L 36.8125 0 
L 27.59375 0 
Q 17.1875 0 13.234375 3.875 
Q 9.28125 7.765625 9.28125 18.015625 
L 9.28125 47.703125 
L 2.6875 47.703125 
L 2.6875 54.6875 
L 9.28125 54.6875 
L 9.28125 70.21875 
z
" id="DejaVuSans-74"/>
      <path d="M 56.203125 29.59375 
L 56.203125 25.203125 
L 14.890625 25.203125 
Q 15.484375 15.921875 20.484375 11.0625 
Q 25.484375 6.203125 34.421875 6.203125 
Q 39.59375 6.203125 44.453125 7.46875 
Q 49.3125 8.734375 54.109375 11.28125 
L 54.109375 2.78125 
Q 49.265625 0.734375 44.1875 -0.34375 
Q 39.109375 -1.421875 33.890625 -1.421875 
Q 20.796875 -1.421875 13.15625 6.1875 
Q 5.515625 13.8125 5.515625 26.8125 
Q 5.515625 40.234375 12.765625 48.109375 
Q 20.015625 56 32.328125 56 
Q 43.359375 56 49.78125 48.890625 
Q 56.203125 41.796875 56.203125 29.59375 
z
M 47.21875 32.234375 
Q 47.125 39.59375 43.09375 43.984375 
Q 39.0625 48.390625 32.421875 48.390625 
Q 24.90625 48.390625 20.390625 44.140625 
Q 15.875 39.890625 15.1875 32.171875 
z
" id="DejaVuSans-65"/>
      <path d="M 41.109375 46.296875 
Q 39.59375 47.171875 37.8125 47.578125 
Q 36.03125 48 33.890625 48 
Q 26.265625 48 22.1875 43.046875 
Q 18.109375 38.09375 18.109375 28.8125 
L 18.109375 0 
L 9.078125 0 
L 9.078125 54.6875 
L 18.109375 54.6875 
L 18.109375 46.1875 
Q 20.953125 51.171875 25.484375 53.578125 
Q 30.03125 56 36.53125 56 
Q 37.453125 56 38.578125 55.875 
Q 39.703125 55.765625 41.0625 55.515625 
z
" id="DejaVuSans-72"/>
      <path d="M 2.984375 54.6875 
L 12.5 54.6875 
L 29.59375 8.796875 
L 46.6875 54.6875 
L 56.203125 54.6875 
L 35.6875 0 
L 23.484375 0 
z
" id="DejaVuSans-76"/>
      <path d="M 9.421875 54.6875 
L 18.40625 54.6875 
L 18.40625 0 
L 9.421875 0 
z
M 9.421875 75.984375 
L 18.40625 75.984375 
L 18.40625 64.59375 
L 9.421875 64.59375 
z
" id="DejaVuSans-69"/>
      <path d="M 4.203125 54.6875 
L 13.1875 54.6875 
L 24.421875 12.015625 
L 35.59375 54.6875 
L 46.1875 54.6875 
L 57.421875 12.015625 
L 68.609375 54.6875 
L 77.59375 54.6875 
L 63.28125 0 
L 52.6875 0 
L 40.921875 44.828125 
L 29.109375 0 
L 18.5 0 
z
" id="DejaVuSans-77"/>
      <path id="DejaVuSans-20"/>
      <path d="M 44.28125 53.078125 
L 44.28125 44.578125 
Q 40.484375 46.53125 36.375 47.5 
Q 32.28125 48.484375 27.875 48.484375 
Q 21.1875 48.484375 17.84375 46.4375 
Q 14.5 44.390625 14.5 40.28125 
Q 14.5 37.15625 16.890625 35.375 
Q 19.28125 33.59375 26.515625 31.984375 
L 29.59375 31.296875 
Q 39.15625 29.25 43.1875 25.515625 
Q 47.21875 21.78125 47.21875 15.09375 
Q 47.21875 7.46875 41.1875 3.015625 
Q 35.15625 -1.421875 24.609375 -1.421875 
Q 20.21875 -1.421875 15.453125 -0.5625 
Q 10.6875 0.296875 5.421875 2 
L 5.421875 11.28125 
Q 10.40625 8.6875 15.234375 7.390625 
Q 20.0625 6.109375 24.8125 6.109375 
Q 31.15625 6.109375 34.5625 8.28125 
Q 37.984375 10.453125 37.984375 14.40625 
Q 37.984375 18.0625 35.515625 20.015625 
Q 33.0625 21.96875 24.703125 23.78125 
L 21.578125 24.515625 
Q 13.234375 26.265625 9.515625 29.90625 
Q 5.8125 33.546875 5.8125 39.890625 
Q 5.8125 47.609375 11.28125 51.796875 
Q 16.75 56 26.8125 56 
Q 31.78125 56 36.171875 55.265625 
Q 40.578125 54.546875 44.28125 53.078125 
z
" id="DejaVuSans-73"/>
      <path d="M 48.78125 52.59375 
L 48.78125 44.1875 
Q 44.96875 46.296875 41.140625 47.34375 
Q 37.3125 48.390625 33.40625 48.390625 
Q 24.65625 48.390625 19.8125 42.84375 
Q 14.984375 37.3125 14.984375 27.296875 
Q 14.984375 17.28125 19.8125 11.734375 
Q 24.65625 6.203125 33.40625 6.203125 
Q 37.3125 6.203125 41.140625 7.25 
Q 44.96875 8.296875 48.78125 10.40625 
L 48.78125 2.09375 
Q 45.015625 0.34375 40.984375 -0.53125 
Q 36.96875 -1.421875 32.421875 -1.421875 
Q 20.0625 -1.421875 12.78125 6.34375 
Q 5.515625 14.109375 5.515625 27.296875 
Q 5.515625 40.671875 12.859375 48.328125 
Q 20.21875 56 33.015625 56 
Q 37.15625 56 41.109375 55.140625 
Q 45.0625 54.296875 48.78125 52.59375 
z
" id="DejaVuSans-63"/>
      <path d="M 30.609375 48.390625 
Q 23.390625 48.390625 19.1875 42.75 
Q 14.984375 37.109375 14.984375 27.296875 
Q 14.984375 17.484375 19.15625 11.84375 
Q 23.34375 6.203125 30.609375 6.203125 
Q 37.796875 6.203125 41.984375 11.859375 
Q 46.1875 17.53125 46.1875 27.296875 
Q 46.1875 37.015625 41.984375 42.703125 
Q 37.796875 48.390625 30.609375 48.390625 
z
M 30.609375 56 
Q 42.328125 56 49.015625 48.375 
Q 55.71875 40.765625 55.71875 27.296875 
Q 55.71875 13.875 49.015625 6.21875 
Q 42.328125 -1.421875 30.609375 -1.421875 
Q 18.84375 -1.421875 12.171875 6.21875 
Q 5.515625 13.875 5.515625 27.296875 
Q 5.515625 40.765625 12.171875 48.375 
Q 18.84375 56 30.609375 56 
z
" id="DejaVuSans-6f"/>
     </defs>
     <g transform="translate(36.757437 257.400937)rotate(-90)scale(0.204 -0.204)">
      <use xlink:href="#DejaVuSans-49"/>
      <use x="29.492188" xlink:href="#DejaVuSans-6e"/>
      <use x="92.871094" xlink:href="#DejaVuSans-74"/>
      <use x="132.080078" xlink:href="#DejaVuSans-65"/>
      <use x="193.603516" xlink:href="#DejaVuSans-72"/>
      <use x="234.716797" xlink:href="#DejaVuSans-76"/>
      <use x="293.896484" xlink:href="#DejaVuSans-69"/>
      <use x="321.679688" xlink:href="#DejaVuSans-65"/>
      <use x="383.203125" xlink:href="#DejaVuSans-77"/>
      <use x="464.990234" xlink:href="#DejaVuSans-20"/>
      <use x="496.777344" xlink:href="#DejaVuSans-73"/>
      <use x="548.876953" xlink:href="#DejaVuSans-63"/>
      <use x="603.857422" xlink:href="#DejaVuSans-6f"/>
      <use x="665.039062" xlink:href="#DejaVuSans-72"/>
      <use x="706.121094" xlink:href="#DejaVuSans-65"/>
     </g>
    </g>
   </g>
   <g id="line2d_1">
    <defs>
     <path d="M -2.5 2.5 
L 2.5 2.5 
L 2.5 -2.5 
L -2.5 -2.5 
z
" id="m2a3d2ca129" style="stroke:#0000ff;stroke-linejoin:miter;"/>
    </defs>
    <g clip-path="url(#p79429cb053)">
     <use style="fill:#0000ff;stroke:#0000ff;stroke-linejoin:miter;" x="138.55658" xlink:href="#m2a3d2ca129" y="271.146804"/>
    </g>
   </g>
   <g id="line2d_2">
    <defs>
     <path d="M 0 -2.5 
L -2.5 2.5 
L 2.5 2.5 
z
" id="mea01e51981" style="stroke:#008000;stroke-linejoin:miter;"/>
    </defs>
    <g clip-path="url(#p79429cb053)">
     <use style="fill:#008000;stroke:#008000;stroke-linejoin:miter;" x="235.625624" xlink:href="#mea01e51981" y="179.214447"/>
    </g>
   </g>
   <g id="line2d_3">
    <g clip-path="url(#p79429cb053)">
     <use style="fill:#0000ff;stroke:#0000ff;stroke-linejoin:miter;" x="57.681818" xlink:href="#m2a3d2ca129" y="250.342172"/>
    </g>
   </g>
   <g id="line2d_4">
    <g clip-path="url(#p79429cb053)">
     <use style="fill:#008000;stroke:#008000;stroke-linejoin:miter;" x="177.962186" xlink:href="#mea01e51981" y="206.424049"/>
    </g>
   </g>
   <g id="line2d_5">
    <g clip-path="url(#p79429cb053)">
     <use style="fill:#0000ff;stroke:#0000ff;stroke-linejoin:miter;" x="134.160903" xlink:href="#m2a3d2ca129" y="222.679018"/>
    </g>
   </g>
   <g id="line2d_6">
    <g clip-path="url(#p79429cb053)">
     <use style="fill:#0000ff;stroke:#0000ff;stroke-linejoin:miter;" x="95.565906" xlink:href="#m2a3d2ca129" y="241.484798"/>
    </g>
   </g>
   <g id="line2d_7">
    <g clip-path="url(#p79429cb053)">
     <use style="fill:#008000;stroke:#008000;stroke-linejoin:miter;" x="159.401721" xlink:href="#mea01e51981" y="226.609316"/>
    </g>
   </g>
   <g id="line2d_8">
    <g clip-path="url(#p79429cb053)">
     <use style="fill:#008000;stroke:#008000;stroke-linejoin:miter;" x="156.123713" xlink:href="#mea01e51981" y="213.127631"/>
    </g>
   </g>
   <g id="line2d_9">
    <g clip-path="url(#p79429cb053)">
     <use style="fill:#0000ff;stroke:#0000ff;stroke-linejoin:miter;" x="194.219596" xlink:href="#m2a3d2ca129" y="203.041655"/>
    </g>
   </g>
   <g id="line2d_10">
    <g clip-path="url(#p79429cb053)">
     <use style="fill:#0000ff;stroke:#0000ff;stroke-linejoin:miter;" x="175.143319" xlink:href="#m2a3d2ca129" y="216.475497"/>
    </g>
   </g>
   <g id="line2d_11">
    <g clip-path="url(#p79429cb053)">
     <use style="fill:#008000;stroke:#008000;stroke-linejoin:miter;" x="183.425446" xlink:href="#mea01e51981" y="211.236562"/>
    </g>
   </g>
   <g id="line2d_12">
    <g clip-path="url(#p79429cb053)">
     <use style="fill:#0000ff;stroke:#0000ff;stroke-linejoin:miter;" x="229.800442" xlink:href="#m2a3d2ca129" y="239.156111"/>
    </g>
   </g>
   <g id="line2d_13">
    <g clip-path="url(#p79429cb053)">
     <use style="fill:#0000ff;stroke:#0000ff;stroke-linejoin:miter;" x="161.466766" xlink:href="#m2a3d2ca129" y="183.198315"/>
    </g>
   </g>
   <g id="line2d_14">
    <g clip-path="url(#p79429cb053)">
     <use style="fill:#008000;stroke:#008000;stroke-linejoin:miter;" x="99.318919" xlink:href="#mea01e51981" y="207.898262"/>
    </g>
   </g>
   <g id="line2d_15">
    <g clip-path="url(#p79429cb053)">
     <use style="fill:#0000ff;stroke:#0000ff;stroke-linejoin:miter;" x="123.508962" xlink:href="#m2a3d2ca129" y="186.592033"/>
    </g>
   </g>
   <g id="line2d_16">
    <g clip-path="url(#p79429cb053)">
     <use style="fill:#008000;stroke:#008000;stroke-linejoin:miter;" x="233.863631" xlink:href="#mea01e51981" y="185.007536"/>
    </g>
   </g>
   <g id="line2d_17">
    <g clip-path="url(#p79429cb053)">
     <use style="fill:#0000ff;stroke:#0000ff;stroke-linejoin:miter;" x="89.904691" xlink:href="#m2a3d2ca129" y="244.952495"/>
    </g>
   </g>
   <g id="line2d_18">
    <g clip-path="url(#p79429cb053)">
     <use style="fill:#008000;stroke:#008000;stroke-linejoin:miter;" x="220.16048" xlink:href="#mea01e51981" y="142.162831"/>
    </g>
   </g>
   <g id="line2d_19">
    <g clip-path="url(#p79429cb053)">
     <use style="fill:#008000;stroke:#008000;stroke-linejoin:miter;" x="213.794309" xlink:href="#mea01e51981" y="116.928558"/>
    </g>
   </g>
   <g id="line2d_20">
    <g clip-path="url(#p79429cb053)">
     <use style="fill:#0000ff;stroke:#0000ff;stroke-linejoin:miter;" x="107.674001" xlink:href="#m2a3d2ca129" y="244.306033"/>
    </g>
   </g>
   <g id="line2d_21">
    <g clip-path="url(#p79429cb053)">
     <use style="fill:#008000;stroke:#008000;stroke-linejoin:miter;" x="231.468988" xlink:href="#mea01e51981" y="236.280988"/>
    </g>
   </g>
   <g id="line2d_22">
    <g clip-path="url(#p79429cb053)">
     <use style="fill:#0000ff;stroke:#0000ff;stroke-linejoin:miter;" x="105.795382" xlink:href="#m2a3d2ca129" y="263.87746"/>
    </g>
   </g>
   <g id="line2d_23">
    <g clip-path="url(#p79429cb053)">
     <use style="fill:#008000;stroke:#008000;stroke-linejoin:miter;" x="173.008332" xlink:href="#mea01e51981" y="251.940063"/>
    </g>
   </g>
   <g id="line2d_24">
    <g clip-path="url(#p79429cb053)">
     <use style="fill:#008000;stroke:#008000;stroke-linejoin:miter;" x="202.420028" xlink:href="#mea01e51981" y="194.960644"/>
    </g>
   </g>
   <g id="line2d_25">
    <g clip-path="url(#p79429cb053)">
     <use style="fill:#008000;stroke:#008000;stroke-linejoin:miter;" x="178.794479" xlink:href="#mea01e51981" y="150.565225"/>
    </g>
   </g>
   <g id="line2d_26">
    <g clip-path="url(#p79429cb053)">
     <use style="fill:#0000ff;stroke:#0000ff;stroke-linejoin:miter;" x="141.377623" xlink:href="#m2a3d2ca129" y="216.073706"/>
    </g>
   </g>
   <g id="line2d_27">
    <g clip-path="url(#p79429cb053)">
     <use style="fill:#0000ff;stroke:#0000ff;stroke-linejoin:miter;" x="82.271082" xlink:href="#m2a3d2ca129" y="198.389221"/>
    </g>
   </g>
   <g id="line2d_28">
    <g clip-path="url(#p79429cb053)">
     <use style="fill:#0000ff;stroke:#0000ff;stroke-linejoin:miter;" x="154.656234" xlink:href="#m2a3d2ca129" y="167.413806"/>
    </g>
   </g>
   <g id="line2d_29">
    <g clip-path="url(#p79429cb053)">
     <use style="fill:#0000ff;stroke:#0000ff;stroke-linejoin:miter;" x="111.539149" xlink:href="#m2a3d2ca129" y="181.086765"/>
    </g>
   </g>
   <g id="line2d_30">
    <g clip-path="url(#p79429cb053)">
     <use style="fill:#008000;stroke:#008000;stroke-linejoin:miter;" x="273.17496" xlink:href="#mea01e51981" y="188.231705"/>
    </g>
   </g>
   <g id="line2d_31">
    <g clip-path="url(#p79429cb053)">
     <use style="fill:#008000;stroke:#008000;stroke-linejoin:miter;" x="188.156202" xlink:href="#mea01e51981" y="255.186499"/>
    </g>
   </g>
   <g id="line2d_32">
    <g clip-path="url(#p79429cb053)">
     <use style="fill:#008000;stroke:#008000;stroke-linejoin:miter;" x="235.595493" xlink:href="#mea01e51981" y="207.690945"/>
    </g>
   </g>
   <g id="line2d_33">
    <g clip-path="url(#p79429cb053)">
     <use style="fill:#008000;stroke:#008000;stroke-linejoin:miter;" x="230.383279" xlink:href="#mea01e51981" y="141.030848"/>
    </g>
   </g>
   <g id="line2d_34">
    <g clip-path="url(#p79429cb053)">
     <use style="fill:#008000;stroke:#008000;stroke-linejoin:miter;" x="220.954637" xlink:href="#mea01e51981" y="211.260842"/>
    </g>
   </g>
   <g id="line2d_35">
    <g clip-path="url(#p79429cb053)">
     <use style="fill:#0000ff;stroke:#0000ff;stroke-linejoin:miter;" x="216.676261" xlink:href="#m2a3d2ca129" y="176.64567"/>
    </g>
   </g>
   <g id="line2d_36">
    <g clip-path="url(#p79429cb053)">
     <use style="fill:#0000ff;stroke:#0000ff;stroke-linejoin:miter;" x="185.428163" xlink:href="#m2a3d2ca129" y="185.313152"/>
    </g>
   </g>
   <g id="line2d_37">
    <g clip-path="url(#p79429cb053)">
     <use style="fill:#008000;stroke:#008000;stroke-linejoin:miter;" x="208.405535" xlink:href="#mea01e51981" y="198.505035"/>
    </g>
   </g>
   <g id="line2d_38">
    <g clip-path="url(#p79429cb053)">
     <use style="fill:#008000;stroke:#008000;stroke-linejoin:miter;" x="172.050347" xlink:href="#mea01e51981" y="220.942994"/>
    </g>
   </g>
   <g id="line2d_39">
    <g clip-path="url(#p79429cb053)">
     <use style="fill:#008000;stroke:#008000;stroke-linejoin:miter;" x="223.527233" xlink:href="#mea01e51981" y="238.931335"/>
    </g>
   </g>
   <g id="line2d_40">
    <g clip-path="url(#p79429cb053)">
     <use style="fill:#0000ff;stroke:#0000ff;stroke-linejoin:miter;" x="266.139789" xlink:href="#m2a3d2ca129" y="194.123098"/>
    </g>
   </g>
   <g id="line2d_41">
    <g clip-path="url(#p79429cb053)">
     <use style="fill:#0000ff;stroke:#0000ff;stroke-linejoin:miter;" x="224.173807" xlink:href="#m2a3d2ca129" y="193.14851"/>
    </g>
   </g>
   <g id="line2d_42">
    <g clip-path="url(#p79429cb053)">
     <use style="fill:#008000;stroke:#008000;stroke-linejoin:miter;" x="149.907657" xlink:href="#mea01e51981" y="211.991001"/>
    </g>
   </g>
   <g id="line2d_43">
    <g clip-path="url(#p79429cb053)">
     <use style="fill:#0000ff;stroke:#0000ff;stroke-linejoin:miter;" x="202.549576" xlink:href="#m2a3d2ca129" y="149.122296"/>
    </g>
   </g>
   <g id="line2d_44">
    <g clip-path="url(#p79429cb053)">
     <use style="fill:#008000;stroke:#008000;stroke-linejoin:miter;" x="186.792699" xlink:href="#mea01e51981" y="265.337667"/>
    </g>
   </g>
   <g id="line2d_45">
    <g clip-path="url(#p79429cb053)">
     <use style="fill:#0000ff;stroke:#0000ff;stroke-linejoin:miter;" x="204.838856" xlink:href="#m2a3d2ca129" y="242.181635"/>
    </g>
   </g>
   <g id="line2d_46">
    <g clip-path="url(#p79429cb053)">
     <use style="fill:#008000;stroke:#008000;stroke-linejoin:miter;" x="162.053167" xlink:href="#mea01e51981" y="297.420696"/>
    </g>
   </g>
   <g id="line2d_47">
    <g clip-path="url(#p79429cb053)">
     <use style="fill:#0000ff;stroke:#0000ff;stroke-linejoin:miter;" x="190.189515" xlink:href="#m2a3d2ca129" y="176.420607"/>
    </g>
   </g>
   <g id="line2d_48">
    <g clip-path="url(#p79429cb053)">
     <use style="fill:#0000ff;stroke:#0000ff;stroke-linejoin:miter;" x="190.507277" xlink:href="#m2a3d2ca129" y="184.323445"/>
    </g>
   </g>
   <g id="line2d_49">
    <g clip-path="url(#p79429cb053)">
     <use style="fill:#008000;stroke:#008000;stroke-linejoin:miter;" x="221.008285" xlink:href="#mea01e51981" y="108.626707"/>
    </g>
   </g>
   <g id="line2d_50">
    <g clip-path="url(#p79429cb053)">
     <use style="fill:#008000;stroke:#008000;stroke-linejoin:miter;" x="252.34145" xlink:href="#mea01e51981" y="164.805182"/>
    </g>
   </g>
   <g id="line2d_51">
    <g clip-path="url(#p79429cb053)">
     <use style="fill:#0000ff;stroke:#0000ff;stroke-linejoin:miter;" x="124.23912" xlink:href="#m2a3d2ca129" y="171.713681"/>
    </g>
   </g>
   <g id="line2d_52">
    <g clip-path="url(#p79429cb053)">
     <use style="fill:#0000ff;stroke:#0000ff;stroke-linejoin:miter;" x="171.023954" xlink:href="#m2a3d2ca129" y="201.875989"/>
    </g>
   </g>
   <g id="line2d_53">
    <g clip-path="url(#p79429cb053)">
     <use style="fill:#008000;stroke:#008000;stroke-linejoin:miter;" x="222.375464" xlink:href="#mea01e51981" y="194.108555"/>
    </g>
   </g>
   <g id="line2d_54">
    <g clip-path="url(#p79429cb053)">
     <use style="fill:#0000ff;stroke:#0000ff;stroke-linejoin:miter;" x="103.006253" xlink:href="#m2a3d2ca129" y="286.83774"/>
    </g>
   </g>
   <g id="line2d_55">
    <g clip-path="url(#p79429cb053)">
     <use style="fill:#0000ff;stroke:#0000ff;stroke-linejoin:miter;" x="85.868604" xlink:href="#m2a3d2ca129" y="229.972972"/>
    </g>
   </g>
   <g id="line2d_56">
    <g clip-path="url(#p79429cb053)">
     <use style="fill:#0000ff;stroke:#0000ff;stroke-linejoin:miter;" x="174.312579" xlink:href="#m2a3d2ca129" y="218.223008"/>
    </g>
   </g>
   <g id="line2d_57">
    <g clip-path="url(#p79429cb053)">
     <use style="fill:#008000;stroke:#008000;stroke-linejoin:miter;" x="181.752008" xlink:href="#mea01e51981" y="276.064141"/>
    </g>
   </g>
   <g id="line2d_58">
    <g clip-path="url(#p79429cb053)">
     <use style="fill:#008000;stroke:#008000;stroke-linejoin:miter;" x="185.589665" xlink:href="#mea01e51981" y="188.734934"/>
    </g>
   </g>
   <g id="line2d_59">
    <g clip-path="url(#p79429cb053)">
     <use style="fill:#0000ff;stroke:#0000ff;stroke-linejoin:miter;" x="196.374665" xlink:href="#m2a3d2ca129" y="193.974023"/>
    </g>
   </g>
   <g id="line2d_60">
    <g clip-path="url(#p79429cb053)">
     <use style="fill:#0000ff;stroke:#0000ff;stroke-linejoin:miter;" x="208.405046" xlink:href="#m2a3d2ca129" y="134.161729"/>
    </g>
   </g>
   <g id="line2d_61">
    <g clip-path="url(#p79429cb053)">
     <use style="fill:#008000;stroke:#008000;stroke-linejoin:miter;" x="134.13171" xlink:href="#mea01e51981" y="285.867348"/>
    </g>
   </g>
   <g id="line2d_62">
    <g clip-path="url(#p79429cb053)">
     <use style="fill:#008000;stroke:#008000;stroke-linejoin:miter;" x="229.614638" xlink:href="#mea01e51981" y="147.708347"/>
    </g>
   </g>
   <g id="line2d_63">
    <g clip-path="url(#p79429cb053)">
     <use style="fill:#0000ff;stroke:#0000ff;stroke-linejoin:miter;" x="102.086506" xlink:href="#m2a3d2ca129" y="247.111695"/>
    </g>
   </g>
   <g id="line2d_64">
    <g clip-path="url(#p79429cb053)">
     <use style="fill:#008000;stroke:#008000;stroke-linejoin:miter;" x="182.761531" xlink:href="#mea01e51981" y="211.182903"/>
    </g>
   </g>
   <g id="line2d_65">
    <g clip-path="url(#p79429cb053)">
     <use style="fill:#008000;stroke:#008000;stroke-linejoin:miter;" x="213.57318" xlink:href="#mea01e51981" y="207.007066"/>
    </g>
   </g>
   <g id="line2d_66">
    <g clip-path="url(#p79429cb053)">
     <use style="fill:#0000ff;stroke:#0000ff;stroke-linejoin:miter;" x="153.068751" xlink:href="#m2a3d2ca129" y="206.863093"/>
    </g>
   </g>
   <g id="line2d_67">
    <g clip-path="url(#p79429cb053)">
     <use style="fill:#008000;stroke:#008000;stroke-linejoin:miter;" x="103.552427" xlink:href="#mea01e51981" y="217.601201"/>
    </g>
   </g>
   <g id="line2d_68">
    <g clip-path="url(#p79429cb053)">
     <use style="fill:#0000ff;stroke:#0000ff;stroke-linejoin:miter;" x="132.627927" xlink:href="#m2a3d2ca129" y="199.77869"/>
    </g>
   </g>
   <g id="line2d_69">
    <g clip-path="url(#p79429cb053)">
     <use style="fill:#0000ff;stroke:#0000ff;stroke-linejoin:miter;" x="93.158515" xlink:href="#m2a3d2ca129" y="181.415041"/>
    </g>
   </g>
   <g id="line2d_70">
    <g clip-path="url(#p79429cb053)">
     <use style="fill:#008000;stroke:#008000;stroke-linejoin:miter;" x="186.183675" xlink:href="#mea01e51981" y="219.609524"/>
    </g>
   </g>
   <g id="line2d_71">
    <g clip-path="url(#p79429cb053)">
     <use style="fill:#0000ff;stroke:#0000ff;stroke-linejoin:miter;" x="164.639889" xlink:href="#m2a3d2ca129" y="225.255235"/>
    </g>
   </g>
   <g id="line2d_72">
    <g clip-path="url(#p79429cb053)">
     <use style="fill:#0000ff;stroke:#0000ff;stroke-linejoin:miter;" x="113.738313" xlink:href="#m2a3d2ca129" y="255.419978"/>
    </g>
   </g>
   <g id="line2d_73">
    <g clip-path="url(#p79429cb053)">
     <use style="fill:#008000;stroke:#008000;stroke-linejoin:miter;" x="185.535049" xlink:href="#mea01e51981" y="281.971166"/>
    </g>
   </g>
   <g id="line2d_74">
    <g clip-path="url(#p79429cb053)">
     <use style="fill:#008000;stroke:#008000;stroke-linejoin:miter;" x="154.132755" xlink:href="#mea01e51981" y="203.196843"/>
    </g>
   </g>
   <g id="line2d_75">
    <g clip-path="url(#p79429cb053)">
     <use style="fill:#008000;stroke:#008000;stroke-linejoin:miter;" x="143.522404" xlink:href="#mea01e51981" y="196.863248"/>
    </g>
   </g>
   <g id="line2d_76">
    <g clip-path="url(#p79429cb053)">
     <use style="fill:#0000ff;stroke:#0000ff;stroke-linejoin:miter;" x="178.320275" xlink:href="#m2a3d2ca129" y="178.1985"/>
    </g>
   </g>
   <g id="line2d_77">
    <g clip-path="url(#p79429cb053)">
     <use style="fill:#008000;stroke:#008000;stroke-linejoin:miter;" x="149.65872" xlink:href="#mea01e51981" y="243.561549"/>
    </g>
   </g>
   <g id="line2d_78">
    <g clip-path="url(#p79429cb053)">
     <use style="fill:#0000ff;stroke:#0000ff;stroke-linejoin:miter;" x="112.934891" xlink:href="#m2a3d2ca129" y="286.848791"/>
    </g>
   </g>
   <g id="line2d_79">
    <g clip-path="url(#p79429cb053)">
     <use style="fill:#0000ff;stroke:#0000ff;stroke-linejoin:miter;" x="182.489539" xlink:href="#m2a3d2ca129" y="185.990692"/>
    </g>
   </g>
   <g id="line2d_80">
    <g clip-path="url(#p79429cb053)">
     <use style="fill:#008000;stroke:#008000;stroke-linejoin:miter;" x="153.358649" xlink:href="#mea01e51981" y="302.645455"/>
    </g>
   </g>
   <g id="line2d_81">
    <g clip-path="url(#p79429cb053)">
     <use style="fill:#0000ff;stroke:#0000ff;stroke-linejoin:miter;" x="158.567433" xlink:href="#m2a3d2ca129" y="168.765895"/>
    </g>
   </g>
   <g id="line2d_82">
    <g clip-path="url(#p79429cb053)">
     <use style="fill:#008000;stroke:#008000;stroke-linejoin:miter;" x="124.175632" xlink:href="#mea01e51981" y="240.472635"/>
    </g>
   </g>
   <g id="line2d_83">
    <g clip-path="url(#p79429cb053)">
     <use style="fill:#0000ff;stroke:#0000ff;stroke-linejoin:miter;" x="87.476429" xlink:href="#m2a3d2ca129" y="246.3847"/>
    </g>
   </g>
   <g id="line2d_84">
    <g clip-path="url(#p79429cb053)">
     <use style="fill:#0000ff;stroke:#0000ff;stroke-linejoin:miter;" x="148.579978" xlink:href="#m2a3d2ca129" y="210.162002"/>
    </g>
   </g>
   <g id="line2d_85">
    <g clip-path="url(#p79429cb053)">
     <use style="fill:#008000;stroke:#008000;stroke-linejoin:miter;" x="60.869586" xlink:href="#mea01e51981" y="234.835919"/>
    </g>
   </g>
   <g id="line2d_86">
    <g clip-path="url(#p79429cb053)">
     <use style="fill:#0000ff;stroke:#0000ff;stroke-linejoin:miter;" x="112.767768" xlink:href="#m2a3d2ca129" y="200.301067"/>
    </g>
   </g>
   <g id="line2d_87">
    <g clip-path="url(#p79429cb053)">
     <use style="fill:#0000ff;stroke:#0000ff;stroke-linejoin:miter;" x="132.213891" xlink:href="#m2a3d2ca129" y="268.963227"/>
    </g>
   </g>
   <g id="line2d_88">
    <g clip-path="url(#p79429cb053)">
     <use style="fill:#0000ff;stroke:#0000ff;stroke-linejoin:miter;" x="113.603994" xlink:href="#m2a3d2ca129" y="274.845363"/>
    </g>
   </g>
   <g id="line2d_89">
    <g clip-path="url(#p79429cb053)">
     <use style="fill:#008000;stroke:#008000;stroke-linejoin:miter;" x="232.740241" xlink:href="#mea01e51981" y="141.460433"/>
    </g>
   </g>
   <g id="line2d_90">
    <g clip-path="url(#p79429cb053)">
     <use style="fill:#008000;stroke:#008000;stroke-linejoin:miter;" x="223.514102" xlink:href="#mea01e51981" y="244.952472"/>
    </g>
   </g>
   <g id="line2d_91">
    <g clip-path="url(#p79429cb053)">
     <use style="fill:#008000;stroke:#008000;stroke-linejoin:miter;" x="240.132089" xlink:href="#mea01e51981" y="233.513772"/>
    </g>
   </g>
   <g id="line2d_92">
    <g clip-path="url(#p79429cb053)">
     <use style="fill:#0000ff;stroke:#0000ff;stroke-linejoin:miter;" x="161.465129" xlink:href="#m2a3d2ca129" y="202.225319"/>
    </g>
   </g>
   <g id="line2d_93">
    <g clip-path="url(#p79429cb053)">
     <use style="fill:#008000;stroke:#008000;stroke-linejoin:miter;" x="143.615515" xlink:href="#mea01e51981" y="252.509277"/>
    </g>
   </g>
   <g id="line2d_94">
    <g clip-path="url(#p79429cb053)">
     <use style="fill:#008000;stroke:#008000;stroke-linejoin:miter;" x="243.35168" xlink:href="#mea01e51981" y="100.018259"/>
    </g>
   </g>
   <g id="line2d_95">
    <g clip-path="url(#p79429cb053)">
     <use style="fill:#0000ff;stroke:#0000ff;stroke-linejoin:miter;" x="169.325684" xlink:href="#m2a3d2ca129" y="253.791409"/>
    </g>
   </g>
   <g id="line2d_96">
    <g clip-path="url(#p79429cb053)">
     <use style="fill:#008000;stroke:#008000;stroke-linejoin:miter;" x="140.715816" xlink:href="#mea01e51981" y="268.130945"/>
    </g>
   </g>
   <g id="line2d_97">
    <g clip-path="url(#p79429cb053)">
     <use style="fill:#0000ff;stroke:#0000ff;stroke-linejoin:miter;" x="199.768481" xlink:href="#m2a3d2ca129" y="182.025829"/>
    </g>
   </g>
   <g id="line2d_98">
    <g clip-path="url(#p79429cb053)">
     <use style="fill:#0000ff;stroke:#0000ff;stroke-linejoin:miter;" x="160.618598" xlink:href="#m2a3d2ca129" y="233.461918"/>
    </g>
   </g>
   <g id="line2d_99">
    <g clip-path="url(#p79429cb053)">
     <use style="fill:#0000ff;stroke:#0000ff;stroke-linejoin:miter;" x="136.048976" xlink:href="#m2a3d2ca129" y="172.405531"/>
    </g>
   </g>
   <g id="line2d_100">
    <g clip-path="url(#p79429cb053)">
     <use style="fill:#0000ff;stroke:#0000ff;stroke-linejoin:miter;" x="130.896509" xlink:href="#m2a3d2ca129" y="227.255408"/>
    </g>
   </g>
   <g id="line2d_101">
    <path clip-path="url(#p79429cb053)" d="M 104.956761 55.554545 
L 311.318182 298.343358 
" style="fill:none;stroke:#008000;stroke-linecap:square;stroke-width:3;"/>
   </g>
   <g id="patch_3">
    <path d="M 45 315 
L 45 43.2 
" style="fill:none;stroke:#000000;stroke-linecap:square;stroke-linejoin:miter;stroke-width:0.8;"/>
   </g>
   <g id="patch_4">
    <path d="M 324 315 
L 324 43.2 
" style="fill:none;stroke:#000000;stroke-linecap:square;stroke-linejoin:miter;stroke-width:0.8;"/>
   </g>
   <g id="patch_5">
    <path d="M 45 315 
L 324 315 
" style="fill:none;stroke:#000000;stroke-linecap:square;stroke-linejoin:miter;stroke-width:0.8;"/>
   </g>
   <g id="patch_6">
    <path d="M 45 43.2 
L 324 43.2 
" style="fill:none;stroke:#000000;stroke-linecap:square;stroke-linejoin:miter;stroke-width:0.8;"/>
   </g>
   <g id="legend_1">
    <g id="patch_7">
     <path d="M 206.02 81.752813 
L 312.1 81.752813 
Q 315.5 81.752813 315.5 78.352813 
L 315.5 55.1 
Q 315.5 51.7 312.1 51.7 
L 206.02 51.7 
Q 202.62 51.7 202.62 55.1 
L 202.62 78.352813 
Q 202.62 81.752813 206.02 81.752813 
z
" style="fill:#ffffff;opacity:0.8;stroke:#cccccc;stroke-linejoin:miter;"/>
    </g>
    <g id="line2d_102">
     <path d="M 209.42 65.467344 
L 243.42 65.467344 
" style="fill:none;stroke:#008000;stroke-linecap:square;stroke-width:3;"/>
    </g>
    <g id="line2d_103"/>
    <g id="text_3">
     <!-- Cutoff -->
     <defs>
      <path d="M 64.40625 67.28125 
L 64.40625 56.890625 
Q 59.421875 61.53125 53.78125 63.8125 
Q 48.140625 66.109375 41.796875 66.109375 
Q 29.296875 66.109375 22.65625 58.46875 
Q 16.015625 50.828125 16.015625 36.375 
Q 16.015625 21.96875 22.65625 14.328125 
Q 29.296875 6.6875 41.796875 6.6875 
Q 48.140625 6.6875 53.78125 8.984375 
Q 59.421875 11.28125 64.40625 15.921875 
L 64.40625 5.609375 
Q 59.234375 2.09375 53.4375 0.328125 
Q 47.65625 -1.421875 41.21875 -1.421875 
Q 24.65625 -1.421875 15.125 8.703125 
Q 5.609375 18.84375 5.609375 36.375 
Q 5.609375 53.953125 15.125 64.078125 
Q 24.65625 74.21875 41.21875 74.21875 
Q 47.75 74.21875 53.53125 72.484375 
Q 59.328125 70.75 64.40625 67.28125 
z
" id="DejaVuSans-43"/>
      <path d="M 8.5 21.578125 
L 8.5 54.6875 
L 17.484375 54.6875 
L 17.484375 21.921875 
Q 17.484375 14.15625 20.5 10.265625 
Q 23.53125 6.390625 29.59375 6.390625 
Q 36.859375 6.390625 41.078125 11.03125 
Q 45.3125 15.671875 45.3125 23.6875 
L 45.3125 54.6875 
L 54.296875 54.6875 
L 54.296875 0 
L 45.3125 0 
L 45.3125 8.40625 
Q 42.046875 3.421875 37.71875 1 
Q 33.40625 -1.421875 27.6875 -1.421875 
Q 18.265625 -1.421875 13.375 4.4375 
Q 8.5 10.296875 8.5 21.578125 
z
M 31.109375 56 
z
" id="DejaVuSans-75"/>
      <path d="M 37.109375 75.984375 
L 37.109375 68.5 
L 28.515625 68.5 
Q 23.6875 68.5 21.796875 66.546875 
Q 19.921875 64.59375 19.921875 59.515625 
L 19.921875 54.6875 
L 34.71875 54.6875 
L 34.71875 47.703125 
L 19.921875 47.703125 
L 19.921875 0 
L 10.890625 0 
L 10.890625 47.703125 
L 2.296875 47.703125 
L 2.296875 54.6875 
L 10.890625 54.6875 
L 10.890625 58.5 
Q 10.890625 67.625 15.140625 71.796875 
Q 19.390625 75.984375 28.609375 75.984375 
z
" id="DejaVuSans-66"/>
     </defs>
     <g transform="translate(257.02 71.417344)scale(0.17 -0.17)">
      <use xlink:href="#DejaVuSans-43"/>
      <use x="69.824219" xlink:href="#DejaVuSans-75"/>
      <use x="133.203125" xlink:href="#DejaVuSans-74"/>
      <use x="172.412109" xlink:href="#DejaVuSans-6f"/>
      <use x="233.59375" xlink:href="#DejaVuSans-66"/>
      <use x="268.798828" xlink:href="#DejaVuSans-66"/>
     </g>
    </g>
   </g>
  </g>
 </g>
 <defs>
  <clipPath id="p79429cb053">
   <rect height="271.8" width="279" x="45" y="43.2"/>
  </clipPath>
 </defs>
</svg>
