<?xml version="1.0" encoding="utf-8" standalone="no"?>
<!DOCTYPE svg PUBLIC "-//W3C//DTD SVG 1.1//EN"
  "http://www.w3.org/Graphics/SVG/1.1/DTD/svg11.dtd">
<!-- Created with matplotlib (http://matplotlib.org/) -->
<svg height="360pt" version="1.1" viewBox="0 0 432 360" width="432pt" xmlns="http://www.w3.org/2000/svg" xmlns:xlink="http://www.w3.org/1999/xlink">
 <defs>
  <style type="text/css">
*{stroke-linecap:butt;stroke-linejoin:round;}
  </style>
 </defs>
 <g id="figure_1">
  <g id="patch_1">
   <path d="M 0 360 
L 432 360 
L 432 0 
L 0 0 
z
" style="fill:#ffffff;"/>
  </g>
  <g id="axes_1">
   <g id="patch_2">
    <path d="M 75.485 293.64 
L 410.14 293.64 
L 410.14 39.36 
L 75.485 39.36 
z
" style="fill:#ffffff;"/>
   </g>
   <g id="matplotlib.axis_1">
    <g id="xtick_1">
     <g id="line2d_1">
      <defs>
       <path d="M 0 0 
L 0 3.5 
" id="m22305ef91b" style="stroke:#000000;stroke-width:0.8;"/>
      </defs>
      <g>
       <use style="stroke:#000000;stroke-width:0.8;" x="90.696591" xlink:href="#m22305ef91b" y="293.64"/>
      </g>
     </g>
     <g id="text_1">
      <!-- 0 -->
      <defs>
       <path d="M 31.78125 66.40625 
Q 24.171875 66.40625 20.328125 58.90625 
Q 16.5 51.421875 16.5 36.375 
Q 16.5 21.390625 20.328125 13.890625 
Q 24.171875 6.390625 31.78125 6.390625 
Q 39.453125 6.390625 43.28125 13.890625 
Q 47.125 21.390625 47.125 36.375 
Q 47.125 51.421875 43.28125 58.90625 
Q 39.453125 66.40625 31.78125 66.40625 
z
M 31.78125 74.21875 
Q 44.046875 74.21875 50.515625 64.515625 
Q 56.984375 54.828125 56.984375 36.375 
Q 56.984375 17.96875 50.515625 8.265625 
Q 44.046875 -1.421875 31.78125 -1.421875 
Q 19.53125 -1.421875 13.0625 8.265625 
Q 6.59375 17.96875 6.59375 36.375 
Q 6.59375 54.828125 13.0625 64.515625 
Q 19.53125 74.21875 31.78125 74.21875 
z
" id="DejaVuSans-30"/>
      </defs>
      <g transform="translate(85.288466 313.557344)scale(0.17 -0.17)">
       <use xlink:href="#DejaVuSans-30"/>
      </g>
     </g>
    </g>
    <g id="xtick_2">
     <g id="line2d_2">
      <g>
       <use style="stroke:#000000;stroke-width:0.8;" x="151.542955" xlink:href="#m22305ef91b" y="293.64"/>
      </g>
     </g>
     <g id="text_2">
      <!-- 20 -->
      <defs>
       <path d="M 19.1875 8.296875 
L 53.609375 8.296875 
L 53.609375 0 
L 7.328125 0 
L 7.328125 8.296875 
Q 12.9375 14.109375 22.625 23.890625 
Q 32.328125 33.6875 34.8125 36.53125 
Q 39.546875 41.84375 41.421875 45.53125 
Q 43.3125 49.21875 43.3125 52.78125 
Q 43.3125 58.59375 39.234375 62.25 
Q 35.15625 65.921875 28.609375 65.921875 
Q 23.96875 65.921875 18.8125 64.3125 
Q 13.671875 62.703125 7.8125 59.421875 
L 7.8125 69.390625 
Q 13.765625 71.78125 18.9375 73 
Q 24.125 74.21875 28.421875 74.21875 
Q 39.75 74.21875 46.484375 68.546875 
Q 53.21875 62.890625 53.21875 53.421875 
Q 53.21875 48.921875 51.53125 44.890625 
Q 49.859375 40.875 45.40625 35.40625 
Q 44.1875 33.984375 37.640625 27.21875 
Q 31.109375 20.453125 19.1875 8.296875 
z
" id="DejaVuSans-32"/>
      </defs>
      <g transform="translate(140.726705 313.557344)scale(0.17 -0.17)">
       <use xlink:href="#DejaVuSans-32"/>
       <use x="63.623047" xlink:href="#DejaVuSans-30"/>
      </g>
     </g>
    </g>
    <g id="xtick_3">
     <g id="line2d_3">
      <g>
       <use style="stroke:#000000;stroke-width:0.8;" x="212.389318" xlink:href="#m22305ef91b" y="293.64"/>
      </g>
     </g>
     <g id="text_3">
      <!-- 40 -->
      <defs>
       <path d="M 37.796875 64.3125 
L 12.890625 25.390625 
L 37.796875 25.390625 
z
M 35.203125 72.90625 
L 47.609375 72.90625 
L 47.609375 25.390625 
L 58.015625 25.390625 
L 58.015625 17.1875 
L 47.609375 17.1875 
L 47.609375 0 
L 37.796875 0 
L 37.796875 17.1875 
L 4.890625 17.1875 
L 4.890625 26.703125 
z
" id="DejaVuSans-34"/>
      </defs>
      <g transform="translate(201.573068 313.557344)scale(0.17 -0.17)">
       <use xlink:href="#DejaVuSans-34"/>
       <use x="63.623047" xlink:href="#DejaVuSans-30"/>
      </g>
     </g>
    </g>
    <g id="xtick_4">
     <g id="line2d_4">
      <g>
       <use style="stroke:#000000;stroke-width:0.8;" x="273.235682" xlink:href="#m22305ef91b" y="293.64"/>
      </g>
     </g>
     <g id="text_4">
      <!-- 60 -->
      <defs>
       <path d="M 33.015625 40.375 
Q 26.375 40.375 22.484375 35.828125 
Q 18.609375 31.296875 18.609375 23.390625 
Q 18.609375 15.53125 22.484375 10.953125 
Q 26.375 6.390625 33.015625 6.390625 
Q 39.65625 6.390625 43.53125 10.953125 
Q 47.40625 15.53125 47.40625 23.390625 
Q 47.40625 31.296875 43.53125 35.828125 
Q 39.65625 40.375 33.015625 40.375 
z
M 52.59375 71.296875 
L 52.59375 62.3125 
Q 48.875 64.0625 45.09375 64.984375 
Q 41.3125 65.921875 37.59375 65.921875 
Q 27.828125 65.921875 22.671875 59.328125 
Q 17.53125 52.734375 16.796875 39.40625 
Q 19.671875 43.65625 24.015625 45.921875 
Q 28.375 48.1875 33.59375 48.1875 
Q 44.578125 48.1875 50.953125 41.515625 
Q 57.328125 34.859375 57.328125 23.390625 
Q 57.328125 12.15625 50.6875 5.359375 
Q 44.046875 -1.421875 33.015625 -1.421875 
Q 20.359375 -1.421875 13.671875 8.265625 
Q 6.984375 17.96875 6.984375 36.375 
Q 6.984375 53.65625 15.1875 63.9375 
Q 23.390625 74.21875 37.203125 74.21875 
Q 40.921875 74.21875 44.703125 73.484375 
Q 48.484375 72.75 52.59375 71.296875 
z
" id="DejaVuSans-36"/>
      </defs>
      <g transform="translate(262.419432 313.557344)scale(0.17 -0.17)">
       <use xlink:href="#DejaVuSans-36"/>
       <use x="63.623047" xlink:href="#DejaVuSans-30"/>
      </g>
     </g>
    </g>
    <g id="xtick_5">
     <g id="line2d_5">
      <g>
       <use style="stroke:#000000;stroke-width:0.8;" x="334.082045" xlink:href="#m22305ef91b" y="293.64"/>
      </g>
     </g>
     <g id="text_5">
      <!-- 80 -->
      <defs>
       <path d="M 31.78125 34.625 
Q 24.75 34.625 20.71875 30.859375 
Q 16.703125 27.09375 16.703125 20.515625 
Q 16.703125 13.921875 20.71875 10.15625 
Q 24.75 6.390625 31.78125 6.390625 
Q 38.8125 6.390625 42.859375 10.171875 
Q 46.921875 13.96875 46.921875 20.515625 
Q 46.921875 27.09375 42.890625 30.859375 
Q 38.875 34.625 31.78125 34.625 
z
M 21.921875 38.8125 
Q 15.578125 40.375 12.03125 44.71875 
Q 8.5 49.078125 8.5 55.328125 
Q 8.5 64.0625 14.71875 69.140625 
Q 20.953125 74.21875 31.78125 74.21875 
Q 42.671875 74.21875 48.875 69.140625 
Q 55.078125 64.0625 55.078125 55.328125 
Q 55.078125 49.078125 51.53125 44.71875 
Q 48 40.375 41.703125 38.8125 
Q 48.828125 37.15625 52.796875 32.3125 
Q 56.78125 27.484375 56.78125 20.515625 
Q 56.78125 9.90625 50.3125 4.234375 
Q 43.84375 -1.421875 31.78125 -1.421875 
Q 19.734375 -1.421875 13.25 4.234375 
Q 6.78125 9.90625 6.78125 20.515625 
Q 6.78125 27.484375 10.78125 32.3125 
Q 14.796875 37.15625 21.921875 38.8125 
z
M 18.3125 54.390625 
Q 18.3125 48.734375 21.84375 45.5625 
Q 25.390625 42.390625 31.78125 42.390625 
Q 38.140625 42.390625 41.71875 45.5625 
Q 45.3125 48.734375 45.3125 54.390625 
Q 45.3125 60.0625 41.71875 63.234375 
Q 38.140625 66.40625 31.78125 66.40625 
Q 25.390625 66.40625 21.84375 63.234375 
Q 18.3125 60.0625 18.3125 54.390625 
z
" id="DejaVuSans-38"/>
      </defs>
      <g transform="translate(323.265795 313.557344)scale(0.17 -0.17)">
       <use xlink:href="#DejaVuSans-38"/>
       <use x="63.623047" xlink:href="#DejaVuSans-30"/>
      </g>
     </g>
    </g>
    <g id="xtick_6">
     <g id="line2d_6">
      <g>
       <use style="stroke:#000000;stroke-width:0.8;" x="394.928409" xlink:href="#m22305ef91b" y="293.64"/>
      </g>
     </g>
     <g id="text_6">
      <!-- 100 -->
      <defs>
       <path d="M 12.40625 8.296875 
L 28.515625 8.296875 
L 28.515625 63.921875 
L 10.984375 60.40625 
L 10.984375 69.390625 
L 28.421875 72.90625 
L 38.28125 72.90625 
L 38.28125 8.296875 
L 54.390625 8.296875 
L 54.390625 0 
L 12.40625 0 
z
" id="DejaVuSans-31"/>
      </defs>
      <g transform="translate(378.704034 313.557344)scale(0.17 -0.17)">
       <use xlink:href="#DejaVuSans-31"/>
       <use x="63.623047" xlink:href="#DejaVuSans-30"/>
       <use x="127.246094" xlink:href="#DejaVuSans-30"/>
      </g>
     </g>
    </g>
    <g id="text_7">
     <!-- Score -->
     <defs>
      <path d="M 53.515625 70.515625 
L 53.515625 60.890625 
Q 47.90625 63.578125 42.921875 64.890625 
Q 37.9375 66.21875 33.296875 66.21875 
Q 25.25 66.21875 20.875 63.09375 
Q 16.5 59.96875 16.5 54.203125 
Q 16.5 49.359375 19.40625 46.890625 
Q 22.3125 44.4375 30.421875 42.921875 
L 36.375 41.703125 
Q 47.40625 39.59375 52.65625 34.296875 
Q 57.90625 29 57.90625 20.125 
Q 57.90625 9.515625 50.796875 4.046875 
Q 43.703125 -1.421875 29.984375 -1.421875 
Q 24.8125 -1.421875 18.96875 -0.25 
Q 13.140625 0.921875 6.890625 3.21875 
L 6.890625 13.375 
Q 12.890625 10.015625 18.65625 8.296875 
Q 24.421875 6.59375 29.984375 6.59375 
Q 38.421875 6.59375 43.015625 9.90625 
Q 47.609375 13.234375 47.609375 19.390625 
Q 47.609375 24.75 44.3125 27.78125 
Q 41.015625 30.8125 33.5 32.328125 
L 27.484375 33.5 
Q 16.453125 35.6875 11.515625 40.375 
Q 6.59375 45.0625 6.59375 53.421875 
Q 6.59375 63.09375 13.40625 68.65625 
Q 20.21875 74.21875 32.171875 74.21875 
Q 37.3125 74.21875 42.625 73.28125 
Q 47.953125 72.359375 53.515625 70.515625 
z
" id="DejaVuSans-53"/>
      <path d="M 48.78125 52.59375 
L 48.78125 44.1875 
Q 44.96875 46.296875 41.140625 47.34375 
Q 37.3125 48.390625 33.40625 48.390625 
Q 24.65625 48.390625 19.8125 42.84375 
Q 14.984375 37.3125 14.984375 27.296875 
Q 14.984375 17.28125 19.8125 11.734375 
Q 24.65625 6.203125 33.40625 6.203125 
Q 37.3125 6.203125 41.140625 7.25 
Q 44.96875 8.296875 48.78125 10.40625 
L 48.78125 2.09375 
Q 45.015625 0.34375 40.984375 -0.53125 
Q 36.96875 -1.421875 32.421875 -1.421875 
Q 20.0625 -1.421875 12.78125 6.34375 
Q 5.515625 14.109375 5.515625 27.296875 
Q 5.515625 40.671875 12.859375 48.328125 
Q 20.21875 56 33.015625 56 
Q 37.15625 56 41.109375 55.140625 
Q 45.0625 54.296875 48.78125 52.59375 
z
" id="DejaVuSans-63"/>
      <path d="M 30.609375 48.390625 
Q 23.390625 48.390625 19.1875 42.75 
Q 14.984375 37.109375 14.984375 27.296875 
Q 14.984375 17.484375 19.15625 11.84375 
Q 23.34375 6.203125 30.609375 6.203125 
Q 37.796875 6.203125 41.984375 11.859375 
Q 46.1875 17.53125 46.1875 27.296875 
Q 46.1875 37.015625 41.984375 42.703125 
Q 37.796875 48.390625 30.609375 48.390625 
z
M 30.609375 56 
Q 42.328125 56 49.015625 48.375 
Q 55.71875 40.765625 55.71875 27.296875 
Q 55.71875 13.875 49.015625 6.21875 
Q 42.328125 -1.421875 30.609375 -1.421875 
Q 18.84375 -1.421875 12.171875 6.21875 
Q 5.515625 13.875 5.515625 27.296875 
Q 5.515625 40.765625 12.171875 48.375 
Q 18.84375 56 30.609375 56 
z
" id="DejaVuSans-6f"/>
      <path d="M 41.109375 46.296875 
Q 39.59375 47.171875 37.8125 47.578125 
Q 36.03125 48 33.890625 48 
Q 26.265625 48 22.1875 43.046875 
Q 18.109375 38.09375 18.109375 28.8125 
L 18.109375 0 
L 9.078125 0 
L 9.078125 54.6875 
L 18.109375 54.6875 
L 18.109375 46.1875 
Q 20.953125 51.171875 25.484375 53.578125 
Q 30.03125 56 36.53125 56 
Q 37.453125 56 38.578125 55.875 
Q 39.703125 55.765625 41.0625 55.515625 
z
" id="DejaVuSans-72"/>
      <path d="M 56.203125 29.59375 
L 56.203125 25.203125 
L 14.890625 25.203125 
Q 15.484375 15.921875 20.484375 11.0625 
Q 25.484375 6.203125 34.421875 6.203125 
Q 39.59375 6.203125 44.453125 7.46875 
Q 49.3125 8.734375 54.109375 11.28125 
L 54.109375 2.78125 
Q 49.265625 0.734375 44.1875 -0.34375 
Q 39.109375 -1.421875 33.890625 -1.421875 
Q 20.796875 -1.421875 13.15625 6.1875 
Q 5.515625 13.8125 5.515625 26.8125 
Q 5.515625 40.234375 12.765625 48.109375 
Q 20.015625 56 32.328125 56 
Q 43.359375 56 49.78125 48.890625 
Q 56.203125 41.796875 56.203125 29.59375 
z
M 47.21875 32.234375 
Q 47.125 39.59375 43.09375 43.984375 
Q 39.0625 48.390625 32.421875 48.390625 
Q 24.90625 48.390625 20.390625 44.140625 
Q 15.875 39.890625 15.1875 32.171875 
z
" id="DejaVuSans-65"/>
     </defs>
     <g transform="translate(214.021406 336.593625)scale(0.204 -0.204)">
      <use xlink:href="#DejaVuSans-53"/>
      <use x="63.476562" xlink:href="#DejaVuSans-63"/>
      <use x="118.457031" xlink:href="#DejaVuSans-6f"/>
      <use x="179.638672" xlink:href="#DejaVuSans-72"/>
      <use x="220.720703" xlink:href="#DejaVuSans-65"/>
     </g>
    </g>
   </g>
   <g id="matplotlib.axis_2">
    <g id="ytick_1">
     <g id="line2d_7">
      <defs>
       <path d="M 0 0 
L -3.5 0 
" id="m9916be6f5d" style="stroke:#000000;stroke-width:0.8;"/>
      </defs>
      <g>
       <use style="stroke:#000000;stroke-width:0.8;" x="75.485" xlink:href="#m9916be6f5d" y="282.081818"/>
      </g>
     </g>
     <g id="text_8">
      <!-- 0.0 -->
      <defs>
       <path d="M 10.6875 12.40625 
L 21 12.40625 
L 21 0 
L 10.6875 0 
z
" id="DejaVuSans-2e"/>
      </defs>
      <g transform="translate(41.449688 288.54049)scale(0.17 -0.17)">
       <use xlink:href="#DejaVuSans-30"/>
       <use x="63.623047" xlink:href="#DejaVuSans-2e"/>
       <use x="95.410156" xlink:href="#DejaVuSans-30"/>
      </g>
     </g>
    </g>
    <g id="ytick_2">
     <g id="line2d_8">
      <g>
       <use style="stroke:#000000;stroke-width:0.8;" x="75.485" xlink:href="#m9916be6f5d" y="235.849091"/>
      </g>
     </g>
     <g id="text_9">
      <!-- 0.2 -->
      <g transform="translate(41.449688 242.307763)scale(0.17 -0.17)">
       <use xlink:href="#DejaVuSans-30"/>
       <use x="63.623047" xlink:href="#DejaVuSans-2e"/>
       <use x="95.410156" xlink:href="#DejaVuSans-32"/>
      </g>
     </g>
    </g>
    <g id="ytick_3">
     <g id="line2d_9">
      <g>
       <use style="stroke:#000000;stroke-width:0.8;" x="75.485" xlink:href="#m9916be6f5d" y="189.616364"/>
      </g>
     </g>
     <g id="text_10">
      <!-- 0.4 -->
      <g transform="translate(41.449688 196.075036)scale(0.17 -0.17)">
       <use xlink:href="#DejaVuSans-30"/>
       <use x="63.623047" xlink:href="#DejaVuSans-2e"/>
       <use x="95.410156" xlink:href="#DejaVuSans-34"/>
      </g>
     </g>
    </g>
    <g id="ytick_4">
     <g id="line2d_10">
      <g>
       <use style="stroke:#000000;stroke-width:0.8;" x="75.485" xlink:href="#m9916be6f5d" y="143.383636"/>
      </g>
     </g>
     <g id="text_11">
      <!-- 0.6 -->
      <g transform="translate(41.449688 149.842308)scale(0.17 -0.17)">
       <use xlink:href="#DejaVuSans-30"/>
       <use x="63.623047" xlink:href="#DejaVuSans-2e"/>
       <use x="95.410156" xlink:href="#DejaVuSans-36"/>
      </g>
     </g>
    </g>
    <g id="ytick_5">
     <g id="line2d_11">
      <g>
       <use style="stroke:#000000;stroke-width:0.8;" x="75.485" xlink:href="#m9916be6f5d" y="97.150909"/>
      </g>
     </g>
     <g id="text_12">
      <!-- 0.8 -->
      <g transform="translate(41.449688 103.609581)scale(0.17 -0.17)">
       <use xlink:href="#DejaVuSans-30"/>
       <use x="63.623047" xlink:href="#DejaVuSans-2e"/>
       <use x="95.410156" xlink:href="#DejaVuSans-38"/>
      </g>
     </g>
    </g>
    <g id="ytick_6">
     <g id="line2d_12">
      <g>
       <use style="stroke:#000000;stroke-width:0.8;" x="75.485" xlink:href="#m9916be6f5d" y="50.918182"/>
      </g>
     </g>
     <g id="text_13">
      <!-- 1.0 -->
      <g transform="translate(41.449688 57.376854)scale(0.17 -0.17)">
       <use xlink:href="#DejaVuSans-31"/>
       <use x="63.623047" xlink:href="#DejaVuSans-2e"/>
       <use x="95.410156" xlink:href="#DejaVuSans-30"/>
      </g>
     </g>
    </g>
    <g id="text_14">
     <!-- Density -->
     <defs>
      <path d="M 19.671875 64.796875 
L 19.671875 8.109375 
L 31.59375 8.109375 
Q 46.6875 8.109375 53.6875 14.9375 
Q 60.6875 21.78125 60.6875 36.53125 
Q 60.6875 51.171875 53.6875 57.984375 
Q 46.6875 64.796875 31.59375 64.796875 
z
M 9.8125 72.90625 
L 30.078125 72.90625 
Q 51.265625 72.90625 61.171875 64.09375 
Q 71.09375 55.28125 71.09375 36.53125 
Q 71.09375 17.671875 61.125 8.828125 
Q 51.171875 0 30.078125 0 
L 9.8125 0 
z
" id="DejaVuSans-44"/>
      <path d="M 54.890625 33.015625 
L 54.890625 0 
L 45.90625 0 
L 45.90625 32.71875 
Q 45.90625 40.484375 42.875 44.328125 
Q 39.84375 48.1875 33.796875 48.1875 
Q 26.515625 48.1875 22.3125 43.546875 
Q 18.109375 38.921875 18.109375 30.90625 
L 18.109375 0 
L 9.078125 0 
L 9.078125 54.6875 
L 18.109375 54.6875 
L 18.109375 46.1875 
Q 21.34375 51.125 25.703125 53.5625 
Q 30.078125 56 35.796875 56 
Q 45.21875 56 50.046875 50.171875 
Q 54.890625 44.34375 54.890625 33.015625 
z
" id="DejaVuSans-6e"/>
      <path d="M 44.28125 53.078125 
L 44.28125 44.578125 
Q 40.484375 46.53125 36.375 47.5 
Q 32.28125 48.484375 27.875 48.484375 
Q 21.1875 48.484375 17.84375 46.4375 
Q 14.5 44.390625 14.5 40.28125 
Q 14.5 37.15625 16.890625 35.375 
Q 19.28125 33.59375 26.515625 31.984375 
L 29.59375 31.296875 
Q 39.15625 29.25 43.1875 25.515625 
Q 47.21875 21.78125 47.21875 15.09375 
Q 47.21875 7.46875 41.1875 3.015625 
Q 35.15625 -1.421875 24.609375 -1.421875 
Q 20.21875 -1.421875 15.453125 -0.5625 
Q 10.6875 0.296875 5.421875 2 
L 5.421875 11.28125 
Q 10.40625 8.6875 15.234375 7.390625 
Q 20.0625 6.109375 24.8125 6.109375 
Q 31.15625 6.109375 34.5625 8.28125 
Q 37.984375 10.453125 37.984375 14.40625 
Q 37.984375 18.0625 35.515625 20.015625 
Q 33.0625 21.96875 24.703125 23.78125 
L 21.578125 24.515625 
Q 13.234375 26.265625 9.515625 29.90625 
Q 5.8125 33.546875 5.8125 39.890625 
Q 5.8125 47.609375 11.28125 51.796875 
Q 16.75 56 26.8125 56 
Q 31.78125 56 36.171875 55.265625 
Q 40.578125 54.546875 44.28125 53.078125 
z
" id="DejaVuSans-73"/>
      <path d="M 9.421875 54.6875 
L 18.40625 54.6875 
L 18.40625 0 
L 9.421875 0 
z
M 9.421875 75.984375 
L 18.40625 75.984375 
L 18.40625 64.59375 
L 9.421875 64.59375 
z
" id="DejaVuSans-69"/>
      <path d="M 18.3125 70.21875 
L 18.3125 54.6875 
L 36.8125 54.6875 
L 36.8125 47.703125 
L 18.3125 47.703125 
L 18.3125 18.015625 
Q 18.3125 11.328125 20.140625 9.421875 
Q 21.96875 7.515625 27.59375 7.515625 
L 36.8125 7.515625 
L 36.8125 0 
L 27.59375 0 
Q 17.1875 0 13.234375 3.875 
Q 9.28125 7.765625 9.28125 18.015625 
L 9.28125 47.703125 
L 2.6875 47.703125 
L 2.6875 54.6875 
L 9.28125 54.6875 
L 9.28125 70.21875 
z
" id="DejaVuSans-74"/>
      <path d="M 32.171875 -5.078125 
Q 28.375 -14.84375 24.75 -17.8125 
Q 21.140625 -20.796875 15.09375 -20.796875 
L 7.90625 -20.796875 
L 7.90625 -13.28125 
L 13.1875 -13.28125 
Q 16.890625 -13.28125 18.9375 -11.515625 
Q 21 -9.765625 23.484375 -3.21875 
L 25.09375 0.875 
L 2.984375 54.6875 
L 12.5 54.6875 
L 29.59375 11.921875 
L 46.6875 54.6875 
L 56.203125 54.6875 
z
" id="DejaVuSans-79"/>
     </defs>
     <g transform="translate(33.207125 205.277531)rotate(-90)scale(0.204 -0.204)">
      <use xlink:href="#DejaVuSans-44"/>
      <use x="77.001953" xlink:href="#DejaVuSans-65"/>
      <use x="138.525391" xlink:href="#DejaVuSans-6e"/>
      <use x="201.904297" xlink:href="#DejaVuSans-73"/>
      <use x="254.003906" xlink:href="#DejaVuSans-69"/>
      <use x="281.787109" xlink:href="#DejaVuSans-74"/>
      <use x="320.996094" xlink:href="#DejaVuSans-79"/>
     </g>
    </g>
   </g>
   <g id="line2d_13">
    <path clip-path="url(#p6cfd9471f5)" d="M 90.696591 282.081818 
L 92.21775 281.781305 
L 93.738909 280.047578 
L 95.260068 279.608367 
L 96.781227 279.030458 
L 98.302386 278.591247 
L 102.865864 276.34896 
L 104.387023 276.117796 
L 105.908182 274.915745 
L 108.9505 273.066436 
L 110.471659 272.650342 
L 115.035136 270.477404 
L 116.556295 270.200007 
L 118.077455 269.645215 
L 119.598614 269.298469 
L 121.119773 268.813025 
L 122.640932 268.581862 
L 124.162091 267.634091 
L 125.68325 267.148647 
L 127.204409 266.015945 
L 131.767886 263.658076 
L 133.289045 262.664073 
L 134.810205 262.016815 
L 137.852523 260.236855 
L 142.416 258.225731 
L 143.937159 257.740287 
L 145.458318 256.746284 
L 146.979477 256.399538 
L 148.500636 255.474884 
L 150.021795 254.804509 
L 151.542955 253.486876 
L 154.585273 251.984313 
L 156.106432 251.475753 
L 157.627591 250.643564 
L 160.669909 249.279698 
L 162.191068 248.771138 
L 163.712227 247.522855 
L 165.233386 246.944945 
L 166.754545 246.228338 
L 168.275705 245.742895 
L 172.839182 242.552836 
L 174.360341 241.859345 
L 175.8815 240.703527 
L 177.402659 239.848222 
L 178.923818 238.322542 
L 180.444977 237.790865 
L 181.966136 236.473233 
L 183.487295 235.432996 
L 185.008455 233.537455 
L 188.050773 231.665029 
L 191.093091 229.099113 
L 192.61425 228.174458 
L 194.135409 226.718127 
L 195.656568 225.816589 
L 197.177727 223.990396 
L 198.698886 223.181324 
L 200.220045 221.609411 
L 201.741205 220.823455 
L 203.262364 218.766098 
L 204.783523 218.072607 
L 206.304682 216.107716 
L 207.825841 215.483575 
L 209.347 213.518684 
L 210.868159 213.03324 
L 213.910477 210.767836 
L 215.431636 209.172807 
L 216.952795 208.433084 
L 218.473955 206.907404 
L 219.995114 205.9134 
L 223.037432 203.301251 
L 224.558591 201.521291 
L 229.122068 197.26788 
L 230.643227 195.719084 
L 232.164386 194.424567 
L 233.685545 192.390327 
L 235.206705 191.16516 
L 236.727864 189.292735 
L 238.249023 188.275615 
L 241.291341 185.802164 
L 242.8125 184.114669 
L 244.333659 183.190015 
L 245.854818 181.225124 
L 247.375977 180.092422 
L 248.897136 178.081298 
L 250.418295 176.601851 
L 254.981773 170.614713 
L 256.502932 169.389545 
L 258.024091 167.077909 
L 259.54525 166.130138 
L 261.066409 164.488876 
L 262.587568 163.125011 
L 264.108727 161.16012 
L 265.629886 160.004302 
L 267.151045 158.455505 
L 268.672205 157.137873 
L 270.193364 155.196098 
L 271.714523 153.901582 
L 273.235682 151.705527 
L 276.278 149.347658 
L 279.320318 146.388764 
L 280.841477 144.169593 
L 282.362636 142.736378 
L 285.404955 139.083993 
L 286.926114 138.251804 
L 288.447273 136.402495 
L 289.968432 135.339142 
L 293.01075 132.357131 
L 294.531909 131.709873 
L 296.053068 129.352004 
L 297.574227 128.750978 
L 299.095386 127.895673 
L 300.616545 126.046364 
L 303.658864 123.688495 
L 308.222341 121.006996 
L 309.7435 118.926524 
L 312.785818 116.268142 
L 314.306977 115.620884 
L 315.828136 114.511298 
L 317.349295 112.870036 
L 320.391614 110.281004 
L 321.912773 109.333233 
L 323.433932 108.131182 
L 324.955091 104.525029 
L 327.997409 102.490789 
L 329.518568 101.635484 
L 332.560886 99.393196 
L 335.603205 96.942862 
L 337.124364 94.746807 
L 344.730159 88.990833 
L 346.251318 87.233989 
L 349.293636 85.63896 
L 350.814795 83.951465 
L 352.335955 83.09616 
L 353.857114 81.616713 
L 355.378273 80.923222 
L 356.899432 79.420658 
L 358.420591 78.611585 
L 359.94175 77.109022 
L 361.462909 76.115018 
L 362.984068 74.45064 
L 369.068705 71.098767 
L 370.589864 69.966065 
L 373.632182 68.116756 
L 375.153341 66.660425 
L 376.6745 65.504607 
L 378.195659 63.562833 
L 379.716818 62.014036 
L 381.237977 61.413011 
L 382.759136 59.517469 
L 384.280295 59.008909 
L 385.801455 57.575695 
L 387.322614 55.703269 
L 388.843773 53.368516 
L 390.364932 51.81972 
L 391.886091 51.172462 
L 394.928409 50.918182 
L 394.928409 50.918182 
" style="fill:none;stroke:#0000ff;stroke-linecap:square;stroke-width:3;"/>
   </g>
   <g id="line2d_14">
    <path clip-path="url(#p6cfd9471f5)" d="M 90.696591 281.920004 
L 92.21775 279.330971 
L 93.738909 269.760796 
L 95.260068 267.125531 
L 98.302386 260.652949 
L 99.823545 256.191491 
L 101.344705 252.44664 
L 102.865864 248.37816 
L 104.387023 247.037411 
L 105.908182 241.119622 
L 107.429341 236.288302 
L 108.9505 231.873076 
L 110.471659 229.075996 
L 111.992818 225.007516 
L 113.513977 223.111975 
L 115.035136 219.783218 
L 116.556295 218.396236 
L 118.077455 215.992135 
L 119.598614 214.165942 
L 121.119773 211.692491 
L 122.640932 210.051229 
L 125.68325 205.034978 
L 127.204409 200.920265 
L 128.725568 198.701095 
L 130.246727 196.088945 
L 131.767886 193.754193 
L 133.289045 190.101807 
L 134.810205 187.882636 
L 136.331364 184.831276 
L 137.852523 182.889502 
L 139.373682 180.277353 
L 140.894841 178.335578 
L 142.416 176.139524 
L 148.500636 169.366429 
L 150.021795 168.141262 
L 151.542955 159.449509 
L 153.064114 157.160989 
L 154.585273 154.387025 
L 156.106432 152.861345 
L 157.627591 150.873338 
L 159.14875 149.46324 
L 160.669909 147.544582 
L 162.191068 146.018902 
L 163.712227 143.383636 
L 165.233386 141.950422 
L 166.754545 140.031764 
L 168.275705 138.575433 
L 169.796864 136.610542 
L 171.318023 135.200444 
L 172.839182 133.235553 
L 174.360341 131.825455 
L 175.8815 129.860564 
L 177.402659 128.566047 
L 178.923818 126.554924 
L 180.444977 125.699618 
L 181.966136 124.03524 
L 183.487295 122.925655 
L 185.008455 121.215044 
L 186.529614 120.313505 
L 188.050773 118.880291 
L 189.571932 117.816938 
L 194.135409 114.095204 
L 195.656568 112.985618 
L 197.177727 111.136309 
L 198.698886 110.5584 
L 200.220045 109.102069 
L 201.741205 108.454811 
L 203.262364 106.697967 
L 204.783523 106.027593 
L 206.304682 104.363215 
L 207.825841 103.646607 
L 209.347 102.42144 
L 210.868159 101.889764 
L 212.389318 101.034458 
L 213.910477 100.040455 
L 215.431636 98.815287 
L 216.952795 98.329844 
L 218.473955 97.012211 
L 219.995114 96.156905 
L 221.516273 94.954855 
L 223.037432 94.330713 
L 224.558591 93.082429 
L 229.122068 90.562745 
L 230.643227 89.684324 
L 232.164386 89.245113 
L 233.685545 88.204876 
L 235.206705 87.719433 
L 236.727864 86.841011 
L 238.249023 86.378684 
L 241.291341 85.1304 
L 242.8125 84.298211 
L 244.333659 83.859 
L 245.854818 83.165509 
L 248.897136 82.217738 
L 250.418295 81.686062 
L 254.981773 79.674938 
L 256.502932 79.351309 
L 258.024091 78.51912 
L 264.108727 76.48488 
L 265.629886 76.2306 
L 271.714523 74.381291 
L 273.235682 73.664684 
L 274.756841 73.387287 
L 279.320318 72.046538 
L 285.404955 70.220345 
L 289.968432 69.341924 
L 291.489591 68.995178 
L 294.531909 68.579084 
L 296.053068 67.978058 
L 299.095386 67.58508 
L 300.616545 67.192102 
L 303.658864 66.660425 
L 305.180023 66.31368 
L 308.222341 65.851353 
L 309.7435 65.458375 
L 312.785818 64.834233 
L 314.306977 64.649302 
L 315.828136 64.325673 
L 320.391614 63.123622 
L 321.912773 62.892458 
L 323.433932 62.522596 
L 324.955091 61.875338 
L 334.082045 60.395891 
L 337.124364 59.471236 
L 341.687841 58.777745 
L 344.730159 58.199836 
L 346.251318 57.853091 
L 349.293636 57.367647 
L 350.814795 56.882204 
L 355.378273 56.165596 
L 356.899432 55.795735 
L 358.420591 55.703269 
L 359.94175 55.425873 
L 361.462909 55.287175 
L 362.984068 54.986662 
L 366.026386 54.732382 
L 369.068705 54.524335 
L 370.589864 54.223822 
L 375.153341 53.576564 
L 379.716818 52.744375 
L 381.237977 52.651909 
L 382.759136 52.351396 
L 384.280295 52.258931 
L 385.801455 52.050884 
L 387.322614 51.727255 
L 388.843773 51.172462 
L 391.886091 50.941298 
L 394.928409 50.918182 
L 394.928409 50.918182 
" style="fill:none;stroke:#008000;stroke-dasharray:11.1,4.8;stroke-dashoffset:0;stroke-width:3;"/>
   </g>
   <g id="line2d_15">
    <path clip-path="url(#p6cfd9471f5)" d="M 90.696591 282.058702 
L 92.21775 280.995349 
L 93.738909 276.949985 
L 95.260068 275.747935 
L 96.781227 274.014207 
L 98.302386 272.742807 
L 99.823545 270.477404 
L 101.344705 268.743676 
L 102.865864 266.825018 
L 104.387023 266.085295 
L 105.908182 263.080167 
L 107.429341 260.560484 
L 108.9505 258.54936 
L 110.471659 257.116145 
L 111.992818 254.48088 
L 113.513977 253.46376 
L 115.035136 251.614451 
L 116.556295 250.643564 
L 118.077455 249.510862 
L 121.119773 246.944945 
L 122.640932 245.812244 
L 124.162091 244.217215 
L 125.68325 242.968931 
L 127.204409 240.403015 
L 128.725568 239.131615 
L 130.246727 237.328538 
L 131.767886 235.964673 
L 133.289045 233.306291 
L 134.810205 231.780611 
L 136.331364 229.792604 
L 137.852523 228.428738 
L 139.373682 226.556313 
L 140.894841 225.007516 
L 142.416 223.158207 
L 143.937159 222.048622 
L 145.458318 220.546058 
L 146.979477 219.436473 
L 148.500636 217.86456 
L 150.021795 216.870556 
L 151.542955 212.01612 
L 153.064114 210.582905 
L 154.585273 208.340618 
L 156.106432 207.392847 
L 157.627591 205.774702 
L 159.14875 204.526418 
L 160.669909 202.931389 
L 162.191068 201.035847 
L 163.712227 198.423698 
L 165.233386 197.0136 
L 166.754545 194.97936 
L 168.275705 193.846658 
L 169.796864 192.043582 
L 171.318023 190.425436 
L 172.839182 188.229382 
L 174.360341 186.657469 
L 175.8815 184.507647 
L 177.402659 182.843269 
L 178.923818 180.346702 
L 180.444977 179.121535 
L 181.966136 177.318458 
L 183.487295 176.347571 
L 185.008455 174.151516 
L 186.529614 172.880116 
L 188.050773 171.007691 
L 189.571932 169.412662 
L 192.61425 166.592465 
L 195.656568 163.541105 
L 197.177727 161.4144 
L 198.698886 160.39728 
L 200.220045 158.247458 
L 201.741205 157.34592 
L 203.262364 154.849353 
L 204.783523 154.063396 
L 206.304682 151.728644 
L 207.825841 150.98892 
L 209.347 149.047145 
L 210.868159 148.399887 
L 212.389318 147.151604 
L 213.910477 146.180716 
L 215.431636 144.608804 
L 216.952795 143.776615 
L 218.473955 141.996655 
L 219.995114 140.933302 
L 221.516273 139.29204 
L 223.037432 138.321153 
L 224.558591 136.379378 
L 226.07975 135.107978 
L 227.600909 133.628531 
L 230.643227 130.970149 
L 232.164386 130.184193 
L 233.685545 128.427349 
L 235.206705 127.641393 
L 236.727864 126.046364 
L 238.249023 125.191058 
L 241.291341 123.087469 
L 242.8125 121.700487 
L 244.333659 121.006996 
L 245.854818 119.666247 
L 247.375977 118.741593 
L 248.897136 117.42396 
L 254.981773 112.661989 
L 256.502932 111.945382 
L 258.024091 110.5584 
L 259.54525 109.703095 
L 261.066409 108.385462 
L 262.587568 107.483924 
L 264.108727 106.096942 
L 265.629886 105.334102 
L 267.151045 104.039585 
L 268.672205 103.161164 
L 270.193364 102.051578 
L 271.714523 101.219389 
L 273.235682 99.947989 
L 274.756841 99.231382 
L 283.883795 94.053316 
L 285.404955 92.989964 
L 286.926114 92.435171 
L 288.447273 91.441167 
L 289.968432 91.025073 
L 291.489591 90.123535 
L 293.01075 89.383811 
L 294.531909 88.921484 
L 296.053068 87.742549 
L 299.095386 86.864127 
L 300.616545 85.847007 
L 306.701182 83.419789 
L 308.222341 82.934345 
L 309.7435 81.917225 
L 315.828136 80.0448 
L 318.870455 78.172375 
L 323.433932 76.48488 
L 324.955091 74.9592 
L 327.997409 73.826498 
L 329.518568 73.43352 
L 335.603205 70.89072 
L 337.124364 69.896716 
L 341.687841 68.417269 
L 343.209 67.931825 
L 344.730159 67.307684 
L 346.251318 66.406145 
L 349.293636 65.504607 
L 350.814795 64.53372 
L 352.335955 64.140742 
L 353.857114 63.354785 
L 355.378273 63.077389 
L 356.899432 62.407015 
L 358.420591 62.037153 
L 359.94175 61.413011 
L 361.462909 61.135615 
L 362.984068 60.442124 
L 366.026386 59.609935 
L 367.547545 59.425004 
L 369.068705 59.101375 
L 370.589864 58.523465 
L 373.632182 57.783742 
L 375.153341 57.044018 
L 376.6745 56.535458 
L 378.195659 55.703269 
L 379.716818 55.056011 
L 381.237977 54.755498 
L 382.759136 54.062007 
L 384.280295 53.900193 
L 385.801455 53.414749 
L 387.322614 52.675025 
L 388.843773 51.704138 
L 390.364932 51.195578 
L 391.886091 50.964415 
L 394.928409 50.918182 
L 394.928409 50.918182 
" style="fill:none;stroke:#00bfbf;stroke-dasharray:19.2,4.8,3,4.8;stroke-dashoffset:0;stroke-width:3;"/>
   </g>
   <g id="line2d_16">
    <path clip-path="url(#p6cfd9471f5)" d="M 90.696591 282.058702 
L 92.21775 281.480793 
L 93.738909 279.40032 
L 95.260068 278.776178 
L 96.781227 277.920873 
L 98.302386 277.250498 
L 101.344705 275.239375 
L 102.865864 274.245371 
L 104.387023 273.898625 
L 105.908182 272.396062 
L 108.9505 269.876378 
L 110.471659 269.22912 
L 111.992818 267.95772 
L 113.513977 267.426044 
L 115.035136 266.339575 
L 116.556295 265.854131 
L 118.077455 265.114407 
L 119.598614 264.513382 
L 121.119773 263.704309 
L 122.640932 263.1264 
L 124.162091 262.155513 
L 125.68325 261.415789 
L 127.204409 259.982575 
L 128.725568 259.150385 
L 130.246727 258.0408 
L 131.767886 257.208611 
L 133.289045 255.706047 
L 134.810205 254.920091 
L 136.331364 253.671807 
L 137.852523 252.932084 
L 139.373682 251.822498 
L 140.894841 251.036542 
L 142.416 250.088771 
L 143.937159 249.418396 
L 145.458318 248.424393 
L 146.979477 247.777135 
L 148.500636 246.85248 
L 150.021795 246.251455 
L 151.542955 243.847353 
L 153.064114 243.061396 
L 154.585273 241.928695 
L 156.106432 241.304553 
L 157.627591 240.310549 
L 159.14875 239.593942 
L 162.191068 237.860215 
L 163.712227 236.473233 
L 165.233386 235.641044 
L 166.754545 234.600807 
L 168.275705 233.907316 
L 171.318023 231.988658 
L 172.839182 230.601676 
L 174.360341 229.792604 
L 175.8815 228.474971 
L 177.402659 227.642782 
L 178.923818 225.955287 
L 180.444977 224.961284 
L 181.966136 223.736116 
L 183.487295 222.927044 
L 185.008455 221.470713 
L 186.529614 220.638524 
L 188.050773 219.505822 
L 189.571932 218.558051 
L 191.093091 217.356 
L 192.61425 216.431345 
L 195.656568 214.05036 
L 197.177727 212.362865 
L 198.698886 211.76184 
L 200.220045 210.028113 
L 201.741205 209.265273 
L 203.262364 207.485313 
L 204.783523 206.699356 
L 206.304682 204.965629 
L 207.825841 204.272138 
L 209.347 202.746458 
L 210.868159 202.191665 
L 212.389318 200.966498 
L 213.910477 200.06496 
L 215.431636 198.724211 
L 216.952795 198.100069 
L 218.473955 196.620622 
L 219.995114 195.7422 
L 221.516273 194.308985 
L 223.037432 193.407447 
L 226.07975 190.679716 
L 229.122068 188.321847 
L 230.643227 187.004215 
L 232.164386 186.148909 
L 233.685545 184.392065 
L 235.206705 183.629225 
L 236.727864 181.826149 
L 238.249023 180.901495 
L 241.291341 178.70544 
L 242.8125 177.295342 
L 244.333659 176.601851 
L 245.854818 175.307335 
L 247.375977 174.313331 
L 248.897136 172.972582 
L 250.418295 172.047927 
L 254.981773 168.141262 
L 256.502932 167.447771 
L 258.024091 165.922091 
L 259.54525 165.066785 
L 261.066409 163.70292 
L 262.587568 162.847615 
L 264.108727 161.437516 
L 265.629886 160.605327 
L 267.151045 159.172113 
L 268.672205 158.201225 
L 270.193364 156.768011 
L 271.714523 155.750891 
L 273.235682 154.202095 
L 274.756841 153.462371 
L 282.362636 147.475233 
L 285.404955 144.701269 
L 286.926114 144.054011 
L 288.447273 142.713262 
L 289.968432 141.857956 
L 291.489591 140.470975 
L 294.531909 138.968411 
L 296.053068 137.350265 
L 297.574227 136.818589 
L 299.095386 136.101982 
L 300.616545 134.46072 
L 305.180023 131.478709 
L 308.222341 129.929913 
L 309.7435 128.196185 
L 315.828136 124.358869 
L 318.870455 121.006996 
L 323.433932 117.632007 
L 324.955091 115.112324 
L 327.997409 112.731338 
L 329.518568 111.714218 
L 331.039727 110.234771 
L 332.560886 109.217651 
L 335.603205 106.513036 
L 337.124364 104.039585 
L 341.687841 100.64148 
L 343.209 99.416313 
L 344.730159 97.751935 
L 346.251318 95.787044 
L 349.293636 93.590989 
L 350.814795 91.348702 
L 352.335955 90.054185 
L 353.857114 88.482273 
L 355.378273 87.534502 
L 356.899432 85.662076 
L 358.420591 84.737422 
L 359.94175 82.864996 
L 361.462909 81.847876 
L 362.984068 79.698055 
L 366.026386 77.478884 
L 367.547545 76.785393 
L 369.068705 75.698924 
L 370.589864 74.080778 
L 373.632182 71.792258 
L 375.153341 69.827367 
L 376.6745 68.209222 
L 378.195659 65.527724 
L 379.716818 63.470367 
L 381.237977 62.661295 
L 382.759136 60.511473 
L 384.280295 59.910447 
L 385.801455 58.384767 
L 387.322614 56.258062 
L 388.843773 53.368516 
L 390.364932 51.796604 
L 391.886091 51.126229 
L 393.40725 50.964415 
L 394.928409 50.918182 
L 394.928409 50.918182 
" style="fill:none;stroke:#ff0000;stroke-dasharray:3,4.95;stroke-dashoffset:0;stroke-width:3;"/>
   </g>
   <g id="patch_3">
    <path d="M 75.485 293.64 
L 75.485 39.36 
" style="fill:none;stroke:#000000;stroke-linecap:square;stroke-linejoin:miter;stroke-width:0.8;"/>
   </g>
   <g id="patch_4">
    <path d="M 410.14 293.64 
L 410.14 39.36 
" style="fill:none;stroke:#000000;stroke-linecap:square;stroke-linejoin:miter;stroke-width:0.8;"/>
   </g>
   <g id="patch_5">
    <path d="M 75.485 293.64 
L 410.14 293.64 
" style="fill:none;stroke:#000000;stroke-linecap:square;stroke-linejoin:miter;stroke-width:0.8;"/>
   </g>
   <g id="patch_6">
    <path d="M 75.485 39.36 
L 410.14 39.36 
" style="fill:none;stroke:#000000;stroke-linecap:square;stroke-linejoin:miter;stroke-width:0.8;"/>
   </g>
   <g id="text_15">
    <!-- Cumulative density -->
    <defs>
     <path d="M 64.40625 67.28125 
L 64.40625 56.890625 
Q 59.421875 61.53125 53.78125 63.8125 
Q 48.140625 66.109375 41.796875 66.109375 
Q 29.296875 66.109375 22.65625 58.46875 
Q 16.015625 50.828125 16.015625 36.375 
Q 16.015625 21.96875 22.65625 14.328125 
Q 29.296875 6.6875 41.796875 6.6875 
Q 48.140625 6.6875 53.78125 8.984375 
Q 59.421875 11.28125 64.40625 15.921875 
L 64.40625 5.609375 
Q 59.234375 2.09375 53.4375 0.328125 
Q 47.65625 -1.421875 41.21875 -1.421875 
Q 24.65625 -1.421875 15.125 8.703125 
Q 5.609375 18.84375 5.609375 36.375 
Q 5.609375 53.953125 15.125 64.078125 
Q 24.65625 74.21875 41.21875 74.21875 
Q 47.75 74.21875 53.53125 72.484375 
Q 59.328125 70.75 64.40625 67.28125 
z
" id="DejaVuSans-43"/>
     <path d="M 8.5 21.578125 
L 8.5 54.6875 
L 17.484375 54.6875 
L 17.484375 21.921875 
Q 17.484375 14.15625 20.5 10.265625 
Q 23.53125 6.390625 29.59375 6.390625 
Q 36.859375 6.390625 41.078125 11.03125 
Q 45.3125 15.671875 45.3125 23.6875 
L 45.3125 54.6875 
L 54.296875 54.6875 
L 54.296875 0 
L 45.3125 0 
L 45.3125 8.40625 
Q 42.046875 3.421875 37.71875 1 
Q 33.40625 -1.421875 27.6875 -1.421875 
Q 18.265625 -1.421875 13.375 4.4375 
Q 8.5 10.296875 8.5 21.578125 
z
M 31.109375 56 
z
" id="DejaVuSans-75"/>
     <path d="M 52 44.1875 
Q 55.375 50.25 60.0625 53.125 
Q 64.75 56 71.09375 56 
Q 79.640625 56 84.28125 50.015625 
Q 88.921875 44.046875 88.921875 33.015625 
L 88.921875 0 
L 79.890625 0 
L 79.890625 32.71875 
Q 79.890625 40.578125 77.09375 44.375 
Q 74.3125 48.1875 68.609375 48.1875 
Q 61.625 48.1875 57.5625 43.546875 
Q 53.515625 38.921875 53.515625 30.90625 
L 53.515625 0 
L 44.484375 0 
L 44.484375 32.71875 
Q 44.484375 40.625 41.703125 44.40625 
Q 38.921875 48.1875 33.109375 48.1875 
Q 26.21875 48.1875 22.15625 43.53125 
Q 18.109375 38.875 18.109375 30.90625 
L 18.109375 0 
L 9.078125 0 
L 9.078125 54.6875 
L 18.109375 54.6875 
L 18.109375 46.1875 
Q 21.1875 51.21875 25.484375 53.609375 
Q 29.78125 56 35.6875 56 
Q 41.65625 56 45.828125 52.96875 
Q 50 49.953125 52 44.1875 
z
" id="DejaVuSans-6d"/>
     <path d="M 9.421875 75.984375 
L 18.40625 75.984375 
L 18.40625 0 
L 9.421875 0 
z
" id="DejaVuSans-6c"/>
     <path d="M 34.28125 27.484375 
Q 23.390625 27.484375 19.1875 25 
Q 14.984375 22.515625 14.984375 16.5 
Q 14.984375 11.71875 18.140625 8.90625 
Q 21.296875 6.109375 26.703125 6.109375 
Q 34.1875 6.109375 38.703125 11.40625 
Q 43.21875 16.703125 43.21875 25.484375 
L 43.21875 27.484375 
z
M 52.203125 31.203125 
L 52.203125 0 
L 43.21875 0 
L 43.21875 8.296875 
Q 40.140625 3.328125 35.546875 0.953125 
Q 30.953125 -1.421875 24.3125 -1.421875 
Q 15.921875 -1.421875 10.953125 3.296875 
Q 6 8.015625 6 15.921875 
Q 6 25.140625 12.171875 29.828125 
Q 18.359375 34.515625 30.609375 34.515625 
L 43.21875 34.515625 
L 43.21875 35.40625 
Q 43.21875 41.609375 39.140625 45 
Q 35.0625 48.390625 27.6875 48.390625 
Q 23 48.390625 18.546875 47.265625 
Q 14.109375 46.140625 10.015625 43.890625 
L 10.015625 52.203125 
Q 14.9375 54.109375 19.578125 55.046875 
Q 24.21875 56 28.609375 56 
Q 40.484375 56 46.34375 49.84375 
Q 52.203125 43.703125 52.203125 31.203125 
z
" id="DejaVuSans-61"/>
     <path d="M 2.984375 54.6875 
L 12.5 54.6875 
L 29.59375 8.796875 
L 46.6875 54.6875 
L 56.203125 54.6875 
L 35.6875 0 
L 23.484375 0 
z
" id="DejaVuSans-76"/>
     <path id="DejaVuSans-20"/>
     <path d="M 45.40625 46.390625 
L 45.40625 75.984375 
L 54.390625 75.984375 
L 54.390625 0 
L 45.40625 0 
L 45.40625 8.203125 
Q 42.578125 3.328125 38.25 0.953125 
Q 33.9375 -1.421875 27.875 -1.421875 
Q 17.96875 -1.421875 11.734375 6.484375 
Q 5.515625 14.40625 5.515625 27.296875 
Q 5.515625 40.1875 11.734375 48.09375 
Q 17.96875 56 27.875 56 
Q 33.9375 56 38.25 53.625 
Q 42.578125 51.265625 45.40625 46.390625 
z
M 14.796875 27.296875 
Q 14.796875 17.390625 18.875 11.75 
Q 22.953125 6.109375 30.078125 6.109375 
Q 37.203125 6.109375 41.296875 11.75 
Q 45.40625 17.390625 45.40625 27.296875 
Q 45.40625 37.203125 41.296875 42.84375 
Q 37.203125 48.484375 30.078125 48.484375 
Q 22.953125 48.484375 18.875 42.84375 
Q 14.796875 37.203125 14.796875 27.296875 
z
" id="DejaVuSans-64"/>
    </defs>
    <g transform="translate(143.955375 33.36)scale(0.204 -0.204)">
     <use xlink:href="#DejaVuSans-43"/>
     <use x="69.824219" xlink:href="#DejaVuSans-75"/>
     <use x="133.203125" xlink:href="#DejaVuSans-6d"/>
     <use x="230.615234" xlink:href="#DejaVuSans-75"/>
     <use x="293.994141" xlink:href="#DejaVuSans-6c"/>
     <use x="321.777344" xlink:href="#DejaVuSans-61"/>
     <use x="383.056641" xlink:href="#DejaVuSans-74"/>
     <use x="422.265625" xlink:href="#DejaVuSans-69"/>
     <use x="450.048828" xlink:href="#DejaVuSans-76"/>
     <use x="509.228516" xlink:href="#DejaVuSans-65"/>
     <use x="570.751953" xlink:href="#DejaVuSans-20"/>
     <use x="602.539062" xlink:href="#DejaVuSans-64"/>
     <use x="666.015625" xlink:href="#DejaVuSans-65"/>
     <use x="727.539062" xlink:href="#DejaVuSans-6e"/>
     <use x="790.917969" xlink:href="#DejaVuSans-73"/>
     <use x="843.017578" xlink:href="#DejaVuSans-69"/>
     <use x="870.800781" xlink:href="#DejaVuSans-74"/>
     <use x="910.009766" xlink:href="#DejaVuSans-79"/>
    </g>
   </g>
   <g id="legend_1">
    <g id="patch_7">
     <path d="M 271.422656 285.14 
L 398.24 285.14 
Q 401.64 285.14 401.64 281.74 
L 401.64 183.62875 
Q 401.64 180.22875 398.24 180.22875 
L 271.422656 180.22875 
Q 268.022656 180.22875 268.022656 183.62875 
L 268.022656 281.74 
Q 268.022656 285.14 271.422656 285.14 
z
" style="fill:#ffffff;opacity:0.8;stroke:#cccccc;stroke-linejoin:miter;"/>
    </g>
    <g id="line2d_17">
     <path d="M 274.822656 193.996094 
L 308.822656 193.996094 
" style="fill:none;stroke:#0000ff;stroke-linecap:square;stroke-width:3;"/>
    </g>
    <g id="line2d_18"/>
    <g id="text_16">
     <!-- Asian -->
     <defs>
      <path d="M 34.1875 63.1875 
L 20.796875 26.90625 
L 47.609375 26.90625 
z
M 28.609375 72.90625 
L 39.796875 72.90625 
L 67.578125 0 
L 57.328125 0 
L 50.6875 18.703125 
L 17.828125 18.703125 
L 11.1875 0 
L 0.78125 0 
z
" id="DejaVuSans-41"/>
     </defs>
     <g transform="translate(322.422656 199.946094)scale(0.17 -0.17)">
      <use xlink:href="#DejaVuSans-41"/>
      <use x="68.408203" xlink:href="#DejaVuSans-73"/>
      <use x="120.507812" xlink:href="#DejaVuSans-69"/>
      <use x="148.291016" xlink:href="#DejaVuSans-61"/>
      <use x="209.570312" xlink:href="#DejaVuSans-6e"/>
     </g>
    </g>
    <g id="line2d_19">
     <path d="M 274.822656 218.948906 
L 308.822656 218.948906 
" style="fill:none;stroke:#008000;stroke-dasharray:11.1,4.8;stroke-dashoffset:0;stroke-width:3;"/>
    </g>
    <g id="line2d_20"/>
    <g id="text_17">
     <!-- Black -->
     <defs>
      <path d="M 19.671875 34.8125 
L 19.671875 8.109375 
L 35.5 8.109375 
Q 43.453125 8.109375 47.28125 11.40625 
Q 51.125 14.703125 51.125 21.484375 
Q 51.125 28.328125 47.28125 31.5625 
Q 43.453125 34.8125 35.5 34.8125 
z
M 19.671875 64.796875 
L 19.671875 42.828125 
L 34.28125 42.828125 
Q 41.5 42.828125 45.03125 45.53125 
Q 48.578125 48.25 48.578125 53.8125 
Q 48.578125 59.328125 45.03125 62.0625 
Q 41.5 64.796875 34.28125 64.796875 
z
M 9.8125 72.90625 
L 35.015625 72.90625 
Q 46.296875 72.90625 52.390625 68.21875 
Q 58.5 63.53125 58.5 54.890625 
Q 58.5 48.1875 55.375 44.234375 
Q 52.25 40.28125 46.1875 39.3125 
Q 53.46875 37.75 57.5 32.78125 
Q 61.53125 27.828125 61.53125 20.40625 
Q 61.53125 10.640625 54.890625 5.3125 
Q 48.25 0 35.984375 0 
L 9.8125 0 
z
" id="DejaVuSans-42"/>
      <path d="M 9.078125 75.984375 
L 18.109375 75.984375 
L 18.109375 31.109375 
L 44.921875 54.6875 
L 56.390625 54.6875 
L 27.390625 29.109375 
L 57.625 0 
L 45.90625 0 
L 18.109375 26.703125 
L 18.109375 0 
L 9.078125 0 
z
" id="DejaVuSans-6b"/>
     </defs>
     <g transform="translate(322.422656 224.898906)scale(0.17 -0.17)">
      <use xlink:href="#DejaVuSans-42"/>
      <use x="68.603516" xlink:href="#DejaVuSans-6c"/>
      <use x="96.386719" xlink:href="#DejaVuSans-61"/>
      <use x="157.666016" xlink:href="#DejaVuSans-63"/>
      <use x="212.646484" xlink:href="#DejaVuSans-6b"/>
     </g>
    </g>
    <g id="line2d_21">
     <path d="M 274.822656 243.901719 
L 308.822656 243.901719 
" style="fill:none;stroke:#00bfbf;stroke-dasharray:19.2,4.8,3,4.8;stroke-dashoffset:0;stroke-width:3;"/>
    </g>
    <g id="line2d_22"/>
    <g id="text_18">
     <!-- Hispanic -->
     <defs>
      <path d="M 9.8125 72.90625 
L 19.671875 72.90625 
L 19.671875 43.015625 
L 55.515625 43.015625 
L 55.515625 72.90625 
L 65.375 72.90625 
L 65.375 0 
L 55.515625 0 
L 55.515625 34.71875 
L 19.671875 34.71875 
L 19.671875 0 
L 9.8125 0 
z
" id="DejaVuSans-48"/>
      <path d="M 18.109375 8.203125 
L 18.109375 -20.796875 
L 9.078125 -20.796875 
L 9.078125 54.6875 
L 18.109375 54.6875 
L 18.109375 46.390625 
Q 20.953125 51.265625 25.265625 53.625 
Q 29.59375 56 35.59375 56 
Q 45.5625 56 51.78125 48.09375 
Q 58.015625 40.1875 58.015625 27.296875 
Q 58.015625 14.40625 51.78125 6.484375 
Q 45.5625 -1.421875 35.59375 -1.421875 
Q 29.59375 -1.421875 25.265625 0.953125 
Q 20.953125 3.328125 18.109375 8.203125 
z
M 48.6875 27.296875 
Q 48.6875 37.203125 44.609375 42.84375 
Q 40.53125 48.484375 33.40625 48.484375 
Q 26.265625 48.484375 22.1875 42.84375 
Q 18.109375 37.203125 18.109375 27.296875 
Q 18.109375 17.390625 22.1875 11.75 
Q 26.265625 6.109375 33.40625 6.109375 
Q 40.53125 6.109375 44.609375 11.75 
Q 48.6875 17.390625 48.6875 27.296875 
z
" id="DejaVuSans-70"/>
     </defs>
     <g transform="translate(322.422656 249.851719)scale(0.17 -0.17)">
      <use xlink:href="#DejaVuSans-48"/>
      <use x="75.195312" xlink:href="#DejaVuSans-69"/>
      <use x="102.978516" xlink:href="#DejaVuSans-73"/>
      <use x="155.078125" xlink:href="#DejaVuSans-70"/>
      <use x="218.554688" xlink:href="#DejaVuSans-61"/>
      <use x="279.833984" xlink:href="#DejaVuSans-6e"/>
      <use x="343.212891" xlink:href="#DejaVuSans-69"/>
      <use x="370.996094" xlink:href="#DejaVuSans-63"/>
     </g>
    </g>
    <g id="line2d_23">
     <path d="M 274.822656 268.854531 
L 308.822656 268.854531 
" style="fill:none;stroke:#ff0000;stroke-dasharray:3,4.95;stroke-dashoffset:0;stroke-width:3;"/>
    </g>
    <g id="line2d_24"/>
    <g id="text_19">
     <!-- White -->
     <defs>
      <path d="M 3.328125 72.90625 
L 13.28125 72.90625 
L 28.609375 11.28125 
L 43.890625 72.90625 
L 54.984375 72.90625 
L 70.3125 11.28125 
L 85.59375 72.90625 
L 95.609375 72.90625 
L 77.296875 0 
L 64.890625 0 
L 49.515625 63.28125 
L 33.984375 0 
L 21.578125 0 
z
" id="DejaVuSans-57"/>
      <path d="M 54.890625 33.015625 
L 54.890625 0 
L 45.90625 0 
L 45.90625 32.71875 
Q 45.90625 40.484375 42.875 44.328125 
Q 39.84375 48.1875 33.796875 48.1875 
Q 26.515625 48.1875 22.3125 43.546875 
Q 18.109375 38.921875 18.109375 30.90625 
L 18.109375 0 
L 9.078125 0 
L 9.078125 75.984375 
L 18.109375 75.984375 
L 18.109375 46.1875 
Q 21.34375 51.125 25.703125 53.5625 
Q 30.078125 56 35.796875 56 
Q 45.21875 56 50.046875 50.171875 
Q 54.890625 44.34375 54.890625 33.015625 
z
" id="DejaVuSans-68"/>
     </defs>
     <g transform="translate(322.422656 274.804531)scale(0.17 -0.17)">
      <use xlink:href="#DejaVuSans-57"/>
      <use x="98.876953" xlink:href="#DejaVuSans-68"/>
      <use x="162.255859" xlink:href="#DejaVuSans-69"/>
      <use x="190.039062" xlink:href="#DejaVuSans-74"/>
      <use x="229.248047" xlink:href="#DejaVuSans-65"/>
     </g>
    </g>
   </g>
  </g>
 </g>
 <defs>
  <clipPath id="p6cfd9471f5">
   <rect height="254.28" width="334.655" x="75.485" y="39.36"/>
  </clipPath>
 </defs>
</svg>
